<svg width="144" height="144" viewBox="0 0 144 144" fill="none" xmlns="http://www.w3.org/2000/svg">
<rect x="2" y="2" width="140" height="140" stroke="#FBFBFB" stroke-width="4"/>
<path d="M35.5 59.5V62H38L44 56H56V53.5H43L37 59.5H35.5Z" fill="#FBFBFB"/>
<path d="M35.8724 43H70V40.5H66H63.5H51H48.5H36.6348L35.8724 43Z" fill="#FBFBFB"/>
<path d="M85 43H107.54L106.639 40.5H95.5H93H85V43Z" fill="#FBFBFB"/>
<path d="M70 40.5V43H85V40.5H80.5H78H70Z" fill="#FBFBFB"/>
<path d="M88 52.5L85.6896 49.8045H72L70.5 51.4218L69.5 52.5V56.4L70.5 55L72.5 52.5H88Z" fill="#FBFBFB"/>
<path d="M56 53.5V56V67L57 68H58.5L59.5 67L60.5 68H62L63 67L64 68H65.5L66.5 67L67.5 68H69.5L70.5 67V61V58.5V55L69.5 56.4V52.5L70.5 51.4218L69.5 50.5H67.5L66.5 51.5L65.5 50.5H64L63 51.5L62 50.5H60.5L59.5 51.4218L58.5 50.5H57L56 51.4218V53.5Z" fill="#FBFBFB"/>
<path fill-rule="evenodd" clip-rule="evenodd" d="M35.5 62V59.5V54H29V59.5V62V62.5L30.5 64H31V65.5H27V68H31V72.5H27V75H37.5V72.5H33.5V68H37.5V65.5H33.5V64H34L35.5 62.5V62ZM33 56H31.5V62L32 62.5H32.5L33 62V56Z" fill="#FBFBFB"/>
<path d="M108 59.5H110.5V56H112V59.5H114.5V54H108V59.5Z" fill="#FBFBFB"/>
<path d="M114.5 62H112L111.5 62.5H111L110.5 62H108V62.5L109.5 64H110V65.5H106V68H110V72.5H106V75H116.5V72.5H112.5V68H116.5V65.5H112.5V64H113L114.5 62.5V62Z" fill="#FBFBFB"/>
<path fill-rule="evenodd" clip-rule="evenodd" d="M36 34H107L112.63 50H119V62H112V59.5H116.5V52.5H111L109.162 47.5L107.54 43L106.639 40.5L105.198 36.5H37.8547L36.6348 40.5L35.8724 43L34.5 47.5L33 52.5H26.5V59.5H29V62H24V50H31.1302L36 34ZM110.5 59.5H105.5L99.5 53.5H92L88.7151 49.8045H85.6896L88 52.5L89.8 54.6L91 56H92H99L105 62H110.5V59.5Z" fill="#FBFBFB"/>
<path d="M48.5 40.5H51V39H48.5V40.5Z" fill="#FBFBFB"/>
<path d="M63.5 39V40.5H66V39H63.5Z" fill="#FBFBFB"/>
<path d="M78 40.5H80.5V39H78V40.5Z" fill="#FBFBFB"/>
<path d="M93 40.5H95.5V39H93V40.5Z" fill="#FBFBFB"/>
<path d="M91 56L89.8 54.6V58.5H70.5V61H72H74.5H75H77.5H92V56H91Z" fill="#FBFBFB"/>
<path d="M72 61V78.5H74.5V61H72Z" fill="#FBFBFB"/>
<path d="M75 61V78.5H77.5V61H75Z" fill="#FBFBFB"/>
<path d="M82.5 61V78.5H85V61H82.5Z" fill="#FBFBFB"/>
<path d="M85.5 61V78.5H88V61H85.5Z" fill="#FBFBFB"/>
<path fill-rule="evenodd" clip-rule="evenodd" d="M74.5 78.5H72H71V90.5H77.5V88H79H81.5H82.5V90.5H89V78.5H88H85.5H85H82.5H81.5V80.5H78.5V78.5H77.5H75H74.5ZM76 81H73.5V88H75V85.5H85V88H86.5V81H84V83H76V81Z" fill="#FBFBFB"/>
<path d="M79 88V95C81 95 82 96.5 82 98C82 99.5 81.1137 101 79 101C76.5 101 76 99 76 98H73C73 99.5 74.6 103.5 79 103.5C84.5 103.5 85 99 85 98C85 97 85 94 81.5 92.5V88H79Z" fill="#FBFBFB"/>
<path d="M27 77H37.5V112H27V77Z" fill="#FBFBFB"/>
<path d="M106 77H116.5V112H106V77Z" fill="#FBFBFB"/>
</svg>
