<svg width="144" height="144" viewBox="0 0 144 144" fill="none" xmlns="http://www.w3.org/2000/svg">
<rect x="2" y="2" width="140" height="140" stroke="#FBFBFB" stroke-width="4"/>
<path fill-rule="evenodd" clip-rule="evenodd" d="M109 43H67.5H65H57H54.5H34.6453L28.5 48.5L28.6087 51L28.7174 53.5L28.8696 57L28.9783 59.5L29.1739 64L29.2826 66.5L29.4783 71L29.587 73.5L29.8261 79L29.9348 81.5L30.1304 86L30.2391 88.5L31 106H35.5L42.5 60H54.5H57H65H67.5H101.5L110.5 106H115L116 48.5L109 43ZM107.198 45.5H104.5H96H93H67.5H65H57H54.5H51H48H39.5H36.5L31.5 50L31.7991 58L31.8925 60.5L32.0607 65L32.528 77.5L32.6963 82L32.8832 87L33.5 103.5L35.2663 91L35.8315 87L37.2446 77L38 71.6538L38.587 67.5L39.6467 60L40 57.5H43H46H54.5H57H65H67.5H97.5H100.5H103.5L103.989 60L105.457 67.5L106.269 71.6538L107.315 77L109.272 87L110.054 91L112.5 103.5L112.808 87L112.902 82L112.986 77.5L113.22 65L113.304 60.5L113.35 58L113.5 50L107.198 45.5Z" fill="#FBFBFB"/>
<path d="M40 57.5H43L39.5 45.5H36.5L40 57.5Z" fill="#FBFBFB"/>
<path d="M32.0607 65L38 71.6538L38.587 67.5L31.8925 60.5L32.0607 65Z" fill="#FBFBFB"/>
<path d="M32.6963 82L37.2446 77L38 71.6538L32.528 77.5L32.6963 82Z" fill="#FBFBFB"/>
<path d="M32.8832 87L35.2663 91L35.8315 87L32.6963 82L32.8832 87Z" fill="#FBFBFB"/>
<path d="M107.198 45.5H104.5L100.5 57.5H103.5L107.198 45.5Z" fill="#FBFBFB"/>
<path d="M113.304 60.5L105.457 67.5L106.269 71.6538L113.22 65L113.304 60.5Z" fill="#FBFBFB"/>
<path d="M112.986 77.5L106.269 71.6538L107.315 77L112.902 82L112.986 77.5Z" fill="#FBFBFB"/>
<path d="M112.902 82L109.272 87L110.054 91L112.808 87L112.902 82Z" fill="#FBFBFB"/>
<path fill-rule="evenodd" clip-rule="evenodd" d="M55 33L52 36V42H54.5H57H65H67.5H70V36L67 33H55ZM54.5 37.5V39.5H67.5V37.5L65.5 35.5H56.5L54.5 37.5Z" fill="#FBFBFB"/>
<path d="M57 45.5H54.5V57.5H57V45.5Z" fill="#FBFBFB"/>
<path d="M65 43H67.5V42H65V43Z" fill="#FBFBFB"/>
<path d="M57 42H54.5V43H57V42Z" fill="#FBFBFB"/>
<path d="M65 57.5H67.5V45.5H65V57.5Z" fill="#FBFBFB"/>
<path d="M57 60H54.5V77.5H57V75V60Z" fill="#FBFBFB"/>
<path d="M65 77.5H67.5V60H65V75V77.5Z" fill="#FBFBFB"/>
<path d="M57 77.5H54.5L57 82H65L67.5 77.5H65L63.5 80H58.5L57 77.5Z" fill="#FBFBFB"/>
<path fill-rule="evenodd" clip-rule="evenodd" d="M77 33L74 36V42H76.5H79H87H89.5H92V36L89 33H77ZM76.5 37.5V39.5H89.5V37.5L87.5 35.5H78.5L76.5 37.5Z" fill="#FBFBFB"/>
<path d="M79 45.5H76.5V57.5H79V45.5Z" fill="#FBFBFB"/>
<path d="M87 43H89.5V42H87V43Z" fill="#FBFBFB"/>
<path d="M79 42H76.5V43H79V42Z" fill="#FBFBFB"/>
<path d="M87 57.5H89.5V45.5H87V57.5Z" fill="#FBFBFB"/>
<path d="M79 60H76.5V77.5H79V75V60Z" fill="#FBFBFB"/>
<path d="M87 77.5H89.5V60H87V75V77.5Z" fill="#FBFBFB"/>
<path d="M79 77.5H76.5L79 82H87L89.5 77.5H87L85.5 80H80.5L79 77.5Z" fill="#FBFBFB"/>
<path fill-rule="evenodd" clip-rule="evenodd" d="M65 82H57H53.5V88.5H56V92H53.5V98.5H91V92H88.5V88.5H91V82H87H79H65ZM88 84.5H56V86H58.5V94.5H56V96H88V94.5H86V86H88V84.5Z" fill="#FBFBFB"/>
<path d="M60.5 88.5V92H64.5V88.5H60.5Z" fill="#FBFBFB"/>
<path d="M67 88.5V92H71V88.5H67Z" fill="#FBFBFB"/>
<path d="M73 88.5V92H77V88.5H73Z" fill="#FBFBFB"/>
<path d="M79.5 88.5V92H84V88.5H79.5Z" fill="#FBFBFB"/>
<path d="M28.6087 51H20.5V53.5H20.8448H28.7174L28.6087 51Z" fill="#FBFBFB"/>
<path d="M28.8696 57H21.046H20.5V59.5H21.1897H28.9783L28.8696 57Z" fill="#FBFBFB"/>
<path d="M29.1739 64H21.4483H20.5V66.5H21.592H29.2826L29.1739 64Z" fill="#FBFBFB"/>
<path d="M29.4783 71H21.8506H20.5V73.5H21.9943H29.587L29.4783 71Z" fill="#FBFBFB"/>
<path d="M29.8261 79H22.3103H20.5V81.5H22.454H29.9348L29.8261 79Z" fill="#FBFBFB"/>
<path d="M30.1304 86H22.7126H20.5V88.5H22.8563H30.2391L30.1304 86Z" fill="#FBFBFB"/>
<path d="M20.5 53.5V51V47.5H18L20.5 91V88.5V86V81.5V79V73.5V71V66.5V64V59.5V57V53.5Z" fill="#FBFBFB"/>
<path d="M20.5 88.5V91H23L22.8563 88.5H20.5Z" fill="#FBFBFB"/>
<path d="M20.5 81.5V86H22.7126L22.454 81.5H20.5Z" fill="#FBFBFB"/>
<path d="M20.5 73.5V79H22.3103L21.9943 73.5H20.5Z" fill="#FBFBFB"/>
<path d="M20.5 66.5V71H21.8506L21.592 66.5H20.5Z" fill="#FBFBFB"/>
<path d="M20.5 59.5V64H21.4483L21.1897 59.5H20.5Z" fill="#FBFBFB"/>
<path d="M20.5 53.5V57H21.046L20.8448 53.5H20.5Z" fill="#FBFBFB"/>
<path d="M57 75V77.5H65V75H57Z" fill="#FBFBFB"/>
<path d="M79 77.5H87V75H79V77.5Z" fill="#FBFBFB"/>
<path d="M39.6467 60L40 57.5L31.7991 58L31.8925 60.5L39.6467 60Z" fill="#FBFBFB"/>
<path d="M103.5 57.5L103.989 60L113.304 60.5L113.35 58L103.5 57.5Z" fill="#FBFBFB"/>
<path d="M48 45.5L43 57.5H46L51 45.5H48Z" fill="#FBFBFB"/>
<path d="M100.5 57.5L96 45.5H93L97.5 57.5H100.5Z" fill="#FBFBFB"/>
<path d="M28 108H38V115H28V108Z" fill="#FBFBFB"/>
<path d="M108 108H118V115H108V108Z" fill="#FBFBFB"/>
</svg>
