<svg width="384" height="776" viewBox="0 0 384 776" fill="none" xmlns="http://www.w3.org/2000/svg">
<path fill-rule="evenodd" clip-rule="evenodd" d="M384 172.329L316.721 183.803C319.328 190.151 362.919 279.38 366.139 283.917C367.183 285.395 367.952 286.402 368.896 287.638C369.284 288.146 369.702 288.693 370.18 289.327L380.804 298.712C381.786 299.318 382.856 299.927 384 300.539V362.379C373.039 339.966 363.219 320.522 361.12 318.357C360.617 317.838 360.204 317.426 359.832 317.054C358.961 316.185 358.316 315.541 357.275 314.29L352.934 310.236C352.842 310.171 352.738 310.053 352.66 309.988C352.607 309.949 352.556 309.907 352.506 309.864C352.46 309.824 352.416 309.783 352.373 309.74L348.671 307.133C342.964 303.281 337.992 301.545 332.875 299.759C330.979 299.098 329.064 298.429 327.084 297.643C325.733 297.109 325.081 296.699 324.43 296.288C323.794 295.887 323.158 295.486 321.87 294.971C319.439 294.009 317.064 292.984 314.623 291.931C313.36 291.386 312.079 290.834 310.763 290.278L131.979 217.422C128.786 216.122 127.609 215.55 126.391 215.445C125.069 215.331 123.699 215.767 119.648 216.418L0 236.03V217.987L95.2317 202.053C86.3878 198.487 77.6882 194.754 68.9985 191.025C60.5632 187.406 52.1373 183.79 43.5974 180.335C28.085 174.039 19.2598 170.637 8.58362 187.349L0 204.267V141.988C8.11499 142.803 14.2285 139.42 19.9247 127.71C20.2319 127.06 23.3193 120.827 28.0369 111.303C41.9381 83.2388 69.994 26.5994 82.7827 0H102.336C91.4333 22.0775 70.4287 64.7848 55.3114 95.5219C45.775 114.912 38.5815 129.538 37.7444 131.217L34.0292 139.612C31.6177 149.063 36.8058 158.149 45.7614 162.607L129.542 196.252L290.271 169.607C290.286 169.508 290.286 169.407 290.271 169.307C289.19 166.995 286.587 161.363 282.925 153.439C266.289 117.441 227.795 34.1458 210.754 0H230.777L232.549 3.78034L232.66 3.8881C254.105 49.7417 308.415 165.832 309.681 166.465C310.568 166.935 368.342 157.08 370.949 155.398C373.077 154.153 374.683 152.182 375.474 149.847C376.264 147.512 376.185 144.97 375.251 142.688L232.66 3.8881C232.279 3.07398 231.909 2.282 231.549 1.5132L230.842 0H255.662C285.288 29.0699 352.47 93.592 380.128 120.155C381.523 121.494 382.816 122.737 384 123.874V172.329ZM384 544.742C383.875 545.045 383.76 545.328 383.652 545.595C382.562 548.274 382.2 549.163 380.465 549.805L209.959 599.445C207.555 600.094 205.901 598.913 204.125 597.644C203.618 597.282 203.101 596.913 202.554 596.577C192.751 590.516 183.587 584.819 174.006 578.783L0 470.028V491.253C1.62225 491.86 2.95782 492.75 4.39417 493.707C4.97479 494.094 5.5719 494.491 6.21112 494.886L186.325 606.875L16.9407 658.397L0 585.364V663.077L0.279907 664.271L0 664.358V680.946L3.90387 679.758L12.1945 716.961C8.10474 710.933 3.99591 704.831 0 698.841V730.437L22.9099 765.259L25.2953 776H52.2922C49.6851 771.985 45.3442 765.571 39.9866 757.75L20.6238 674.275C24.4803 672.087 130.385 640.397 175.632 626.858C186.966 623.467 194.494 621.214 195.658 620.85C200.612 619.172 202.45 618.428 204.089 618.738C205.684 619.04 207.091 620.341 211.001 622.753L316.056 689.639L312.145 698.281L276.414 775.987H296.111L328.805 704.695L331.281 699.285L384 732.94V711.621L338.868 682.873L341.032 678.154C343.942 671.862 348.006 662.954 352.606 652.871C362.665 630.824 375.287 603.162 384 584.948V544.742ZM20.6238 674.275C20.6113 674.282 20.5999 674.289 20.5895 674.296L16.9134 658.405L16.9407 658.397L20.6238 674.275ZM162.693 209.566C162.718 209.513 162.743 209.446 162.769 209.366L299.109 186.436C300.441 187.595 311.299 210.85 320.327 230.187C325.613 241.508 330.272 251.486 332.025 254.899C332.201 255.246 332.371 255.572 332.533 255.883C333.925 258.552 334.732 260.101 334.254 264.024C333.968 266.918 332.648 269.613 330.536 271.612C328.424 273.611 325.662 274.782 322.756 274.909C317.556 275.072 302.558 268.498 293.783 264.652C292.044 263.889 290.549 263.234 289.424 262.76C267.824 253.661 246.471 244.81 225.015 236.115L224.581 235.941C218.878 233.659 164.132 211.746 162.952 209.9C162.849 209.739 162.763 209.633 162.693 209.566ZM162.693 209.566C162.554 209.873 162.451 209.777 162.433 209.651C162.415 209.524 162.485 209.368 162.693 209.566ZM329.287 660.999L323.695 673.149L235.704 617.017C234.428 616.255 233.41 615.567 232.408 614.889C231.148 614.038 229.913 613.203 228.222 612.259C230.058 610.911 290.937 593.491 332.966 581.465C351.489 576.165 366.35 571.913 370.884 570.545L329.287 660.999Z" fill="url(#paint0_linear)" fill-opacity="0.32"/>
<defs>
<linearGradient id="paint0_linear" x1="384" y1="3.2987e-05" x2="515.518" y2="675.652" gradientUnits="userSpaceOnUse">
<stop stop-color="#3B3A39" stop-opacity="0.19"/>
<stop offset="0.487942" stop-color="#3B3A39" stop-opacity="0"/>
</linearGradient>
</defs>
</svg>
