<svg width="685" height="776" viewBox="0 0 685 776" fill="none" xmlns="http://www.w3.org/2000/svg">
<path fill-rule="evenodd" clip-rule="evenodd" d="M685.111 151.986L621.348 162.45C613.866 163.676 610.698 172.631 614.635 178.393C620.449 186.879 672.201 235.346 679.461 239.035C681.219 239.925 683.14 240.522 685.111 240.809V313.502L678.94 326.582C678.513 327.512 678.093 328.399 677.669 329.294C677.005 330.696 676.332 332.116 675.616 333.739C674.951 335.23 674.148 336.819 673.324 338.449C671.755 341.552 670.113 344.8 669.215 347.792C671.649 348.815 677.546 351.29 685.111 354.45V372.866C672.674 367.81 662.148 363.62 661.198 363.565L619.875 452.742C619.797 454.045 637.865 490.31 640.98 496.515C641.619 497.795 642.19 499.021 642.735 500.19C644.594 504.176 646.145 507.502 648.997 510.073C659.032 519.126 665.319 517.187 677.315 513.488C678.705 513.059 680.172 512.607 681.73 512.145C682.851 511.815 683.978 511.484 685.111 511.153V529.677C676.362 532.997 668.934 538.454 669.02 549.975C669.286 553.869 670.351 557.668 672.148 561.133C672.587 561.561 677.703 571.945 685.111 587.236V628.911L653.39 563.141C643.286 542.412 635.618 544.526 616.475 549.804L615.052 550.196L591.588 557.249C590.453 557.594 589.267 557.881 588.038 558.178C586.628 558.519 585.161 558.874 583.649 559.347C571.695 563.088 568.943 562.854 567.577 564.117C566.677 564.95 566.379 566.432 564.448 570.128C557.377 583.481 539.233 623.249 525.716 652.874C521.116 662.956 517.052 671.863 514.143 678.154L511.979 682.873L658.161 775.987H624.542L504.392 699.285L501.916 704.695L469.222 775.987H449.525L485.256 698.281L489.167 689.639L384.112 622.753C380.202 620.341 378.795 619.04 377.2 618.738C375.561 618.428 373.723 619.172 368.769 620.85C367.605 621.214 360.077 623.467 348.743 626.858C303.496 640.397 197.591 672.087 193.735 674.275L190.052 658.397L359.436 606.875L179.322 494.886C178.683 494.491 178.086 494.094 177.505 493.707C174.806 491.908 172.462 490.346 167.903 490.454C159.117 490.649 153.147 497.689 155.063 507.557L190.052 658.397L190.024 658.405L193.7 674.296C193.711 674.289 193.722 674.282 193.735 674.275L213.098 757.75C218.455 765.571 222.796 771.985 225.403 776H198.406L196.021 765.259L146.055 689.313L0 734.981L4.97107 716.255L137.008 675.495L50.7268 543.894L56.6854 521.448C78.2377 554.012 118.926 616.124 154.242 670.19L173.391 664.271L135.77 503.698C134.853 500.069 134.076 496.628 133.336 493.351C129.415 475.989 126.526 463.195 109.321 451.177C101.142 446.259 93.0101 441.252 84.8728 436.242C83.2777 435.259 81.6825 434.277 80.0867 433.296L84.839 415.393C92.2058 419.781 99.9185 422.832 105.436 419.631C109.073 417.532 112.397 414.091 112.645 408.903C108.502 389.732 105.143 374.586 100.63 355.908L128.161 252.198L133.058 242.946L130.504 243.373L135.586 224.229C140.317 223.356 143.622 222.668 143.787 222.519L153.942 203.187C154.647 201.736 156.117 198.937 157.803 195.726C161.131 189.388 165.304 181.441 166.117 179.071C166.815 176.973 167.107 174.761 166.977 172.553C166.786 162.312 160.53 157.643 154.064 154.624L158.515 137.856C174.719 144.064 184.361 145.542 193.036 127.71C193.343 127.059 196.433 120.821 201.154 111.29C215.057 83.2223 243.107 26.5955 255.894 0H275.447C264.549 22.0673 243.559 64.7455 228.443 95.4794C218.896 114.89 211.693 129.537 210.855 131.217L207.14 139.612C204.729 149.063 209.917 158.149 218.872 162.607L302.652 196.252L463.382 169.607C463.397 169.508 463.397 169.407 463.382 169.307C462.301 166.996 459.699 161.366 456.038 153.444C439.403 117.449 400.906 34.1474 383.865 0H403.888L405.66 3.78035L405.771 3.88812C427.216 49.7417 481.526 165.832 482.792 166.465C483.679 166.935 541.453 157.08 544.06 155.398C546.188 154.153 547.794 152.182 548.585 149.847C549.375 147.512 549.296 144.97 548.362 142.688L405.771 3.88812C405.391 3.0752 405.021 2.28433 404.662 1.51659L403.953 0H428.773C458.396 29.0665 525.565 93.577 553.229 120.146C560.552 127.179 565.107 131.553 565.464 131.908C566.885 133.328 568.153 134.501 569.46 135.71C570.803 136.953 572.188 138.234 573.82 139.86C575.842 141.932 578.184 143.666 580.755 144.996C587.052 148.033 593.126 148.111 599.357 147.29C601.612 147.003 603.881 146.586 606.201 146.156L685.111 133.056V151.986ZM676.229 288.597C674.925 291.543 673.504 294.515 672.201 297.213L652.282 339.996L595.707 316.962C591.666 315.18 586.839 313.265 581.823 311.275C571.644 307.236 560.682 302.886 553.915 298.712L543.291 289.327C542.813 288.693 542.396 288.147 542.008 287.64C541.063 286.403 540.294 285.396 539.25 283.917C536.03 279.38 492.439 190.151 489.832 183.803L562.062 171.484C578.12 168.742 581.941 172.54 592.061 182.599L592.892 183.425L592.908 183.441C597.374 187.868 601.864 192.319 604.91 195.157L668.902 255.916C669.817 256.786 670.762 257.602 671.705 258.416C675.17 261.407 678.597 264.366 680.309 269.838C682.242 275.866 679.849 280.899 677.557 285.721C677.099 286.686 676.644 287.642 676.229 288.597ZM242.109 191.025C250.799 194.754 259.499 198.487 268.343 202.053L165.504 219.26L181.695 187.349C192.371 170.637 201.196 174.039 216.708 180.335C225.248 183.79 233.674 187.406 242.109 191.025ZM335.804 209.566C335.829 209.513 335.854 209.446 335.88 209.366L472.22 186.436C473.552 187.595 484.41 210.85 493.438 230.186C498.724 241.508 503.383 251.486 505.135 254.899C505.312 255.246 505.482 255.572 505.645 255.883C507.036 258.552 507.843 260.101 507.365 264.024C507.079 266.918 505.759 269.613 503.647 271.612C501.535 273.611 498.773 274.782 495.867 274.909C490.667 275.072 475.669 268.498 466.894 264.652C465.155 263.889 463.661 263.234 462.535 262.76C440.935 253.661 419.582 244.81 398.126 236.115L397.69 235.94C391.979 233.654 337.243 211.745 336.063 209.9C335.96 209.739 335.874 209.633 335.804 209.566ZM335.804 209.566C335.663 209.879 335.558 209.773 335.543 209.644C335.529 209.519 335.599 209.372 335.804 209.566ZM159.161 461.372C155.325 459.106 150.221 456.091 148.401 453.367C147.725 452.433 147.112 451.789 146.498 451.145C145.965 450.586 145.432 450.026 144.856 449.274C141.265 444.458 138.713 438.95 137.36 433.097L116.282 344.128C115.902 342.631 115.533 341.231 115.185 339.91C112.033 327.953 110.585 322.46 118.133 309.219C122.469 301.622 127.4 291.856 132.344 282.066C136.688 273.462 141.043 264.839 145.012 257.65C146.311 255.278 147.382 253.214 148.319 251.41C153.959 240.54 154.717 239.079 171.084 236.363L292.758 216.418C296.81 215.767 298.18 215.331 299.502 215.445C300.72 215.55 301.897 216.122 305.09 217.422L483.874 290.278C485.19 290.834 486.47 291.386 487.733 291.931C490.175 292.984 492.549 294.009 494.981 294.971C496.269 295.486 496.905 295.887 497.541 296.288C498.192 296.699 498.844 297.109 500.195 297.643C502.175 298.429 504.09 299.098 505.986 299.759C511.103 301.545 516.075 303.281 521.782 307.133L525.484 309.74C525.574 309.83 525.669 309.913 525.771 309.988C525.849 310.053 525.953 310.171 526.045 310.236L530.386 314.29C531.427 315.542 532.072 316.185 532.943 317.055C533.315 317.426 533.728 317.838 534.231 318.357C539.237 323.519 588.134 426.918 591.744 434.57C592.458 436.034 593.167 437.456 593.868 438.861C594.922 440.973 595.957 443.047 596.959 445.168C598.716 448.884 599.573 449.864 599.652 450.904C599.727 451.877 599.121 452.902 597.936 456.274C596.92 457.5 591.731 468.867 590.871 471.252L568.932 518.859C566.351 524.255 563.939 529.365 561.619 534.684C560.935 536.236 560.206 537.824 559.482 539.401C558.978 540.499 558.477 541.591 557.995 542.662C557.481 543.828 557.089 544.792 556.762 545.595C555.673 548.274 555.311 549.163 553.576 549.805L383.07 599.445C380.666 600.094 379.012 598.913 377.236 597.644C376.729 597.282 376.212 596.913 375.665 596.577C365.862 590.516 356.698 584.819 347.117 578.783L161.763 462.936C161.027 462.474 160.135 461.947 159.161 461.372ZM628.233 349.741C634.313 352.101 642.914 355.438 644.356 356.786C644.262 358.807 632.307 383.632 624.495 399.856C621.525 406.023 619.153 410.948 618.259 412.905C618.139 413.172 617.988 413.512 617.811 413.91C615.845 418.323 610.652 429.983 609.134 431.585C607.192 426.135 575.992 361.338 570.731 350.411L570.223 349.356C568.319 345.445 567.576 342.056 569.871 337.624C571.239 335.017 575.202 331.666 578.657 331.171C583.703 330.448 615.589 344.423 622.771 347.57L622.978 347.661C624.042 348.115 625.961 348.86 628.233 349.741ZM185.306 716.961L177.015 679.758L163.262 683.942C170.119 694.423 177.745 705.816 185.306 716.961ZM502.398 660.999L496.806 673.149L408.815 617.017C407.539 616.255 406.521 615.567 405.519 614.889C404.259 614.038 403.024 613.203 401.333 612.259C403.169 610.911 464.047 593.492 506.076 581.465C524.599 576.165 539.461 571.913 543.995 570.545L502.398 660.999ZM590.507 538.698C588.554 539.278 586.683 539.833 584.979 540.341L577.562 542.57L583.962 528.909L588.081 520.123L597.793 499.383L600.491 493.635L603.02 488.212L610.164 472.973L625.637 506.422C628.961 515.443 624.529 526.263 616.082 530.695C614.286 531.642 601.174 535.533 590.507 538.698Z" fill="url(#paint0_linear)" fill-opacity="0.32"/>
<defs>
<linearGradient id="paint0_linear" x1="685.111" y1="-2.50591e-05" x2="103.171" y2="825.181" gradientUnits="userSpaceOnUse">
<stop stop-color="#3B3A39" stop-opacity="0.22"/>
<stop offset="0.422095" stop-color="#3B3A39" stop-opacity="0"/>
</linearGradient>
</defs>
</svg>
