<svg width="548" height="776" viewBox="0 0 548 776" fill="none" xmlns="http://www.w3.org/2000/svg">
<path fill-rule="evenodd" clip-rule="evenodd" d="M491.89 443.825L489.283 438.95L474.578 412.096L547.487 366.302V345.21C546.362 345.527 546.207 345.673 545.859 346C545.664 346.184 545.407 346.426 544.88 346.788C544.318 347.165 543.772 347.494 543.215 347.83C542.906 348.016 542.594 348.204 542.273 348.404L466.953 395.333C465.966 394.395 457.318 377.564 449.921 363.165L449.92 363.165L449.919 363.163C445.491 354.544 441.511 346.798 439.891 343.855C439.39 342.947 438.796 341.911 438.148 340.779L438.147 340.776C434.019 333.57 427.688 322.518 429.175 316.48C430.617 310.601 432.031 304.586 433.476 298.442L433.49 298.38L433.498 298.347L433.502 298.332L433.507 298.312C434.535 293.938 435.578 289.5 436.658 284.999C437.072 283.277 437.45 281.528 437.827 279.784C440.859 265.767 443.818 252.092 464.593 255.512L547.5 269.134V250.963L465.375 237.236C458.154 235.75 451.688 230.34 452.718 218.334L478.215 108.978L485.098 106.084L547.487 80.1563V61.424L483.13 87.9386L503.635 0H486.806L463.694 95.9555L454.895 99.5794L363.319 137.383C346.373 143.979 336.466 145.986 327.575 127.71C327.268 127.06 324.181 120.827 319.463 111.303L319.462 111.3L319.435 111.246C305.524 83.1624 277.497 26.5814 264.717 0H245.164C256.055 22.0533 277.025 64.6915 292.139 95.4211L292.169 95.4828L292.207 95.5593C301.734 114.93 308.919 129.539 309.756 131.217L313.471 139.612C315.882 149.063 310.694 158.149 301.739 162.607L217.958 196.252L57.2287 169.607C57.2143 169.508 57.2143 169.407 57.2287 169.307C58.3103 166.996 60.9125 161.365 64.5735 153.443L64.5752 153.44C81.2112 117.442 119.705 34.1458 136.746 0H116.723L114.951 3.78034L114.84 3.88815L115.95 1.51411L116.658 0H91.8384C70.9095 20.5357 31.2391 58.7633 0 88.8031V115.675L114.84 3.88815C93.3947 49.7418 39.0846 165.832 37.8186 166.465C37.2971 166.742 17.0842 163.444 0 160.34V178.554L30.7793 183.803C29.2383 187.555 13.3781 220.265 0 247.325V664.058C2.49161 669.511 4.69427 674.319 6.46783 678.154L8.63177 682.873L0 688.371V709.639L16.2185 699.285L18.6953 704.695L51.3887 775.987H71.0856L35.3549 698.281L31.4442 689.639L136.499 622.753C137.781 621.962 138.794 621.29 139.633 620.734L139.634 620.734C141.352 619.595 142.339 618.941 143.411 618.738C144.857 618.464 146.459 619.012 150.219 620.297L150.22 620.297L150.221 620.297C150.721 620.469 151.26 620.653 151.842 620.85C153.006 621.214 160.535 623.467 171.87 626.859L171.871 626.859L171.883 626.863L171.906 626.87C217.173 640.415 323.021 672.088 326.876 674.275L307.513 757.75C302.156 765.571 297.815 771.985 295.208 776H322.205L324.59 765.259L374.556 689.313L547.487 743.385V726.086L383.603 675.495L486.324 518.819C492.841 508.782 506.008 508.756 511.782 519.888L547.487 582.251V550.34C546.04 549.153 540.708 538.295 539.34 535.505C537.785 532.328 535.492 528.065 532.958 523.356C526.229 510.851 517.805 495.194 517.01 488.329C515.932 479.968 517.774 471.491 522.224 464.33C523.058 462.91 523.957 461.554 524.83 460.238L524.831 460.237L547.396 425.484V395.737L514.259 445.168C512.348 447.263 509.869 448.757 507.124 449.468C504.379 450.178 501.486 450.075 498.799 449.17C495.921 448.294 493.475 446.374 491.942 443.786L491.89 443.825ZM330.559 658.397L330.587 658.405L326.911 674.296C326.9 674.289 326.889 674.282 326.876 674.275L330.559 658.397ZM330.559 658.397L161.175 606.875L341.289 494.886C341.928 494.491 342.525 494.093 343.106 493.706C345.805 491.908 348.149 490.346 352.708 490.454C361.494 490.649 367.464 497.689 365.548 507.557L330.559 658.397ZM184.731 209.366C184.757 209.446 184.782 209.513 184.807 209.566L184.801 209.572C184.791 209.581 184.781 209.592 184.77 209.603C184.708 209.67 184.634 209.766 184.548 209.9C183.368 211.746 128.622 233.658 122.92 235.941L122.485 236.115C101.029 244.81 79.6761 253.661 58.076 262.76C56.9528 263.233 55.4619 263.887 53.7273 264.647L53.7174 264.651C44.9426 268.498 29.9444 275.072 24.7438 274.909C21.8383 274.782 19.0762 273.611 16.9642 271.612C14.8523 269.612 13.5322 266.918 13.2464 264.024C12.7677 260.101 13.5753 258.552 14.9666 255.883L14.9678 255.881C15.0318 255.758 15.097 255.633 15.1634 255.505L15.2069 255.421L15.315 255.212C15.3678 255.11 15.4213 255.006 15.4755 254.899C17.2276 251.486 21.886 241.509 27.1718 230.188L27.1725 230.187L27.1727 230.187C36.2008 210.85 47.0586 187.595 48.3905 186.436L184.731 209.366Z" fill="#E9E7E6"/>
<path fill-rule="evenodd" clip-rule="evenodd" d="M491.89 443.825L489.283 438.95L474.578 412.096L547.487 366.302V345.21C546.362 345.527 546.207 345.673 545.859 346C545.664 346.184 545.407 346.426 544.88 346.788C544.318 347.165 543.772 347.494 543.215 347.83C542.906 348.016 542.594 348.204 542.273 348.404L466.953 395.333C465.966 394.395 457.318 377.564 449.921 363.165L449.92 363.165L449.919 363.163C445.491 354.544 441.511 346.798 439.891 343.855C439.39 342.947 438.796 341.911 438.148 340.779L438.147 340.776C434.019 333.57 427.688 322.518 429.175 316.48C430.617 310.601 432.031 304.586 433.476 298.442L433.49 298.38L433.498 298.347L433.502 298.332L433.507 298.312C434.535 293.938 435.578 289.5 436.658 284.999C437.072 283.277 437.45 281.528 437.827 279.784C440.859 265.767 443.818 252.092 464.593 255.512L547.5 269.134V250.963L465.375 237.236C458.154 235.75 451.688 230.34 452.718 218.334L478.215 108.978L485.098 106.084L547.487 80.1563V61.424L483.13 87.9386L503.635 0H486.806L463.694 95.9555L454.895 99.5794L363.319 137.383C346.373 143.979 336.466 145.986 327.575 127.71C327.268 127.06 324.181 120.827 319.463 111.303L319.462 111.3L319.435 111.246C305.524 83.1624 277.497 26.5814 264.717 0H245.164C256.055 22.0533 277.025 64.6915 292.139 95.4211L292.169 95.4828L292.207 95.5593C301.734 114.93 308.919 129.539 309.756 131.217L313.471 139.612C315.882 149.063 310.694 158.149 301.739 162.607L217.958 196.252L57.2287 169.607C57.2143 169.508 57.2143 169.407 57.2287 169.307C58.3103 166.996 60.9125 161.365 64.5735 153.443L64.5752 153.44C81.2112 117.442 119.705 34.1458 136.746 0H116.723L114.951 3.78034L114.84 3.88815L115.95 1.51411L116.658 0H91.8384C70.9095 20.5357 31.2391 58.7633 0 88.8031V115.675L114.84 3.88815C93.3947 49.7418 39.0846 165.832 37.8186 166.465C37.2971 166.742 17.0842 163.444 0 160.34V178.554L30.7793 183.803C29.2383 187.555 13.3781 220.265 0 247.325V664.058C2.49161 669.511 4.69427 674.319 6.46783 678.154L8.63177 682.873L0 688.371V709.639L16.2185 699.285L18.6953 704.695L51.3887 775.987H71.0856L35.3549 698.281L31.4442 689.639L136.499 622.753C137.781 621.962 138.794 621.29 139.633 620.734L139.634 620.734C141.352 619.595 142.339 618.941 143.411 618.738C144.857 618.464 146.459 619.012 150.219 620.297L150.22 620.297L150.221 620.297C150.721 620.469 151.26 620.653 151.842 620.85C153.006 621.214 160.535 623.467 171.87 626.859L171.871 626.859L171.883 626.863L171.906 626.87C217.173 640.415 323.021 672.088 326.876 674.275L307.513 757.75C302.156 765.571 297.815 771.985 295.208 776H322.205L324.59 765.259L374.556 689.313L547.487 743.385V726.086L383.603 675.495L486.324 518.819C492.841 508.782 506.008 508.756 511.782 519.888L547.487 582.251V550.34C546.04 549.153 540.708 538.295 539.34 535.505C537.785 532.328 535.492 528.065 532.958 523.356C526.229 510.851 517.805 495.194 517.01 488.329C515.932 479.968 517.774 471.491 522.224 464.33C523.058 462.91 523.957 461.554 524.83 460.238L524.831 460.237L547.396 425.484V395.737L514.259 445.168C512.348 447.263 509.869 448.757 507.124 449.468C504.379 450.178 501.486 450.075 498.799 449.17C495.921 448.294 493.475 446.374 491.942 443.786L491.89 443.825ZM330.559 658.397L330.587 658.405L326.911 674.296C326.9 674.289 326.889 674.282 326.876 674.275L330.559 658.397ZM330.559 658.397L161.175 606.875L341.289 494.886C341.928 494.491 342.525 494.093 343.106 493.706C345.805 491.908 348.149 490.346 352.708 490.454C361.494 490.649 367.464 497.689 365.548 507.557L330.559 658.397ZM184.731 209.366C184.757 209.446 184.782 209.513 184.807 209.566L184.801 209.572C184.791 209.581 184.781 209.592 184.77 209.603C184.708 209.67 184.634 209.766 184.548 209.9C183.368 211.746 128.622 233.658 122.92 235.941L122.485 236.115C101.029 244.81 79.6761 253.661 58.076 262.76C56.9528 263.233 55.4619 263.887 53.7273 264.647L53.7174 264.651C44.9426 268.498 29.9444 275.072 24.7438 274.909C21.8383 274.782 19.0762 273.611 16.9642 271.612C14.8523 269.612 13.5322 266.918 13.2464 264.024C12.7677 260.101 13.5753 258.552 14.9666 255.883L14.9678 255.881C15.0318 255.758 15.097 255.633 15.1634 255.505L15.2069 255.421L15.315 255.212C15.3678 255.11 15.4213 255.006 15.4755 254.899C17.2276 251.486 21.886 241.509 27.1718 230.188L27.1725 230.187L27.1727 230.187C36.2008 210.85 47.0586 187.595 48.3905 186.436L184.731 209.366Z" fill="url(#paint0_linear)" fill-opacity="0.32"/>
<defs>
<linearGradient id="paint0_linear" x1="0" y1="0" x2="470.54" y2="820.426" gradientUnits="userSpaceOnUse">
<stop stop-color="#3B3A39" stop-opacity="0.17"/>
<stop offset="0.487942" stop-color="#3B3A39" stop-opacity="0"/>
</linearGradient>
</defs>
</svg>
