<svg width="48" height="48" viewBox="0 0 48 48" fill="none" xmlns="http://www.w3.org/2000/svg">
<path fill-rule="evenodd" clip-rule="evenodd" d="M21.2355 3.34961H31.5693L29.15 5.76885V7.34961H36.7308L40.7308 3.34961H47.65V28.2401L35.299 42.6496H28.2067L20.7067 34.1496H11.3774L18.3774 42.6496H10.6933L3.35002 33.7328V26.8041L0.0302734 24.0376L21.2355 3.34961ZM10.65 32.8496V27.1496H20.35V32.8496H10.65ZM21.65 33.2538L28.7933 41.3496H33.6227L27.35 33.7328V26.1651L29.4717 24.6496H21.65V33.2538ZM22.5693 23.3496H31.237L46.35 8.72411V4.64961H41.2693L22.5693 23.3496ZM46.35 10.5332L31.9172 24.5004L28.65 26.8341V33.2664L35.01 40.9892L46.35 27.7592V10.5332ZM20.35 25.8496V23.7304L35.4308 8.64961H28.7693L11.5693 25.8496H20.35ZM10.65 24.9304L27.85 7.73037V7.06885L10.65 24.2688V24.9304ZM9.73078 23.3496L28.4308 4.64961H21.7646L2.59706 23.3496H9.73078ZM2.79535 24.6496L4.65002 26.1952V33.2664L11.3068 41.3496H15.6227L9.35002 33.7328V24.6496H2.79535Z" fill="#272324"/>
</svg>
