<svg width="48" height="48" viewBox="0 0 48 48" fill="none" xmlns="http://www.w3.org/2000/svg">
<path fill-rule="evenodd" clip-rule="evenodd" d="M29.6582 3.94672C29.8461 3.83059 30.08 3.8178 30.2794 3.91275L40.7794 8.91275C41.0058 9.02054 41.15 9.2489 41.15 9.49961V16.4996C41.15 16.716 41.0423 16.9182 40.8627 17.039L11.8627 36.539C11.6634 36.673 11.4064 36.6862 11.1944 36.5733C10.9824 36.4604 10.85 36.2398 10.85 35.9996V28.332L3.14998 22.7709V29.6651L5.34998 31.2365V29.8475L4.13942 29.0404C3.95859 28.9199 3.84998 28.7169 3.84998 28.4996V25.9996C3.84998 25.7599 3.98192 25.5396 4.19327 25.4265C4.40462 25.3134 4.66107 25.3258 4.86053 25.4588L9.36053 28.4588C9.54136 28.5793 9.64998 28.7823 9.64998 28.9996V32.9996C9.64998 33.3586 9.35896 33.6496 8.99998 33.6496C8.64099 33.6496 8.34998 33.3586 8.34998 32.9996V29.3475L5.14998 27.2141V28.1517L6.36053 28.9588C6.54136 29.0793 6.64998 29.2823 6.64998 29.4996V32.4996C6.64998 32.7431 6.5139 32.9662 6.2974 33.0776C6.08091 33.189 5.8203 33.1701 5.62217 33.0285L2.12217 30.5285C1.95135 30.4065 1.84998 30.2095 1.84998 29.9996V21.4996C1.84998 21.2744 1.96659 21.0652 2.15819 20.9467L29.6582 3.94672ZM3.66826 21.5416L11.5216 27.2135L37.649 10.4525C37.9512 10.2587 38.3532 10.3465 38.5471 10.6486C38.7409 10.9508 38.6531 11.3529 38.3509 11.5467L12.15 28.3549V34.7793L39.85 16.1534V9.91002L30.0404 5.23879L3.66826 21.5416Z" fill="#EE1D2D"/>
<path fill-rule="evenodd" clip-rule="evenodd" d="M32.98 21.6096C33.1954 21.3224 33.6028 21.2642 33.89 21.4796L36.39 23.3546C36.6772 23.57 36.7354 23.9774 36.52 24.2646C36.3046 24.5518 35.8972 24.61 35.61 24.3946L33.11 22.5196C32.8228 22.3042 32.7646 21.8968 32.98 21.6096ZM30.85 24.4996C30.85 24.1406 31.141 23.8496 31.5 23.8496H34C34.359 23.8496 34.65 24.1406 34.65 24.4996C34.65 24.8586 34.359 25.1496 34 25.1496H31.5C31.141 25.1496 30.85 24.8586 30.85 24.4996ZM37.98 25.3596C38.1954 25.0724 38.6028 25.0142 38.89 25.2296L41.2233 26.9796C41.5105 27.195 41.5687 27.6024 41.3533 27.8896C41.1379 28.1768 40.7305 28.235 40.4433 28.0196L38.11 26.2696C37.8228 26.0542 37.7646 25.6468 37.98 25.3596ZM27.35 26.9996C27.35 26.6406 27.641 26.3496 28 26.3496H31C31.359 26.3496 31.65 26.6406 31.65 26.9996C31.65 27.3586 31.359 27.6496 31 27.6496H28C27.641 27.6496 27.35 27.3586 27.35 26.9996ZM33.35 26.9996C33.35 26.6406 33.641 26.3496 34 26.3496H37C37.359 26.3496 37.65 26.6406 37.65 26.9996C37.65 27.3586 37.359 27.6496 37 27.6496H34C33.641 27.6496 33.35 27.3586 33.35 26.9996ZM45.5 27.8496C45.859 27.8496 46.15 28.1406 46.15 28.4996V30.9996C46.15 31.3586 45.859 31.6496 45.5 31.6496H43C42.641 31.6496 42.35 31.3586 42.35 30.9996C42.35 30.6406 42.641 30.3496 43 30.3496H43.55L42.61 29.6446C42.3228 29.4292 42.2646 29.0218 42.48 28.7346C42.6954 28.4474 43.1028 28.3892 43.39 28.6046L44.85 29.6996V28.4996C44.85 28.1406 45.141 27.8496 45.5 27.8496ZM25.2944 29.4996C25.2944 29.1406 25.5854 28.8496 25.9444 28.8496H28.2083C28.5673 28.8496 28.8583 29.1406 28.8583 29.4996C28.8583 29.8586 28.5673 30.1496 28.2083 30.1496H25.9444C25.5854 30.1496 25.2944 29.8586 25.2944 29.4996ZM29.8222 29.4996C29.8222 29.1406 30.1132 28.8496 30.4722 28.8496H32.7361C33.0951 28.8496 33.3861 29.1406 33.3861 29.4996C33.3861 29.8586 33.0951 30.1496 32.7361 30.1496H30.4722C30.1132 30.1496 29.8222 29.8586 29.8222 29.4996ZM34.35 29.4996C34.35 29.1406 34.641 28.8496 35 28.8496H39C39.359 28.8496 39.65 29.1406 39.65 29.4996C39.65 29.8586 39.359 30.1496 39 30.1496H35C34.641 30.1496 34.35 29.8586 34.35 29.4996ZM25.7506 30.8561C26.106 30.9069 26.3529 31.2362 26.3022 31.5915L26.0165 33.5915C26.0029 33.6865 25.9694 33.7737 25.9209 33.8496H30C30.359 33.8496 30.65 34.1406 30.65 34.4996C30.65 34.8586 30.359 35.1496 30 35.1496H25.635C25.7159 35.2761 25.7537 35.4312 25.7307 35.5915L25.3853 38.0098C25.3345 38.3652 25.0053 38.6122 24.6499 38.5614C24.2945 38.5106 24.0476 38.1814 24.0983 37.826L24.1253 37.6375C24.0847 37.6455 24.0428 37.6496 24 37.6496H21C20.641 37.6496 20.35 37.3586 20.35 36.9996C20.35 36.6406 20.641 36.3496 21 36.3496H24C24.1077 36.3496 24.2094 36.3758 24.2989 36.4223L24.4438 35.4077C24.459 35.3014 24.4991 35.2049 24.5573 35.1231C24.2882 35.0435 24.0918 34.7945 24.0918 34.4996C24.0918 34.1406 24.3828 33.8496 24.7418 33.8496H24.8253C24.7443 33.7231 24.7066 33.568 24.7295 33.4077L24.8388 32.6424C24.8072 32.6472 24.7748 32.6496 24.7418 32.6496H22.5C22.141 32.6496 21.85 32.3586 21.85 31.9996C21.85 31.6406 22.141 31.3496 22.5 31.3496H24.7418C24.8394 31.3496 24.9319 31.3711 25.015 31.4096L25.0152 31.4077C25.066 31.0523 25.3953 30.8054 25.7506 30.8561ZM16.85 31.9996C16.85 31.6406 17.141 31.3496 17.5 31.3496H20.5C20.859 31.3496 21.15 31.6406 21.15 31.9996C21.15 32.3586 20.859 32.6496 20.5 32.6496H17.5C17.141 32.6496 16.85 32.3586 16.85 31.9996ZM26.85 31.9996C26.85 31.6406 27.141 31.3496 27.5 31.3496H30C30.359 31.3496 30.65 31.6406 30.65 31.9996C30.65 32.3586 30.359 32.6496 30 32.6496H27.5C27.141 32.6496 26.85 32.3586 26.85 31.9996ZM31.85 31.9996C31.85 31.6406 32.141 31.3496 32.5 31.3496H36C36.359 31.3496 36.65 31.6406 36.65 31.9996C36.65 32.3586 36.359 32.6496 36 32.6496H32.5C32.141 32.6496 31.85 32.3586 31.85 31.9996ZM37.85 31.9996C37.85 31.6406 38.141 31.3496 38.5 31.3496H42C42.359 31.3496 42.65 31.6406 42.65 31.9996C42.65 32.3586 42.359 32.6496 42 32.6496H38.5C38.141 32.6496 37.85 32.3586 37.85 31.9996ZM13.35 34.4996C13.35 34.1406 13.641 33.8496 14 33.8496H16C16.359 33.8496 16.65 34.1406 16.65 34.4996C16.65 34.8586 16.359 35.1496 16 35.1496H14C13.641 35.1496 13.35 34.8586 13.35 34.4996ZM17.35 34.4996C17.35 34.1406 17.641 33.8496 18 33.8496H22C22.359 33.8496 22.65 34.1406 22.65 34.4996C22.65 34.8586 22.359 35.1496 22 35.1496H18C17.641 35.1496 17.35 34.8586 17.35 34.4996ZM31.35 34.4996C31.35 34.1406 31.641 33.8496 32 33.8496H35C35.359 33.8496 35.65 34.1406 35.65 34.4996C35.65 34.8586 35.359 35.1496 35 35.1496H32C31.641 35.1496 31.35 34.8586 31.35 34.4996ZM35.85 34.4996C35.85 34.1406 36.141 33.8496 36.5 33.8496H39.5C39.859 33.8496 40.15 34.1406 40.15 34.4996C40.15 34.8586 39.859 35.1496 39.5 35.1496H36.5C36.141 35.1496 35.85 34.8586 35.85 34.4996ZM13.85 36.9996C13.85 36.6406 14.141 36.3496 14.5 36.3496H18C18.359 36.3496 18.65 36.6406 18.65 36.9996C18.65 37.3586 18.359 37.6496 18 37.6496H14.5C14.141 37.6496 13.85 37.3586 13.85 36.9996ZM26.35 36.9996C26.35 36.6406 26.641 36.3496 27 36.3496H30C30.359 36.3496 30.65 36.6406 30.65 36.9996C30.65 37.3586 30.359 37.6496 30 37.6496H27C26.641 37.6496 26.35 37.3586 26.35 36.9996ZM30.85 36.9996C30.85 36.6406 31.141 36.3496 31.5 36.3496H35.5C35.859 36.3496 36.15 36.6406 36.15 36.9996C36.15 37.3586 35.859 37.6496 35.5 37.6496H31.5C31.141 37.6496 30.85 37.3586 30.85 36.9996ZM16.35 39.4996C16.35 39.1406 16.641 38.8496 17 38.8496H19.75C20.109 38.8496 20.4 39.1406 20.4 39.4996C20.4 39.8586 20.109 40.1496 19.75 40.1496H17C16.641 40.1496 16.35 39.8586 16.35 39.4996ZM21.85 39.4996C21.85 39.1406 22.141 38.8496 22.5 38.8496H26.3869C26.7459 38.8496 27.0369 39.1406 27.0369 39.4996C27.0369 39.8586 26.7459 40.1496 26.3869 40.1496H25.0796L24.8736 41.5915C24.8228 41.9469 24.4936 42.1938 24.1382 42.1431C23.7828 42.0923 23.5359 41.7631 23.5867 41.4077L23.7664 40.1496H22.5C22.141 40.1496 21.85 39.8586 21.85 39.4996ZM27.6079 39.4996C27.6079 39.1406 27.8989 38.8496 28.2579 38.8496H32C32.359 38.8496 32.65 39.1406 32.65 39.4996C32.65 39.8586 32.359 40.1496 32 40.1496H28.2579C27.8989 40.1496 27.6079 39.8586 27.6079 39.4996ZM23.8935 43.8561C24.2489 43.9069 24.4958 44.2362 24.445 44.5915L24.32 45.4667L25.5384 44.492C25.8187 44.2678 26.2277 44.3132 26.452 44.5936C26.6762 44.8739 26.6308 45.2829 26.3505 45.5072L23.8505 47.5072C23.5702 47.7314 23.1611 47.686 22.9369 47.4057L20.9369 44.9057C20.7126 44.6253 20.758 44.2163 21.0384 43.992C21.3187 43.7678 21.7277 43.8132 21.952 44.0936L23.0134 45.4204L23.1581 44.4077C23.2089 44.0523 23.5381 43.8054 23.8935 43.8561Z" fill="#EE1D2D"/>
<path fill-rule="evenodd" clip-rule="evenodd" d="M30.5484 9.65064C30.7411 9.9535 30.6518 10.3553 30.3489 10.548L25.0643 13.9109C24.1807 17.1529 22.2511 18.9604 20.1575 19.8636C18.1681 20.7219 16.0662 20.7508 14.6279 20.4986L7.34447 25.0508C7.04006 25.2411 6.63904 25.1485 6.44878 24.8441C6.25851 24.5397 6.35106 24.1387 6.65548 23.9484L18.6555 16.4484C18.9599 16.2582 19.3609 16.3507 19.5512 16.6551C19.7414 16.9595 19.6489 17.3605 19.3445 17.5508L16.4906 19.3345C17.474 19.3118 18.582 19.1275 19.6425 18.67C21.0363 18.0687 22.3728 16.9867 23.2487 15.115L21.8605 16.0404C21.5618 16.2396 21.1583 16.1589 20.9591 15.8602C20.76 15.5615 20.8407 15.1579 21.1394 14.9588L24.1509 12.9511L29.651 9.45123C29.9539 9.2585 30.3556 9.34778 30.5484 9.65064ZM28.5919 24.3561C28.9473 24.4069 29.1942 24.7362 29.1434 25.0915C29.0485 25.7563 28.7463 26.7861 28.1496 27.8136C27.5503 28.8453 26.6332 29.9097 25.2907 30.581C22.7391 31.8568 19.9932 31.8241 18.8931 31.6408C18.539 31.5818 18.2998 31.2469 18.3588 30.8928C18.4178 30.5387 18.7527 30.2994 19.1068 30.3585C20.0068 30.5084 22.4608 30.5425 24.7093 29.4182C25.7668 28.8895 26.5163 28.0373 27.0254 27.1607C27.537 26.2798 27.7848 25.4096 27.8565 24.9077C27.9073 24.5523 28.2365 24.3054 28.5919 24.3561Z" fill="#EE1D2D"/>
</svg>
