<svg width="48" height="48" viewBox="0 0 48 48" fill="none" xmlns="http://www.w3.org/2000/svg">
<path fill-rule="evenodd" clip-rule="evenodd" d="M23.5 20.3496C23.859 20.3496 24.15 20.6406 24.15 20.9996V27.8496H27.85V22.4996C27.85 22.1406 28.141 21.8496 28.5 21.8496H37.5C37.859 21.8496 38.15 22.1406 38.15 22.4996V37.9996C38.15 38.3586 37.859 38.6496 37.5 38.6496H9.49998C9.14099 38.6496 8.84998 38.3586 8.84998 37.9996V22.4996C8.84998 22.1406 9.14099 21.8496 9.49998 21.8496H18.5C18.859 21.8496 19.15 22.1406 19.15 22.4996V27.8496H22.85V20.9996C22.85 20.6406 23.141 20.3496 23.5 20.3496ZM10.15 23.1496V37.3496H36.85V23.1496H29.15V28.4996C29.15 28.8586 28.859 29.1496 28.5 29.1496H18.5C18.141 29.1496 17.85 28.8586 17.85 28.4996V23.1496H10.15Z" fill="#EE1D2D"/>
<path fill-rule="evenodd" clip-rule="evenodd" d="M20.1443 15.3576C20.4989 15.4139 20.7407 15.747 20.6844 16.1015C20.6618 16.244 20.65 16.3905 20.65 16.5401C20.65 18.0846 21.9188 19.3496 23.5 19.3496C25.0811 19.3496 26.35 18.0846 26.35 16.5401C26.35 16.3905 26.3382 16.244 26.3156 16.1015C26.2593 15.747 26.5011 15.4139 26.8556 15.3576C27.2102 15.3014 27.5432 15.5432 27.5995 15.8977C27.6328 16.1074 27.65 16.322 27.65 16.5401C27.65 18.8168 25.7848 20.6496 23.5 20.6496C21.2151 20.6496 19.35 18.8168 19.35 16.5401C19.35 16.322 19.3672 16.1074 19.4005 15.8977C19.4567 15.5432 19.7898 15.3014 20.1443 15.3576Z" fill="#EE1D2D"/>
<path fill-rule="evenodd" clip-rule="evenodd" d="M22.2414 15.3748C22.5865 15.4739 22.7859 15.8339 22.6869 16.1789C22.6631 16.2619 22.65 16.3507 22.65 16.4441C22.65 16.9667 23.0526 17.3496 23.5 17.3496C23.9473 17.3496 24.35 16.9667 24.35 16.4441C24.35 16.3507 24.3369 16.2619 24.3131 16.1789C24.2141 15.8339 24.4135 15.4739 24.7586 15.3748C25.1036 15.2758 25.4636 15.4753 25.5626 15.8203C25.6197 16.019 25.65 16.2285 25.65 16.4441C25.65 17.6397 24.7095 18.6496 23.5 18.6496C22.2905 18.6496 21.35 17.6397 21.35 16.4441C21.35 16.2285 21.3803 16.019 21.4373 15.8203C21.5363 15.4753 21.8963 15.2758 22.2414 15.3748Z" fill="#EE1D2D"/>
<path fill-rule="evenodd" clip-rule="evenodd" d="M3.84998 15.4996C3.84998 15.1406 4.14099 14.8496 4.49998 14.8496H43.65V43.9996C43.65 44.3586 43.359 44.6496 43 44.6496C42.641 44.6496 42.35 44.3586 42.35 43.9996V16.1496H4.49998C4.14099 16.1496 3.84998 15.8586 3.84998 15.4996Z" fill="#EE1D2D"/>
<path fill-rule="evenodd" clip-rule="evenodd" d="M16.9596 7.53999C17.2134 7.79383 17.2134 8.20539 16.9596 8.45923L16.5692 8.84961H30.9307L30.5404 8.45923C30.2865 8.20539 30.2865 7.79383 30.5404 7.53999C30.7942 7.28615 31.2058 7.28615 31.4596 7.53999L32.9596 9.03999C33.2134 9.29383 33.2134 9.70539 32.9596 9.95923L31.4596 11.4592C31.2058 11.7131 30.7942 11.7131 30.5404 11.4592C30.2865 11.2054 30.2865 10.7938 30.5404 10.54L30.9307 10.1496H16.5692L16.9596 10.54C17.2134 10.7938 17.2134 11.2054 16.9596 11.4592C16.7058 11.7131 16.2942 11.7131 16.0404 11.4592L14.5404 9.95923C14.2865 9.70539 14.2865 9.29383 14.5404 9.03999L16.0404 7.53999C16.2942 7.28615 16.7058 7.28615 16.9596 7.53999Z" fill="#EE1D2D"/>
</svg>
