<svg width="48" height="48" viewBox="0 0 48 48" fill="none" xmlns="http://www.w3.org/2000/svg">
<path fill-rule="evenodd" clip-rule="evenodd" d="M17.5749 14.3438L47.6501 16.6683V23.3657L45.9553 24.1294C45.6772 27.2463 44.6952 29.1198 43.4322 30.1405C42.1864 31.1473 40.7696 31.2403 39.7713 30.9913C39.5315 31.029 39.2549 31.036 38.9845 31.0288C38.6262 31.0191 38.2225 30.9822 37.8196 30.925C37.0379 30.8141 36.1634 30.6135 35.6195 30.335C35.1021 30.0701 34.7745 29.7828 34.5553 29.4497C34.5246 29.4031 34.496 29.3544 34.4692 29.305L33.2385 29.8595L31.0236 29.5355V30.4742L29.7406 33.1019L28.126 33.7633L27.6332 32.5604L28.7897 32.0866L29.7236 30.1738V29.3453L28.6152 29.1831V25.7946L19.385 24.7205V32.4014L21.2032 35.1943L22.0911 34.8306L22.5838 36.0336L21.044 36.6644L15.5863 36.0433L13.0971 32.2196V26.9751C12.9385 26.9928 12.7853 27.001 12.6387 27.001C11.3632 27.001 9.29863 26.9386 7.0331 25.8293L4.92615 26.4472L0.350098 25.7777V18.4597L17.5749 14.3438ZM12.6387 25.701C11.3976 25.701 10.5987 25.3084 10.1339 24.92L13.0971 24.051V25.6637C12.9318 25.6898 12.7782 25.701 12.6387 25.701ZM14.3971 24.14V31.4465L18.085 31.8661V24.5692L14.3971 24.14ZM18.3573 33.2055L15.0447 32.8286L16.3417 34.8209L19.6543 35.1978L18.3573 33.2055ZM9.94178 23.6216L5.52962 24.9155V23.1081L9.94178 23.6216ZM4.22962 25.0315V21.648L29.9152 24.6372V28.0595L32.4947 28.4369V22.9628L1.6501 19.6952V24.6541L4.22962 25.0315ZM4.83297 18.7251L5.3922 18.7843L18.4038 15.7117L17.6783 15.6556L4.83297 18.7251ZM21.9646 16.2066L9.29693 19.198L12.5966 19.5476L21.9646 17.3238V16.2066ZM22.6625 18.4942L16.4884 19.9599L26.9794 21.0713L32.3211 19.3407L22.6625 18.4942ZM35.4916 18.3136L38.6846 17.2792L23.2646 16.0874V17.242L35.4916 18.3136ZM42.0902 17.5424L30.158 21.408L33.0622 21.7157L43.9848 17.6888L42.0902 17.5424ZM46.3501 18.2024L33.7947 22.8312V28.183L46.3501 22.5256V18.2024ZM35.6634 28.7669C35.7374 28.8676 35.8793 29.0075 36.212 29.1779C36.5549 29.3534 37.2506 29.5312 38.0023 29.6379C38.0718 29.6478 38.1411 29.6569 38.2096 29.6653C37.9419 29.2034 37.7238 28.6151 37.6124 27.8887L35.6634 28.7669ZM38.854 27.3292C38.9974 29.0384 39.7945 29.6199 40.0042 29.708C40.665 29.8992 41.6959 29.8722 42.615 29.1294C43.4296 28.4712 44.2439 27.1788 44.5776 24.7501L38.854 27.3292Z" fill="black"/>
<path fill-rule="evenodd" clip-rule="evenodd" d="M25.4933 36.7996C26.0614 36.098 26.5488 35.0021 26.7366 33.6718C26.9244 32.3415 26.7594 31.1535 26.4077 30.3221C26.0443 29.4629 25.5951 29.1967 25.3108 29.1566C25.0265 29.1165 24.5212 29.2479 23.9341 29.9729C23.366 30.6745 22.8786 31.7704 22.6908 33.1007C22.503 34.4309 22.668 35.619 23.0197 36.4504C23.3831 37.3096 23.8324 37.5758 24.1166 37.6159C24.4009 37.656 24.9062 37.5246 25.4933 36.7996ZM23.9349 38.9031C25.7631 39.1612 27.5937 36.9004 28.0238 33.8535C28.4539 30.8066 27.3206 28.1274 25.4925 27.8694C23.6644 27.6113 21.8337 29.8721 21.4036 32.919C20.9735 35.9659 22.1068 38.6451 23.9349 38.9031Z" fill="black"/>
<path fill-rule="evenodd" clip-rule="evenodd" d="M24.493 34.9505C25.0114 35.0237 25.5304 34.3827 25.6524 33.5188C25.7743 32.6549 25.453 31.8953 24.9346 31.8221C24.4163 31.7489 23.8973 32.3899 23.7753 33.2538C23.6534 34.1177 23.9747 34.8773 24.493 34.9505Z" fill="black"/>
<path fill-rule="evenodd" clip-rule="evenodd" d="M30.9354 28.9299V30.1977L29.632 32.8044L28.1244 33.3069C28.0334 34.2429 27.7187 35.3425 27.5591 35.8214L27.553 35.8395L27.5459 35.8572C26.5913 38.2437 25.0639 39.0516 24.1566 39.0516H24.1065L22.2899 38.7699L22.2668 38.7646C21.3948 38.5634 20.6906 38.2167 20.1495 37.6973C19.6078 37.1772 19.273 36.5255 19.0721 35.7863L20.3266 35.4454C20.4816 36.0156 20.717 36.44 21.0498 36.7595C21.3798 37.0763 21.8478 37.3306 22.5366 37.4927L24.1923 37.7494C24.471 37.7186 25.5434 37.3491 26.3318 35.3922C26.5167 34.8325 26.8496 33.5999 26.8496 32.83V32.3615L28.7101 31.7414L29.6354 29.8908V28.9299H30.9354Z" fill="black"/>
</svg>
