<svg width="48" height="48" viewBox="0 0 48 48" fill="none" xmlns="http://www.w3.org/2000/svg">
<path fill-rule="evenodd" clip-rule="evenodd" d="M6.34994 21.9996C6.34994 21.6406 6.64096 21.3496 6.99994 21.3496H15.9999C16.3589 21.3496 16.6499 21.6406 16.6499 21.9996V27.3496H25.3499V21.9996C25.3499 21.6406 25.641 21.3496 25.9999 21.3496H34.9999C35.3589 21.3496 35.6499 21.6406 35.6499 21.9996V37.4996C35.6499 37.8586 35.3589 38.1496 34.9999 38.1496H6.99994C6.64096 38.1496 6.34994 37.8586 6.34994 37.4996V21.9996ZM7.64994 22.6496V36.8496H34.3499V22.6496H26.6499V27.9996C26.6499 28.3586 26.3589 28.6496 25.9999 28.6496H15.9999C15.641 28.6496 15.3499 28.3586 15.3499 27.9996V22.6496H7.64994Z" fill="#EE1D2D"/>
<path fill-rule="evenodd" clip-rule="evenodd" d="M23.9525 11.2059C24.2063 10.952 24.2063 10.5405 23.9525 10.2866L22.206 8.5402C21.9522 8.28636 21.5406 8.28636 21.2868 8.5402L19.5404 10.2866C19.2865 10.5405 19.2865 10.952 19.5404 11.2059C19.7942 11.4597 20.2058 11.4597 20.4596 11.2059L21.0964 10.5691V12.4927C21.0964 12.8517 21.3874 13.1427 21.7464 13.1427C22.1054 13.1427 22.3964 12.8517 22.3964 12.4927V10.5691L23.0332 11.2059C23.2871 11.4597 23.6986 11.4597 23.9525 11.2059ZM21.7464 36.6495C22.1054 36.6495 22.3964 36.3585 22.3964 35.9995V32.5066C22.3964 32.1476 22.1054 31.8566 21.7464 31.8566C21.3874 31.8566 21.0964 32.1476 21.0964 32.5066V35.9995C21.0964 36.3585 21.3874 36.6495 21.7464 36.6495ZM21.7464 29.8886C22.1054 29.8886 22.3964 29.5976 22.3964 29.2386V26.7457C22.3964 26.3867 22.1054 26.0957 21.7464 26.0957C21.3874 26.0957 21.0964 26.3867 21.0964 26.7457V29.2386C21.0964 29.5976 21.3874 29.8886 21.7464 29.8886ZM21.7464 24.1429C22.1054 24.1429 22.3964 23.8519 22.3964 23.4929V21C22.3964 20.641 22.1054 20.35 21.7464 20.35C21.3874 20.35 21.0964 20.641 21.0964 21V23.4929C21.0964 23.8519 21.3874 24.1429 21.7464 24.1429ZM21.7464 18.382C22.1054 18.382 22.3964 18.091 22.3964 17.732V15.2391C22.3964 14.8802 22.1054 14.5891 21.7464 14.5891C21.3874 14.5891 21.0964 14.8802 21.0964 15.2391V17.732C21.0964 18.091 21.3874 18.382 21.7464 18.382Z" fill="#EE1D2D"/>
<path fill-rule="evenodd" clip-rule="evenodd" d="M40.1726 12.6496C40.5316 12.6496 40.8226 12.3586 40.8226 11.9996L40.8226 9.49995C40.8226 9.30795 40.7377 9.12578 40.5907 9.00227C40.4437 8.87877 40.2496 8.82658 40.0605 8.85969L37.6277 9.28566C37.2741 9.34757 37.0376 9.68442 37.0995 10.038C37.1614 10.3916 37.4983 10.6281 37.8519 10.5662L38.739 10.4109L37.6338 11.9853C37.4275 12.2791 37.4985 12.6845 37.7923 12.8907C38.0861 13.097 38.4915 13.026 38.6978 12.7322L39.5226 11.5572V11.9996C39.5226 12.3586 39.8136 12.6496 40.1726 12.6496ZM24.8608 31.3117C25.1546 31.518 25.56 31.447 25.7663 31.1532L27.1986 29.1129C27.4048 28.819 27.3339 28.4137 27.04 28.2074C26.7462 28.0011 26.3408 28.0721 26.1346 28.3659L24.7023 30.4063C24.496 30.7001 24.567 31.1055 24.8608 31.3117ZM28.1708 26.5966C28.4646 26.8029 28.87 26.7319 29.0762 26.4381L30.5085 24.3978C30.7148 24.104 30.6438 23.6986 30.35 23.4923C30.0562 23.2861 29.6508 23.357 29.4445 23.6509L28.0122 25.6912C27.806 25.985 27.877 26.3904 28.1708 26.5966ZM31.472 21.894C31.7658 22.1003 32.1712 22.0293 32.3775 21.7355L33.8098 19.6951C34.016 19.4013 33.9451 18.9959 33.6512 18.7897C33.3574 18.5834 32.952 18.6544 32.7458 18.9482L31.3135 20.9886C31.1072 21.2824 31.1782 21.6878 31.472 21.894ZM34.782 17.1789C35.0758 17.3852 35.4812 17.3142 35.6875 17.0204L37.1198 14.9801C37.326 14.6863 37.255 14.2809 36.9612 14.0746C36.6674 13.8684 36.262 13.9393 36.0558 14.2331L34.6235 16.2735C34.4172 16.5673 34.4882 16.9727 34.782 17.1789ZM21.4602 35.9019C21.754 36.1081 22.1594 36.0371 22.3657 35.7433L23.798 33.703C24.0042 33.4092 23.9333 33.0038 23.6394 32.7975C23.3456 32.5913 22.9402 32.6623 22.734 32.9561L21.3017 34.9964C21.0954 35.2902 21.1664 35.6956 21.4602 35.9019Z" fill="#EE1D2D"/>
<path fill-rule="evenodd" clip-rule="evenodd" d="M3.49986 12.6491C3.14088 12.6491 2.84986 12.3581 2.84986 11.9991L2.84985 9.49944C2.84985 9.30744 2.93474 9.12527 3.08174 9.00176C3.22875 8.87826 3.42283 8.82607 3.61196 8.85918L6.04479 9.28515C6.39839 9.34706 6.63486 9.68391 6.57294 10.0375C6.51103 10.3911 6.17419 10.6276 5.82058 10.5657L4.93348 10.4103L6.03872 11.9848C6.24498 12.2786 6.174 12.684 5.88019 12.8902C5.58637 13.0965 5.18098 13.0255 4.97472 12.7317L4.14986 11.5567L4.14986 11.9991C4.14986 12.3581 3.85885 12.6491 3.49986 12.6491ZM8.89049 17.1784C8.59667 17.3847 8.19128 17.3137 7.98502 17.0199L6.55271 14.9796C6.34646 14.6857 6.41744 14.2804 6.71125 14.0741C7.00507 13.8678 7.41046 13.9388 7.61672 14.2326L9.04902 16.273C9.25528 16.5668 9.1843 16.9722 8.89049 17.1784Z" fill="#EE1D2D"/>
<path fill-rule="evenodd" clip-rule="evenodd" d="M3.84994 5.99961C3.84994 5.64062 4.14096 5.34961 4.49994 5.34961H43.6499V40.4996C43.6499 40.8586 43.3589 41.1496 42.9999 41.1496C42.641 41.1496 42.3499 40.8586 42.3499 40.4996V6.64961H4.49994C4.14096 6.64961 3.84994 6.35859 3.84994 5.99961Z" fill="#EE1D2D"/>
</svg>
