<svg width="48" height="48" viewBox="0 0 48 48" fill="none" xmlns="http://www.w3.org/2000/svg">
<path fill-rule="evenodd" clip-rule="evenodd" d="M41.1082 11.3881L42.3662 10.5495L41.634 9.45117L40.3003 10.3403H25.0001C24.9114 10.3403 24.8235 10.3582 24.7419 10.3929L19.3563 12.6825L13.9807 12.8406C13.7612 12.8471 13.5592 12.9623 13.442 13.148L11.8639 15.648C11.7973 15.7535 11.762 15.8756 11.762 16.0003V22.4386L4.09163 28.4819C4.02291 28.536 3.96563 28.6033 3.92314 28.6798L1.42314 33.1798C1.36867 33.2778 1.34009 33.3882 1.34009 33.5003V36.5003C1.34009 36.6379 1.38307 36.772 1.46302 36.8839L3.96302 40.3839C4.08691 40.5574 4.28694 40.6603 4.50009 40.6603H7.50009C7.62778 40.6603 7.75272 40.6233 7.85978 40.5537L12.6897 37.4142L24.6422 37.6533L26.4509 40.3664C26.5733 40.55 26.7794 40.6603 27.0001 40.6603H30.5001C30.6623 40.6603 30.8189 40.6006 30.9398 40.4925L33.5705 38.1418L32.691 37.1575L30.6274 39.0015L29.1601 36.8005V33.6896L31.5077 29.9335L46.9336 16.498C47.1411 16.3172 47.2147 16.0267 47.1182 15.7689C47.0217 15.5111 46.7753 15.3403 46.5001 15.3403H46.0001V15.5606L30.753 28.8403H29.3058L32.4257 26.2079L32.4367 26.1984L43.2496 16.6603H43.5001V15.3403H43.0001C42.8393 15.3403 42.6841 15.399 42.5635 15.5054L40.1455 17.6383C40.1482 17.6258 40.1505 17.6133 40.1524 17.6007L41.1082 11.3881ZM38.5201 11.6603H25.1346L22.9809 12.5759L30.9807 12.3406C31.0581 12.3383 31.1353 12.3497 31.2088 12.3742L32.7088 12.8742C32.9035 12.9391 33.0569 13.0908 33.1239 13.2848L33.7538 15.1077L34.1648 14.9268L38.5201 11.6603ZM32.704 16.1111L32.6599 15.9834C32.66 15.989 32.6601 15.9947 32.6601 16.0003V24.2412L32.704 24.2024V16.1111ZM34.024 23.0381L36.1816 21.1349C36.123 21.1516 36.0619 21.1603 36.0001 21.1603H34.024V23.0381ZM34.024 19.8403H35.113L34.0825 16.4052L34.024 16.4309V19.8403ZM36.3408 19.339L38.8849 17.1583L39.6017 12.4991L35.2646 15.7519L36.3408 19.339ZM31.3401 25.0435V16.1074L30.5291 13.6745L14.3707 14.1497L13.082 16.1912V25.0435H31.3401ZM11.762 25.379V24.1191L5.01266 29.4367L2.66009 33.6713V36.2888L4.83974 39.3403H6.21758L4.46302 36.8839C4.38307 36.772 4.34009 36.6379 4.34009 36.5003V33.5003C4.34009 33.3766 4.37485 33.2554 4.44041 33.1505L6.94041 29.1505C6.98193 29.0841 7.03493 29.0256 7.09696 28.9777L11.762 25.379ZM7.67001 39.1027L10.3817 37.3401L6.31414 37.2045L7.67001 39.1027ZM5.66009 35.862V33.6896L7.86589 30.1603H26.3093L24.4404 33.1505C24.3748 33.2554 24.3401 33.3766 24.3401 33.5003V36.327L12.5177 36.0905L5.66009 35.862ZM25.6601 36.8005L27.3533 39.3403H29.2669L27.9509 37.3664C27.8787 37.258 27.8401 37.1306 27.8401 37.0003V33.5003C27.8401 33.3766 27.8748 33.2554 27.9404 33.1505L29.8093 30.1603H27.8659L25.6601 33.6896V36.8005ZM9.43619 28.8403H27.2588L30.1944 26.3634H12.647L9.43619 28.8403ZM37.1263 33.5169L44.0507 27.0794L44.9495 28.0462L38.0251 34.4837L37.1263 33.5169Z" fill="#272324"/>
<path fill-rule="evenodd" clip-rule="evenodd" d="M34.6456 31.3013C34.1384 31.7508 33.6526 32.5084 33.392 33.4873C33.1314 34.4662 33.1763 35.365 33.3927 36.0072C33.613 36.6607 33.9422 36.8985 34.1709 36.9594C34.3997 37.0203 34.8035 36.9777 35.3196 36.5202C35.8267 36.0706 36.3125 35.3131 36.5731 34.3342C36.8337 33.3553 36.7889 32.4565 36.5724 31.8143C36.3521 31.1607 36.023 30.923 35.7942 30.8621C35.5654 30.8012 35.1617 30.8438 34.6456 31.3013ZM36.1338 29.5865C34.5509 29.1651 32.7523 30.7595 32.1165 33.1477C31.4807 35.5359 32.2484 37.8135 33.8313 38.235C35.4143 38.6564 37.2129 37.062 37.8487 34.6738C38.4845 32.2856 37.7167 30.0079 36.1338 29.5865Z" fill="#272324"/>
<path fill-rule="evenodd" clip-rule="evenodd" d="M45.7905 27.1037C45.6126 27.1723 45.4678 27.1763 45.3491 27.1447C45.2042 27.1061 45.0475 27.0001 44.9019 26.7719C44.5423 26.2082 44.3898 25.0903 44.734 23.7975C44.9188 23.1031 45.2248 22.5464 45.565 22.1757C45.9096 21.8001 46.2429 21.6596 46.5 21.6596V20.3396C45.7572 20.3396 45.0959 20.7343 44.5923 21.2833C44.0842 21.8372 43.6883 22.5945 43.4584 23.4579C43.0601 24.9539 43.1586 26.4937 43.7891 27.4819C44.0694 27.9211 44.4752 28.278 45.0095 28.4202C45.4672 28.5421 45.9244 28.4804 46.3372 28.3063L46.3506 28.3006L46.3638 28.2944C46.654 28.1565 47.16 27.7316 47.16 26.999H45.84C45.84 27.0206 45.8365 27.0348 45.833 27.0447C45.8291 27.0555 45.8232 27.0665 45.8148 27.0777C45.8069 27.0882 45.7981 27.0971 45.7905 27.1037Z" fill="#272324"/>
</svg>
