<svg width="48" height="48" viewBox="0 0 48 48" fill="none" xmlns="http://www.w3.org/2000/svg">
<path fill-rule="evenodd" clip-rule="evenodd" d="M29.2483 14.0188C23.3051 14.0188 18.4873 18.8366 18.4873 24.7798C18.4873 27.5363 19.5228 30.0494 21.2272 31.9537C21.4666 32.2212 21.4439 32.6321 21.1764 32.8715C20.9089 33.1109 20.4979 33.0882 20.2585 32.8207C18.3491 30.6873 17.1873 27.8684 17.1873 24.7798C17.1873 18.1187 22.5872 12.7188 29.2483 12.7188C32.3067 12.7188 35.1006 13.8579 37.2263 15.7342C37.4955 15.9717 37.5211 16.3825 37.2835 16.6516C37.046 16.9208 36.6352 16.9464 36.3661 16.7088C34.4687 15.0342 31.9779 14.0188 29.2483 14.0188ZM39.9771 20.8298C40.3205 20.7252 40.6836 20.9188 40.7882 21.2623C41.1272 22.3759 41.3094 23.5572 41.3094 24.7798C41.3094 31.4409 35.9094 36.8409 29.2483 36.8409C27.8398 36.8409 26.4863 36.5991 25.228 36.1544C24.8895 36.0348 24.7121 35.6634 24.8318 35.3249C24.9514 34.9865 25.3228 34.8091 25.6612 34.9287C26.7823 35.325 27.9894 35.5409 29.2483 35.5409C35.1915 35.5409 40.0094 30.723 40.0094 24.7798C40.0094 23.6869 39.8466 22.6332 39.5445 21.6409C39.44 21.2975 39.6336 20.9343 39.9771 20.8298Z" fill="#EE1D2D"/>
<path fill-rule="evenodd" clip-rule="evenodd" d="M5.3501 23.9117C5.3501 23.5527 5.64111 23.2617 6.0001 23.2617H9.18614C9.54513 23.2617 9.83614 23.5527 9.83614 23.9117C9.83614 24.2707 9.54513 24.5617 9.18614 24.5617H6.0001C5.64111 24.5617 5.3501 24.2707 5.3501 23.9117ZM12.7222 23.9117C12.7222 23.5527 13.0132 23.2617 13.3722 23.2617H17.2792C17.6382 23.2617 17.9292 23.5527 17.9292 23.9117C17.9292 24.2707 17.6382 24.5617 17.2792 24.5617H13.3722C13.0132 24.5617 12.7222 24.2707 12.7222 23.9117ZM42.5594 23.9117C42.5594 23.5527 42.8504 23.2617 43.2094 23.2617H46.0001C46.3591 23.2617 46.6501 23.5527 46.6501 23.9117C46.6501 24.2707 46.3591 24.5617 46.0001 24.5617H43.2094C42.8504 24.5617 42.5594 24.2707 42.5594 23.9117Z" fill="#EE1D2D"/>
<path fill-rule="evenodd" clip-rule="evenodd" d="M10.0233 2.05273C10.3823 2.05273 10.6733 2.34375 10.6733 2.70273V6.05157C10.6733 6.41056 10.3823 6.70157 10.0233 6.70157C9.66431 6.70157 9.37329 6.41056 9.37329 6.05157V2.70273C9.37329 2.34375 9.66431 2.05273 10.0233 2.05273ZM10.0233 8.19227C10.3823 8.19227 10.6733 8.48328 10.6733 8.84227V13.3074C10.6733 13.6664 10.3823 13.9574 10.0233 13.9574C9.66431 13.9574 9.37329 13.6664 9.37329 13.3074V8.84227C9.37329 8.48328 9.66431 8.19227 10.0233 8.19227ZM10.0233 15.4481C10.3823 15.4481 10.6733 15.7391 10.6733 16.0981V19.4469C10.6733 19.8059 10.3823 20.0969 10.0233 20.0969C9.66431 20.0969 9.37329 19.8059 9.37329 19.4469V16.0981C9.37329 15.7391 9.66431 15.4481 10.0233 15.4481ZM10.0233 22.7039C10.3823 22.7039 10.6733 22.9949 10.6733 23.3539V26.7027C10.6733 27.0617 10.3823 27.3527 10.0233 27.3527C9.66431 27.3527 9.37329 27.0617 9.37329 26.7027V23.3539C9.37329 22.9949 9.66431 22.7039 10.0233 22.7039ZM10.0233 29.4016C10.3823 29.4016 10.6733 29.6926 10.6733 30.0516V33.1213C10.6733 33.4803 10.3823 33.7713 10.0233 33.7713C9.66431 33.7713 9.37329 33.4803 9.37329 33.1213V30.0516C9.37329 29.6926 9.66431 29.4016 10.0233 29.4016ZM10.0233 35.5411C10.3823 35.5411 10.6733 35.8321 10.6733 36.1911V39.5399C10.6733 39.8989 10.3823 40.1899 10.0233 40.1899C9.66431 40.1899 9.37329 39.8989 9.37329 39.5399V36.1911C9.37329 35.8321 9.66431 35.5411 10.0233 35.5411ZM10.0233 42.2388C10.3823 42.2388 10.6733 42.5298 10.6733 42.8888V46.7958C10.6733 47.1547 10.3823 47.4458 10.0233 47.4458C9.66431 47.4458 9.37329 47.1547 9.37329 46.7958V42.8888C9.37329 42.5298 9.66431 42.2388 10.0233 42.2388Z" fill="#EE1D2D"/>
<path fill-rule="evenodd" clip-rule="evenodd" d="M29.3472 19.0016C27.96 19.0016 26.8795 20.0819 26.8795 21.3612C26.8795 22.6404 27.96 23.7208 29.3472 23.7208C29.7614 23.7208 30.0972 24.0566 30.0972 24.4708C30.0972 24.885 29.7614 25.2208 29.3472 25.2208C27.1802 25.2208 25.3795 23.5168 25.3795 21.3612C25.3795 19.2056 27.1802 17.5016 29.3472 17.5016C31.0192 17.5016 32.4643 18.5106 33.0449 19.9595C33.199 20.344 33.0122 20.7806 32.6278 20.9347C32.2433 21.0888 31.8067 20.902 31.6526 20.5175C31.3014 19.6413 30.4101 19.0016 29.3472 19.0016Z" fill="#EE1D2D"/>
<path fill-rule="evenodd" clip-rule="evenodd" d="M29.5582 16.5645C29.9172 16.5645 30.2082 16.8555 30.2082 17.2145V31.7261C30.2082 32.0851 29.9172 32.3761 29.5582 32.3761C29.1992 32.3761 28.9082 32.0851 28.9082 31.7261V17.2145C28.9082 16.8555 29.1992 16.5645 29.5582 16.5645Z" fill="#EE1D2D"/>
<path fill-rule="evenodd" clip-rule="evenodd" d="M29.1313 29.9391C30.5185 29.9391 31.599 28.8587 31.599 27.5794C31.599 26.3002 30.5185 25.2198 29.1313 25.2198C28.7171 25.2198 28.3813 24.884 28.3813 24.4698C28.3813 24.0556 28.7171 23.7198 29.1313 23.7198C31.2982 23.7198 33.099 25.4239 33.099 27.5794C33.099 29.735 31.2982 31.4391 29.1313 31.4391C27.4593 31.4391 26.0142 30.43 25.4335 28.9811C25.2794 28.5966 25.4662 28.16 25.8507 28.0059C26.2352 27.8519 26.6718 28.0386 26.8259 28.4231C27.177 29.2994 28.0684 29.9391 29.1313 29.9391Z" fill="#EE1D2D"/>
<path fill-rule="evenodd" clip-rule="evenodd" d="M0.540478 36.54C0.794319 36.2862 1.20588 36.2862 1.45972 36.54L1.8501 36.9304V18.5688L1.45972 18.9592C1.20588 19.2131 0.794319 19.2131 0.540478 18.9592C0.286637 18.7054 0.286637 18.2938 0.540478 18.04L2.04048 16.54C2.29432 16.2861 2.70588 16.2861 2.95972 16.54L4.45972 18.04C4.71356 18.2938 4.71356 18.7054 4.45972 18.9592C4.20588 19.2131 3.79432 19.2131 3.54048 18.9592L3.1501 18.5688V36.9304L3.54048 36.54C3.79432 36.2862 4.20588 36.2862 4.45972 36.54C4.71356 36.7938 4.71356 37.2054 4.45972 37.4592L2.95972 38.9592C2.70588 39.2131 2.29432 39.2131 2.04048 38.9592L0.540478 37.4592C0.286637 37.2054 0.286637 36.7938 0.540478 36.54Z" fill="#EE1D2D"/>
</svg>
