<svg width="48" height="48" viewBox="0 0 48 48" fill="none" xmlns="http://www.w3.org/2000/svg">
<path fill-rule="evenodd" clip-rule="evenodd" d="M5.34998 12.0002C5.34998 11.6412 5.64099 11.3502 5.99998 11.3502H14.5227C14.8817 11.3502 15.1727 11.6412 15.1727 12.0002C15.1727 12.3592 14.8817 12.6502 14.5227 12.6502H6.64998V38.3502H30.35V34.9789C30.35 34.6199 30.641 34.3289 31 34.3289C31.359 34.3289 31.65 34.6199 31.65 34.9789V39.0002C31.65 39.3592 31.359 39.6502 31 39.6502H5.99998C5.64099 39.6502 5.34998 39.3592 5.34998 39.0002V12.0002Z" fill="#EE1D2D"/>
<path fill-rule="evenodd" clip-rule="evenodd" d="M13.35 8.00018C13.35 7.64119 13.641 7.35018 14 7.35018H16.2727C16.6317 7.35018 16.9227 7.64119 16.9227 8.00018C16.9227 8.35916 16.6317 8.65018 16.2727 8.65018H14.65V10.298C14.65 10.657 14.359 10.948 14 10.948C13.641 10.948 13.35 10.657 13.35 10.298V8.00018ZM18.4636 8.00018C18.4636 7.64119 18.7546 7.35018 19.1136 7.35018H23.0909C23.4499 7.35018 23.7409 7.64119 23.7409 8.00018C23.7409 8.35916 23.4499 8.65018 23.0909 8.65018H19.1136C18.7546 8.65018 18.4636 8.35916 18.4636 8.00018ZM26.4182 8.00018C26.4182 7.64119 26.7092 7.35018 27.0682 7.35018H32.6136C32.9726 7.35018 33.2636 7.64119 33.2636 8.00018C33.2636 8.35916 32.9726 8.65018 32.6136 8.65018H27.0682C26.7092 8.65018 26.4182 8.35916 26.4182 8.00018ZM35.3727 8.00018C35.3727 7.64119 35.6637 7.35018 36.0227 7.35018H40C40.359 7.35018 40.65 7.64119 40.65 8.00018V11.447C40.65 11.806 40.359 12.097 40 12.097C39.641 12.097 39.35 11.806 39.35 11.447V8.65018H36.0227C35.6637 8.65018 35.3727 8.35916 35.3727 8.00018ZM14 12.5204C14.359 12.5204 14.65 12.8114 14.65 13.1704V14.8938C14.65 15.2528 14.359 15.5438 14 15.5438C13.641 15.5438 13.35 15.2528 13.35 14.8938V13.1704C13.35 12.8114 13.641 12.5204 14 12.5204ZM20.25 13.0949C20.609 13.0949 20.9 13.3859 20.9 13.7449V16.0427C20.9 16.4017 20.609 16.6927 20.25 16.6927C19.891 16.6927 19.6 16.4017 19.6 16.0427V13.7449C19.6 13.3859 19.891 13.0949 20.25 13.0949ZM26.5 13.0949C26.859 13.0949 27.15 13.3859 27.15 13.7449V23.5108C27.15 23.8698 26.859 24.1608 26.5 24.1608C26.141 24.1608 25.85 23.8698 25.85 23.5108V13.7449C25.85 13.3859 26.141 13.0949 26.5 13.0949ZM33.75 13.0949C34.109 13.0949 34.4 13.3859 34.4 13.7449V23.5108C34.4 23.8698 34.109 24.1608 33.75 24.1608C33.391 24.1608 33.1 23.8698 33.1 23.5108V13.7449C33.1 13.3859 33.391 13.0949 33.75 13.0949ZM40 14.2438C40.359 14.2438 40.65 14.5348 40.65 14.8938V19.4895C40.65 19.8485 40.359 20.1395 40 20.1395C39.641 20.1395 39.35 19.8485 39.35 19.4895V14.8938C39.35 14.5348 39.641 14.2438 40 14.2438ZM14 16.5417C14.359 16.5417 14.65 16.8327 14.65 17.1917V21.2129C14.65 21.5719 14.359 21.8629 14 21.8629C13.641 21.8629 13.35 21.5719 13.35 21.2129V17.1917C13.35 16.8327 13.641 16.5417 14 16.5417ZM20.25 18.8395C20.609 18.8395 20.9 19.1306 20.9 19.4895V29.2555C20.9 29.6145 20.609 29.9055 20.25 29.9055C19.891 29.9055 19.6 29.6145 19.6 29.2555V19.4895C19.6 19.1306 19.891 18.8395 20.25 18.8395ZM40 21.7119C40.359 21.7119 40.65 22.0029 40.65 22.3619V26.9576C40.65 27.3166 40.359 27.6076 40 27.6076C39.641 27.6076 39.35 27.3166 39.35 26.9576V22.3619C39.35 22.0029 39.641 21.7119 40 21.7119ZM14 24.0098C14.359 24.0098 14.65 24.3008 14.65 24.6598V28.681C14.65 29.04 14.359 29.331 14 29.331C13.641 29.331 13.35 29.04 13.35 28.681V24.6598C13.35 24.3008 13.641 24.0098 14 24.0098ZM26.5 26.3076C26.859 26.3076 27.15 26.5986 27.15 26.9576V29.2555C27.15 29.6145 26.859 29.9055 26.5 29.9055C26.141 29.9055 25.85 29.6145 25.85 29.2555V26.9576C25.85 26.5986 26.141 26.3076 26.5 26.3076ZM33.75 26.3076C34.109 26.3076 34.4 26.5986 34.4 26.9576V29.2555C34.4 29.6145 34.109 29.9055 33.75 29.9055C33.391 29.9055 33.1 29.6145 33.1 29.2555V26.9576C33.1 26.5986 33.391 26.3076 33.75 26.3076ZM40 30.9034C40.359 30.9034 40.65 31.1944 40.65 31.5534V35.0002C40.65 35.3592 40.359 35.6502 40 35.6502H37.1591C36.8001 35.6502 36.5091 35.3592 36.5091 35.0002C36.5091 34.6412 36.8001 34.3502 37.1591 34.3502H39.35V31.5534C39.35 31.1944 39.641 30.9034 40 30.9034ZM14 31.4778C14.359 31.4778 14.65 31.7689 14.65 32.1278V34.3502H16.8409C17.1999 34.3502 17.4909 34.6412 17.4909 35.0002C17.4909 35.3592 17.1999 35.6502 16.8409 35.6502H14C13.641 35.6502 13.35 35.3592 13.35 35.0002V32.1278C13.35 31.7689 13.641 31.4778 14 31.4778ZM19.6 35.0002C19.6 34.6412 19.891 34.3502 20.25 34.3502H24.7954C25.1544 34.3502 25.4454 34.6412 25.4454 35.0002C25.4454 35.3592 25.1544 35.6502 24.7954 35.6502H20.25C19.891 35.6502 19.6 35.3592 19.6 35.0002ZM27.5545 35.0002C27.5545 34.6412 27.8455 34.3502 28.2045 34.3502H33.75C34.109 34.3502 34.4 34.6412 34.4 35.0002C34.4 35.3592 34.109 35.6502 33.75 35.6502H28.2045C27.8455 35.6502 27.5545 35.3592 27.5545 35.0002Z" fill="#EE1D2D"/>
<path fill-rule="evenodd" clip-rule="evenodd" d="M43.6137 8.27446C43.2548 8.26685 42.97 7.96973 42.9777 7.61082L42.9984 6.63282L41.8044 7.9359C41.5619 8.20058 41.1507 8.21854 40.8861 7.97603C40.6214 7.73351 40.6034 7.32234 40.8459 7.05766L42.0059 5.79171L41.2964 5.88253C40.9403 5.92811 40.6147 5.6764 40.5692 5.32033C40.5236 4.96425 40.7753 4.63864 41.1314 4.59305L43.6023 4.27675C43.79 4.25273 43.9788 4.31165 44.1195 4.43814C44.2601 4.56463 44.3387 4.74614 44.3347 4.93528L44.2774 7.6384C44.2697 7.9973 43.9726 8.28208 43.6137 8.27446Z" fill="#EE1D2D"/>
<path fill-rule="evenodd" clip-rule="evenodd" d="M9.40185 44.9828C9.41658 45.3414 9.13774 45.6442 8.77906 45.6589L6.3113 45.7602C5.95262 45.7749 5.64991 45.4961 5.63518 45.1374L5.53387 42.6696C5.51914 42.311 5.79797 42.0083 6.15665 41.9935C6.51534 41.9788 6.81805 42.2576 6.83277 42.6163L6.86972 43.5162L8.17299 42.1013C8.41621 41.8372 8.82742 41.8204 9.09146 42.0636C9.3555 42.3068 9.37238 42.718 9.12917 42.982L7.82589 44.3969L8.72573 44.36C9.08442 44.3452 9.38712 44.6241 9.40185 44.9828ZM12.6411 38.21C12.9052 38.4532 12.922 38.8644 12.6788 39.1284L10.3124 41.6975C10.0692 41.9615 9.65796 41.9784 9.39392 41.7352C9.12988 41.492 9.113 41.0808 9.35621 40.8167L11.7227 38.2477C11.9659 37.9836 12.3771 37.9667 12.6411 38.21Z" fill="#EE1D2D"/>
<path d="M19.0736 19.5004C18.6317 19.5004 18.2736 19.1423 18.2736 18.7004V17.0502C18.2736 16.6083 18.6318 16.2502 19.0736 16.2502L21.5239 16.2502C21.9657 16.2502 22.3239 16.6084 22.3239 17.0502V18.7004C22.3239 19.1423 21.9657 19.5004 21.5239 19.5004L19.0736 19.5004Z" fill="#EE1D2D"/>
<path d="M25.2497 26.75C24.8079 26.75 24.4497 26.3919 24.4497 25.95V24.2998C24.4497 23.858 24.8079 23.4998 25.2497 23.4998L27.7 23.4998C28.1418 23.4998 28.5 23.858 28.5 24.2998V25.9501C28.5 26.3919 28.1418 26.7501 27.7 26.7501L25.2497 26.75Z" fill="#EE1D2D"/>
<path d="M32.5 26.75C32.0582 26.75 31.7 26.3918 31.7 25.95V24.2997C31.7 23.8579 32.0582 23.4997 32.5 23.4997L34.9504 23.4998C35.3922 23.4998 35.7504 23.8579 35.7504 24.2998V25.95C35.7504 26.3918 35.3922 26.75 34.9503 26.75L32.5 26.75Z" fill="#EE1D2D"/>
</svg>
