<svg width="48" height="48" viewBox="0 0 48 48" fill="none" xmlns="http://www.w3.org/2000/svg">
<path fill-rule="evenodd" clip-rule="evenodd" d="M16.0001 8.85005C16.3591 8.85005 16.6501 9.14107 16.6501 9.50005V11.0836C17.6104 10.8433 18.979 10.7628 20.2908 11.4187C20.6119 11.5792 20.742 11.9697 20.5815 12.2907C20.4209 12.6118 20.0305 12.742 19.7094 12.5814C18.5854 12.0194 17.355 12.1983 16.6501 12.4354V24.1001H19.5001C19.7278 24.1001 19.9389 24.2192 20.0565 24.4141C20.1742 24.609 20.1813 24.8513 20.0753 25.0528L17.9839 29.0264C17.8167 29.3441 17.4237 29.466 17.106 29.2989C16.7883 29.1317 16.6663 28.7386 16.8335 28.4209L18.4235 25.4001H16.6501V36.8501H31.3501V25.4001H30.8834L24.8455 36.3147C24.6717 36.6288 24.2762 36.7426 23.9621 36.5688C23.6479 36.3951 23.5342 35.9995 23.7079 35.6854L29.3977 25.4001H27.1763L21.0673 36.3175C20.892 36.6307 20.496 36.7426 20.1827 36.5673C19.8694 36.392 19.7576 35.9959 19.9329 35.6826L25.6866 25.4001H24.5001C24.1411 25.4001 23.8501 25.109 23.8501 24.7501C23.8501 24.3911 24.1411 24.1001 24.5001 24.1001H26.7835C26.7917 24.0999 26.7999 24.0999 26.8081 24.1001H31.3501V11.0001C31.3501 10.6411 31.6411 10.3501 32.0001 10.3501C32.3591 10.3501 32.6501 10.6411 32.6501 11.0001V24.1001H33.0001C33.3591 24.1001 33.6501 24.3911 33.6501 24.7501C33.6501 25.109 33.3591 25.4001 33.0001 25.4001H32.6501V36.8501H33.0001C33.3591 36.8501 33.6501 37.1411 33.6501 37.5001C33.6501 37.859 33.3591 38.1501 33.0001 38.1501H32.5001C32.4115 38.1501 32.3271 38.1323 32.2501 38.1002C32.1731 38.1323 32.0887 38.1501 32.0001 38.1501H16.0001C15.6411 38.1501 15.3501 37.859 15.3501 37.5001V9.50005C15.3501 9.14107 15.6411 8.85005 16.0001 8.85005ZM25.1419 12.2338C25.1986 12.5883 24.9572 12.9216 24.6028 12.9783C23.9855 13.077 23.2488 13.1545 22.4946 13.1481C22.1357 13.1451 21.8471 12.8517 21.8501 12.4927C21.8531 12.1337 22.1466 11.8452 22.5056 11.8482C23.1686 11.8537 23.8304 11.7853 24.3974 11.6946C24.7519 11.6379 25.0852 11.8793 25.1419 12.2338ZM23.306 24.1765C23.6227 24.3455 23.7426 24.7392 23.5736 25.0559L18.1979 35.1353C18.029 35.4521 17.6353 35.5719 17.3185 35.403C17.0018 35.2341 16.8819 34.8403 17.0509 34.5236L22.4266 24.4442C22.5955 24.1274 22.9892 24.0076 23.306 24.1765ZM1.8501 24.7501C1.8501 24.3911 2.14111 24.1001 2.5001 24.1001H6.2501C6.60908 24.1001 6.9001 24.3911 6.9001 24.7501C6.9001 25.109 6.60908 25.4001 6.2501 25.4001H2.5001C2.14111 25.4001 1.8501 25.109 1.8501 24.7501ZM9.3501 24.7501C9.3501 24.3911 9.64111 24.1001 10.0001 24.1001H14.0001C14.3591 24.1001 14.6501 24.3911 14.6501 24.7501C14.6501 25.109 14.3591 25.4001 14.0001 25.4001H10.0001C9.64111 25.4001 9.3501 25.109 9.3501 24.7501ZM34.8501 24.7501C34.8501 24.3911 35.1411 24.1001 35.5001 24.1001H39.0001C39.3591 24.1001 39.6501 24.3911 39.6501 24.7501C39.6501 25.109 39.3591 25.4001 39.0001 25.4001H35.5001C35.1411 25.4001 34.8501 25.109 34.8501 24.7501ZM41.3501 24.7501C41.3501 24.3911 41.6411 24.1001 42.0001 24.1001H45.5001C45.8591 24.1001 46.1501 24.3911 46.1501 24.7501C46.1501 25.109 45.8591 25.4001 45.5001 25.4001H42.0001C41.6411 25.4001 41.3501 25.109 41.3501 24.7501ZM41.3501 27.5001C41.3501 27.1411 41.6411 26.8501 42.0001 26.8501H43.5001C43.8591 26.8501 44.1501 27.1411 44.1501 27.5001C44.1501 27.859 43.8591 28.1501 43.5001 28.1501H42.0001C41.6411 28.1501 41.3501 27.859 41.3501 27.5001ZM2.8501 28.7237C2.8501 28.3647 3.14111 28.0737 3.5001 28.0737H5.0001C5.35908 28.0737 5.6501 28.3647 5.6501 28.7237C5.6501 29.0826 5.35908 29.3737 5.0001 29.3737H3.5001C3.14111 29.3737 2.8501 29.0826 2.8501 28.7237ZM7.8501 28.7237C7.8501 28.3647 8.14111 28.0737 8.5001 28.0737H10.0001C10.3591 28.0737 10.6501 28.3647 10.6501 28.7237C10.6501 29.0826 10.3591 29.3737 10.0001 29.3737H8.5001C8.14111 29.3737 7.8501 29.0826 7.8501 28.7237ZM32.8501 28.7237C32.8501 28.3647 33.1411 28.0737 33.5001 28.0737H35.0001C35.3591 28.0737 35.6501 28.3647 35.6501 28.7237C35.6501 29.0826 35.3591 29.3737 35.0001 29.3737H33.5001C33.1411 29.3737 32.8501 29.0826 32.8501 28.7237ZM37.8501 29.5001C37.8501 29.1411 38.1411 28.8501 38.5001 28.8501H39.0001C39.3591 28.8501 39.6501 29.1411 39.6501 29.5001C39.6501 29.859 39.3591 30.1501 39.0001 30.1501H38.5001C38.1411 30.1501 37.8501 29.859 37.8501 29.5001ZM30.8158 30.9319C31.1296 31.1062 31.2426 31.5019 31.0683 31.8157L28.5683 36.3157C28.394 36.6295 27.9982 36.7426 27.6844 36.5683C27.3706 36.3939 27.2576 35.9982 27.4319 35.6844L29.9319 31.1844C30.1062 30.8706 30.502 30.7575 30.8158 30.9319ZM4.0737 32.5001C4.0737 32.1411 4.36471 31.8501 4.7237 31.8501H6.2237C6.58268 31.8501 6.8737 32.1411 6.8737 32.5001C6.8737 32.859 6.58268 33.1501 6.2237 33.1501H4.7237C4.36471 33.1501 4.0737 32.859 4.0737 32.5001ZM11.8501 32.5001C11.8501 32.1411 12.1411 31.8501 12.5001 31.8501H14.0001C14.3591 31.8501 14.6501 32.1411 14.6501 32.5001C14.6501 32.859 14.3591 33.1501 14.0001 33.1501H12.5001C12.1411 33.1501 11.8501 32.859 11.8501 32.5001ZM35.8501 34.0001C35.8501 33.6411 36.1411 33.3501 36.5001 33.3501H38.0001C38.3591 33.3501 38.6501 33.6411 38.6501 34.0001C38.6501 34.359 38.3591 34.6501 38.0001 34.6501H36.5001C36.1411 34.6501 35.8501 34.359 35.8501 34.0001ZM41.3501 34.0001C41.3501 33.6411 41.6411 33.3501 42.0001 33.3501H43.5001C43.8591 33.3501 44.1501 33.6411 44.1501 34.0001C44.1501 34.359 43.8591 34.6501 43.5001 34.6501H42.0001C41.6411 34.6501 41.3501 34.359 41.3501 34.0001ZM8.8501 35.0001C8.8501 34.6411 9.14111 34.3501 9.5001 34.3501H10.0001C10.3591 34.3501 10.6501 34.6411 10.6501 35.0001C10.6501 35.359 10.3591 35.6501 10.0001 35.6501H9.5001C9.14111 35.6501 8.8501 35.359 8.8501 35.0001ZM37.8501 37.5001C37.8501 37.1411 38.1411 36.8501 38.5001 36.8501H39.0001C39.3591 36.8501 39.6501 37.1411 39.6501 37.5001C39.6501 37.859 39.3591 38.1501 39.0001 38.1501H38.5001C38.1411 38.1501 37.8501 37.859 37.8501 37.5001ZM11.8501 38.0001C11.8501 37.6411 12.1411 37.3501 12.5001 37.3501H14.0001C14.3591 37.3501 14.6501 37.6411 14.6501 38.0001C14.6501 38.359 14.3591 38.6501 14.0001 38.6501H12.5001C12.1411 38.6501 11.8501 38.359 11.8501 38.0001ZM24.8501 40.0001C24.8501 39.6411 25.1411 39.3501 25.5001 39.3501H26.0001C26.3591 39.3501 26.6501 39.6411 26.6501 40.0001C26.6501 40.359 26.3591 40.6501 26.0001 40.6501H25.5001C25.1411 40.6501 24.8501 40.359 24.8501 40.0001ZM18.8501 41.5001C18.8501 41.1411 19.1411 40.8501 19.5001 40.8501H21.0001C21.3591 40.8501 21.6501 41.1411 21.6501 41.5001C21.6501 41.859 21.3591 42.1501 21.0001 42.1501H19.5001C19.1411 42.1501 18.8501 41.859 18.8501 41.5001ZM32.8501 43.0001C32.8501 42.6411 33.1411 42.3501 33.5001 42.3501H35.0001C35.3591 42.3501 35.6501 42.6411 35.6501 43.0001C35.6501 43.359 35.3591 43.6501 35.0001 43.6501H33.5001C33.1411 43.6501 32.8501 43.359 32.8501 43.0001Z" fill="#EE1D2D"/>
<path fill-rule="evenodd" clip-rule="evenodd" d="M33.5405 19.5404C33.7943 19.2866 34.2059 19.2866 34.4597 19.5404L34.8501 19.9308V11.5693L34.4597 11.9597C34.2059 12.2135 33.7943 12.2135 33.5405 11.9597C33.2866 11.7058 33.2866 11.2943 33.5405 11.0404L35.0405 9.54043C35.1624 9.41853 35.3277 9.35005 35.5001 9.35005C35.6725 9.35005 35.8378 9.41853 35.9597 9.54043L37.4597 11.0404C37.7136 11.2943 37.7136 11.7058 37.4597 11.9597C37.2059 12.2135 36.7943 12.2135 36.5405 11.9597L36.1501 11.5693V19.9308L36.5405 19.5404C36.7943 19.2866 37.2059 19.2866 37.4597 19.5404C37.7136 19.7943 37.7136 20.2058 37.4597 20.4597L35.9597 21.9597C35.7059 22.2135 35.2943 22.2135 35.0405 21.9597L33.5405 20.4597C33.2866 20.2058 33.2866 19.7943 33.5405 19.5404Z" fill="#EE1D2D"/>
<path fill-rule="evenodd" clip-rule="evenodd" d="M19.0018 18.9671C19.3605 18.9548 19.6613 19.2357 19.6736 19.5945L19.6924 20.1463L32.2253 6.7272L31.6736 6.74605C31.3148 6.7583 31.014 6.47738 31.0018 6.11861C30.9895 5.75983 31.2704 5.45905 31.6292 5.4468L33.7493 5.37441C34.1081 5.36216 34.4088 5.64307 34.4211 6.00185L34.4935 8.12193C34.5057 8.48071 34.2248 8.78149 33.866 8.79374C33.5073 8.80599 33.2065 8.52507 33.1942 8.1663L33.1754 7.61454L20.6425 21.0336L21.1942 21.0148C21.553 21.0025 21.8538 21.2834 21.866 21.6422C21.8783 22.001 21.5974 22.3018 21.2386 22.314L19.1185 22.3864C18.7597 22.3987 18.459 22.1177 18.4467 21.759L18.3743 19.6389C18.3621 19.2801 18.643 18.9793 19.0018 18.9671Z" fill="#EE1D2D"/>
</svg>
