<svg width="48" height="48" viewBox="0 0 48 48" fill="none" xmlns="http://www.w3.org/2000/svg">
<path fill-rule="evenodd" clip-rule="evenodd" d="M10.7259 4.35156H34.9808V8.95877L34.6934 9.94465L36.5973 16.1757V19.8092H40.8554L44.3567 26.0868V40.2285L44.5868 40.0899L46.1168 42.6297L25.5341 43.6722L24.3049 41.2234V37.8195L1.34998 36.5314V25.4577L4.18543 19.8092H10.0793V15.503L11.3513 12.3355L10.7259 8.59794V4.35156ZM12.624 12.6549L11.3793 15.7543V19.8092H19.1319V16.3786L18.6674 14.9905H18.5889L18.6257 14.866L16.7276 9.19394H14.0717L12.624 12.6549ZM18.5813 10.6368L19.1319 8.77201V5.65156H12.0259V8.48993L12.292 10.0799L13.2064 7.89394H17.6634L18.5813 10.6368ZM21.1806 10.8041L20.3283 13.6905H30.6182L31.5099 10.8041H21.1806ZM20.0383 14.9905L20.2498 15.6227H26.7735L26.6677 14.9905H20.0383ZM27.9858 14.9905L28.0916 15.6227H31.5828L32.7173 11.807L33.3943 9.75617L33.4643 9.51597H33.2684L31.5772 14.9905H27.9858ZM21.7252 8.21597H33.6808V5.65156H21.7252V8.21597ZM33.3488 14.2446L32.939 15.6227H33.7736L33.3488 14.2446ZM34.0041 16.9227H20.4319V19.8092H34.0041V16.9227ZM24.3049 36.5175V26.3942L22.5214 22.3973H6.59431L4.80685 25.7732V35.4233L24.3049 36.5175ZM3.50685 35.3504V25.4503L5.37624 21.9197L4.80793 21.4668L2.64998 25.7657V35.3023L3.50685 35.3504ZM23.3702 21.1092L25.6049 26.1174V40.3967L43.0567 39.7972V26.4248L40.0919 21.1092H23.3702ZM25.9908 41.6842L26.3154 42.3309L43.8832 41.4412L43.6639 41.0771L25.9908 41.6842ZM7.52043 28.5041H9.90436V31.4143H8.79283V32.0465H9.90436V34.6346H6.97675L5.55298 33.6892V29.3751L7.52043 28.5041ZM7.49283 33.3346V30.1143H8.60436V29.8041H7.79532L6.85298 30.2213V32.9919L7.36907 33.3346H7.49283ZM31.764 28.7922H38.4945L40.65 31.1197V35.8276L35.9608 36.5728L29.8011 35.851V31.1384L31.764 28.7922ZM32.3713 30.0922L31.7783 30.8011L35.6948 31.0306L36.6369 30.0922H32.3713ZM38.1916 30.3785L36.5973 31.9665V35.1554L39.35 34.7179V31.6292L38.1916 30.3785ZM35.2973 35.1862V32.3095L31.1011 32.0636V34.6945L35.2973 35.1862ZM18.162 29.1482H21.3437L22.6951 30.4943V34.4253L20.5533 35.2787H18.162V32.6905H19.4552V32.0583H18.162V29.1482ZM19.462 30.7583H20.7552V33.7988L21.3951 33.5439V31.0343L20.8067 30.4482H19.462V30.7583Z" fill="#272324"/>
<path fill-rule="evenodd" clip-rule="evenodd" d="M10.9934 36.4156C10.9292 36.6429 10.8941 36.8863 10.8941 37.1405C10.8941 38.5076 11.8769 39.4962 12.9492 39.4962C14.0214 39.4962 15.0043 38.5076 15.0043 37.1405C15.0043 37.0584 15.0006 36.9774 14.9935 36.8978L16.2883 36.7821C16.2989 36.9002 16.3043 37.0197 16.3043 37.1405C16.3043 39.0934 14.8649 40.7962 12.9492 40.7962C11.0335 40.7962 9.5941 39.0934 9.5941 37.1405C9.5941 36.7664 9.64577 36.404 9.74244 36.062L10.9934 36.4156Z" fill="#272324"/>
<path fill-rule="evenodd" clip-rule="evenodd" d="M9.15975 36.3526C9.11447 36.6072 9.09067 36.8706 9.09067 37.1405C9.09067 39.4776 10.8571 41.2995 12.9491 41.2995C15.0412 41.2995 16.8076 39.4776 16.8076 37.1405C16.8076 37.0521 16.8051 36.9644 16.8 36.8775L18.0979 36.8024C18.1043 36.9143 18.1076 37.027 18.1076 37.1405C18.1076 40.1153 15.837 42.5995 12.9491 42.5995C10.0613 42.5995 7.79067 40.1153 7.79067 37.1405C7.79067 36.794 7.82123 36.4545 7.87984 36.125L9.15975 36.3526Z" fill="#272324"/>
<path fill-rule="evenodd" clip-rule="evenodd" d="M19.9366 37.0882C19.9198 37.2094 19.9109 37.334 19.9109 37.4614C19.9109 38.8285 20.8938 39.817 21.966 39.817C23.0383 39.817 24.0211 38.8285 24.0211 37.4614C24.0211 37.3793 24.0175 37.2983 24.0103 37.2187L25.3052 37.103C25.3157 37.221 25.3211 37.3406 25.3211 37.4614C25.3211 39.4142 23.8817 41.117 21.966 41.117C20.0503 41.117 18.6109 39.4142 18.6109 37.4614C18.6109 37.274 18.6239 37.0896 18.649 36.9091L19.9366 37.0882Z" fill="#272324"/>
<path fill-rule="evenodd" clip-rule="evenodd" d="M18.1766 36.6734C18.1313 36.9281 18.1075 37.1914 18.1075 37.4613C18.1075 39.7985 19.8739 41.6204 21.966 41.6204C22.8988 41.6204 23.7578 41.2639 24.4305 40.6611L25.2981 41.6292C24.4034 42.4309 23.2404 42.9204 21.966 42.9204C19.0782 42.9204 16.8075 40.4361 16.8075 37.4613C16.8075 37.1149 16.8381 36.7754 16.8967 36.4458L18.1766 36.6734Z" fill="#272324"/>
</svg>
