<svg width="48" height="48" viewBox="0 0 48 48" fill="none" xmlns="http://www.w3.org/2000/svg">
<path fill-rule="evenodd" clip-rule="evenodd" d="M12.1715 8.86906C12.3186 8.54158 12.7033 8.3953 13.0308 8.54234L14.8614 9.3643C15.1888 9.51134 15.3351 9.89602 15.1881 10.2235C15.041 10.551 14.6563 10.6973 14.3289 10.5502L13.0912 9.99453L12.5355 11.2322C12.3885 11.5596 12.0038 11.7059 11.6763 11.5589C11.3488 11.4118 11.2025 11.0271 11.3496 10.6997L12.1715 8.86906ZM16.2904 10.7185C16.4374 10.391 16.8221 10.2447 17.1496 10.3917L20.3531 11.8302C20.6806 11.9772 20.8269 12.3619 20.6798 12.6894C20.5328 13.0169 20.1481 13.1631 19.8206 13.0161L16.6171 11.5777C16.2896 11.4306 16.1433 11.0459 16.2904 10.7185ZM22.6974 13.5953C22.8445 13.2678 23.2292 13.1215 23.5567 13.2686L27.2178 14.9125C27.5453 15.0595 27.6916 15.4442 27.5446 15.7717C27.3975 16.0992 27.0128 16.2455 26.6853 16.0984L23.0242 14.4545C22.6967 14.3075 22.5504 13.9228 22.6974 13.5953ZM11.1814 12.6612C11.5089 12.8082 11.6551 13.1929 11.5081 13.5204L10.8916 14.8933C10.7446 15.2208 10.3599 15.3671 10.0324 15.2201C9.70492 15.073 9.55865 14.6883 9.70569 14.3608L10.3222 12.9879C10.4692 12.6604 10.8539 12.5141 11.1814 12.6612ZM9.74296 15.8647C10.0704 16.0118 10.2167 16.3964 10.0697 16.7239L8.63126 19.9275C8.48422 20.2549 8.09953 20.4012 7.77204 20.2542C7.44456 20.1071 7.29828 19.7225 7.44532 19.395L8.88374 16.1914C9.03078 15.8639 9.41547 15.7177 9.74296 15.8647ZM28.0301 29.025C28.3576 29.1721 28.5038 29.5567 28.3568 29.8842L26.7129 33.5454C26.5658 33.8729 26.1812 34.0192 25.8537 33.8721C25.5262 33.7251 25.3799 33.3404 25.5269 33.0129L27.1709 29.3517C27.3179 29.0242 27.7026 28.878 28.0301 29.025ZM7.07161 21.8141C7.3991 21.9612 7.54538 22.3459 7.39833 22.6733L5.95992 25.8769C5.81287 26.2044 5.42819 26.3506 5.1007 26.2036C4.77321 26.0566 4.62694 25.6719 4.77398 25.3444L6.2124 22.1408C6.35944 21.8134 6.74413 21.6671 7.07161 21.8141ZM24.7423 36.3474C25.0697 36.4944 25.216 36.8791 25.069 37.2066L23.8361 39.9525C23.689 40.28 23.3043 40.4262 22.9768 40.2792L20.6886 39.2518C20.3611 39.1047 20.2148 38.72 20.3619 38.3925C20.5089 38.0651 20.8936 37.9188 21.2211 38.0658L22.9164 38.827L23.883 36.6741C24.0301 36.3466 24.4148 36.2003 24.7423 36.3474ZM4.40027 27.7635C4.72776 27.9106 4.87404 28.2953 4.72699 28.6228L3.9658 30.318L5.66107 31.0792C5.98856 31.2263 6.13484 31.611 5.98779 31.9384C5.84074 32.2659 5.45606 32.4122 5.12857 32.2652L2.84033 31.2377C2.51285 31.0907 2.36657 30.706 2.51361 30.3785L3.54105 28.0903C3.6881 27.7628 4.07278 27.6165 4.40027 27.7635ZM7.54774 32.6389C7.69478 32.3114 8.07947 32.1651 8.40696 32.3122L12.0681 33.9561C12.3956 34.1031 12.5419 34.4878 12.3949 34.8153C12.2478 35.1428 11.8631 35.289 11.5356 35.142L7.87446 33.4981C7.54697 33.351 7.40069 32.9664 7.54774 32.6389ZM13.9548 35.5157C14.1019 35.1882 14.4865 35.0419 14.814 35.189L18.4752 36.8329C18.8027 36.9799 18.949 37.3646 18.8019 37.6921C18.6549 38.0196 18.2702 38.1659 17.9427 38.0188L14.2815 36.3749C13.954 36.2279 13.8078 35.8432 13.9548 35.5157Z" fill="#EE1D2D"/>
<path fill-rule="evenodd" clip-rule="evenodd" d="M12.5403 17.1643C12.7942 16.9104 13.2057 16.9104 13.4596 17.1643L13.9835 17.6882V10.0009C13.9835 9.64187 14.2745 9.35085 14.6335 9.35085C14.9924 9.35085 15.2835 9.64187 15.2835 10.0009V17.6882L15.8074 17.1643C16.0612 16.9104 16.4728 16.9104 16.7266 17.1643C16.9804 17.4181 16.9804 17.8297 16.7266 18.0835L15.0931 19.717C14.8392 19.9709 14.4277 19.9709 14.1738 19.717L12.5403 18.0835C12.2865 17.8297 12.2865 17.4181 12.5403 17.1643Z" fill="#EE1D2D"/>
<path fill-rule="evenodd" clip-rule="evenodd" d="M26.5403 43.342C26.7942 43.0882 27.2057 43.0882 27.4596 43.342L27.9835 43.8659V18.0006C27.9835 17.6416 28.2745 17.3506 28.6335 17.3506C28.9925 17.3506 29.2835 17.6416 29.2835 18.0006V43.8659L29.8074 43.342C30.0612 43.0882 30.4728 43.0882 30.7266 43.342C30.9804 43.5959 30.9804 44.0074 30.7266 44.2613L29.0931 45.8948C28.8392 46.1486 28.4277 46.1486 28.1738 45.8948L26.5403 44.2613C26.2865 44.0074 26.2865 43.5959 26.5403 43.342Z" fill="#EE1D2D"/>
<path fill-rule="evenodd" clip-rule="evenodd" d="M28.5403 22.4602C28.2865 22.2064 28.2865 21.7948 28.5403 21.541L35.0807 15.0006L28.5403 8.46021C28.2865 8.20636 28.2865 7.79481 28.5403 7.54097C28.7942 7.28713 29.2057 7.28713 29.4596 7.54097L36 14.0813L42.5403 7.54097C42.7942 7.28713 43.2057 7.28713 43.4596 7.54097C43.7134 7.79481 43.7134 8.20636 43.4596 8.46021L36.9192 15.0006L43.4596 21.541C43.7134 21.7948 43.7134 22.2064 43.4596 22.4602C43.2057 22.714 42.7942 22.714 42.5403 22.4602L36 15.9198L29.4596 22.4602C29.2057 22.714 28.7942 22.714 28.5403 22.4602Z" fill="#EE1D2D"/>
</svg>
