<svg width="48" height="48" viewBox="0 0 48 48" fill="none" xmlns="http://www.w3.org/2000/svg">
<path fill-rule="evenodd" clip-rule="evenodd" d="M15.3729 10.931H18.2897V3.47672H19.5897V10.931H20.1452V3.47672H21.4452V10.931H21.7761L24.2341 13.9082L26.9154 10.931H27.609V3H29.9632V10.931H32.5427V3H33.8427V10.931H34.3138V3H35.6138V10.931H35.9448L38.65 14.2077V21.007L36.7467 25.5792H34.6178L30.2323 31.5383H26.9446L26.6048 31.2143V35.2304L23.7669 38.7304V41.85H24.477L24.85 41.6293V39.125L28.7846 36.85H31.6605L31.5418 44.2282L28.8714 47.65H20.8159L17.35 43.2242V37.2401L21.1798 33.2164L21.3564 31.225L21.2155 31.5383H16.6309L14.4381 25.5792H11.2532L9.34998 21.007V13.9534L12.0721 10.931H12.8921V3H15.3729V10.931ZM15.8233 25.5792L17.5377 30.2383H18.8469L20.8251 25.5792H15.8233ZM22.3977 25.2017L20.2592 30.2383H20.3748L23.6497 22.9573H23.5188L22.3977 25.2017ZM24.1682 21.6573H26.3382L27.8548 22.3717V24.2792H31.8315L33.3018 20.7472V14.9114L31.1132 12.231H27.4941L25.4933 14.4525V15.4599H28.2168C28.5826 15.4599 29.1302 15.5484 29.6097 15.8411C30.1237 16.1549 30.5536 16.7075 30.5536 17.54C30.5536 18.5111 30.0705 19.1338 29.4644 19.4765C28.9049 19.7927 28.2712 19.8586 27.8795 19.8586H24.4813V21.0304L24.1682 21.6573ZM24.4813 18.5586H27.8795C28.1625 18.5586 28.5409 18.5052 28.8247 18.3448C29.0619 18.2107 29.2536 17.9991 29.2536 17.54C29.2536 17.2284 29.1212 17.066 28.9324 16.9507C28.7091 16.8144 28.4133 16.7599 28.2168 16.7599H24.4813V18.5586ZM32.7915 12.231L34.6018 14.448V21.007L33.2397 24.2792H35.8797L37.35 20.7472V14.675L35.3323 12.231H32.7915ZM29.9283 25.5792H26.5548V23.1963L26.0473 22.9573H25.0752L22.3363 29.0465H28.9354L29.9283 27.452V25.5792ZM32.626 25.5792L30.5485 28.9153L33.0037 25.5792H32.626ZM24.0048 30.3465H22.7395L22.4346 33.7836L18.65 37.7599V42.7758L21.4491 46.35H25.9867L28.309 43.5492V38.6267L26.15 39.875V42.3707L24.8327 43.15H21.4616L20.8199 42.1988V38.2485L24.0048 34.7485V30.3465ZM29.609 38.15V44.018L27.6754 46.35H28.2369L30.2489 43.7718L30.3394 38.15H29.609ZM22.4669 38.3701L22.1199 38.7515V41.8012L22.1528 41.85H22.4669V38.3701ZM21.4053 24.2792L23.1813 20.7238V14.675L21.1636 12.231H18.7222L20.7705 14.1607V21.0304L19.1476 24.2792H21.4053ZM17.6945 24.2792L19.4705 20.7238V14.722L16.8264 12.231H12.6508L10.65 14.4525V20.7472L12.1202 24.2792H17.6945Z" fill="#272324"/>
<path d="M13 18C13 17.4477 13.4477 17 14 17C14.5523 17 15 17.4477 15 18C15 18.5523 14.5523 19 14 19C13.4477 19 13 18.5523 13 18Z" fill="#272324"/>
</svg>
