<svg width="48" height="48" viewBox="0 0 48 48" fill="none" xmlns="http://www.w3.org/2000/svg">
<g clip-path="url(#clip0)">
<path fill-rule="evenodd" clip-rule="evenodd" d="M27.7039 9.06202L27.5121 15.2311L19.0109 13.5021L18.6033 9.33985L27.7039 9.06202ZM18.4503 7.74122H27.7537L28.3508 -5.5293L29.6494 -5.47087L29.0246 8.41591L27.9518 42.921L32.2051 40.7496L33.5124 31.0722L33.3903 31.0847H30.0358V29.7847H33.3242L33.6914 29.7472L34.3563 24.8252L33.9439 24.8673H30.5894V23.5673H33.8777L34.5353 23.5002L35.1905 18.6499H31.6965V17.3499H35.366L36.8541 3.92829L38.1461 4.07155L36.7261 16.8796L40.0913 17.3563L40.0001 18.6499H36.5023L35.9144 23.0021H39.4465L39.5126 24.2987L35.6864 24.6894L35.1391 28.7414L38.9742 29.2246L38.959 30.5161L34.8425 30.9364L33.4023 41.598L27.3832 44.6709L23.0914 44.1014L19.9905 38.5444L19.3013 31.0847H14.0121L8.20337 4.39566L16.8013 3.8899L16.352 -1.95023L17.6482 -2.04993L18.1478 4.44528L18.4503 7.74122ZM16.9103 5.18574L9.79683 5.60418L10.3767 8.26838L17.1493 7.78964L16.9103 5.18574ZM10.6626 9.58228L17.3009 9.37961L17.713 13.5869L11.9427 15.4639L10.6626 9.58228ZM12.2642 16.9407L13.5347 22.7784L18.3656 20.9577L17.9855 16.8438L12.2642 16.9407ZM19.2889 16.8217L19.6635 20.875L27.2761 22.8215L27.467 16.6831L19.2889 16.8217ZM22.1766 15.4726L15.7856 15.5809L18.4491 14.7145L22.1766 15.4726ZM22.7346 23.0021L19.0959 22.0717L16.6273 23.0021H22.7346ZM13.8663 24.3021H18.6746L19.0892 28.7901L15.033 29.6628L13.8663 24.3021ZM27.0192 31.0847H20.6068L21.2597 38.1511L23.9088 42.8985L26.6406 43.261L27.0192 31.0847ZM27.0626 29.6884L27.2301 24.3021H19.9801L20.3896 28.7335L27.0626 29.6884Z" fill="black"/>
</g>
<defs>
<clipPath id="clip0">
<rect width="48" height="48" fill="white"/>
</clipPath>
</defs>
</svg>
