<svg width="48" height="48" viewBox="0 0 48 48" fill="none" xmlns="http://www.w3.org/2000/svg">
<path fill-rule="evenodd" clip-rule="evenodd" d="M3.85 7C3.85 6.64101 4.14101 6.35 4.5 6.35H34.5C34.859 6.35 35.15 6.64101 35.15 7C35.15 7.35898 34.859 7.65 34.5 7.65H26.9111L31.7211 11.35H44C44.359 11.35 44.65 11.641 44.65 12C44.65 12.359 44.359 12.65 44 12.65H31.2789L24.7789 7.65H4.5C4.14101 7.65 3.85 7.35898 3.85 7ZM3.85 13C3.85 12.641 4.14101 12.35 4.5 12.35H14.75C15.109 12.35 15.4 12.641 15.4 13C15.4 13.359 15.109 13.65 14.75 13.65H4.5C4.14101 13.65 3.85 13.359 3.85 13ZM3.85 19.5C3.85 19.141 4.14101 18.85 4.5 18.85H14C14.359 18.85 14.65 19.141 14.65 19.5C14.65 19.859 14.359 20.15 14 20.15H4.5C4.14101 20.15 3.85 19.859 3.85 19.5ZM33.35 19.5C33.35 19.141 33.641 18.85 34 18.85H44C44.359 18.85 44.65 19.141 44.65 19.5C44.65 19.859 44.359 20.15 44 20.15H34C33.641 20.15 33.35 19.859 33.35 19.5ZM33.35 25.5C33.35 25.141 33.641 24.85 34 24.85H44C44.359 24.85 44.65 25.141 44.65 25.5C44.65 25.859 44.359 26.15 44 26.15H34C33.641 26.15 33.35 25.859 33.35 25.5ZM3.85 27C3.85 26.641 4.14101 26.35 4.5 26.35H10.5C10.859 26.35 11.15 26.641 11.15 27C11.15 27.359 10.859 27.65 10.5 27.65H4.5C4.14101 27.65 3.85 27.359 3.85 27ZM33.35 31.5C33.35 31.141 33.641 30.85 34 30.85H44C44.359 30.85 44.65 31.141 44.65 31.5C44.65 31.859 44.359 32.15 44 32.15H34C33.641 32.15 33.35 31.859 33.35 31.5ZM3.85 34C3.85 33.641 4.14101 33.35 4.5 33.35H13.684L20.3407 37.4464C20.6464 37.6346 20.7417 38.0349 20.5536 38.3407C20.3654 38.6464 19.9651 38.7417 19.6593 38.5536L13.316 34.65H4.5C4.14101 34.65 3.85 34.359 3.85 34ZM32.316 37.35H44C44.359 37.35 44.65 37.641 44.65 38C44.65 38.359 44.359 38.65 44 38.65H32.684L26.184 42.65H12.5C12.141 42.65 11.85 42.359 11.85 42C11.85 41.641 12.141 41.35 12.5 41.35H25.816L32.316 37.35Z" fill="#EE1D2D"/>
<path fill-rule="evenodd" clip-rule="evenodd" d="M23.787 15.3859C23.925 15.338 24.0751 15.338 24.2131 15.3859C25.3388 15.7765 28.3746 16.5643 31 16.5643C31.359 16.5643 31.65 16.8553 31.65 17.2143V25.3095C31.65 26.9314 30.8758 28.5966 29.5898 30.0422C28.2982 31.494 26.4574 32.7649 24.2301 33.6079C24.0818 33.664 23.9182 33.664 23.7699 33.6079C19.3923 31.9511 16.3501 28.951 16.35 25.3095V17.2143C16.35 16.8707 16.6174 16.5865 16.9603 16.5655C18.0272 16.5002 19.4584 16.3024 20.7751 16.0684C22.1027 15.8325 23.2568 15.5698 23.787 15.3859ZM17.65 17.8159V25.3095C17.6501 27.9388 19.7165 30.4234 23.35 32.0316V16.8609C22.7004 17.0228 21.8698 17.1942 21.0026 17.3483C19.8909 17.5459 18.6795 17.7219 17.65 17.8159ZM24.65 16.8824V32.0252C26.2977 31.2724 27.6473 30.2698 28.6185 29.1781C29.7631 27.8915 30.35 26.5209 30.35 25.3095V17.8503C28.2383 17.7622 26.024 17.2729 24.65 16.8824Z" fill="#EE1D2D"/>
<path d="M33.5 6.3C33.5 5.85817 33.8582 5.5 34.3 5.5H35.2C35.6418 5.5 36 5.85817 36 6.3V7.7C36 8.14183 35.6418 8.5 35.2 8.5H34.3C33.8582 8.5 33.5 8.14183 33.5 7.7V6.3Z" fill="#EE1D2D"/>
<path d="M3.5 6.3C3.5 5.85817 3.85817 5.5 4.3 5.5H5.2C5.64183 5.5 6 5.85817 6 6.3V7.7C6 8.14183 5.64183 8.5 5.2 8.5H4.3C3.85817 8.5 3.5 8.14183 3.5 7.7V6.3Z" fill="#EE1D2D"/>
<path d="M3.5 18.8C3.5 18.3582 3.85817 18 4.3 18H5.2C5.64183 18 6 18.3582 6 18.8V20.2C6 20.6418 5.64183 21 5.2 21H4.3C3.85817 21 3.5 20.6418 3.5 20.2V18.8Z" fill="#EE1D2D"/>
<path d="M40 18.8C40 18.3582 40.3582 18 40.8 18H41.7C42.1418 18 42.5 18.3582 42.5 18.8V20.2C42.5 20.6418 42.1418 21 41.7 21H40.8C40.3582 21 40 20.6418 40 20.2V18.8Z" fill="#EE1D2D"/>
<path d="M34.5 30.8C34.5 30.3582 34.8582 30 35.3 30H36.2C36.6418 30 37 30.3582 37 30.8V32.2C37 32.6418 36.6418 33 36.2 33H35.3C34.8582 33 34.5 32.6418 34.5 32.2V30.8Z" fill="#EE1D2D"/>
<path d="M11.5 41.3C11.5 40.8582 11.8582 40.5 12.3 40.5H13.2C13.6418 40.5 14 40.8582 14 41.3V42.7C14 43.1418 13.6418 43.5 13.2 43.5H12.3C11.8582 43.5 11.5 43.1418 11.5 42.7V41.3Z" fill="#EE1D2D"/>
</svg>
