<svg width="144" height="144" viewBox="0 0 144 144" fill="none" xmlns="http://www.w3.org/2000/svg">
<rect x="2" y="2" width="140" height="140" stroke="#FBFBFB" stroke-width="4"/>
<path d="M100.182 106.656H51.0325M35.7792 106.656L29.2767 80.6689L29 78.9741C29.0918 75.8527 31.2425 71.2095 35.7792 66.7466M35.7792 106.656V66.7466M35.7792 106.656H51.0325M104.078 64.8507L104.701 58.071C102.74 57.0566 99.2715 55.7266 94.5326 54.6828M104.078 64.8507L102.779 80.4999H94.6883M104.078 64.8507H37.8697M37.8697 64.8507C37.1236 65.4757 36.4271 66.1093 35.7792 66.7466M37.8697 64.8507C41.2251 62.04 45.5838 59.4038 51.0325 57.3929M51.0325 57.3929C53.2912 56.5593 55.7372 55.8332 58.3767 55.2466C60.7012 54.7301 62.9625 54.3148 65.1559 53.9885M51.0325 57.3929V106.656M65.1559 53.9885L65.3117 80.4999H80M65.1559 53.9885C70.4743 53.1973 75.3933 52.9295 79.8443 53.0109M79.8443 53.0109L80 80.4999M79.8443 53.0109C85.5609 53.1154 90.5054 53.7958 94.5326 54.6828M80 80.4999H94.6883M94.5326 54.6828L94.6883 80.4999" stroke="#FBFBFB" stroke-width="2.5"/>
<path d="M52.7266 56.9416V40.5584M95.6617 54.1169C93.6902 49.681 90.4841 46.0682 86.6227 43.1593M52.7266 40.5584V32.6493C54.3985 32.6493 56.3083 32.7525 58.3759 32.9754M52.7266 40.5584H71.9344M71.9344 35.8477V52.4221M71.9344 35.8477C67.2101 34.3325 62.4818 33.418 58.3759 32.9754M71.9344 35.8477C77.1099 37.5076 82.2806 39.8884 86.6227 43.1593M58.3759 32.9754V55.8117M86.6227 43.1593V53.5519" stroke="#FBFBFB" stroke-width="2.5"/>
<path d="M60.6362 78.9739H114V81.7739H60.6362V78.9739Z" fill="#FBFBFB"/>
<path d="M60.6362 86.9998H112V89.7998H60.6362V86.9998Z" fill="#FBFBFB"/>
<path d="M60.6367 105.2H116V108H60.6367V105.2Z" fill="#FBFBFB"/>
<path d="M60.6362 78.9735H63.4362V107H60.6362V78.9735Z" fill="#FBFBFB"/>
<path d="M77.5848 78.9735H80.3848V107H77.5848V78.9735Z" fill="#FBFBFB"/>
<path d="M92.2732 78.9735H95.0732V107H92.2732V78.9735Z" fill="#FBFBFB"/>
<path d="M108 78.9997H111V107H108V78.9997Z" fill="#FBFBFB"/>
<path fill-rule="evenodd" clip-rule="evenodd" d="M52.7266 31.3994H51.4766V32.6494V40.5585V55.9053C51.1814 56.0085 50.8891 56.1136 50.5998 56.2203C45.0208 58.2793 40.5361 60.9867 37.067 63.8926C36.2957 64.5387 35.5745 65.1947 34.9027 65.8556C30.2415 70.4409 27.8555 75.3714 27.7506 78.9375L27.7471 79.0573L27.7664 79.1756L28.0431 80.8704L28.0515 80.9219L28.0641 80.9724L34.5667 106.96L34.8035 107.906H35.7793H51.0326H60.6358V108H116V105.2H111V89.8H112V87H111V81.7741H114V78.9741H104.16L105.323 64.9653L105.324 64.9542L105.946 58.1856L106.023 57.3476L105.276 56.9609C103.424 56.0033 100.384 54.8174 96.3321 53.8191L96.804 53.6093C94.7283 48.9388 91.3666 45.168 87.3749 42.161C82.8909 38.7832 77.5838 36.347 72.3162 34.6575C67.504 33.1142 62.692 32.1836 58.51 31.7327C56.403 31.5056 54.4482 31.3994 52.7266 31.3994ZM108 81.7741H95.0728V87H108V81.7741ZM108 89.8H95.0728V105.2H108V89.8ZM92.2728 105.2V89.8H80.3843V105.2H92.2728ZM77.5843 105.2V89.8H63.4358V105.2H77.5843ZM60.6358 105.406V105.2V89.8V87V81.7741V78.9741V78.9736H63.4358V78.9741H64.0527L63.9771 66.1008H52.2826V105.406H60.6358ZM63.4358 81.7741V87H77.5843V81.7741H63.4358ZM78.7414 78.9736H77.5843V78.9741H66.5528L66.4771 66.1008H78.6685L78.7414 78.9736ZM80.3843 81.7741V87H92.2728V81.7741H80.3843ZM93.4292 78.9736H92.2728V78.9741H81.2414L81.1685 66.1008H93.3515L93.4292 78.9736ZM95.9292 78.9741H101.652L102.72 66.1008H95.8516L95.9292 78.9741ZM93.8593 53.2619C92.3647 50.418 90.3107 47.9388 87.8728 45.7885V52.3007C90.0299 52.5563 92.0293 52.8866 93.8593 53.2619ZM85.3728 52.0456V43.7895C81.7326 41.1445 77.5071 39.1067 73.1845 37.5864V51.8984C75.5113 51.762 77.7413 51.7224 79.8672 51.7612C81.7892 51.7964 83.6262 51.8957 85.3728 52.0456ZM70.6845 52.0797V41.8085H59.626V53.7009C61.4482 53.3255 63.231 53.0112 64.9721 52.7522C66.9302 52.4609 68.8354 52.2396 70.6845 52.0797ZM57.126 54.2525V41.8085H53.9766V55.0968C54.9945 54.7935 56.0442 54.5114 57.126 54.2525ZM57.126 39.3085H53.9766V33.9182C54.9598 33.9469 56.0144 34.0092 57.126 34.1083V39.3085ZM59.626 39.3085V34.3829C63.058 34.8288 66.8608 35.6 70.6845 36.7665V39.3085H59.626ZM66.4625 63.6008L66.4124 55.0718C70.7726 54.4751 74.849 54.2346 78.6013 54.2476L78.6543 63.6008H66.4625ZM81.1543 63.6008L81.1016 54.2943C85.7465 54.4524 89.8376 54.9932 93.2888 55.6969L93.3364 63.6008H81.1543ZM95.8365 63.6008L95.7922 56.2608C99.1244 57.0855 101.686 58.0283 103.378 58.8148L102.938 63.6008H95.8365ZM63.9145 55.4483L63.9624 63.6008H52.2826V58.2719C54.258 57.5803 56.3783 56.9714 58.6479 56.467C60.4428 56.0681 62.1991 55.7305 63.9145 55.4483ZM49.7826 59.2211V63.6008H41.5904C43.9282 62.0014 46.6515 60.5063 49.7826 59.2211ZM49.7826 66.1008H38.3286C37.8754 66.4903 37.4424 66.8826 37.0293 67.2763V105.406H49.7826V66.1008ZM30.2539 78.8967C30.3595 76.6972 31.6686 73.4184 34.5293 69.9524V96.5109L30.502 80.4162L30.2539 78.8967Z" fill="#FBFBFB"/>
</svg>
