<svg width="144" height="144" viewBox="0 0 144 144" fill="none" xmlns="http://www.w3.org/2000/svg">
<rect x="2" y="2" width="140" height="140" stroke="#FBFBFB" stroke-width="4"/>
<path fill-rule="evenodd" clip-rule="evenodd" d="M86.7746 55.4659C87.3661 57.0877 87.9358 60.2049 85.5165 62.258C85.1991 62.5274 84.8302 62.7785 84.4032 63.0055L82.986 63.7587C83.7339 64.4682 84.5637 65.0921 85.4599 65.6147C86.0458 65.9564 86.66 66.2547 87.2982 66.5054C87.9882 66.7765 88.7063 66.9918 89.4468 67.1458C89.6308 67.1841 89.8163 67.2186 90.003 67.2492C90.346 65.4043 92.4898 63.6118 95.2883 63.2489C97.3367 62.9832 99.401 63.3853 100.554 64.4792C103.599 62.0297 105.547 58.2733 105.547 54.0619C105.547 46.6811 99.5632 40.6978 92.1824 40.6978C86.6513 40.6978 81.905 44.058 79.8734 48.8483C79.4495 49.8479 79.1438 50.9098 78.9738 52.0163L80.8362 51.4854C81.2335 51.3886 81.6119 51.3415 81.9719 51.3387C84.31 51.3207 85.869 53.1752 86.7746 55.4659ZM83.1206 48.6277C84.9681 45.5544 88.3364 43.4978 92.1824 43.4978C98.0168 43.4978 102.746 48.2275 102.746 54.0619C102.746 56.7184 101.768 59.1451 100.146 61.0034C98.4589 60.3552 96.5557 60.261 94.9283 60.4722M83.1206 48.6277C84.2746 48.8151 85.3259 49.2915 86.2379 49.9933C87.7671 51.1699 88.7526 52.8533 89.3785 54.4365L89.3922 54.4713L89.4051 54.5065C89.8268 55.6626 90.3026 57.5624 89.9881 59.6141C89.7655 61.0662 89.151 62.5268 87.9917 63.763C88.1643 63.8377 88.3394 63.9079 88.5167 63.9735C88.951 63.4073 89.4608 62.908 90.0031 62.4852C91.3379 61.4444 93.0469 60.7161 94.9283 60.4722" fill="#FBFBFB"/>
<path fill-rule="evenodd" clip-rule="evenodd" d="M93.4549 68.1945L93.5775 69.0593C94.3734 68.7769 95.2281 68.5455 96.0687 68.3774C96.9396 68.2032 97.7906 68.086 98.6104 68.0431L98.446 67.1765C98.3894 67.1255 98.2434 67.0256 97.9121 66.9177C97.2959 66.7169 96.4508 66.6525 95.674 66.7484C95.0135 66.8933 94.2976 67.2365 93.8296 67.646C93.5977 67.8489 93.4953 68.008 93.4582 68.0893C93.4483 68.1108 93.444 68.1245 93.4423 68.1312L93.4549 68.1945ZM95.2895 64.4791C97.4402 64.1843 100.237 64.7427 100.675 66.5859L100.675 66.5877L101.442 70.6327C100.767 70.4074 99.967 70.3059 99.0436 70.328C98.2857 70.3462 97.4444 70.4478 96.5197 70.6327C95.6079 70.8151 94.6961 71.0785 93.908 71.3915C92.9234 71.7826 92.1321 72.251 91.7755 72.7354L91.1868 68.5816C90.7769 66.5306 93.2377 64.8895 95.2895 64.4791ZM98.4771 67.2117C98.4763 67.2121 98.4716 67.2069 98.4652 67.1953C98.4746 67.2056 98.4778 67.2114 98.4771 67.2117Z" fill="#FBFBFB"/>
<path fill-rule="evenodd" clip-rule="evenodd" d="M95.297 113.32C95.2959 113.321 95.2949 113.322 95.294 113.323C95.2912 113.326 95.2891 113.328 95.2877 113.329C94.5814 113.213 94.1358 113.028 94.0971 112.764L89.8548 84.5805C89.8986 84.0042 89.9547 83.3778 90.0194 82.7266C90.0342 82.5773 90.0495 82.4268 90.0652 82.2752C90.1079 81.8633 90.1512 81.435 90.1952 80.9999C90.3758 79.2136 90.5679 77.3129 90.7768 75.9658C91.156 73.5205 94.7394 72.0289 96.0382 71.7481C99.5486 70.9892 102.795 71.7838 103.494 73.0941L107.512 81.2988L114.57 108.374C114.633 108.617 114.611 109.035 113.946 109.586C113.944 109.588 113.941 109.59 113.939 109.592C112.947 110.409 110.543 111.513 104.916 112.764C102.061 113.398 97.4512 113.686 95.2877 113.329M111.259 106.772L104.874 82.2775L104.863 82.2554C99.587 81.6197 95.2604 83.0257 92.6777 84.4031C92.6755 84.429 92.6734 84.4548 92.6713 84.4805L96.4647 109.681C96.6436 109.615 96.8262 109.551 97.0115 109.486C99.1031 108.763 101.775 108.069 104.1 107.604C106.234 107.178 108.821 106.901 110.889 106.79C111.014 106.784 111.137 106.778 111.259 106.772ZM92.9939 81.1549C95.6655 80.0195 99.2553 79.1241 103.428 79.3256L101.143 74.6602C100.976 74.5793 100.69 74.4745 100.271 74.3907C99.3353 74.2035 98.0351 74.1811 96.6299 74.4849C96.3103 74.5539 95.4037 74.8667 94.5812 75.3977C94.1858 75.6529 93.8996 75.9018 93.7211 76.1145C93.5734 76.2906 93.5464 76.3841 93.5435 76.3961C93.3504 77.6422 93.1713 79.4022 92.9939 81.1549ZM93.5433 76.3975C93.5432 76.3975 93.5434 76.3969 93.5435 76.3961L93.5433 76.3975ZM101.276 74.7366C101.276 74.7367 101.271 74.7333 101.262 74.726C101.272 74.7328 101.277 74.7365 101.276 74.7366Z" fill="#FBFBFB"/>
<path fill-rule="evenodd" clip-rule="evenodd" d="M80.963 60.3486C81.0076 61.2536 80.8904 62.1117 80.6401 63.0421L84.0037 61.4603C86.083 60.615 86.4013 58.4922 85.59 56.1196C84.7788 53.7471 82.7532 52.2915 81.0658 52.8685L81.0642 52.869L77.5152 54.1121C78.2484 54.5064 78.9066 55.1297 79.4416 55.8744C79.9712 56.6114 80.3801 57.4674 80.6213 58.3376C80.8211 59.0582 80.9317 59.7149 80.963 60.3486ZM81.8117 55.0442C81.8141 55.0435 81.8178 55.0428 81.8248 55.0424C81.8347 55.0419 81.8583 55.042 81.8977 55.0503C81.9794 55.0675 82.1249 55.1197 82.3143 55.2557C82.702 55.5344 83.1446 56.0768 83.4138 56.8638C83.7365 57.8076 83.7405 58.4485 83.6523 58.794C83.6132 58.947 83.5596 59.0336 83.5095 59.0911C83.4624 59.1451 83.3691 59.23 83.1729 59.3148C83.1015 58.8026 82.9908 58.2751 82.8377 57.7231C82.5916 56.8352 82.2015 55.9297 81.6813 55.0899L81.8117 55.0442Z" fill="#FBFBFB"/>
<path fill-rule="evenodd" clip-rule="evenodd" d="M68.379 73.4423C68.2131 73.5614 68.0379 73.6552 67.8542 73.7218L39.599 85.4124C36.6246 86.6431 30.9864 82.5408 28.9332 76.3875C26.88 70.2341 28.0219 63.8691 29.9412 63.28L61.2532 53.4778C61.4826 53.3947 61.7231 53.3554 61.9721 53.3573L72.2751 53.1239C73.9556 53.0008 76.8986 53.9681 78.5874 58.5751C79.2528 60.3887 79.8014 64.4911 77.4605 66.2605C76.01 67.5241 73.9873 69.1992 72.101 70.6817C71.7988 70.9193 71.5001 71.1518 71.2078 71.377C70.1285 72.2084 69.1366 72.9385 68.379 73.4423ZM68.7064 69.7626C68.7487 69.5135 68.7833 69.2459 68.8085 68.9592C68.9704 67.1192 68.7071 64.8043 67.8466 62.4288C66.9865 60.0546 65.8432 58.0618 64.6864 56.6885C64.5061 56.4744 64.3309 56.2816 64.1616 56.1084L62.071 56.1558L36.1754 64.2624C38.0705 65.9145 39.9235 68.3991 41.3045 71.752C41.6963 72.7032 42.5447 75.7407 42.8316 78.7473C42.9023 79.4877 42.9419 80.2534 42.927 81.0052L66.8081 71.1244L66.8285 71.1108C67.3349 70.7741 67.9787 70.3102 68.7064 69.7626ZM40.0285 82.2045L38.5387 82.8209C38.5286 82.8225 38.3156 82.8758 37.8059 82.7156C37.2358 82.5364 36.4927 82.145 35.6766 81.488C34.0427 80.1725 32.4405 78.0525 31.5892 75.5012C30.6947 72.8204 30.5049 70.0988 30.7306 68.0544C30.8443 67.0243 31.0508 66.2827 31.2438 65.8488C31.2515 65.8313 31.259 65.8148 31.2663 65.7992L32.8616 65.2998C33.1891 65.4916 33.533 65.7246 33.8876 66.0025C35.5491 67.3045 37.3602 69.5277 38.7155 72.8184C38.9876 73.4789 39.7797 76.2412 40.0443 79.0134C40.1575 80.1991 40.165 81.3039 40.0285 82.2045ZM31.3691 65.6046C31.3902 65.5807 31.3997 65.5657 31.3992 65.5642C31.3987 65.5627 31.3881 65.5746 31.3691 65.6046ZM62.0312 55.9629L62.0039 54.7586L62.0312 55.9629ZM71.6477 67.4642C73.0974 66.2972 74.5306 65.0994 75.6212 64.1493L75.6946 64.0854L75.7721 64.0268C75.9818 63.8683 76.3001 63.4087 76.3547 62.2972C76.4068 61.2347 76.1753 60.1299 75.9588 59.5395C74.6456 55.9575 72.7619 55.8957 72.4795 55.9164L72.4091 55.9215L67.705 56.0281C68.7676 57.5426 69.7298 59.4068 70.4791 61.4751C71.2269 63.539 71.5977 65.5989 71.6477 67.4642Z" fill="#FBFBFB"/>
<path fill-rule="evenodd" clip-rule="evenodd" d="M80.6221 44.8001L78.1599 43.9791C78.0928 43.9567 78.0258 43.9359 77.9589 43.9166C75.5657 43.2263 73.2154 44.4458 72.4172 46.4394C72.1189 47.1844 71.9225 47.929 71.8734 48.6569C71.8143 49.5341 71.9691 50.3872 72.4177 51.1876C72.4996 51.0996 72.616 51.0388 72.7533 50.9995C73.2914 50.8455 74.1516 51.0217 74.5275 51.1876L77.3343 52.1604C77.3912 51.5092 77.5167 50.6257 77.773 49.6665C78.0163 48.756 78.3774 47.7773 78.9095 46.8643C79.3519 46.1051 79.9126 45.3913 80.6221 44.8001ZM75.4057 48.8453C75.6394 48.0089 75.9627 47.1121 76.4104 46.2289C75.5962 46.2963 74.9646 46.8029 74.7381 47.3686C74.5556 47.8243 74.4469 48.2159 74.3962 48.5559C74.7535 48.6253 75.1019 48.7239 75.4057 48.8453Z" fill="#FBFBFB"/>
<path fill-rule="evenodd" clip-rule="evenodd" d="M67.9099 36.185L47.3986 30.0323C44.5268 29.6211 40.2256 33.1831 39.192 37.8265C38.0024 43.1592 39.1915 47.2615 42.4741 48.082L56.4243 53.0045L61.7572 50.9534L70.7814 51.3636C70.4345 50.8433 70.0524 50.1049 70.1207 48.831C70.16 48.0961 70.3492 47.183 70.7814 46.0307C71.1737 44.985 71.827 44.0459 72.6342 43.3765C73.4103 42.7329 74.3286 42.3386 75.2938 42.3386L67.9099 36.185ZM70.6925 41.7584C69.6645 42.7239 68.8941 43.9438 68.4407 45.1527C67.9402 46.4868 67.6771 47.6622 67.6231 48.7174L62.8754 48.5016C62.9255 43.6167 65.0215 40.3335 66.8525 38.5581L70.6925 41.7584ZM64.2394 37.6941L46.9251 32.5004C46.4795 32.5056 45.4874 32.7945 44.2865 33.8849C43.0574 35.0008 42.0236 36.6115 41.6323 38.3697L41.632 38.3708C41.0956 40.7755 41.1563 42.6615 41.5429 43.903C41.9064 45.0703 42.4753 45.5054 43.0803 45.6566L43.1948 45.6852L56.3871 50.3403L60.3744 48.8067C60.3406 43.7548 62.213 40.0521 64.2394 37.6941Z" fill="#FBFBFB"/>
</svg>
