<svg width="144" height="144" viewBox="0 0 144 144" fill="none" xmlns="http://www.w3.org/2000/svg">
<rect x="2" y="2" width="140" height="140" stroke="#FBFBFB" stroke-width="4"/>
<path fill-rule="evenodd" clip-rule="evenodd" d="M35.5 62.0001V49.7171L71.9964 35.68L108.504 49.834L108.533 62.0001H35.5ZM35.5 65.0001V73.0001H108.56L108.541 65.0001H35.5ZM35.5 104V76.0001H49V104H35.5ZM52 104V76.0001H92V104H87V76.0003H84.0018V76.0001L84.0016 76.0003H84V76.0019L72.0019 87.8888L60.0021 76.0003V80.2232L69.8706 90.0003L60.002 99.7774L60.002 104H60V76.0003H57V104H52ZM60.0023 104H84V103.999L72.0019 92.1118L60.0023 104ZM95 104V76.0001H108.567L108.635 104H95ZM33 104V48.0001L72 33.0001L111 48.1203L111.135 104L111.141 106.5H108.641H35.5H33V104ZM64.5 53.5001V48.5001H79.5V53.5001H64.5ZM62 46.0001H64.5H79.5H82V48.5001V53.5001V56.0001H79.5H64.5H62V53.5001V48.5001V46.0001ZM74.1331 90.0003L84 99.7757V80.2249L74.1331 90.0003Z" fill="#FBFBFB"/>
</svg>
