<svg width="144" height="144" viewBox="0 0 144 144" fill="none" xmlns="http://www.w3.org/2000/svg">
<rect x="2" y="2" width="140" height="140" stroke="#FBFBFB" stroke-width="4"/>
<path fill-rule="evenodd" clip-rule="evenodd" d="M49.25 40C49.25 38.4812 50.4812 37.25 52 37.25H75C76.5188 37.25 77.75 38.4812 77.75 40V84.75H72.5C72.4162 84.75 72.3328 84.752 72.25 84.7558V49C72.25 46.6528 70.3472 44.75 68 44.75H49.25V40ZM80.25 40V84.75H84.3942L84.75 82.882V67V65.0778L84.2597 61.155L84.084 59.75H85.5H109.5H110.916L110.74 61.155L110.25 65.0778V67V82.882L112.514 94.7661L114.082 103H116V105.5V108.5V111H113.5H29.5H27V108.5V105.5V103H29V60.5V58H31.5H37.25V49C37.25 46.6528 39.1528 44.75 41.5 44.75H46.75V40C46.75 37.1005 49.1005 34.75 52 34.75H75C77.8995 34.75 80.25 37.1005 80.25 40ZM111.537 103L110.251 96.25H84.7487L83.463 103H111.537ZM80.918 103L82.4864 94.7661L83.918 87.25H72.5C70.9812 87.25 69.75 88.4812 69.75 90V103H80.918ZM86.4629 87.25L85.2249 93.75H109.775L107.966 84.25H87.0344L86.5 87.0555V87.25H86.4629ZM67.25 105.5H69.75H113.5V108.5H29.5V105.5H31.5H62.5H65H67.25ZM67.25 90V103H65V60.5V58H62.5H49.25V47.25H68C68.9665 47.25 69.75 48.0335 69.75 49V85.527C68.25 86.4512 67.25 88.1088 67.25 90ZM46.75 58V47.25H41.5C40.5335 47.25 39.75 48.0335 39.75 49V58H46.75ZM62.5 60.5H31.5V67.5H62.5V60.5ZM31.5 76.5V70H62.5V76.5H31.5ZM31.5 79H62.5V85H31.5V79ZM62.5 94V87.5H31.5V94H62.5ZM31.5 103V96.5H62.5V103H31.5ZM107.75 68.25V81.75H87.25V68.25H107.75ZM107.75 65.75H87.25V65V64.9222L87.2403 64.845L86.916 62.25H108.084L107.76 64.845L107.75 64.9222V65V65.75ZM112 56H83V59H112V56ZM72 91H75V94H72V91ZM81 91H78V94H81V91Z" fill="#FBFBFB"/>
</svg>
