<svg width="144" height="144" viewBox="0 0 144 144" fill="none" xmlns="http://www.w3.org/2000/svg">
<rect x="2" y="2" width="140" height="140" stroke="#FBFBFB" stroke-width="4"/>
<path d="M67.75 41.3847L31.25 42.704V35.25H67.75V41.3847Z" stroke="#FBFBFB" stroke-width="2.5"/>
<path d="M87.25 35.25H111.75V39.7944L87.25 40.6799V35.25Z" stroke="#FBFBFB" stroke-width="2.5"/>
<path d="M83.75 35.25V42.2746L77.668 45.75H77.332L71.25 42.2746V35.25H83.75Z" stroke="#FBFBFB" stroke-width="2.5"/>
<path d="M33 34H30V53H39V50H33V34Z" fill="#FBFBFB"/>
<path d="M32 107L39 42H42L35 107H32Z" fill="#FBFBFB"/>
<path d="M32 107L54 42H57L35 107H32Z" fill="#FBFBFB"/>
<path d="M45 43H41L51 52.7563L52.5 50L45 43Z" fill="#FBFBFB"/>
<path d="M51.5 52.1387V54.9999L40 56.5V53.6384L51.5 52.1387Z" fill="#FBFBFB"/>
<path d="M47 65.1387V68.4995L38.0003 71.3609V67.9998L47 65.1387Z" fill="#FBFBFB"/>
<path d="M42 76V79.3608L37.0004 82.4998V79.1387L42 76Z" fill="#FBFBFB"/>
<path d="M40 56L39 59L46.5 66L47.5 63.0001L40 56Z" fill="#FBFBFB"/>
<path d="M38.0005 70L38 74L42.5 78.5L43.5 75.5001L38.0005 70Z" fill="#FBFBFB"/>
<path d="M112 107L105 41H102L109 107H112Z" fill="#FBFBFB"/>
<path d="M112 107L90 41H87L109 107H112Z" fill="#FBFBFB"/>
<path d="M100 41H104L93 51.7565L91.5 49.0002L100 41Z" fill="#FBFBFB"/>
<path d="M92.5 51.1388V54L104 56.4999V53.6384L92.5 51.1388Z" fill="#FBFBFB"/>
<path d="M97.0003 65.1391V68.4999L106 71.3613V68.0001L97.0003 65.1391Z" fill="#FBFBFB"/>
<path d="M102 76V79.3608L107 82.4998V79.1387L102 76Z" fill="#FBFBFB"/>
<path d="M104 56L105 59L97.5 66L96.5 63.0001L104 56Z" fill="#FBFBFB"/>
<path d="M106 70L106 74L101.5 78.5L100.5 75.5001L106 70Z" fill="#FBFBFB"/>
<path d="M36 80L35.9995 84.5L39 87.9999L40 85L36 80Z" fill="#FBFBFB"/>
<path d="M28 105H39V112H28V105Z" fill="#FBFBFB"/>
<path d="M104 105H115V112H104V105Z" fill="#FBFBFB"/>
<path d="M74 43.5H76.5V57.5H74V43.5Z" fill="#FBFBFB"/>
<path d="M78.5 45H81V58H78.5V45Z" fill="#FBFBFB"/>
<path d="M73 61L75 57H80L82 61V63L79 66H76L73 63V61Z" stroke="#FBFBFB" stroke-width="2.5"/>
<rect x="76" y="67" width="3" height="8" fill="#FBFBFB"/>
<path d="M84.5 82L77.5 72V69.5H79L87.5 82H84.5Z" fill="#FBFBFB"/>
<path d="M70.5 82L77.5 72V69.5H76L67.5 82H70.5Z" fill="#FBFBFB"/>
<rect x="66.25" y="83.25" width="22.5" height="10.5" stroke="#FBFBFB" stroke-width="2.5"/>
</svg>
