<svg width="144" height="144" viewBox="0 0 144 144" fill="none" xmlns="http://www.w3.org/2000/svg">
<mask id="path-1-inside-1" fill="white">
<path d="M0 0H144V144H0V0Z"/>
<path d="M98.0508 59.3333L72.8927 84.904H61.3446V100.989H72.8927V108H42.3729V100.989H54.7458V84.904H42.3729V78.7175L68.3559 53.1469H98.0508V59.3333Z"/>
<path d="M30 62.2203C30 61.4417 30.0983 60.947 30.2859 60.5706H34.1243C32.7495 60.5706 30 61.5605 30 65.5198V62.2203Z"/>
<path d="M41.8475 64.6949H37.1243C35.4674 64.6949 34.1243 66.0381 34.1243 67.6949V87.2655C34.1243 88.9224 35.4674 90.2655 37.1243 90.2655H41.8475C43.5043 90.2655 44.8475 88.9224 44.8475 87.2655V84.904H42.3729V78.7175L44.8475 76.2429V67.6949C44.8475 66.0381 43.5043 64.6949 41.8475 64.6949Z"/>
<path d="M102.588 92.7401C102.588 99.5735 97.048 105.113 90.2147 105.113C83.3813 105.113 77.8418 99.5735 77.8418 92.7401C77.8418 85.9068 83.3813 80.3672 90.2147 80.3672C97.048 80.3672 102.588 85.9068 102.588 92.7401Z"/>
<path d="M108.774 59.7458C114.468 59.7458 119.085 64.362 119.085 70.0565C119.085 72.0203 118.536 73.8558 117.583 75.4181C117.342 75.813 117.075 76.1905 116.785 76.5482L100.113 100.164L98.4632 98.9266C102.588 93.565 99.7366 86.9173 96.4011 84.4915C91.8644 81.1921 86.9153 82.0169 83.2034 84.904L82.1087 83.4585L100.938 63.355C102.829 61.1458 105.638 59.7458 108.774 59.7458Z"/>
</mask>
<path d="M42.3729 78.7175V77.4675H41.1229V78.7175H42.3729ZM58.9915 35.9477L59.8007 36.9004L59.8007 36.9004L58.9915 35.9477ZM31.2373 59.5198L30.4281 58.567L30.4281 58.567L31.2373 59.5198ZM72.4802 78.7175H73.7302V77.4675H72.4802V78.7175ZM86.5028 75.4181H85.2528V76.6681H86.5028V75.4181ZM41.1229 78.7175V84.904H43.6229V78.7175H41.1229ZM76.2048 53.1469V39H73.7048V53.1469H76.2048ZM70.9548 33.75H61.5768V36.25H70.9548V33.75ZM34 95.6398H44.5593V93.1398H34V95.6398ZM47.3093 63.5706V72.5311H49.8093V63.5706H47.3093ZM58.1823 34.9949L30.4281 58.567L32.0465 60.4725L59.8007 36.9004L58.1823 34.9949ZM30.4281 58.567C30.0425 58.8945 29.5101 59.3249 29.1671 60.0131L31.4047 61.1281C31.4813 60.9743 31.5917 60.8588 32.0465 60.4725L30.4281 58.567ZM49.8093 90.3898V85.3164H47.3093V90.3898H49.8093ZM45.5593 59.3206H34.1243V61.8206H45.5593V59.3206ZM28.75 65.5198V90.3936H31.25V65.5198H28.75ZM49.8093 63.5706C49.8093 61.2234 47.9065 59.3206 45.5593 59.3206V61.8206C46.5258 61.8206 47.3093 62.6041 47.3093 63.5706H49.8093ZM44.5593 95.6398C47.4588 95.6398 49.8093 93.2893 49.8093 90.3898H47.3093C47.3093 91.9086 46.0781 93.1398 44.5593 93.1398V95.6398ZM34 93.1398C32.4797 93.1398 31.25 91.9109 31.25 90.3936H28.75C28.75 93.2947 31.1021 95.6398 34 95.6398V93.1398ZM61.5768 33.75C60.3335 33.75 59.1327 34.1878 58.1823 34.9949L59.8007 36.9004C60.2964 36.4794 60.9228 36.25 61.5768 36.25V33.75ZM76.2048 39C76.2048 36.1005 73.8543 33.75 70.9548 33.75V36.25C72.4736 36.25 73.7048 37.4812 73.7048 39H76.2048ZM43.2568 101.873L55.6296 89.4997L53.8619 87.7319L41.489 100.105L43.2568 101.873ZM42.3729 79.9675H72.4802V77.4675H42.3729V79.9675ZM71.2302 78.7175V84.904H73.7302V78.7175H71.2302ZM87.7528 75.4181V71.2938H85.2528V75.4181H87.7528ZM91.0396 74.1681H86.5028V76.6681H91.0396V74.1681ZM74.2033 108.869L82.1858 100.621L80.3893 98.8821L72.4068 107.131L74.2033 108.869ZM0 0V-2.5H-2.5V0H0ZM144 0H146.5V-2.5H144V0ZM144 144V146.5H146.5V144H144ZM0 144H-2.5V146.5H0V144ZM72.8927 84.904V87.404H73.9401L74.6747 86.6573L72.8927 84.904ZM98.0508 59.3333L99.8329 61.0867L100.551 60.357V59.3333H98.0508ZM98.0508 53.1469H100.551V50.6469H98.0508V53.1469ZM68.3559 53.1469V50.6469H67.3321L66.6024 51.365L68.3559 53.1469ZM42.3729 78.7175L40.6051 76.9497L44.1264 80.4994L42.3729 78.7175ZM54.7458 84.904H57.2458V82.404H54.7458V84.904ZM54.7458 100.989V103.489H57.2458V100.989H54.7458ZM42.3729 100.989V98.4887H39.8729V100.989H42.3729ZM42.3729 108H39.8729V110.5H42.3729V108ZM72.8927 108V110.5H75.3927V108H72.8927ZM72.8927 100.989H75.3927V98.4887H72.8927V100.989ZM61.3446 100.989H58.8446V103.489H61.3446V100.989ZM61.3446 84.904V82.404H58.8446V84.904H61.3446ZM30.2859 60.5706V58.0706H28.7385L28.0483 59.4556L30.2859 60.5706ZM44.8475 84.904H47.3475V82.404H44.8475V84.904ZM44.8475 76.2429L46.6152 78.0107L47.3475 77.2785V76.2429H44.8475ZM117.583 75.4181L115.448 74.1162L115.448 74.1162L117.583 75.4181ZM116.785 76.5482L114.844 74.9731L114.791 75.038L114.743 75.1064L116.785 76.5482ZM100.113 100.164L98.6129 102.164L100.671 103.708L102.155 101.606L100.113 100.164ZM98.4632 98.9266L96.4817 97.4023L94.9387 99.4081L96.9632 100.927L98.4632 98.9266ZM96.4011 84.4915L97.8716 82.4697L97.8716 82.4697L96.4011 84.4915ZM83.2034 84.904L81.2105 86.4133L82.7394 88.432L84.7382 86.8773L83.2034 84.904ZM82.1087 83.4585L80.284 81.7496L78.8433 83.2878L80.1158 84.9679L82.1087 83.4585ZM100.938 63.355L102.762 65.064L102.801 65.0232L102.837 64.9808L100.938 63.355ZM0 2.5H144V-2.5H0V2.5ZM141.5 0V144H146.5V0H141.5ZM144 141.5H0V146.5H144V141.5ZM2.5 144V0H-2.5V144H2.5ZM74.6747 86.6573L99.8329 61.0867L96.2688 57.58L71.1106 83.1506L74.6747 86.6573ZM100.551 59.3333V53.1469H95.5508V59.3333H100.551ZM98.0508 50.6469H68.3559V55.6469H98.0508V50.6469ZM66.6024 51.365L40.6193 76.9357L44.1264 80.4994L70.1095 54.9287L66.6024 51.365ZM42.3729 87.404H54.7458V82.404H42.3729V87.404ZM52.2458 84.904V100.989H57.2458V84.904H52.2458ZM54.7458 98.4887H42.3729V103.489H54.7458V98.4887ZM39.8729 100.989V108H44.8729V100.989H39.8729ZM42.3729 110.5H72.8927V105.5H42.3729V110.5ZM75.3927 108V100.989H70.3927V108H75.3927ZM72.8927 98.4887H61.3446V103.489H72.8927V98.4887ZM63.8446 100.989V84.904H58.8446V100.989H63.8446ZM61.3446 87.404H72.8927V82.404H61.3446V87.404ZM28.0483 59.4556C27.6154 60.3244 27.5 61.2601 27.5 62.2203H32.5C32.5 61.6232 32.5813 61.5696 32.5235 61.6856L28.0483 59.4556ZM34.1243 58.0706H30.2859V63.0706H34.1243V58.0706ZM27.5 62.2203V65.5198H32.5V62.2203H27.5ZM34.1243 58.0706C32.9324 58.0706 31.293 58.4757 29.9122 59.6687C28.4408 60.94 27.5 62.9006 27.5 65.5198H32.5C32.5 64.1797 32.9339 63.6657 33.1811 63.4522C33.5187 63.1605 33.9414 63.0706 34.1243 63.0706V58.0706ZM41.8475 62.1949H37.1243V67.1949H41.8475V62.1949ZM37.1243 62.1949C34.0867 62.1949 31.6243 64.6573 31.6243 67.6949H36.6243C36.6243 67.4188 36.8482 67.1949 37.1243 67.1949V62.1949ZM31.6243 67.6949V87.2655H36.6243V67.6949H31.6243ZM31.6243 87.2655C31.6243 90.3031 34.0867 92.7655 37.1243 92.7655V87.7655C36.8482 87.7655 36.6243 87.5417 36.6243 87.2655H31.6243ZM37.1243 92.7655H41.8475V87.7655H37.1243V92.7655ZM41.8475 92.7655C44.885 92.7655 47.3475 90.3031 47.3475 87.2655H42.3475C42.3475 87.5417 42.1236 87.7655 41.8475 87.7655V92.7655ZM47.3475 87.2655V84.904H42.3475V87.2655H47.3475ZM44.8475 82.404H42.3729V87.404H44.8475V82.404ZM44.1406 80.4853L46.6152 78.0107L43.0797 74.4752L40.6051 76.9497L44.1406 80.4853ZM47.3475 76.2429V67.6949H42.3475V76.2429H47.3475ZM47.3475 67.6949C47.3475 64.6573 44.885 62.1949 41.8475 62.1949V67.1949C42.1236 67.1949 42.3475 67.4188 42.3475 67.6949H47.3475ZM100.088 92.7401C100.088 98.1928 95.6673 102.613 90.2147 102.613V107.613C98.4288 107.613 105.088 100.954 105.088 92.7401H100.088ZM90.2147 102.613C84.762 102.613 80.3418 98.1928 80.3418 92.7401H75.3418C75.3418 100.954 82.0006 107.613 90.2147 107.613V102.613ZM80.3418 92.7401C80.3418 87.2875 84.762 82.8672 90.2147 82.8672V77.8672C82.0006 77.8672 75.3418 84.526 75.3418 92.7401H80.3418ZM90.2147 82.8672C95.6673 82.8672 100.088 87.2875 100.088 92.7401H105.088C105.088 84.526 98.4288 77.8672 90.2147 77.8672V82.8672ZM108.774 62.2458C113.088 62.2458 116.585 65.7427 116.585 70.0565H121.585C121.585 62.9813 115.849 57.2458 108.774 57.2458V62.2458ZM116.585 70.0565C116.585 71.5481 116.169 72.935 115.448 74.1162L119.717 76.7199C120.902 74.7767 121.585 72.4925 121.585 70.0565H116.585ZM115.448 74.1162C115.266 74.4154 115.064 74.7017 114.844 74.9731L118.726 78.1233C119.087 77.6794 119.418 77.2106 119.717 76.7199L115.448 74.1162ZM114.743 75.1064L98.0706 98.722L102.155 101.606L118.827 77.99L114.743 75.1064ZM101.613 98.1638L99.9632 96.9266L96.9632 100.927L98.6129 102.164L101.613 98.1638ZM100.445 100.451C103.032 97.0876 103.422 93.29 102.664 90.0407C101.927 86.875 100.068 84.0674 97.8716 82.4697L94.9307 86.5134C96.0693 87.3414 97.3043 89.0705 97.7948 91.1755C98.2659 93.1969 98.0189 95.4039 96.4817 97.4023L100.445 100.451ZM97.8716 82.4697C92.265 78.3922 86.0827 79.4974 81.6685 82.9306L84.7382 86.8773C87.7479 84.5365 91.4638 83.992 94.9307 86.5134L97.8716 82.4697ZM85.1963 83.3946L84.1016 81.9492L80.1158 84.9679L81.2105 86.4133L85.1963 83.3946ZM83.9333 85.1675L102.762 65.064L99.1131 61.646L80.284 81.7496L83.9333 85.1675ZM102.837 64.9808C104.273 63.3028 106.399 62.2458 108.774 62.2458V57.2458C104.877 57.2458 101.384 58.9889 99.0386 61.7293L102.837 64.9808Z" fill="#FBFBFB" mask="url(#path-1-inside-1)"/>
</svg>
