<svg width="48" height="48" viewBox="0 0 48 48" fill="none" xmlns="http://www.w3.org/2000/svg">
<path fill-rule="evenodd" clip-rule="evenodd" d="M9.84772 6.34961C10.2067 6.34961 10.4977 6.64062 10.4977 6.99961V11.9158L11.2313 11.1726C11.4834 10.9171 11.895 10.9144 12.1505 11.1666C12.406 11.4187 12.4087 11.8303 12.1565 12.0858L10.3103 13.9562C10.1882 14.08 10.0216 14.1496 9.84772 14.1496C9.67385 14.1496 9.50724 14.08 9.3851 13.9562L7.53895 12.0858C7.28677 11.8303 7.28946 11.4187 7.54496 11.1666C7.80045 10.9144 8.212 10.9171 8.46418 11.1726L9.19772 11.9158V6.99961C9.19772 6.64062 9.48873 6.34961 9.84772 6.34961ZM16.0016 6.34961C16.3605 6.34961 16.6516 6.64062 16.6516 6.99961V11.9158L17.3851 11.1726C17.6373 10.9171 18.0488 10.9144 18.3043 11.1666C18.5598 11.4187 18.5625 11.8303 18.3103 12.0858L16.4642 13.9562C16.342 14.08 16.1754 14.1496 16.0016 14.1496C15.8277 14.1496 15.6611 14.08 15.5389 13.9562L13.6928 12.0858C13.4406 11.8303 13.4433 11.4187 13.6988 11.1666C13.9543 10.9144 14.3658 10.9171 14.618 11.1726L15.3516 11.9158V6.99961C15.3516 6.64062 15.6426 6.34961 16.0016 6.34961Z" fill="#EE1D2D"/>
<path fill-rule="evenodd" clip-rule="evenodd" d="M15.4514 16.3496H20.9061V17.6496H16.456L11.8424 35.3496H36.1602L31.5466 17.6496H27.0965V16.3496H32.5512L37.8424 36.6496H10.1602L15.4514 16.3496Z" fill="#EE1D2D"/>
<path fill-rule="evenodd" clip-rule="evenodd" d="M4.3 40.2995V41.1995H43.7V40.2995H4.3ZM3.3 38.9995C3.13431 38.9995 3 39.1338 3 39.2995V42.1995C3 42.3652 3.13431 42.4995 3.3 42.4995H44.7C44.8657 42.4995 45 42.3652 45 42.1995V39.2995C45 39.1338 44.8657 38.9995 44.7 38.9995H3.3Z" fill="#EE1D2D"/>
<path fill-rule="evenodd" clip-rule="evenodd" d="M24 18.6995C25.4912 18.6995 26.7 17.4907 26.7 15.9995C26.7 14.5083 25.4912 13.2995 24 13.2995C22.5088 13.2995 21.3 14.5083 21.3 15.9995C21.3 17.4907 22.5088 18.6995 24 18.6995ZM24 19.9995C26.2091 19.9995 28 18.2087 28 15.9995C28 13.7904 26.2091 11.9995 24 11.9995C21.7909 11.9995 20 13.7904 20 15.9995C20 18.2087 21.7909 19.9995 24 19.9995Z" fill="#EE1D2D"/>
<path d="M20.7024 28.1697L19.688 29.3097V31.0997H18.5V24.0997H19.688V27.6897L22.8499 24.0997H24.1842L21.4974 27.2297L24.3486 31.0997H22.9596L20.7024 28.1697Z" fill="#EE1D2D"/>
<path d="M29.2937 27.5197H30.4178V30.3097C30.0888 30.5964 29.7049 30.8164 29.2663 30.9697C28.8277 31.123 28.3768 31.1997 27.9138 31.1997C27.2619 31.1997 26.674 31.0464 26.1501 30.7397C25.6261 30.4264 25.2149 29.9964 24.9164 29.4497C24.6178 28.903 24.4686 28.2864 24.4686 27.5997C24.4686 26.913 24.6178 26.2964 24.9164 25.7497C25.2149 25.203 25.6261 24.7764 26.1501 24.4697C26.6801 24.1564 27.2741 23.9997 27.9321 23.9997C28.4682 23.9997 28.9556 24.0964 29.3942 24.2897C29.8329 24.483 30.2015 24.7664 30.5 25.1397L29.7506 25.9397C29.2633 25.4064 28.6753 25.1397 27.9869 25.1397C27.5361 25.1397 27.134 25.243 26.7806 25.4497C26.4334 25.6564 26.1592 25.9464 25.9582 26.3197C25.7632 26.693 25.6657 27.1197 25.6657 27.5997C25.6657 28.0664 25.7632 28.4864 25.9582 28.8597C26.1592 29.233 26.4334 29.5264 26.7806 29.7397C27.134 29.953 27.533 30.0597 27.9778 30.0597C28.4773 30.0597 28.916 29.9397 29.2937 29.6997V27.5197Z" fill="#EE1D2D"/>
</svg>
