<svg width="48" height="48" viewBox="0 0 48 48" fill="none" xmlns="http://www.w3.org/2000/svg">
<path fill-rule="evenodd" clip-rule="evenodd" d="M20.3365 2.34961H28.1773L29.6223 6.20278C30.4204 6.47502 31.5254 6.97594 32.2367 7.30103L36.0009 5.59L41.5452 11.1343L40.1829 15.2214C40.4689 15.8354 40.9467 16.9171 41.287 17.8734L45.1496 19.3219V27.1627L41.3018 29.0866C40.924 30.1757 40.5486 30.984 40.2433 31.6413C40.2282 31.6738 40.2133 31.7059 40.1985 31.7377L41.909 35.5008L36.3647 41.0451L32.2604 39.677L29.6341 40.7648L28.1773 44.6496H20.3365L18.4017 40.78L15.7389 39.6768L11.6346 41.0449L6.09032 35.5006L7.80715 31.7236L6.71922 29.0975L2.84961 27.1627V19.3219L6.73437 17.8651L7.82222 15.2388L6.45411 11.1345L11.9984 5.5902L15.7667 7.30305C16.1989 7.11516 16.8199 6.85869 17.3665 6.63559C17.7077 6.49635 18.0242 6.36835 18.2554 6.27517L18.4035 6.21561L20.3365 2.34961ZM19.116 7.3304L19.0151 7.37085L18.7414 7.48094C18.5114 7.57363 18.1967 7.70089 17.8577 7.83921C17.1744 8.11809 16.4098 8.43502 16.0334 8.60686L15.764 8.72985L12.2806 7.14648L7.94147 11.4856L9.20894 15.288L7.71939 18.8841L4.14961 20.2228V26.3593L7.73454 28.1517L9.22424 31.7476L7.64659 35.2184L11.9857 39.5575L15.7882 38.2901L19.3475 39.7647L21.14 43.3496H27.2764L28.6151 39.7798L32.2112 38.2903L36.0136 39.5578L40.3527 35.2186L38.7694 31.7352L38.8924 31.4658C38.9489 31.3419 39.0075 31.2156 39.0679 31.0856C39.3954 30.38 39.7738 29.5646 40.1557 28.4191L40.2408 28.1636L43.8496 26.3593V20.2228L40.2538 18.8743L40.1557 18.5802C39.7958 17.5005 39.1679 16.1071 38.8978 15.5445L38.7839 15.3073L40.0579 11.4854L35.7187 7.14627L32.2354 8.7296L31.9661 8.60673C31.9216 8.58642 31.8752 8.56522 31.8271 8.54324C31.0008 8.16581 29.6755 7.5604 28.9459 7.35185L28.631 7.26181L27.2764 3.64961H21.14L19.3455 7.23861L19.116 7.3304ZM24.2496 8.89961C16.1863 8.89961 9.64961 15.4363 9.64961 23.4996C9.64961 31.563 16.1863 38.0996 24.2496 38.0996C32.313 38.0996 38.8496 31.563 38.8496 23.4996C38.8496 15.4363 32.313 8.89961 24.2496 8.89961ZM8.34961 23.4996C8.34961 14.7183 15.4683 7.59961 24.2496 7.59961C33.0309 7.59961 40.1496 14.7183 40.1496 23.4996C40.1496 32.2809 33.0309 39.3996 24.2496 39.3996C15.4683 39.3996 8.34961 32.2809 8.34961 23.4996ZM23.563 14.2777C23.7633 14.1575 24.0126 14.154 24.2161 14.2685L32.3174 18.8255C32.522 18.9406 32.6487 19.1572 32.6487 19.392V27.9996C32.6487 28.2344 32.522 28.451 32.3174 28.5661L24.2161 33.1231C24.0126 33.2376 23.7633 33.2341 23.563 33.1139L15.9681 28.557C15.7723 28.4395 15.6525 28.2279 15.6525 27.9996V19.392C15.6525 19.1637 15.7723 18.9521 15.9681 18.8346L23.563 14.2777ZM23.908 15.5867L17.6213 19.3587L23.9071 22.7111L30.6128 19.3582L23.908 15.5867ZM31.3487 20.4437L24.5474 23.8443V31.4451L31.3487 27.6194V20.4437ZM23.2474 31.4085V23.8326L16.9525 20.4753V27.6316L23.2474 31.4085Z" fill="#EE1D2D"/>
</svg>
