<svg width="46" height="41" viewBox="0 0 46 41" fill="none" xmlns="http://www.w3.org/2000/svg">
<path fill-rule="evenodd" clip-rule="evenodd" d="M7.84275 22.7637C8.0317 23.069 7.93744 23.4696 7.6322 23.6585L5.3802 25.0526C5.07497 25.2416 4.67435 25.1473 4.4854 24.8421C4.29645 24.5368 4.39071 24.1362 4.69594 23.9473L6.94794 22.5532C7.25318 22.3642 7.65379 22.4585 7.84275 22.7637ZM36.1565 22.7637C36.3454 22.4585 36.746 22.3642 37.0513 22.5532L38.8417 23.6616C39.147 23.8505 39.2412 24.2511 39.0523 24.5564C38.8633 24.8616 38.4627 24.9559 38.1575 24.7669L36.367 23.6585C36.0618 23.4696 35.9675 23.069 36.1565 22.7637ZM40.4469 25.4197C40.6359 25.1145 41.0365 25.0202 41.3417 25.2092L43.3417 26.4473C43.5331 26.5658 43.6496 26.7748 43.6496 27C43.6496 27.2251 43.5331 27.4341 43.3417 27.5526L41.8417 28.4812C41.5365 28.6701 41.1359 28.5759 40.9469 28.2707C40.758 27.9654 40.8522 27.5648 41.1575 27.3759L41.7647 27L40.6575 26.3145C40.3522 26.1256 40.258 25.725 40.4469 25.4197ZM3.37213 25.5312C3.56109 25.8365 3.46682 26.2371 3.16159 26.4261L2.23452 27L2.84174 27.3759C3.14697 27.5648 3.24124 27.9654 3.05228 28.2707C2.86333 28.5759 2.46271 28.6701 2.15748 28.4812L0.657479 27.5526C0.466079 27.4341 0.349609 27.2251 0.349609 27C0.349609 26.7748 0.466079 26.5658 0.657479 26.4473L2.47733 25.3207C2.78256 25.1318 3.18318 25.226 3.37213 25.5312ZM19.7948 28.1143C19.9903 28.4154 19.9047 28.818 19.6036 29.0135L16.8536 30.7989C16.5525 30.9944 16.1499 30.9088 15.9544 30.6077C15.759 30.3066 15.8446 29.904 16.1457 29.7085L18.8957 27.9231C19.1967 27.7276 19.5993 27.8133 19.7948 28.1143ZM4.231 29.0003C4.41995 28.6951 4.82057 28.6008 5.1258 28.7898L7.39944 30.1973C7.70467 30.3862 7.79893 30.7869 7.60998 31.0921C7.42103 31.3973 7.02041 31.4916 6.71518 31.3026L4.44154 29.8951C4.13631 29.7062 4.04204 29.3056 4.231 29.0003ZM39.5138 29.1578C39.7028 29.4631 39.6085 29.8637 39.3033 30.0526L36.8417 31.5764C36.5365 31.7654 36.1359 31.6711 35.9469 31.3659C35.758 31.0607 35.8522 30.66 36.1575 30.4711L38.619 28.9473C38.9243 28.7583 39.3249 28.8526 39.5138 29.1578ZM25.7934 29.146C25.9889 28.8449 26.3915 28.7593 26.6926 28.9548L28.6179 30.2048C28.919 30.4003 29.0046 30.8028 28.8091 31.1039C28.6136 31.405 28.2111 31.4906 27.91 31.2951L25.9847 30.0451C25.6836 29.8496 25.5979 29.4471 25.7934 29.146ZM29.4544 31.5229C29.6499 31.2218 30.0525 31.1362 30.3536 31.3317L32.5079 32.7304L33.7729 31.9473C34.0781 31.7583 34.4787 31.8526 34.6677 32.1578C34.8566 32.4631 34.7624 32.8637 34.4571 33.0526L32.3417 34.3621C32.0365 34.5511 31.6359 34.4568 31.4469 34.1516C31.3325 33.9668 31.322 33.747 31.3991 33.5605L29.6457 32.422C29.3446 32.2265 29.2589 31.824 29.4544 31.5229ZM13.927 31.924C14.1225 32.2251 14.0369 32.6276 13.7358 32.8231L12.7134 33.4869L14.0917 34.3401C14.397 34.5291 14.4912 34.9297 14.3023 35.2349C14.1133 35.5402 13.7127 35.6344 13.4075 35.4455L9.54209 33.0526C9.23686 32.8637 9.1426 32.4631 9.33155 32.1578C9.5205 31.8526 9.92112 31.7583 10.2264 31.9473L11.4913 32.7304L13.0279 31.7328C13.329 31.5373 13.7315 31.6229 13.927 31.924ZM30.0523 35.015C30.2412 35.3202 30.147 35.7208 29.8417 35.9098L26.8417 37.7669C26.5365 37.9559 26.1359 37.8616 25.9469 37.5564C25.758 37.2511 25.8522 36.8505 26.1575 36.6616L29.1575 34.8044C29.4627 34.6155 29.8633 34.7097 30.0523 35.015ZM15.4469 35.9435C15.6359 35.6383 16.0365 35.544 16.3417 35.733L18.8417 37.2806C19.147 37.4696 19.2412 37.8702 19.0523 38.1754C18.8633 38.4806 18.4627 38.5749 18.1575 38.386L15.6575 36.8383C15.3522 36.6494 15.258 36.2488 15.4469 35.9435ZM24.627 38.3735C24.816 38.6787 24.7217 39.0793 24.4165 39.2683L22.3417 40.5526C22.1321 40.6824 21.8671 40.6824 21.6575 40.5526L20.4031 39.7761C20.0979 39.5871 20.0036 39.1865 20.1926 38.8813C20.3815 38.5761 20.7821 38.4818 21.0874 38.6708L21.9996 39.2355L23.7322 38.1629C24.0374 37.974 24.438 38.0682 24.627 38.3735Z" fill="#EE1D2D"/>
<path fill-rule="evenodd" clip-rule="evenodd" d="M23.6575 4.44728C23.8671 4.31751 24.1321 4.31751 24.3417 4.44728L45.3417 17.4473C45.5331 17.5658 45.6496 17.7748 45.6496 18C45.6496 18.2251 45.5331 18.4341 45.3417 18.5526L24.3417 31.5526C24.1321 31.6824 23.8671 31.6824 23.6575 31.5526L2.65748 18.5526C2.46608 18.4341 2.34961 18.2251 2.34961 18C2.34961 17.7748 2.46608 17.5658 2.65748 17.4473L23.6575 4.44728ZM4.23452 18L23.9996 30.2355L43.7647 18L23.9996 5.76442L4.23452 18Z" fill="#EE1D2D"/>
<path fill-rule="evenodd" clip-rule="evenodd" d="M38.1736 6.43613C38.5201 6.34237 38.7251 5.98545 38.6313 5.63892L37.7949 2.54777C37.7012 2.20124 37.3442 1.99634 36.9977 2.0901L33.9066 2.92647C33.56 3.02024 33.3551 3.37716 33.4489 3.72368C33.5426 4.0702 33.8996 4.27511 34.2461 4.18135L35.8216 3.75505L34.8709 5.40954C34.6921 5.7208 34.7994 6.11811 35.1107 6.29697C35.4219 6.47582 35.8193 6.36849 35.9981 6.05723L36.9497 4.40123L37.3764 5.97846C37.4702 6.32498 37.8271 6.52989 38.1736 6.43613ZM34.4002 7.53347C34.0889 7.35462 33.6916 7.46195 33.5127 7.77321L32.4193 9.67611C32.2405 9.98737 32.3478 10.3847 32.659 10.5635C32.9703 10.7424 33.3676 10.6351 33.5465 10.3238L34.6399 8.4209C34.8188 8.10964 34.7114 7.71232 34.4002 7.53347ZM31.8235 12.0177C31.5122 11.8389 31.1149 11.9462 30.936 12.2574L29.384 14.9584C29.2052 15.2697 29.3125 15.667 29.6237 15.8459C29.935 16.0247 30.3323 15.9174 30.5112 15.6061L32.0632 12.9051C32.242 12.5939 32.1347 12.1966 31.8235 12.0177ZM28.7098 17.4364C28.3986 17.2575 28.0012 17.3648 27.8224 17.6761L26.1263 20.6278L22.5031 18.2445C22.2032 18.0472 21.8001 18.1304 21.6028 18.4304C21.4056 18.7303 21.4888 19.1333 21.7887 19.3306L25.9887 22.0933C26.1384 22.1918 26.3221 22.2241 26.4964 22.1826C26.6708 22.1411 26.8202 22.0295 26.9095 21.8741L28.9495 18.3238C29.1284 18.0125 29.0211 17.6152 28.7098 17.4364Z" fill="#EE1D2D"/>
<path fill-rule="evenodd" clip-rule="evenodd" d="M28.0041 4.41547C28.3506 4.32171 28.5555 3.96479 28.4618 3.61827L27.6254 0.527109C27.5804 0.360702 27.4711 0.218998 27.3216 0.133168C27.1721 0.0473367 26.9946 0.0244126 26.8282 0.0694388L23.737 0.905818C23.3905 0.999577 23.1856 1.3565 23.2794 1.70302C23.3731 2.04955 23.7301 2.25445 24.0766 2.16069L25.653 1.73417L24.7432 3.31891L24.7422 3.32061L20.0978 11.4676C19.92 11.7795 20.0287 12.1764 20.3405 12.3542C20.6524 12.532 21.0494 12.4233 21.2271 12.1114L25.8706 3.96615L25.8716 3.96444L26.7804 2.38142L27.2069 3.9578C27.3007 4.30433 27.6576 4.50923 28.0041 4.41547ZM19.3618 14.0085C19.0521 13.827 18.6538 13.9308 18.4723 14.2406L18.1281 14.8278L14.4999 12.4413C14.2 12.244 13.7969 12.3272 13.5996 12.6271C13.4023 12.927 13.4855 13.3301 13.7855 13.5274L17.9855 16.2901C18.1344 16.388 18.3169 16.4205 18.4905 16.38C18.664 16.3395 18.8133 16.2295 18.9035 16.0757L19.5938 14.898C19.7754 14.5883 19.6715 14.19 19.3618 14.0085Z" fill="#EE1D2D"/>
</svg>
