<svg width="48" height="48" viewBox="0 0 48 48" fill="none" xmlns="http://www.w3.org/2000/svg">
<g clip-path="url(#clip0)">
<path fill-rule="evenodd" clip-rule="evenodd" d="M33.9343 4.86664C34.1919 5.11676 34.1978 5.52827 33.9477 5.78578L26.3881 13.5688L30.1178 17.1914L32.1035 15.147C32.3536 14.8895 32.7651 14.8835 33.0226 15.1336C33.2801 15.3837 33.2861 15.7952 33.036 16.0527L31.0503 18.0971L35.1395 22.069L39.2154 17.8726C39.4655 17.6151 39.877 17.6091 40.1345 17.8592C40.3921 18.1094 40.398 18.5209 40.1479 18.7784L35.6191 23.441C35.369 23.6985 34.9575 23.7045 34.7 23.4544L25.0161 14.0484C24.7586 13.7983 24.7526 13.3868 25.0027 13.1293L33.0152 4.88002C33.2653 4.62251 33.6768 4.61652 33.9343 4.86664ZM37.5514 10.471C37.8089 10.7211 37.8149 11.1326 37.5648 11.3901L35.1262 13.9008C34.8761 14.1583 34.4646 14.1643 34.2071 13.9141C33.9495 13.664 33.9436 13.2525 34.1937 12.995L36.6323 10.4844C36.8824 10.2269 37.2939 10.2209 37.5514 10.471ZM23.2609 14.9226C23.511 14.6651 23.9225 14.6591 24.18 14.9092L33.8639 24.3152C34.1214 24.5653 34.1274 24.9768 33.8773 25.2343L30.4981 28.7133L37.5639 35.5763C37.7666 35.7732 37.8188 36.0785 37.6932 36.3316C37.5676 36.5847 37.2928 36.7276 37.0134 36.6852C36.3676 36.5872 35.2244 36.1827 33.6079 35.3727C32.0642 34.5991 30.0472 33.4344 27.5488 31.7498L24.8197 34.5595C24.7572 34.6239 24.6821 34.6746 24.5991 34.7084L23.0844 35.3267C24.3648 36.9761 25.9074 39.0673 26.8917 40.6525C27.1739 41.1069 27.417 41.5306 27.5964 41.8973C27.7649 42.2417 27.9151 42.6095 27.9448 42.9266C27.9593 43.0816 27.9577 43.3462 27.7869 43.5838C27.5872 43.8615 27.2875 43.9316 27.0651 43.9261C26.8609 43.9211 26.6628 43.8562 26.4943 43.7844C26.3165 43.7086 26.1206 43.6026 25.9082 43.4718C25.9026 43.4683 25.8971 43.4648 25.8916 43.4611L17.1949 37.7307L8.42996 41.3085C8.19005 41.4064 7.91489 41.3525 7.72969 41.1712C7.54449 40.99 7.48463 40.7161 7.57734 40.4741L8.85496 37.1398C8.44734 35.9565 7.62872 33.4633 7.06316 31.3333C7.01142 31.1384 6.97499 30.8965 7.03621 30.6547C7.10863 30.3686 7.3045 30.1412 7.58526 30.0343C7.82076 29.9446 8.05943 29.9611 8.23489 29.9916C8.422 30.0241 8.61742 30.0874 8.80981 30.1643C9.40649 30.4027 10.1895 30.8621 11.0438 31.4272L12.8943 26.5978C12.0559 25.5408 10.8947 24.0223 9.87577 22.5728C9.31767 21.7789 8.79669 20.9979 8.39367 20.3207C8.00641 19.6699 7.67928 19.0368 7.57814 18.5668C7.55523 18.4603 7.53906 18.3051 7.58949 18.1353C7.64586 17.9454 7.77063 17.7892 7.93872 17.6917C8.21246 17.5329 8.51053 17.5802 8.64277 17.606C8.971 17.6699 9.39469 17.8533 9.84251 18.0784C10.7691 18.5441 12.062 19.3261 13.4877 20.2425C14.3806 20.8164 15.3334 21.4481 16.2926 22.0968L23.2609 14.9226ZM17.3833 22.8396C19.1271 24.035 20.8242 25.2348 22.1493 26.1905C24.2296 27.6696 25.8824 28.2713 27.0723 28.4487C28.2221 28.6202 28.8997 28.3933 29.1566 28.2286L32.4919 24.7948L23.7405 16.2946L17.3833 22.8396ZM29.4679 29.525C28.8556 29.7791 27.9875 29.8933 26.9222 29.7406C27.2314 29.9575 27.5338 30.1669 27.8294 30.369C30.5 32.1945 32.6167 33.4219 34.1903 34.2104C34.2606 34.2457 34.3298 34.28 34.3979 34.3135L29.4679 29.525ZM18.7198 25.3481C16.8091 24.009 14.6606 22.5418 12.7848 21.3361C11.3741 20.4293 10.1375 19.6834 9.27711 19.2492C9.34655 19.375 9.42442 19.5107 9.51083 19.6559C9.89006 20.2932 10.3902 21.0441 10.9393 21.8252C11.8705 23.1499 12.9266 24.5386 13.7349 25.5648C13.824 25.5178 13.9176 25.4755 14.0141 25.4374C14.4315 25.2732 14.9779 25.1606 15.6667 25.1236C16.4578 25.0813 17.4622 25.1375 18.7198 25.3481ZM14.2084 26.8015L12.1459 32.1842C13.4378 33.1002 14.8459 34.1869 16.0907 35.1866C16.6377 35.3668 17.5442 35.5498 18.5472 35.5223C19.6117 35.4931 20.731 35.2289 21.6492 34.5323C21.6944 34.498 21.7439 34.4697 21.7964 34.4483L23.9819 33.5562L26.4608 31.0041C25.0558 30.026 23.5129 28.8945 21.8308 27.5897L20.8429 28.6061C20.5927 28.8635 20.1812 28.8694 19.9238 28.6192C19.6663 28.369 19.6605 27.9575 19.9107 27.7L20.5328 27.06C18.3108 26.5025 16.7644 26.3667 15.7363 26.4218C15.1442 26.4535 14.7432 26.5476 14.4903 26.6471C14.318 26.7149 14.2385 26.7751 14.2084 26.8015ZM12.9504 34.3861C12.2804 33.8805 11.6139 33.3939 10.9872 32.9595C9.93336 32.229 9.03508 31.6768 8.43185 31.4151C8.78869 32.7145 9.2237 34.112 9.58716 35.2288L9.62956 35.1182C9.64768 35.0709 9.67126 35.0259 9.69983 34.9841C9.87973 34.7207 10.1746 34.5567 10.4754 34.4568C10.7921 34.3515 11.1916 34.2911 11.6779 34.2878C12.0413 34.2853 12.4633 34.3146 12.9504 34.3861ZM12.2276 35.6101C12.027 35.5933 11.8472 35.5866 11.6868 35.5877C11.2963 35.5904 11.0392 35.6393 10.8855 35.6904C10.8417 35.7049 10.8099 35.7184 10.7876 35.7291L9.91203 38.0143C10.1615 37.8466 10.5026 37.8701 10.7269 38.0879C10.9622 38.3164 10.9876 38.6797 10.7994 38.9371L16.023 36.805C15.8391 36.6546 15.6497 36.5007 15.456 36.3445C14.8307 36.1391 14.2765 35.9844 13.7873 35.8701L12.8306 36.8552C12.5804 37.1127 12.1689 37.1187 11.9114 36.8686C11.6539 36.6184 11.6479 36.2069 11.898 35.9494L12.2276 35.6101ZM18.1808 36.8235L26.263 42.1491C26.1315 41.9072 25.9716 41.6351 25.7873 41.3383C24.7985 39.7459 23.2016 37.5896 21.9032 35.9256C20.8302 36.5624 19.643 36.7927 18.5828 36.8218C18.4472 36.8255 18.3131 36.826 18.1808 36.8235ZM26.6504 43.047C26.6503 43.0467 26.6504 43.0472 26.6504 43.047V43.047ZM8.35896 18.8774C8.35858 18.8769 8.36427 18.877 8.37715 18.879C8.36577 18.8788 8.35933 18.8778 8.35896 18.8774ZM27.4487 20.8722C27.7062 21.1223 27.7122 21.5338 27.4621 21.7913L24.6751 24.6606C24.425 24.9182 24.0135 24.9241 23.756 24.674C23.4985 24.4239 23.4925 24.0124 23.7426 23.7549L26.5295 20.8856C26.7797 20.6281 27.1912 20.6221 27.4487 20.8722ZM18.3911 30.1974C18.6486 30.4475 18.6546 30.8591 18.4045 31.1166L16.3142 33.2685C16.0641 33.5261 15.6526 33.532 15.3951 33.2819C15.1376 33.0318 15.1316 32.6203 15.3817 32.3628L17.4719 30.2108C17.7221 29.9533 18.1336 29.9473 18.3911 30.1974Z" fill="#EE1D2D"/>
</g>
<defs>
<clipPath id="clip0">
<rect width="48" height="48" fill="white"/>
</clipPath>
</defs>
</svg>
