<svg width="48" height="48" viewBox="0 0 48 48" fill="none" xmlns="http://www.w3.org/2000/svg">
<g clip-path="url(#clip0)">
<path d="M9.25275 17.8658L2 14.3855L23.7582 5L46 14.3855L38.2637 17.8658M9.25275 17.8658L23.7582 24.2651L38.2637 17.8658M9.25275 17.8658L2 21.3012M2 21.3012V28.2169L8.76923 31.4442M2 21.3012L9.25275 24.5944M23.7582 38.5904V31.1807M23.7582 38.5904L16.5055 35.1325M23.7582 38.5904L31.1722 35.1325M46 21.3012V28.2169L39.0803 31.4442M46 21.3012L38.2637 17.8658M46 21.3012L38.5861 24.5944M23.7582 31.1807L16.5055 27.8876M23.7582 31.1807L31.1722 27.8876M9.25275 24.5944V31.6747M9.25275 24.5944L16.5055 27.8876M9.25275 31.6747L16.5055 35.1325M9.25275 31.6747L8.76923 31.4442M16.5055 27.8876V35.1325M31.1722 35.1325V27.8876M31.1722 35.1325L38.5861 31.6747M31.1722 27.8876L38.5861 24.5944M38.5861 31.6747V24.5944M38.5861 31.6747L39.0803 31.4442M8.76923 31.4442L1.5 34.6386L23.7582 46L46.5 34.5L39.0803 31.4442" stroke="black" stroke-width="1.5"/>
</g>
<defs>
<clipPath id="clip0">
<rect width="48" height="48" fill="white"/>
</clipPath>
</defs>
</svg>
