<svg width="48" height="48" viewBox="0 0 48 48" fill="none" xmlns="http://www.w3.org/2000/svg">
<path fill-rule="evenodd" clip-rule="evenodd" d="M34.1304 2.57102C34.3674 2.71281 34.4445 3.01985 34.3027 3.25681L32.5587 6.17143C32.4169 6.4084 32.1099 6.48555 31.8729 6.34376C31.636 6.20197 31.5588 5.89493 31.7006 5.65797L33.4446 2.74334C33.5864 2.50638 33.8934 2.42923 34.1304 2.57102ZM24.475 4.56521C24.6258 4.47984 24.8099 4.47855 24.9618 4.56181L42.2405 14.0332C42.4006 14.121 42.5002 14.2891 42.5002 14.4717V33.9717C42.5002 34.1499 42.4053 34.3147 42.2512 34.4041L24.9725 44.4327C24.815 44.5241 24.6204 44.5227 24.4643 44.4291L7.743 34.4005C7.59235 34.3101 7.50016 34.1473 7.50016 33.9717V14.4717C7.50016 14.2916 7.59703 14.1254 7.75374 14.0366L24.475 4.56521ZM24.2215 5.85811L8.50016 14.7631V33.1247L16.1192 28.92C16.361 28.7866 16.6652 28.8744 16.7986 29.1162C16.932 29.3579 16.8442 29.6621 16.6024 29.7955L9.00234 33.9897L24.7256 43.4197L40.9728 33.9898L33.1253 29.7988C32.8817 29.6687 32.7897 29.3658 32.9198 29.1222C33.0499 28.8786 33.3528 28.7866 33.5964 28.9167L41.5002 33.1378V14.7678L25.2215 5.84453V12.0897C25.2215 12.3659 24.9976 12.5897 24.7215 12.5897C24.4453 12.5897 24.2215 12.3659 24.2215 12.0897V5.85811ZM41.1304 6.57102C41.3674 6.71281 41.4445 7.01985 41.3027 7.25681L39.5587 10.1714C39.4169 10.4084 39.1099 10.4855 38.8729 10.3438C38.636 10.202 38.5588 9.89493 38.7006 9.65797L40.4446 6.74335C40.5864 6.50638 40.8934 6.42923 41.1304 6.57102ZM26.9498 9.53959C27.2176 9.4723 27.4893 9.63485 27.5566 9.90267L28.0428 11.8377L29.167 9.95892C29.3088 9.72196 29.6158 9.6448 29.8528 9.78659C30.0898 9.92838 30.1669 10.2354 30.0251 10.4724L28.9009 12.3512L30.836 11.8649C31.1038 11.7976 31.3754 11.9602 31.4427 12.228C31.51 12.4958 31.3475 12.7675 31.0797 12.8348L27.9739 13.6152C27.7061 13.6825 27.4344 13.5199 27.3671 13.2521L26.5867 10.1464C26.5194 9.87855 26.682 9.60689 26.9498 9.53959ZM33.9498 13.5396C34.2176 13.4723 34.4893 13.6349 34.5566 13.9027L35.0428 15.8377L36.167 13.9589C36.3088 13.722 36.6158 13.6448 36.8528 13.7866C37.0898 13.9284 37.1669 14.2354 37.0251 14.4724L35.9009 16.3512L37.836 15.8649C38.1038 15.7976 38.3755 15.9602 38.4427 16.228C38.51 16.4958 38.3475 16.7675 38.0797 16.8348L34.9739 17.6152C34.7061 17.6825 34.4344 17.5199 34.3671 17.2521L33.5867 14.1464C33.5194 13.8786 33.682 13.6069 33.9498 13.5396ZM28.3597 17.0237C25.3155 15.3937 22.5642 16.3569 21.6156 16.9973L21.609 17.0018L21.6022 17.006C19.1835 18.5287 18.4541 20.6236 18.5024 22.4811C18.5268 23.4198 18.7508 24.3003 19.0645 25.0133C19.3832 25.7378 19.7736 26.2432 20.0943 26.4766C21.5137 27.5098 21.9462 28.8398 21.974 29.5213H24.5002V22.5821C23.5025 22.5096 22.6029 22.2704 21.8837 21.9893C21.6265 21.8887 21.4995 21.5987 21.6001 21.3415C21.7006 21.0843 21.9906 20.9574 22.2478 21.0579C22.991 21.3484 23.952 21.5881 25.0076 21.6038C25.8981 21.6169 26.8527 21.4707 27.8035 21.0639C28.0574 20.9553 28.3512 21.073 28.4599 21.3269C28.5685 21.5808 28.4507 21.8747 28.1968 21.9833C27.2814 22.375 26.366 22.5555 25.5002 22.5957V29.5213H27.9482C27.9522 29.5213 27.9561 29.5213 27.9601 29.5213C28.0773 28.2694 28.8296 27.5615 29.5066 26.9245C29.6477 26.7917 29.7856 26.662 29.9137 26.5311C32.3557 24.0363 32.0871 19.0196 28.3597 17.0237ZM27.9558 30.5213V30.9754H28.8139C28.9313 31.1451 29.0002 31.3511 29.0002 31.5732C29.0002 32.0013 28.7445 32.3697 28.3775 32.5339L27.9131 32.4415C27.9011 32.5022 27.8865 32.5636 27.8694 32.6252H22.0656C22.0509 32.5676 22.0377 32.5083 22.0263 32.4471L21.5227 32.5414C21.1466 32.381 20.883 32.0079 20.883 31.5732C20.883 31.3511 20.9518 31.1451 21.0693 30.9754H21.9754V30.5213H27.9482C27.9507 30.5213 27.9533 30.5213 27.9558 30.5213ZM20.9754 29.759V29.5908C20.9754 29.2541 20.717 28.1667 19.5058 27.2851C18.9888 26.9088 18.5066 26.2285 18.1491 25.416C17.7866 24.5919 17.5307 23.5839 17.5027 22.507C17.4463 20.3351 18.321 17.893 21.0629 16.1639C22.2602 15.3596 25.4043 14.3069 28.8317 16.1421C33.2018 18.4822 33.4917 24.3054 30.6283 27.2306C30.4448 27.4181 30.2721 27.5835 30.1122 27.7365C29.4685 28.3528 29.0347 28.7681 28.9558 29.6131V29.7853C29.5793 30.1374 30.0002 30.8062 30.0002 31.5732C30.0002 32.4827 29.4084 33.2541 28.589 33.5232C28.1278 34.4468 27.2053 35.2929 25.6905 35.3745L25.6771 35.3753H24.1144L24.1009 35.3745C23.3475 35.3339 21.9874 34.8903 21.3353 33.5362C20.4946 33.2797 19.883 32.4979 19.883 31.5732C19.883 30.7866 20.3256 30.1033 20.9754 29.759ZM22.5944 33.6252C23.0761 34.1525 23.7287 34.3498 24.1422 34.3753H25.6496C26.4082 34.3313 26.9531 34.0288 27.3223 33.6252H22.5944ZM26.3412 20.4745C25.2771 20.1198 24.0939 20.329 23.6575 20.4745C23.3955 20.5618 23.1123 20.4202 23.025 20.1583C22.9377 19.8963 23.0793 19.6131 23.3412 19.5258C23.9048 19.3379 25.3217 19.0805 26.6575 19.5258C26.9194 19.6131 27.061 19.8963 26.9737 20.1583C26.8864 20.4202 26.6032 20.5618 26.3412 20.4745ZM11.2709 20.9255C11.4655 20.7296 11.7821 20.7287 11.978 20.9233L14.2492 23.1808C14.4451 23.3755 14.4461 23.692 14.2514 23.8879L11.9939 26.1592C11.7993 26.355 11.4827 26.356 11.2868 26.1613C11.091 25.9666 11.09 25.6501 11.2847 25.4542L12.6912 24.0391L10.5017 24.0458C10.2256 24.0466 10.0011 23.8234 10.0002 23.5473C9.99938 23.2711 10.2226 23.0466 10.4987 23.0458L12.6881 23.0391L11.273 21.6326C11.0772 21.4379 11.0762 21.1213 11.2709 20.9255ZM5.89654 23.5445C5.89738 23.8206 5.67421 24.0452 5.39807 24.046L2.00152 24.0564C1.72538 24.0572 1.50084 23.834 1.5 23.5579C1.49916 23.2817 1.72234 23.0572 1.99848 23.0564L5.39502 23.046C5.67116 23.0452 5.8957 23.2683 5.89654 23.5445Z" fill="#EE1D2D"/>
</svg>
