<svg width="144" height="144" viewBox="0 0 144 144" fill="none" xmlns="http://www.w3.org/2000/svg">
<rect x="2" y="2" width="140" height="140" stroke="#FBFBFB" stroke-width="4"/>
<mask id="path-2-inside-1" fill="white">
<path fill-rule="evenodd" clip-rule="evenodd" d="M111.153 102.808V102.806V102.805C111.28 81.8969 111.522 42.1211 72 42.1211C46.5715 42.1211 37.6381 58.5869 34.5472 75.8991C34.166 77.7738 33.8889 79.8946 33.716 81.5007C33.6141 82.4477 33.5484 83.2157 33.5189 83.6488C32.8761 90.6305 32.9328 97.3684 32.9787 102.821C32.9896 104.126 33 105.357 33 106.501H35.5H108.641H111.141C111.14 106.16 111.14 105.812 111.141 105.455C111.142 104.613 111.148 103.73 111.153 102.81V102.809V102.808ZM35.9954 84.0007C35.3838 90.7533 35.4361 97.3223 35.4796 102.77L35.4796 102.771L35.4796 102.773C35.4829 103.189 35.4862 103.598 35.4891 104.001H70.5V76.5012H60V104.001H57.5V74.0007H60L70.5 74.0009L73.3193 74.0009L84 74.0012H86.5V104.001H108.646C108.648 103.594 108.65 103.18 108.652 102.759C108.683 97.3132 108.72 90.7486 108.094 84.0007H108.001H91.4987H88.9987V81.5007V76.5007V74.0007H91.4987H106.604C106.15 71.8968 105.599 69.8203 104.93 67.8002C102.766 61.2725 99.4128 55.5204 94.2645 51.3948C89.1447 47.2919 82.03 44.6211 72 44.6211C61.9699 44.6211 54.862 47.2919 49.7525 51.3935C44.6144 55.5179 41.2744 61.2684 39.1245 67.7956C38.4587 69.8172 37.9118 71.8952 37.4631 74.0007H52.5007H55.0007V76.5007V81.5007V84.0007H52.5007H36.001H36.0009H35.9954ZM84 104.001V76.5012H73.3193V104.001H84ZM36.2527 81.5007H52.5007V76.5007H36.9771C36.6839 78.1622 36.4457 79.8335 36.2527 81.5007ZM60 61.5007V66.5007H84V61.5007H60ZM60 59.0007H57.5V61.5007V66.5007V69.0007H60H84H86.5V66.5007V61.5007V59.0007H84H60ZM91.4987 76.5007V81.5007H107.804C107.641 80.092 107.376 78.3097 107.004 76.5007H91.4987Z"/>
</mask>
<path fill-rule="evenodd" clip-rule="evenodd" d="M111.153 102.808V102.806V102.805C111.28 81.8969 111.522 42.1211 72 42.1211C46.5715 42.1211 37.6381 58.5869 34.5472 75.8991C34.166 77.7738 33.8889 79.8946 33.716 81.5007C33.6141 82.4477 33.5484 83.2157 33.5189 83.6488C32.8761 90.6305 32.9328 97.3684 32.9787 102.821C32.9896 104.126 33 105.357 33 106.501H35.5H108.641H111.141C111.14 106.16 111.14 105.812 111.141 105.455C111.142 104.613 111.148 103.73 111.153 102.81V102.809V102.808ZM35.9954 84.0007C35.3838 90.7533 35.4361 97.3223 35.4796 102.77L35.4796 102.771L35.4796 102.773C35.4829 103.189 35.4862 103.598 35.4891 104.001H70.5V76.5012H60V104.001H57.5V74.0007H60L70.5 74.0009L73.3193 74.0009L84 74.0012H86.5V104.001H108.646C108.648 103.594 108.65 103.18 108.652 102.759C108.683 97.3132 108.72 90.7486 108.094 84.0007H108.001H91.4987H88.9987V81.5007V76.5007V74.0007H91.4987H106.604C106.15 71.8968 105.599 69.8203 104.93 67.8002C102.766 61.2725 99.4128 55.5204 94.2645 51.3948C89.1447 47.2919 82.03 44.6211 72 44.6211C61.9699 44.6211 54.862 47.2919 49.7525 51.3935C44.6144 55.5179 41.2744 61.2684 39.1245 67.7956C38.4587 69.8172 37.9118 71.8952 37.4631 74.0007H52.5007H55.0007V76.5007V81.5007V84.0007H52.5007H36.001H36.0009H35.9954ZM84 104.001V76.5012H73.3193V104.001H84ZM36.2527 81.5007H52.5007V76.5007H36.9771C36.6839 78.1622 36.4457 79.8335 36.2527 81.5007ZM60 61.5007V66.5007H84V61.5007H60ZM60 59.0007H57.5V61.5007V66.5007V69.0007H60H84H86.5V66.5007V61.5007V59.0007H84H60ZM91.4987 76.5007V81.5007H107.804C107.641 80.092 107.376 78.3097 107.004 76.5007H91.4987Z" fill="#FBFBFB"/>
<path d="M111.153 102.805L109.653 102.796V102.805H111.153ZM34.5472 75.8991L36.0172 76.198L36.0207 76.1804L36.0239 76.1627L34.5472 75.8991ZM33.716 81.5007L32.2247 81.3402H32.2247L33.716 81.5007ZM33.5189 83.6488L35.0126 83.7864L35.0142 83.7686L35.0155 83.7507L33.5189 83.6488ZM32.9787 102.821L34.4786 102.808L32.9787 102.821ZM33 106.501H31.5V108.001H33V106.501ZM111.141 106.501V108.001H112.644L112.641 106.497L111.141 106.501ZM111.141 105.455L109.641 105.452V105.452L111.141 105.455ZM111.153 102.81L112.653 102.819V102.81H111.153ZM35.4796 102.77L33.9796 102.782L33.9796 102.782L35.4796 102.77ZM35.9954 84.0007V82.5007H34.6252L34.5015 83.8654L35.9954 84.0007ZM35.4796 102.771L36.9795 102.759L36.9795 102.758L35.4796 102.771ZM35.4796 102.773L33.9796 102.785L33.9796 102.785L35.4796 102.773ZM35.4891 104.001L33.9891 104.012L33.9999 105.501H35.4891V104.001ZM70.5 104.001V105.501H72V104.001H70.5ZM70.5 76.5012H72V75.0012H70.5V76.5012ZM60 76.5012V75.0012H58.5V76.5012H60ZM60 104.001V105.501H61.5V104.001H60ZM57.5 104.001H56V105.501H57.5V104.001ZM57.5 74.0007V72.5007H56V74.0007H57.5ZM60 74.0007L60 72.5007H60V74.0007ZM70.5 74.0009L70.5 72.5009H70.5L70.5 74.0009ZM73.3193 74.0009L73.3192 75.5009L73.3193 74.0009ZM84 74.0012L84 75.5012H84V74.0012ZM86.5 74.0012H88V72.5012H86.5V74.0012ZM86.5 104.001H85V105.501H86.5V104.001ZM108.646 104.001V105.501H110.138L110.146 104.008L108.646 104.001ZM108.652 102.759L110.152 102.767L108.652 102.759ZM108.094 84.0007L109.587 83.8621L109.461 82.5007H108.094V84.0007ZM88.9987 84.0007H87.4987V85.5007H88.9987V84.0007ZM88.9987 74.0007V72.5007H87.4987V74.0007H88.9987ZM106.604 74.0007V75.5007H108.461L108.07 73.6849L106.604 74.0007ZM104.93 67.8002L106.354 67.3282V67.3282L104.93 67.8002ZM94.2645 51.3948L95.2025 50.2242V50.2242L94.2645 51.3948ZM49.7525 51.3935L50.6915 52.5632L49.7525 51.3935ZM39.1245 67.7956L40.5492 68.2649V68.2649L39.1245 67.7956ZM37.4631 74.0007L35.996 73.6881L35.6097 75.5007H37.4631V74.0007ZM55.0007 74.0007H56.5007V72.5007H55.0007V74.0007ZM55.0007 84.0007V85.5007H56.5007V84.0007H55.0007ZM84 76.5012H85.5V75.0012H84V76.5012ZM84 104.001V105.501H85.5V104.001H84ZM73.3193 76.5012V75.0012H71.8193V76.5012H73.3193ZM73.3193 104.001H71.8193V105.501H73.3193V104.001ZM52.5007 81.5007V83.0007H54.0007V81.5007H52.5007ZM36.2527 81.5007L34.7627 81.3282L34.569 83.0007H36.2527V81.5007ZM52.5007 76.5007H54.0007V75.0007H52.5007V76.5007ZM36.9771 76.5007V75.0007H35.7186L35.4999 76.24L36.9771 76.5007ZM60 66.5007H58.5V68.0007H60V66.5007ZM60 61.5007V60.0007H58.5V61.5007H60ZM84 66.5007V68.0007H85.5V66.5007H84ZM84 61.5007H85.5V60.0007H84V61.5007ZM57.5 59.0007V57.5007H56V59.0007H57.5ZM57.5 69.0007H56V70.5007H57.5V69.0007ZM86.5 69.0007V70.5007H88V69.0007H86.5ZM86.5 59.0007H88V57.5007H86.5V59.0007ZM91.4987 81.5007H89.9987V83.0007H91.4987V81.5007ZM91.4987 76.5007V75.0007H89.9987V76.5007H91.4987ZM107.804 81.5007V83.0007H109.488L109.294 81.3284L107.804 81.5007ZM107.004 76.5007L108.474 76.199L108.228 75.0007H107.004V76.5007ZM109.653 102.806V102.808H112.653V102.806H109.653ZM109.653 102.805V102.806H112.653V102.805H109.653ZM72 43.6211C81.6181 43.6211 88.6883 46.0363 93.9222 49.8726C99.1661 53.7162 102.688 59.076 105.046 65.1643C109.79 77.4107 109.717 92.2875 109.653 102.796L112.653 102.814C112.716 92.4145 112.828 76.9493 107.844 64.0807C105.338 57.6116 101.518 51.7206 95.6957 47.4529C89.8632 43.1779 82.1429 40.6211 72 40.6211V43.6211ZM36.0239 76.1627C37.5449 67.6436 40.4753 59.5187 45.9991 53.5355C51.4754 47.6038 59.6448 43.6211 72 43.6211V40.6211C58.9266 40.6211 49.9151 44.8713 43.7949 51.5005C37.7221 58.0783 34.6405 66.8424 33.0706 75.6355L36.0239 76.1627ZM35.2074 81.6613C35.378 80.0762 35.6492 78.0073 36.0172 76.198L33.0773 75.6002C32.6828 77.5402 32.3998 79.7131 32.2247 81.3402L35.2074 81.6613ZM35.0155 83.7507C35.0433 83.3415 35.1071 82.5936 35.2074 81.6613L32.2247 81.3402C32.1212 82.3019 32.0535 83.09 32.0224 83.5469L35.0155 83.7507ZM34.4786 102.808C34.4327 97.3491 34.3776 90.6827 35.0126 83.7864L32.0252 83.5113C31.3746 90.5783 31.4329 97.3876 31.4787 102.834L34.4786 102.808ZM34.5 106.501C34.5 105.35 34.4896 104.112 34.4786 102.808L31.4787 102.834C31.4897 104.14 31.5 105.365 31.5 106.501H34.5ZM35.5 105.001H33V108.001H35.5V105.001ZM108.641 105.001H35.5V108.001H108.641V105.001ZM111.141 105.001H108.641V108.001H111.141V105.001ZM109.641 105.452C109.64 105.81 109.64 106.161 109.641 106.505L112.641 106.497C112.64 106.159 112.64 105.813 112.641 105.459L109.641 105.452ZM109.653 102.8C109.648 103.72 109.642 104.607 109.641 105.452L112.641 105.459C112.642 104.62 112.648 103.74 112.653 102.819L109.653 102.8ZM109.653 102.809V102.81H112.653V102.809H109.653ZM109.653 102.808V102.809H112.653V102.808H109.653ZM36.9795 102.758C36.936 97.303 36.8852 90.8046 37.4893 84.1361L34.5015 83.8654C33.8823 90.702 33.9362 97.3416 33.9796 102.782L36.9795 102.758ZM36.9795 102.758L36.9795 102.757L33.9796 102.782L33.9796 102.783L36.9795 102.758ZM36.9796 102.761L36.9795 102.759L33.9796 102.782L33.9796 102.785L36.9796 102.761ZM36.9891 103.99C36.9861 103.587 36.9829 103.177 36.9796 102.761L33.9796 102.785C33.983 103.201 33.9862 103.61 33.9891 104.012L36.9891 103.99ZM70.5 102.501H35.4891V105.501H70.5V102.501ZM69 76.5012V104.001H72V76.5012H69ZM60 78.0012H70.5V75.0012H60V78.0012ZM61.5 104.001V76.5012H58.5V104.001H61.5ZM57.5 105.501H60V102.501H57.5V105.501ZM56 74.0007V104.001H59V74.0007H56ZM60 72.5007H57.5V75.5007H60V72.5007ZM70.5 72.5009L60 72.5007L60 75.5007L70.5 75.5009L70.5 72.5009ZM73.3193 72.5009L70.5 72.5009L70.5 75.5009L73.3192 75.5009L73.3193 72.5009ZM84 72.5012L73.3193 72.5009L73.3192 75.5009L84 75.5012L84 72.5012ZM86.5 72.5012H84V75.5012H86.5V72.5012ZM88 104.001V74.0012H85V104.001H88ZM108.646 102.501H86.5V105.501H108.646V102.501ZM107.152 102.75C107.15 103.171 107.148 103.586 107.146 103.994L110.146 104.008C110.148 103.602 110.15 103.188 110.152 102.767L107.152 102.75ZM106.6 84.1394C107.219 90.8033 107.183 97.2975 107.152 102.75L110.152 102.767C110.183 97.329 110.221 90.6938 109.587 83.8621L106.6 84.1394ZM108.001 85.5007H108.094V82.5007H108.001V85.5007ZM91.4987 85.5007H108.001V82.5007H91.4987V85.5007ZM88.9987 85.5007H91.4987V82.5007H88.9987V85.5007ZM87.4987 81.5007V84.0007H90.4987V81.5007H87.4987ZM87.4987 76.5007V81.5007H90.4987V76.5007H87.4987ZM87.4987 74.0007V76.5007H90.4987V74.0007H87.4987ZM91.4987 72.5007H88.9987V75.5007H91.4987V72.5007ZM106.604 72.5007H91.4987V75.5007H106.604V72.5007ZM103.506 68.2722C104.156 70.2346 104.694 72.2583 105.137 74.3165L108.07 73.6849C107.607 71.5353 107.042 69.4061 106.354 67.3282L103.506 68.2722ZM93.3265 52.5653C98.1832 56.4572 101.402 61.9267 103.506 68.2722L106.354 67.3282C104.129 60.6182 100.642 54.5836 95.2025 50.2242L93.3265 52.5653ZM72 46.1211C81.7478 46.1211 88.5154 48.7098 93.3265 52.5653L95.2025 50.2242C89.774 45.874 82.3122 43.1211 72 43.1211V46.1211ZM50.6915 52.5632C55.4918 48.7099 62.252 46.1211 72 46.1211V43.1211C61.6878 43.1211 54.2322 45.874 48.8135 50.2237L50.6915 52.5632ZM40.5492 68.2649C42.639 61.9203 45.8455 56.4531 50.6915 52.5632L48.8135 50.2237C43.3834 54.5826 39.9098 60.6166 37.6998 67.3264L40.5492 68.2649ZM38.9301 74.3134C39.3691 72.2537 39.9025 70.2285 40.5492 68.2649L37.6998 67.3264C37.0149 69.4058 36.4545 71.5368 35.996 73.6881L38.9301 74.3134ZM52.5007 72.5007H37.4631V75.5007H52.5007V72.5007ZM55.0007 72.5007H52.5007V75.5007H55.0007V72.5007ZM56.5007 76.5007V74.0007H53.5007V76.5007H56.5007ZM56.5007 81.5007V76.5007H53.5007V81.5007H56.5007ZM56.5007 84.0007V81.5007H53.5007V84.0007H56.5007ZM52.5007 85.5007H55.0007V82.5007H52.5007V85.5007ZM36.001 85.5007H52.5007V82.5007H36.001V85.5007ZM36.0009 85.5007H36.001V82.5007H36.0009V85.5007ZM35.9954 85.5007H36.0009V82.5007H35.9954V85.5007ZM82.5 76.5012V104.001H85.5V76.5012H82.5ZM73.3193 78.0012H84V75.0012H73.3193V78.0012ZM74.8193 104.001V76.5012H71.8193V104.001H74.8193ZM84 102.501H73.3193V105.501H84V102.501ZM52.5007 80.0007H36.2527V83.0007H52.5007V80.0007ZM51.0007 76.5007V81.5007H54.0007V76.5007H51.0007ZM36.9771 78.0007H52.5007V75.0007H36.9771V78.0007ZM37.7428 81.6732C37.9328 80.0321 38.1668 78.3904 38.4543 76.7614L35.4999 76.24C35.2009 77.934 34.9587 79.635 34.7627 81.3282L37.7428 81.6732ZM61.5 66.5007V61.5007H58.5V66.5007H61.5ZM84 65.0007H60V68.0007H84V65.0007ZM82.5 61.5007V66.5007H85.5V61.5007H82.5ZM60 63.0007H84V60.0007H60V63.0007ZM57.5 60.5007H60V57.5007H57.5V60.5007ZM59 61.5007V59.0007H56V61.5007H59ZM59 66.5007V61.5007H56V66.5007H59ZM59 69.0007V66.5007H56V69.0007H59ZM60 67.5007H57.5V70.5007H60V67.5007ZM84 67.5007H60V70.5007H84V67.5007ZM86.5 67.5007H84V70.5007H86.5V67.5007ZM85 66.5007V69.0007H88V66.5007H85ZM85 61.5007V66.5007H88V61.5007H85ZM85 59.0007V61.5007H88V59.0007H85ZM84 60.5007H86.5V57.5007H84V60.5007ZM60 60.5007H84V57.5007H60V60.5007ZM92.9987 81.5007V76.5007H89.9987V81.5007H92.9987ZM107.804 80.0007H91.4987V83.0007H107.804V80.0007ZM105.535 76.8025C105.897 78.5629 106.156 80.3014 106.314 81.6731L109.294 81.3284C109.127 79.8826 108.855 78.0566 108.474 76.199L105.535 76.8025ZM91.4987 78.0007H107.004V75.0007H91.4987V78.0007Z" fill="#FBFBFB" mask="url(#path-2-inside-1)"/>
</svg>
