<svg width="48" height="48" viewBox="0 0 48 48" fill="none" xmlns="http://www.w3.org/2000/svg">
<path fill-rule="evenodd" clip-rule="evenodd" d="M38 2.5V46H27.5V13L10.5 13V2.5L38 2.5ZM28.5 12.7071V14.5H33C33.2761 14.5 33.5 14.7239 33.5 15C33.5 15.2761 33.2761 15.5 33 15.5H28.5V18H30.5C30.7761 18 31 18.2239 31 18.5C31 18.7761 30.7761 19 30.5 19H28.5V21H33C33.2761 21 33.5 21.2239 33.5 21.5C33.5 21.7761 33.2761 22 33 22H28.5V24H30.5C30.7761 24 31 24.2239 31 24.5C31 24.7761 30.7761 25 30.5 25H28.5V27H33C33.2761 27 33.5 27.2239 33.5 27.5C33.5 27.7761 33.2761 28 33 28H28.5V30H30.5C30.7761 30 31 30.2239 31 30.5C31 30.7761 30.7761 31 30.5 31H28.5V33H33C33.2761 33 33.5 33.2239 33.5 33.5C33.5 33.7761 33.2761 34 33 34H28.5V36H30.5C30.7761 36 31 36.2239 31 36.5C31 36.7761 30.7761 37 30.5 37H28.5V39H33C33.2761 39 33.5 39.2239 33.5 39.5C33.5 39.7761 33.2761 40 33 40H28.5V42H30.5C30.7761 42 31 42.2239 31 42.5C31 42.7761 30.7761 43 30.5 43H28.5V45H37V4.20711L28.5 12.7071ZM36.2929 3.5L11.5 3.5V12L27.7929 12L36.2929 3.5Z" fill="#EE1D2D"/>
<path fill-rule="evenodd" clip-rule="evenodd" d="M18.1799 38.1161C18.3921 37.9393 18.7073 37.968 18.8841 38.1801L20.5 40.1192V18.7073L18.8536 20.3538C18.6583 20.549 18.3417 20.549 18.1465 20.3538C17.9512 20.1585 17.9512 19.8419 18.1465 19.6467L21 16.7931L23.8536 19.6467C24.0488 19.8419 24.0488 20.1585 23.8536 20.3538C23.6583 20.549 23.3417 20.549 23.1465 20.3538L21.5 18.7073V40.1192L23.1159 38.1801C23.2927 37.968 23.608 37.9393 23.8201 38.1161C24.0322 38.2929 24.0609 38.6082 23.8841 38.8203L21 42.2812L18.1159 38.8203C17.9391 38.6082 17.9678 38.2929 18.1799 38.1161Z" fill="#EE1D2D"/>
</svg>
