<svg width="48" height="48" viewBox="0 0 48 48" fill="none" xmlns="http://www.w3.org/2000/svg">
<path fill-rule="evenodd" clip-rule="evenodd" d="M2.5 12H46V22.5H13V39.5H2.5V12ZM12.7071 21.5H14.5V17C14.5 16.7239 14.7239 16.5 15 16.5C15.2761 16.5 15.5 16.7239 15.5 17V21.5H18V19.5C18 19.2239 18.2239 19 18.5 19C18.7761 19 19 19.2239 19 19.5V21.5H21V17C21 16.7239 21.2239 16.5 21.5 16.5C21.7761 16.5 22 16.7239 22 17V21.5H24V19.5C24 19.2239 24.2239 19 24.5 19C24.7761 19 25 19.2239 25 19.5V21.5H27V17C27 16.7239 27.2239 16.5 27.5 16.5C27.7761 16.5 28 16.7239 28 17V21.5H30V19.5C30 19.2239 30.2239 19 30.5 19C30.7761 19 31 19.2239 31 19.5V21.5H33V17C33 16.7239 33.2239 16.5 33.5 16.5C33.7761 16.5 34 16.7239 34 17V21.5H36V19.5C36 19.2239 36.2239 19 36.5 19C36.7761 19 37 19.2239 37 19.5V21.5H39V17C39 16.7239 39.2239 16.5 39.5 16.5C39.7761 16.5 40 16.7239 40 17V21.5H42V19.5C42 19.2239 42.2239 19 42.5 19C42.7761 19 43 19.2239 43 19.5V21.5H45V13H4.20711L12.7071 21.5ZM3.5 13.7071V38.5H12V22.2071L3.5 13.7071Z" fill="#EE1D2D"/>
<path fill-rule="evenodd" clip-rule="evenodd" d="M34.1464 26.1464C34.3417 25.9512 34.6583 25.9512 34.8536 26.1464L37.7071 29L34.8536 31.8536C34.6583 32.0488 34.3417 32.0488 34.1464 31.8536C33.9512 31.6583 33.9512 31.3417 34.1464 31.1464L35.7929 29.5H20.5V38.7929L22.1464 37.1464C22.3417 36.9512 22.6583 36.9512 22.8536 37.1464C23.0488 37.3417 23.0488 37.6583 22.8536 37.8536L20 40.7071L17.1464 37.8536C16.9512 37.6583 16.9512 37.3417 17.1464 37.1464C17.3417 36.9512 17.6583 36.9512 17.8536 37.1464L19.5 38.7929V28.5H35.7929L34.1464 26.8536C33.9512 26.6583 33.9512 26.3417 34.1464 26.1464Z" fill="#EE1D2D"/>
</svg>
