<svg width="48" height="56" viewBox="0 0 48 56" fill="none" xmlns="http://www.w3.org/2000/svg">
<path fill-rule="evenodd" clip-rule="evenodd" d="M21.8496 1.84961H26.1496V6.84961H28.1496V13.3702L36.6 33.7506C36.7375 34.0823 36.5802 34.4625 36.2486 34.6C35.917 34.7375 35.5367 34.5802 35.3992 34.2486L28.1496 16.7643V18.1496H25.983L35.2577 39.9251L35.7488 37.8499C35.8314 37.5006 36.1816 37.2844 36.531 37.3671C36.8803 37.4497 37.0965 37.7999 37.0138 38.1493L36.1165 41.9414L36.9293 43.8496H43.9996C44.3586 43.8496 44.6496 44.1406 44.6496 44.4996C44.6496 44.8586 44.3586 45.1496 43.9996 45.1496H36.5145C36.5048 45.1498 36.495 45.1498 36.4853 45.1496H4.49961C4.14062 45.1496 3.84961 44.8586 3.84961 44.4996C3.84961 44.1406 4.14062 43.8496 4.49961 43.8496H11.5626L12.3276 41.9718L11.4762 38.1406C11.3983 37.7902 11.6193 37.443 11.9697 37.3651C12.3202 37.2872 12.6674 37.5082 12.7452 37.8586L13.1893 39.8567L22.0329 18.1496H19.8496V16.9532L13.1051 34.2359C12.9746 34.5703 12.5977 34.7356 12.2633 34.6051C11.9289 34.4746 11.7636 34.0977 11.8941 33.7633L19.8496 13.3773V6.84961H21.8496V1.84961ZM23.1496 6.84961H24.8496V3.14961H23.1496V6.84961ZM23.4367 18.1496L12.9663 43.8496H35.5163L24.57 18.1496H23.4367ZM21.1496 8.14961V16.8496H26.8496V8.14961H21.1496Z" fill="#EE1D2D"/>
<path fill-rule="evenodd" clip-rule="evenodd" d="M24 14.2C24.1105 14.2 24.2 14.1105 24.2 14C24.2 13.8895 24.1105 13.8 24 13.8C23.8895 13.8 23.8 13.8895 23.8 14C23.8 14.1105 23.8895 14.2 24 14.2ZM24 15.5C24.8284 15.5 25.5 14.8284 25.5 14C25.5 13.1716 24.8284 12.5 24 12.5C23.1716 12.5 22.5 13.1716 22.5 14C22.5 14.8284 23.1716 15.5 24 15.5Z" fill="#EE1D2D"/>
<path fill-rule="evenodd" clip-rule="evenodd" d="M12 37.2C12.6627 37.2 13.2 36.6627 13.2 36C13.2 35.3373 12.6627 34.8 12 34.8C11.3373 34.8 10.8 35.3373 10.8 36C10.8 36.6627 11.3373 37.2 12 37.2ZM36.5 37.2C37.1627 37.2 37.7 36.6627 37.7 36C37.7 35.3373 37.1627 34.8 36.5 34.8C35.8373 34.8 35.3 35.3373 35.3 36C35.3 36.6627 35.8373 37.2 36.5 37.2ZM12 38.5C13.3807 38.5 14.5 37.3807 14.5 36C14.5 34.6193 13.3807 33.5 12 33.5C10.6193 33.5 9.5 34.6193 9.5 36C9.5 37.3807 10.6193 38.5 12 38.5ZM36.5 38.5C37.8807 38.5 39 37.3807 39 36C39 34.6193 37.8807 33.5 36.5 33.5C35.1193 33.5 34 34.6193 34 36C34 37.3807 35.1193 38.5 36.5 38.5Z" fill="#EE1D2D"/>
</svg>
