<svg width="144" height="144" viewBox="0 0 144 144" fill="none" xmlns="http://www.w3.org/2000/svg">
<rect x="2" y="2" width="140" height="140" stroke="#FBFBFB" stroke-width="4"/>
<path fill-rule="evenodd" clip-rule="evenodd" d="M52.7266 31.3984H51.4766V32.6484V40.5575V55.9043C51.1814 56.0076 50.8891 56.1126 50.5998 56.2194C45.0208 58.2783 40.5361 60.9857 37.067 63.8916C36.2957 64.5377 35.5745 65.1937 34.9027 65.8546C30.2415 70.44 27.8555 75.3704 27.7506 78.9365L27.7471 79.0563L27.7664 79.1747L28.0431 80.8695L28.0515 80.9209L28.0641 80.9715L34.5667 106.959L34.8035 107.905H35.7793H51.0326H60.6358V107.999H116V105.199H111V89.799H112V86.999H111V81.7731H114V78.9731H104.16L105.323 64.9643L105.324 64.9532L105.946 58.1847L106.023 57.3466L105.276 56.9599C103.424 56.0023 100.384 54.8164 96.3321 53.8181L96.804 53.6083C94.7283 48.9379 91.3666 45.167 87.3749 42.1601C82.8909 38.7822 77.5838 36.346 72.3162 34.6566C67.504 33.1132 62.692 32.1826 58.51 31.7318C56.403 31.5046 54.4482 31.3984 52.7266 31.3984ZM108 81.7731H95.0728V86.999H108V81.7731ZM108 89.799H95.0728V105.199H108V89.799ZM92.2728 105.199V89.799H80.3843V105.199H92.2728ZM77.5843 105.199V89.799H63.4358V105.199H77.5843ZM60.6358 105.405V105.199V89.799V86.999V81.7731V78.9731V78.9727H63.4358V78.9731H64.0527L63.9771 66.0998H52.2826V105.405H60.6358ZM63.4358 81.7731V86.999H77.5843V81.7731H63.4358ZM78.7414 78.9727H77.5843V78.9731H66.5528L66.4771 66.0998H78.6685L78.7414 78.9727ZM80.3843 81.7731V86.999H92.2728V81.7731H80.3843ZM93.4292 78.9727H92.2728V78.9731H81.2414L81.1685 66.0998H93.3515L93.4292 78.9727ZM95.9292 78.9731H101.652L102.72 66.0998H95.8516L95.9292 78.9731ZM93.8593 53.2609C92.3647 50.417 90.3107 47.9378 87.8728 45.7875V52.2997C90.0299 52.5554 92.0293 52.8857 93.8593 53.2609ZM85.3728 52.0446V43.7885C81.7326 41.1436 77.5071 39.1057 73.1845 37.5854V51.8974C75.5113 51.761 77.7413 51.7214 79.8672 51.7603C81.7892 51.7954 83.6262 51.8947 85.3728 52.0446ZM70.6845 52.0788V41.8075H59.626V53.7C61.4482 53.3245 63.231 53.0102 64.9721 52.7512C66.9302 52.4599 68.8354 52.2386 70.6845 52.0788ZM57.126 54.2515V41.8075H53.9766V55.0958C54.9945 54.7925 56.0442 54.5104 57.126 54.2515ZM57.126 39.3075H53.9766V33.9172C54.9598 33.946 56.0144 34.0083 57.126 34.1074V39.3075ZM59.626 39.3075V34.382C63.058 34.8278 66.8608 35.599 70.6845 36.7655V39.3075H59.626ZM66.4625 63.5998L66.4124 55.0709C70.7726 54.4741 74.849 54.2336 78.6013 54.2466L78.6543 63.5998H66.4625ZM81.1543 63.5998L81.1016 54.2933C85.7465 54.4514 89.8376 54.9922 93.2888 55.6959L93.3364 63.5998H81.1543ZM95.8365 63.5998L95.7922 56.2599C99.1244 57.0845 101.686 58.0273 103.378 58.8138L102.938 63.5998H95.8365ZM63.9145 55.4473L63.9624 63.5998H52.2826V58.2709C54.258 57.5793 56.3783 56.9704 58.6479 56.466C60.4428 56.0671 62.1991 55.7295 63.9145 55.4473ZM49.7826 59.2202V63.5998H41.5904C43.9282 62.0004 46.6515 60.5054 49.7826 59.2202ZM49.7826 66.0998H38.3286C37.8754 66.4894 37.4424 66.8816 37.0293 67.2753V105.405H49.7826V66.0998ZM30.2539 78.8957C30.3595 76.6962 31.6686 73.4174 34.5293 69.9515V96.51L30.502 80.4152L30.2539 78.8957Z" fill="#FBFBFB"/>
</svg>
