<svg width="48" height="48" viewBox="0 0 48 48" fill="none" xmlns="http://www.w3.org/2000/svg">
<path fill-rule="evenodd" clip-rule="evenodd" d="M24.4996 5.24805L40.6496 14.6255V24.3497H46.9996C47.3586 24.3497 47.6496 24.6407 47.6496 24.9997C47.6496 25.3587 47.3586 25.6497 46.9996 25.6497H40.6496V28.9997C40.6496 29.3587 40.3586 29.6497 39.9996 29.6497C39.6406 29.6497 39.3496 29.3587 39.3496 28.9997V26.1287L24.4996 34.7513L9.64961 26.1287V28.9997C9.64961 29.3587 9.35859 29.6497 8.99961 29.6497C8.64062 29.6497 8.34961 29.3587 8.34961 28.9997V25.6497H1.99961C1.64062 25.6497 1.34961 25.3587 1.34961 24.9997C1.34961 24.6407 1.64062 24.3497 1.99961 24.3497H8.34961V14.6255L24.4996 5.24805ZM9.64961 24.6255L23.8496 32.8706V24.3739L9.64961 16.1287V24.6255ZM10.2941 14.9997L24.4996 23.248L38.7051 14.9997L24.4996 6.7513L10.2941 14.9997ZM39.3496 16.1287L25.1496 24.3739V32.8706L39.3496 24.6255V16.1287ZM8.99961 30.3497C9.35859 30.3497 9.64961 30.6407 9.64961 30.9997V32.6255L11.326 33.5989C11.6364 33.7791 11.742 34.1769 11.5617 34.4874C11.3815 34.7978 10.9837 34.9033 10.6732 34.7231L8.34961 33.3739V30.9997C8.34961 30.6407 8.64062 30.3497 8.99961 30.3497ZM39.9996 30.3497C40.3586 30.3497 40.6496 30.6407 40.6496 30.9997V33.3739L38.6038 34.5618C38.2933 34.742 37.8955 34.6365 37.7153 34.3261C37.535 34.0156 37.6406 33.6178 37.951 33.4376L39.3496 32.6255V30.9997C39.3496 30.6407 39.6406 30.3497 39.9996 30.3497ZM36.2562 35.1733C36.4364 35.4837 36.3309 35.8815 36.0204 36.0618L31.826 38.4973C31.5156 38.6775 31.1178 38.572 30.9375 38.2615C30.7572 37.9511 30.8628 37.5533 31.1732 37.373L35.3677 34.9376C35.6781 34.7573 36.0759 34.8628 36.2562 35.1733ZM12.9375 35.2862C13.1178 34.9757 13.5156 34.8702 13.826 35.0505L20.326 38.8247C20.6364 39.0049 20.742 39.4027 20.5617 39.7132C20.3815 40.0236 19.9837 40.1291 19.6732 39.9489L13.1732 36.1747C12.8628 35.9944 12.7572 35.5966 12.9375 35.2862ZM24.4996 35.3497C24.8586 35.3497 25.1496 35.6407 25.1496 35.9997V40.8706L27.6732 39.4053C27.9837 39.225 28.3815 39.3306 28.5617 39.641C28.742 39.9515 28.6364 40.3493 28.326 40.5295L24.4996 42.7513L21.6732 41.1102C21.3628 40.9299 21.2572 40.5321 21.4375 40.2217C21.6178 39.9112 22.0156 39.8057 22.326 39.986L23.8496 40.8706V35.9997C23.8496 35.6407 24.1406 35.3497 24.4996 35.3497Z" fill="#EE1D2D"/>
</svg>
