<svg width="64" height="64" viewBox="0 0 64 64" fill="none" xmlns="http://www.w3.org/2000/svg">
<g clip-path="url(#clip0)">
<path d="M44.75 30C44.75 24.6478 41.4346 20.0559 36.75 18.1684V13.25H34.75V6.25H32.75V0H31.25V6.25H29.25V13.25H27.25V18.1684C22.5654 20.0559 19.25 24.6478 19.25 30C19.25 35.7259 23.044 40.5817 28.25 42.187V45.25H25.25V50.75H28.25V53.25H25.25V58.75H28.25V64H29.75V58.75H31.25V62H32.75V58.75H34.25V64H35.75V58.75H38.75V53.25H35.75V50.75H38.75V45.25H35.75V42.187C40.956 40.5817 44.75 35.7259 44.75 30ZM43.25 30C43.25 31.1296 43.0819 32.2206 42.7707 33.25H36.75V26.75H42.7707C43.0819 27.7794 43.25 28.8704 43.25 30ZM30.75 7.75H33.25V13.25H30.75V7.75ZM28.75 14.75H35.25V17.6704C34.212 17.3966 33.1229 17.25 32 17.25C30.8771 17.25 29.788 17.3965 28.75 17.6704V14.75ZM32 18.75C36.5068 18.75 40.4024 21.4142 42.1965 25.25H21.8035C23.5976 21.4142 27.4932 18.75 32 18.75ZM35.25 26.75V33.25H28.75V26.75H35.25ZM20.75 30C20.75 28.8704 20.918 27.7794 21.2292 26.75H27.25V33.25H21.2292C20.918 32.2206 20.75 31.1296 20.75 30ZM21.8035 34.75H42.1964C41.773 35.6551 41.2327 36.495 40.5947 37.25H23.4051C22.7672 36.495 22.2269 35.6551 21.8035 34.75ZM37.25 54.75V57.25H26.75V54.75H37.25ZM29.75 53.25V50.75H34.25V53.25H29.75ZM37.25 46.75V49.25H26.75V46.75H37.25ZM29.75 45.25V42.5511C30.4805 42.6818 31.2325 42.75 32 42.75C32.7675 42.75 33.5194 42.6818 34.25 42.5511V45.25H29.75ZM34.3607 41H34.25V41.0238C33.5227 41.172 32.7704 41.25 32 41.25C31.2296 41.25 30.4773 41.172 29.75 41.0238V41H29.6392C27.8867 40.6242 26.2846 39.8392 24.9376 38.75H39.0624C37.7155 39.8392 36.1132 40.6242 34.3607 41Z" fill="#353B50"/>
</g>
<defs>
<clipPath id="clip0">
<rect width="64" height="64" fill="white"/>
</clipPath>
</defs>
</svg>
