<svg width="64" height="64" viewBox="0 0 64 64" fill="none" xmlns="http://www.w3.org/2000/svg">
<g clip-path="url(#clip0)">
<path d="M0 55.25H63.4961V56.75H0V55.25Z" fill="#353B50"/>
<path d="M40.6772 34.25C38.6257 34.25 36.9567 35.9323 36.9567 38C36.9567 40.0677 38.6257 41.75 40.6772 41.75H58.5354C60.5869 41.75 62.2559 40.0677 62.2559 38C62.2559 35.9323 60.5869 34.25 58.5354 34.25H40.6772ZM50.3504 35.75H54.815V40.25H50.3504V35.75ZM48.8622 40.25H44.3976V35.75H48.8622V40.25ZM38.4449 38C38.4449 36.7594 39.4463 35.75 40.6772 35.75H42.9094V40.25H40.6772C39.4463 40.25 38.4449 39.2406 38.4449 38ZM60.7677 38C60.7677 39.2406 59.7663 40.25 58.5354 40.25H56.3031V35.75H58.5354C59.7663 35.75 60.7677 36.7594 60.7677 38Z" fill="#353B50"/>
<path d="M28.5236 48.5C28.5236 49.7406 29.525 50.75 30.7559 50.75H63.4961V49.25H30.7559C30.3455 49.25 30.0118 48.9136 30.0118 48.5C30.0118 48.0864 30.3455 47.75 30.7559 47.75H63.4961V46.25H30.7559C29.525 46.25 28.5236 47.2594 28.5236 48.5Z" fill="#353B50"/>
<path d="M9.4252 47.25C8.19434 47.25 7.19291 48.2594 7.19291 49.5C7.19291 50.7406 8.19434 51.75 9.4252 51.75C10.6561 51.75 11.6575 50.7406 11.6575 49.5C11.6575 48.2594 10.6561 47.25 9.4252 47.25ZM9.4252 50.25C9.01483 50.25 8.6811 49.9136 8.6811 49.5C8.6811 49.0864 9.01483 48.75 9.4252 48.75C9.83556 48.75 10.1693 49.0864 10.1693 49.5C10.1693 49.9136 9.83556 50.25 9.4252 50.25Z" fill="#353B50"/>
<path d="M17.3622 47.25C16.1313 47.25 15.1299 48.2594 15.1299 49.5C15.1299 50.7406 16.1313 51.75 17.3622 51.75C18.5931 51.75 19.5945 50.7406 19.5945 49.5C19.5945 48.2594 18.5931 47.25 17.3622 47.25ZM17.3622 50.25C16.9518 50.25 16.6181 49.9136 16.6181 49.5C16.6181 49.0864 16.9518 48.75 17.3622 48.75C17.7726 48.75 18.1063 49.0864 18.1063 49.5C18.1063 49.9136 17.7726 50.25 17.3622 50.25Z" fill="#353B50"/>
<path d="M63.4961 31.25H54.3189V21.3106L63.248 12.3108V7.25H0.248031V12.3106L9.17717 21.3105V31.25H0V32.75H18.2675C17.8147 33.0599 17.3873 33.4142 16.9916 33.8129L16.558 34.25H0V35.75H15.0698L5.25641 45.6413C4.36635 46.5385 3.87611 47.7313 3.87611 49C3.87611 50.2186 4.32939 51.3662 5.15372 52.25H0V53.75H63.4961V52.25H25.1113L24.1669 51.298C23.5579 50.6842 23.2224 49.8681 23.2224 49C23.2224 48.1319 23.5579 47.3158 24.1669 46.7019L26.1035 44.75H63.4961V43.25H27.5916L35.9022 34.8735C37.2609 33.5041 39.0672 32.75 40.9884 32.75H63.4961V31.25ZM48.8622 12.75V20.25H44.3976V12.75H48.8622ZM44.3976 21.75H48.8622V31.25H44.3976V21.75ZM50.3504 12.75H52.8307V31.25H50.3504V12.75ZM54.3189 12.75H60.7076L54.3189 19.1894V12.75ZM61.7598 8.75V11.25H1.73622V8.75H61.7598ZM14.6339 31.25V21.75H19.0984V31.25H14.6339ZM19.0984 12.75V20.25H14.6339V12.75H19.0984ZM20.5866 12.75H23.0669V31.25H20.5866V12.75ZM29.0197 20.25H24.5551V12.75H29.0197V20.25ZM24.5551 21.75H29.0197V31.25H24.5551V21.75ZM30.5079 12.75H32.9882V31.25H30.5079V12.75ZM34.4764 21.75H38.9409V31.25H34.4764V21.75ZM38.9409 20.25H34.4764V12.75H38.9409V20.25ZM2.78849 12.75H9.17717V19.1894L2.78849 12.75ZM10.6654 12.75H13.1457V31.25H10.6654V12.75ZM7.25306 52.25L6.30868 51.298C5.69964 50.6842 5.36418 49.8681 5.36418 49C5.36418 48.1541 5.68339 47.3581 6.26317 46.75H22.2943C21.9286 47.4335 21.7341 48.2016 21.7341 49C21.7341 50.2186 22.1874 51.3662 23.0117 52.25H7.25306ZM34.8499 33.8129L23.5028 45.25H7.74912L18.0439 34.8735C19.4026 33.5041 21.2089 32.75 23.1302 32.75H36.1258C35.673 33.0599 35.2454 33.4142 34.8499 33.8129ZM40.4291 31.25V12.75H42.9095V31.25H40.4291Z" fill="#353B50"/>
</g>
<defs>
<clipPath id="clip0">
<rect width="63.4961" height="64" fill="white"/>
</clipPath>
</defs>
</svg>
