<svg width="64" height="64" viewBox="0 0 64 64" fill="none" xmlns="http://www.w3.org/2000/svg">
<path d="M64 38.75V23.25H55.1582C51.5337 13.6576 42.2951 7.25 32 7.25C21.7049 7.25 12.4663 13.6576 8.84175 23.25H0V38.75H1.25V55.25H0V56.75H64V55.25H62.75V38.75H64ZM22.25 38.75V55.25H5.75V38.75H22.25ZM23.75 38.75H25.25V55.25H23.75V38.75ZM37.25 41.25H26.75V38.75H37.25V41.25ZM26.75 42.75H31.25V48.25H30V49.75H31.25V55.25H26.75V42.75ZM32.75 49.75H34V48.25H32.75V42.75H37.25V55.25H32.75V49.75ZM38.75 38.75H40.25V55.25H38.75V38.75ZM41.75 38.75H58.25V55.25H41.75V38.75ZM1.5 37.25V28.75H62.5V37.25H1.5ZM32.75 8.80363C37.7006 9.51088 41.9778 17.1535 43.0104 27.25H32.75V8.80363ZM31.25 8.80363V27.25H20.9896C22.0223 17.1535 26.2994 9.51088 31.25 8.80363ZM62.5 27.25H46.8106L49.3106 24.75H62.5V27.25ZM53.5466 23.25H48.6894L44.6894 27.25H44.5182C43.712 19.0726 40.8983 12.5085 37.1561 9.33088C44.4746 10.9999 50.6637 16.1524 53.5466 23.25ZM26.8439 9.331C23.1018 12.5086 20.288 19.0728 19.4819 27.25H19.3107L15.3108 23.25H10.4534C13.3363 16.1525 19.5254 10.9999 26.8439 9.331ZM14.6894 24.75L17.1894 27.25H1.5V24.75H14.6894ZM2.75 38.75H4.25V55.25H2.75V38.75ZM61.25 55.25H59.75V38.75H61.25V55.25Z" fill="#353B50"/>
<path d="M20.75 52.75V41.25H7.25V52.75H20.75ZM19.25 51.25H14.75V42.75H19.25V51.25ZM8.75 42.75H13.25V51.25H8.75V42.75Z" fill="#353B50"/>
<path d="M43.25 41.25V52.75H56.75V41.25H43.25ZM44.75 42.75H49.25V51.25H44.75V42.75ZM55.25 51.25H50.75V42.75H55.25V51.25Z" fill="#353B50"/>
<path d="M19.25 35.75H44.75V30.25H19.25V35.75ZM20.75 31.75H43.25V34.25H20.75V31.75Z" fill="#353B50"/>
</svg>
