<svg width="64" height="64" viewBox="0 0 64 64" fill="none" xmlns="http://www.w3.org/2000/svg">
<g clip-path="url(#clip0)">
<path d="M58.2874 62.5V55H60.2717V45.5H58.2874V44.25H56.7992V45.5H54.815V55H56.7992V62.5H52.3346V54.5H48.3661V52H52.3346V46.5H48.3661V44H52.3346V38.5H48.3661V36H52.3346V30.5H48.3661V28H52.3346V22.5H48.3661V20H52.3346V14.5H48.3661V12H52.3346V6.5H44.3976V2.5H38.4449V0H25.0512V2.5H19.0984V6.5H11.1614V12H15.1299V14.5H11.1614V20H15.1299V22.5H11.1614V28H15.1299V30.5H11.1614V36H15.1299V38.5H11.1614V44H15.1299V46.5H11.1614V52H15.1299V54.5H11.1614V62.5H6.69685V55H8.6811V45.5H6.69685V44.25H5.20866V45.5H3.22441V55H5.20866V62.5H0V64H63.4961V62.5H58.2874ZM58.7835 47V49.5H56.3032V47H58.7835ZM56.3032 51H58.7835V53.5H56.3032V51ZM7.19291 47V49.5H4.7126V47H7.19291ZM4.7126 51H7.19291V53.5H4.7126V51ZM46.878 54.5H44.3976V52H46.878V54.5ZM28.5236 52V50H31.0039V54.5H20.5866V52H28.5236ZM28.5236 44V42H31.0039V48.5H28.5236V46.5H20.5866V44H28.5236ZM28.5236 36V34H31.0039V40.5H28.5236V38.5H20.5866V36H28.5236ZM28.5236 28V26H31.0039V32.5H28.5236V30.5H20.5866V28H28.5236ZM28.5236 20V18H31.0039V24.5H28.5236V22.5H20.5866V20H28.5236ZM28.5236 12V10H31.0039V16.5H28.5236V14.5H20.5866V12H28.5236ZM42.9095 12V14.5H34.9724V16.5H32.4921V10H34.9724V12H42.9095ZM34.9724 22.5V24.5H32.4921V18H34.9724V20H42.9095V22.5H34.9724ZM34.9724 30.5V32.5H32.4921V26H34.9724V28H42.9095V30.5H34.9724ZM34.9724 38.5V40.5H32.4921V34H34.9724V36H42.9095V38.5H34.9724ZM34.9724 46.5V48.5H32.4921V42H34.9724V44H42.9095V46.5H34.9724ZM32.4921 50H34.9724V52H42.9095V54.5H32.4921V50ZM50.8465 50.5H36.4606V48H50.8465V50.5ZM46.878 46.5H44.3976V44H46.878V46.5ZM50.8465 42.5H36.4606V40H50.8465V42.5ZM46.878 38.5H44.3976V36H46.878V38.5ZM50.8465 34.5H36.4606V32H50.8465V34.5ZM46.878 30.5H44.3976V28H46.878V30.5ZM50.8465 26.5H36.4606V24H50.8465V26.5ZM46.878 22.5H44.3976V20H46.878V22.5ZM50.8465 18.5H36.4606V16H50.8465V18.5ZM46.878 14.5H44.3976V12H46.878V14.5ZM50.8465 10.5H36.4606V8H50.8465V10.5ZM42.9095 4V6.5H38.4449V4H42.9095ZM36.9567 1.5V6.5H34.9724V8.5H28.5236V6.5H26.5394V1.5H36.9567ZM20.5866 4H25.0512V6.5H20.5866V4ZM12.6496 8H27.0354V10.5H12.6496V8ZM16.6181 12H19.0984V14.5H16.6181V12ZM12.6496 16H27.0354V18.5H12.6496V16ZM16.6181 20H19.0984V22.5H16.6181V20ZM12.6496 24H27.0354V26.5H12.6496V24ZM16.6181 28H19.0984V30.5H16.6181V28ZM12.6496 32H27.0354V34.5H12.6496V32ZM16.6181 36H19.0984V38.5H16.6181V36ZM12.6496 40H27.0354V42.5H12.6496V40ZM16.6181 44H19.0984V46.5H16.6181V44ZM12.6496 48H27.0354V50.5H12.6496V48ZM16.6181 52H19.0984V54.5H16.6181V52ZM12.6496 56H50.8465V62.5H48.3661V58.5H15.1299V62.5H12.6496V56ZM24.5551 60H31.0039V62.5H24.5551V60ZM23.0669 62.5H16.6181V60H23.0669V62.5ZM32.4921 60H38.9409V62.5H32.4921V60ZM40.4291 60H46.878V62.5H40.4291V60Z" fill="#353B50"/>
</g>
<defs>
<clipPath id="clip0">
<rect width="63.4961" height="64" fill="white"/>
</clipPath>
</defs>
</svg>
