<svg width="65" height="64" viewBox="0 0 65 64" fill="none" xmlns="http://www.w3.org/2000/svg">
<g clip-path="url(#clip0)">
<path d="M23.1825 26.3187C21.0984 26.3187 19.4028 28.0009 19.4028 30.0687V37.8187H26.9623V30.0687C26.9623 28.0009 25.2667 26.3187 23.1825 26.3187ZM23.1825 27.8187C24.433 27.8187 25.4504 28.828 25.4504 30.0687V30.3187H20.9147V30.0687C20.9147 28.828 21.9321 27.8187 23.1825 27.8187ZM20.9147 36.3187V31.8187H25.4504V36.3187H20.9147Z" fill="#353B50"/>
<path d="M41.3254 26.3187C39.2412 26.3187 37.5456 28.0009 37.5456 30.0687V37.8187H45.1052V30.0687C45.1052 28.0009 43.4096 26.3187 41.3254 26.3187ZM41.3254 27.8187C42.5759 27.8187 43.5933 28.828 43.5933 30.0687V30.3187H39.0575V30.0687C39.0575 28.828 40.0749 27.8187 41.3254 27.8187ZM39.0575 36.3187V31.8187H43.5933V36.3187H39.0575Z" fill="#353B50"/>
<path d="M32.254 26.3187C30.1698 26.3187 28.4742 28.0009 28.4742 30.0687V37.8187H36.0337V30.0687C36.0337 28.0009 34.3381 26.3187 32.254 26.3187ZM32.254 27.8187C33.5044 27.8187 34.5218 28.828 34.5218 30.0687V30.3187H29.9861V30.0687C29.9861 28.828 31.0035 27.8187 32.254 27.8187ZM29.9861 36.3187V31.8187H34.5218V36.3187H29.9861Z" fill="#353B50"/>
<path d="M29.4821 14.0687C29.4821 15.585 30.7256 16.8187 32.254 16.8187C33.7824 16.8187 35.0258 15.585 35.0258 14.0687C35.0258 12.5523 33.7824 11.3187 32.254 11.3187C30.7256 11.3187 29.4821 12.5523 29.4821 14.0687ZM33.5139 14.0687C33.5139 14.7579 32.9487 15.3187 32.254 15.3187C31.5592 15.3187 30.994 14.7579 30.994 14.0687C30.994 13.3794 31.5592 12.8187 32.254 12.8187C32.9487 12.8187 33.5139 13.3794 33.5139 14.0687Z" fill="#353B50"/>
<path d="M61.2321 59.3187V56.3187H59.2163V53.3187H57.2004V50.3187H55.1845V25.8187H57.2004V22.8187H59.2163V17.3187H54.6488L32.254 3.17969L9.85913 17.3187H5.29167V22.8187H7.30754V25.8187H9.32341V50.3187H7.30754V53.3187H5.29167V56.3187H3.27579V59.3187H0V60.8187H64.5079V59.3187H61.2321ZM55.6885 53.3187H47.121V51.8187H55.6885V53.3187ZM20.9147 43.3187V41.8187H43.5933V43.3187H20.9147ZM24.4425 44.8187V53.3187H22.9306V44.8187H24.4425ZM25.9544 44.8187H29.9861V53.3187H25.9544V44.8187ZM31.498 44.8187H33.0099V53.3187H31.498V44.8187ZM34.5218 44.8187H38.5536V53.3187H34.5218V44.8187ZM40.0655 44.8187H41.5774V53.3187H40.0655V44.8187ZM43.0893 44.8187H45.1052V40.3187H19.4028V44.8187H21.4186V53.3187H18.8988V50.3187H16.8829V25.8187H18.8988V22.8187H45.6091V25.8187H47.625V50.3187H45.6091V53.3187H43.0893V44.8187ZM15.371 25.8187V50.3187H13.8591V25.8187H15.371ZM49.1369 50.3187V25.8187H50.6488V50.3187H49.1369ZM53.6726 50.3187H52.1607V25.8187H53.6726V50.3187ZM55.6885 24.3187H47.121V22.8187H55.6885V24.3187ZM32.254 4.95769L51.8325 17.3187H48.3132L32.254 7.17969L16.1948 17.3187H12.6754L32.254 4.95769ZM45.497 17.3187H19.0109L32.254 8.95769L45.497 17.3187ZM6.80357 18.8187H57.7044V21.3187H6.80357V18.8187ZM8.81944 22.8187H17.3869V24.3187H8.81944V22.8187ZM10.8353 25.8187H12.3472V50.3187H10.8353V25.8187ZM8.81944 51.8187H17.3869V53.3187H8.81944V51.8187ZM6.80357 54.8187H57.7044V56.3187H6.80357V54.8187ZM4.7877 57.8187H59.7202V59.3187H4.7877V57.8187Z" fill="#353B50"/>
</g>
<defs>
<clipPath id="clip0">
<rect width="64.5079" height="64" fill="white"/>
</clipPath>
</defs>
</svg>
