<svg width="64" height="64" viewBox="0 0 64 64" fill="none" xmlns="http://www.w3.org/2000/svg">
<path d="M39.75 28.4811H34.25V33.9811H39.75V28.4811ZM38.25 32.4811H35.75V29.9811H38.25V32.4811Z" fill="#353B50"/>
<path d="M39.75 36.4811H34.25V41.9811H39.75V36.4811ZM38.25 40.4811H35.75V37.9811H38.25V40.4811Z" fill="#353B50"/>
<path d="M39.75 49.9811V44.4811H34.25V49.9811H39.75ZM35.75 45.9811H38.25V48.4811H35.75V45.9811Z" fill="#353B50"/>
<path d="M59.75 60.4811V2.01758L38.25 12.7676V24.4811H31.75V9.98108H34.75V4.48108H4.25V9.98108H6.25V60.4811H0V61.9811H64V60.4811H59.75ZM58.25 16.4811H47.75V13.9811H58.25V16.4811ZM47.75 17.9811H58.25V20.4811H47.75V17.9811ZM47.75 21.9811H58.25V24.4811H47.75V21.9811ZM47.75 25.9811H58.25V28.4811H47.75V25.9811ZM47.75 29.9811H58.25V32.4811H47.75V29.9811ZM47.75 33.9811H58.25V36.4811H47.75V33.9811ZM47.75 37.9811H58.25V40.4811H47.75V37.9811ZM47.75 41.9811H58.25V44.4811H47.75V41.9811ZM47.75 45.9811H58.25V48.4811H47.75V45.9811ZM39.75 25.9811V13.6946L58.25 4.44458V12.4811H46.25V49.9811H58.25V60.4811H50.75V52.4811H39.25V60.4811H31.75V25.9811H39.75ZM45.75 53.9811H49.25V60.4811H45.75V53.9811ZM44.25 60.4811H40.75V53.9811H44.25V60.4811ZM7.75 17.9811H16.25V24.4811H7.75V17.9811ZM7.75 25.9811H16.25V32.4811H7.75V25.9811ZM7.75 33.9811H16.25V40.4811H7.75V33.9811ZM7.75 41.9811H16.25V48.4811H7.75V41.9811ZM17.75 9.98108H20.25V48.4811H17.75V9.98108ZM30.25 40.4811H21.75V33.9811H30.25V40.4811ZM30.25 32.4811H21.75V25.9811H30.25V32.4811ZM21.75 24.4811V17.9811H30.25V24.4811H21.75ZM21.75 41.9811H30.25V48.4811H21.75V41.9811ZM30.25 16.4811H21.75V9.98108H30.25V16.4811ZM5.75 5.98108H33.25V8.48108H5.75V5.98108ZM16.25 9.98108V16.4811H7.75V9.98108H16.25ZM7.75 49.9811H30.25V60.4811H24.75V53.9811H27V52.4811H11V53.9811H13.25V60.4811H7.75V49.9811ZM18.25 53.9811V60.4811H14.75V53.9811H18.25ZM19.75 53.9811H23.25V60.4811H19.75V53.9811Z" fill="#353B50"/>
</svg>
