<svg width="64" height="64" viewBox="0 0 64 64" fill="none" xmlns="http://www.w3.org/2000/svg">
<path fill-rule="evenodd" clip-rule="evenodd" d="M62.4916 50.9995V27.9383V26.3359H56.0882H54.4874H44.6387H43.0252H32.584H30.9832H20.9748H19.3613H10.2185H8.60504H3.21429H1.61345V27.9383V47.6681V49.2705V50.3262V50.9995L3 51.9995H61L62.4916 50.9995ZM56.0882 33.2671H60.8908V27.9383H56.0882V33.2671ZM19.7773 46.0741V50.3262H43.7899V46.0741H19.7773ZM18.1765 50.3262V46.0741V44.4716H24.5798H45.3908V46.0741V50.3262H54.4874V41.8009H9.61765V50.3262H18.1765ZM8.01681 34.8696H3.21429V40.1984H8.01681V34.8696ZM12.2857 34.8696H9.61765V40.1984H12.2857V34.8696ZM32.584 33.2671H50.2185V27.9383H32.584V33.2671ZM54.4874 27.9383H51.8193V33.2671H54.4874V27.9383ZM32.584 34.8696V40.1984H50.2185V34.8696H32.584ZM13.8866 34.8696V40.1984H30.9832V34.8696H13.8866ZM13.8866 33.2671H30.9832V27.9383H13.8866V33.2671ZM9.61765 33.2671H12.2857V27.9383H9.61765V33.2671ZM51.8193 34.8696V40.1984H54.4874V34.8696H51.8193ZM60.8908 34.8696H56.0882V40.1984H60.8908V34.8696ZM8.01681 33.2671V27.9383H3.21429V33.2671H8.01681ZM8.01681 41.8009H3.21429V50.3262H8.01681V41.8009ZM56.0882 41.8009V50.3262H60.8908V41.8009H56.0882Z" fill="#353B50"/>
<path d="M1.61345 27.9383V26.3359V21.2131C1.61345 18.5213 6.58772 13.6761 12.3697 13.6761V15.2912H13.8866H16.1345H20.9748H22.5882H30.9832H32.584H42.1071H43.563H48.4034H50.2185H51.6303V13.6761C56.0882 13.6761 62.4916 17.7875 62.4916 21.2131V26.3359V27.9383H64V21.2131C64 17.7138 58.6219 12.0611 50.2185 12.0611V13.6761H32.584H30.9832H13.8866V12.0611C5.37815 12.0611 0 18.2521 0 21.2131V27.9383H1.61345Z" fill="#353B50"/>
<path d="M13.8866 15.2912C11.8319 16.3679 8.60504 19.598 8.60504 21.2131V26.3359H10.2185V21.2131C10.2185 20.1364 12.6924 16.7986 16.1345 15.2912H13.8866Z" fill="#353B50"/>
<path d="M20.9748 15.2912C20.437 16.3679 19.3613 19.0597 19.3613 21.2131V26.3359H20.9748V21.2131C21.0644 20.1364 21.5126 17.4446 22.5882 15.2912H20.9748Z" fill="#353B50"/>
<path d="M30.9832 15.2912V26.3359H32.584V15.2912H30.9832Z" fill="#353B50"/>
<path d="M43.0252 21.2131V26.3359H44.6387V21.2131C44.6387 19.699 43.9216 16.6343 43.563 15.2912H42.1071C42.6634 17.2293 42.951 20.0467 43.0252 21.2131Z" fill="#353B50"/>
<path d="M56.0882 21.2131C56.0882 18.8443 52.1751 16.2782 50.2185 15.2912H48.4034C53.4403 18.7367 54.5581 20.6747 54.4874 21.2131V26.3359H56.0882V21.2131Z" fill="#353B50"/>
<path d="M30.9832 5.0625V13.6761H32.584V8.56179L36.0336 6.67756L32.584 5.0625H30.9832Z" fill="#353B50"/>
<path d="M1.61345 50.9995L0 51.9995V55.4995H64V51.9995L62.4916 50.9995L61 51.9995L62.2336 52.7814V53.9995H1.61345V52.7628L3 51.9995L1.61345 50.9995Z" fill="#353B50"/>
</svg>
