<svg width="64" height="64" viewBox="0 0 64 64" fill="none" xmlns="http://www.w3.org/2000/svg">
<path d="M14 31.0002V29.9272L15.7135 26.5002H20V15.0002H15.0606L18 12.0609V7.00025H15V3.75025H13.5V7.00025H7V3.75025H5.5V7.00025H2.5V12.0609L5.43937 15.0002H0.5V26.5002H4.7865L6.5 29.9272V59.0003H0V60.5003H64V31.0002H14ZM62.5 39.0003H58V32.5002H62.5V39.0003ZM31.5 52.5003V59.0003H27V52.5003H31.5ZM33 52.5003H37.5V59.0003H33V52.5003ZM39 52.5003H43.5V59.0003H39V52.5003ZM45 52.5003H49.5V59.0003H45V52.5003ZM51 52.5003H52.25V51.0003H24.25V52.5003H25.5V59.0003H20V48.5003H56.5V59.0003H51V52.5003ZM14 40.5003H18.5V47.0003H14V40.5003ZM20 40.5003H22.5V47.0003H20V40.5003ZM52.5 39.0003H39V32.5002H52.5V39.0003ZM54 32.5002H56.5V39.0003H54V32.5002ZM39 47.0003V40.5003H52.5V47.0003H39ZM24 47.0003V40.5003H37.5V47.0003H24ZM37.5 39.0003H24V32.5002H37.5V39.0003ZM22.5 39.0003H20V32.5002H22.5V39.0003ZM54 47.0003V40.5003H56.5V47.0003H54ZM58 40.5003H62.5V47.0003H58V40.5003ZM18.5 32.5002V39.0003H14V32.5002H18.5ZM12.5 55.0003H8V30.5002H12.5V55.0003ZM12.7865 29.0002H11V26.5002H14.0365L12.7865 29.0002ZM12.5 16.5002V19.0002H8V16.5002H12.5ZM12.5 20.5002V25.0002H8V20.5002H12.5ZM14 25.0002V20.5002H18.5V25.0002H14ZM18.5 19.0002H14V16.5002H18.5V19.0002ZM16.5 11.0002H11V8.50025H16.5V11.0002ZM9.5 8.50025V11.0002H4V8.50025H9.5ZM5.06063 12.5002H15.4392L12.9392 15.0002H7.5605L5.06063 12.5002ZM6.5 16.5002V19.0002H2V16.5002H6.5ZM2 25.0002V20.5002H6.5V25.0002H2ZM9.5 26.5002V29.0002H7.7135L6.4635 26.5002H9.5ZM8 56.5003H12.5V59.0003H8V56.5003ZM14 48.5003H18.5V59.0003H14V48.5003ZM58 59.0003V48.5003H62.5V59.0003H58Z" fill="#353B50"/>
<path d="M36.2175 14.6341C35.9813 14.8702 35.6675 15.0002 35.3335 15.0002H31.9904C31.2559 15.0002 30.5654 15.2864 30.0459 15.8057L29.1014 16.7502L32.3033 19.9521C33.2004 20.8493 34.3933 21.3434 35.662 21.3434C36.9308 21.3434 38.1235 20.8493 39.0206 19.9521L41.412 17.5609V26.5609L45.5206 22.4521C46.4179 21.555 46.912 20.3621 46.912 19.0933V12.0608L52.4851 6.4875C52.9875 5.98525 53.1364 5.23662 52.8645 4.58037C52.5928 3.92412 51.9581 3.5 51.2478 3.5H49.3188C48.0501 3.5 46.8573 3.99412 45.96 4.89125L42.826 8.02525H35.8188C34.5501 8.02525 33.3573 8.51937 32.46 9.4165L28.3513 13.5252H37.326L36.2175 14.6341ZM47.0206 5.95225C47.6346 5.33838 48.4508 5.00025 49.3189 5.00025H51.2479C51.3931 5.00025 51.4549 5.09688 51.4789 5.1545C51.5026 5.21213 51.5275 5.32413 51.4246 5.427L45.4121 11.4396V19.0934C45.4121 19.9615 45.0741 20.7778 44.4601 21.3915L42.9121 22.9396V13.9396L37.9601 18.8915C37.3464 19.5054 36.5303 19.8434 35.6621 19.8434C34.794 19.8434 33.9778 19.5054 33.364 18.8915L31.2303 16.7577C31.4474 16.5906 31.712 16.5002 31.9905 16.5002H35.3336C36.0683 16.5002 36.7588 16.2141 37.2783 15.6947L47.0206 5.95225ZM31.9726 12.0255L33.5206 10.4775C34.1346 9.86363 34.9508 9.5255 35.8189 9.5255H41.3261L38.8261 12.0255H31.9726Z" fill="#353B50"/>
</svg>
