<svg width="208" height="208" viewBox="0 0 208 208" fill="none" xmlns="http://www.w3.org/2000/svg">
<mask id="mask0" mask-type="alpha" maskUnits="userSpaceOnUse" x="0" y="0" width="208" height="208">
<path d="M0.5 207.5V0.5H207.5V207.5H0.5Z" fill="white" stroke="#FF0000"/>
</mask>
<g mask="url(#mask0)">
<mask id="mask1" mask-type="alpha" maskUnits="userSpaceOnUse" x="13" y="0" width="182" height="209">
<path d="M103.243 74.9844L81.5003 156.074L81.3307 156.707L81.9853 156.704L136.48 156.473L137.129 156.47L136.961 155.843L95.3188 0.5H148.776C149.045 1.7781 149.84 4.87994 151.025 9.34717C152.378 14.4469 154.251 21.3654 156.461 29.4841C158.347 36.4107 160.479 44.2103 162.745 52.5003C165.792 63.6468 169.081 75.6801 172.341 87.6704C178.024 108.577 183.615 129.345 187.669 145.034C189.695 152.879 191.336 159.451 192.412 164.133C192.951 166.476 193.346 168.339 193.577 169.65C193.693 170.307 193.766 170.814 193.796 171.17C193.811 171.349 193.814 171.475 193.809 171.556C193.809 171.561 193.809 171.566 193.808 171.571L193.756 171.638V171.811C193.755 181.075 190.185 189.983 183.788 196.684C177.393 203.382 168.664 207.36 159.414 207.792H14.2449L43.531 97.5825L43.5311 97.5824C45.1793 91.3728 47.2299 85.8066 50.683 81.75C54.1127 77.721 58.9595 75.1427 66.3049 74.9721C68.3398 74.9352 75.2095 74.9569 82.5954 74.9803C83.3432 74.9827 84.0963 74.9851 84.8502 74.9874C92.4328 75.011 100.098 75.0303 103.243 74.9844ZM57.7068 48.2614C58.2002 19.2657 101.348 19.2561 101.848 48.2614C101.348 77.2616 58.2069 77.2623 57.7068 48.2614Z" fill="#B21616" stroke="#FF0000"/>
</mask>
<g mask="url(#mask1)">
<rect x="-46" y="-48" width="302" height="302" fill="url(#paint0_radial)"/>
</g>
</g>
<defs>
<radialGradient id="paint0_radial" cx="0" cy="0" r="1" gradientUnits="userSpaceOnUse" gradientTransform="translate(84.5 52.5) rotate(75.1174) scale(188.835)">
<stop offset="0.511531" stop-color="#FF153B"/>
<stop offset="0.657679" stop-color="#D4070D"/>
<stop offset="0.918977" stop-color="#7A0000"/>
</radialGradient>
</defs>
</svg>
