<svg width="128" height="128" viewBox="0 0 128 128" fill="none" xmlns="http://www.w3.org/2000/svg">
<rect x="2" y="2" width="124" height="124" stroke="#353B50" stroke-width="4"/>
<path fill-rule="evenodd" clip-rule="evenodd" d="M46.8681 27.9106H45.757V29.0218V36.0521V49.6937C45.4946 49.7854 45.2348 49.8788 44.9776 49.9737C40.0185 51.8039 36.0321 54.2104 32.9485 56.7935C32.2628 57.3678 31.6218 57.9509 31.0246 58.5384C26.8813 62.6142 24.7604 66.9969 24.6672 70.1667L24.6641 70.2732L24.6812 70.3784L24.9272 71.8849L24.9347 71.9306L24.9459 71.9756L30.7259 95.0752L30.9365 95.9166H31.8038H45.3623H53.8985V95.9998H103.111V93.5109H98.6664V79.8223H99.5556V77.3334H98.6664V72.6882H101.333V70.1993H92.5869L93.6203 57.747L93.6212 57.7371L94.1745 51.7206L94.243 50.9757L93.5785 50.632C91.9328 49.7808 89.2299 48.7266 85.6285 47.8392L86.048 47.6528C84.2029 43.5012 81.2147 40.1494 77.6666 37.4765C73.6808 34.474 68.9634 32.3085 64.2811 30.8067C60.0036 29.4349 55.7262 28.6077 52.0088 28.2069C50.136 28.005 48.3984 27.9106 46.8681 27.9106ZM95.9997 72.6882H84.5092V77.3334H95.9997V72.6882ZM95.9997 79.8223H84.5092V93.5109H95.9997V79.8223ZM82.0203 93.5109V79.8223H71.4527V93.5109H82.0203ZM68.9638 93.5109V79.8223H56.3874V93.5109H68.9638ZM53.8985 93.6944V93.5109V79.8223V77.3334V72.6882V70.1993V70.1988H56.3874V70.1993H56.9358L56.8685 58.7563H46.4734V93.6944H53.8985ZM56.3874 72.6882V77.3334H68.9638V72.6882H56.3874ZM69.9923 70.1988H68.9638V70.1993H59.158L59.0908 58.7563H69.9275L69.9923 70.1988ZM71.4527 72.6882V77.3334H82.0203V72.6882H71.4527ZM83.0482 70.1988H82.0203V70.1993H72.2146L72.1498 58.7563H82.9791L83.0482 70.1988ZM85.2704 70.1993H90.357L91.3067 58.7563H85.2014L85.2704 70.1993ZM83.4305 47.3439C82.1019 44.816 80.2761 42.6123 78.1091 40.7009V46.4896C80.0265 46.7168 81.8038 47.0104 83.4305 47.3439ZM75.8869 46.2628V38.9241C72.6512 36.573 68.8952 34.7615 65.0528 33.4102V46.1319C67.1212 46.0107 69.1034 45.9755 70.993 46.01C72.7015 46.0413 74.3344 46.1295 75.8869 46.2628ZM62.8306 46.2932V37.1632H53.0009V47.7342C54.6206 47.4005 56.2053 47.1211 57.7529 46.8909C59.4935 46.632 61.1871 46.4352 62.8306 46.2932ZM50.7787 48.2245V37.1632H47.9792V48.975C48.884 48.7054 49.817 48.4546 50.7787 48.2245ZM50.7787 34.941H47.9792V30.1495C48.8532 30.1751 49.7905 30.2305 50.7787 30.3186V34.941ZM53.0009 34.941V30.5627C56.0516 30.959 59.4318 31.6445 62.8306 32.6814V34.941H53.0009ZM59.0777 56.5341L59.0332 48.9528C62.909 48.4224 66.5324 48.2085 69.8678 48.2201L69.9149 56.5341H59.0777ZM72.1372 56.5341L72.0903 48.2616C76.2191 48.4022 79.8557 48.8829 82.9233 49.5084L82.9657 56.5341H72.1372ZM85.188 56.5341L85.1486 50.0097C88.1105 50.7427 90.3873 51.5807 91.8914 52.2799L91.5002 56.5341H85.188ZM56.8129 49.2874L56.8555 56.5341H46.4734V51.7973C48.2294 51.1826 50.1141 50.6413 52.1315 50.1929C53.7269 49.8384 55.2881 49.5383 56.8129 49.2874ZM44.2512 52.6411V56.5341H36.9692C39.0472 55.1124 41.468 53.7835 44.2512 52.6411ZM44.2512 58.7563H34.0698C33.667 59.1026 33.2821 59.4513 32.9149 59.8012V93.6944H44.2512V58.7563ZM26.8924 70.1304C26.9862 68.1753 28.1499 65.2608 30.6927 62.18V85.7876L27.1129 71.4811L26.8924 70.1304Z" fill="#353B50"/>
</svg>
