<svg width="128" height="128" viewBox="0 0 128 128" fill="none" xmlns="http://www.w3.org/2000/svg">
<rect x="2" y="2" width="124" height="124" stroke="#353B50" stroke-width="4"/>
<path fill-rule="evenodd" clip-rule="evenodd" d="M43.7778 35.5556C43.7778 34.2056 44.8722 33.1111 46.2222 33.1111H66.6667C68.0167 33.1111 69.1111 34.2056 69.1111 35.5556V75.3334H64.4444C64.37 75.3334 64.2959 75.3351 64.2222 75.3386V43.5556C64.2222 41.4692 62.5309 39.7778 60.4444 39.7778H43.7778V35.5556ZM71.3333 35.5556V75.3334H75.0171L75.3333 73.6729V59.5556V57.847L74.8975 54.3601L74.7414 53.1111H76H97.3333H98.592L98.4359 54.3601L98 57.847V59.5556V73.6729L100.012 84.2366L101.406 91.5556H103.111V93.7778V96.4445V98.6667H100.889H26.2222H24V96.4445V93.7778V91.5556H25.7778V53.7778V51.5556H28H33.1111V43.5556C33.1111 41.4692 34.8025 39.7778 36.8889 39.7778H41.5556V35.5556C41.5556 32.9783 43.6449 30.8889 46.2222 30.8889H66.6667C69.244 30.8889 71.3333 32.9783 71.3333 35.5556ZM99.1441 91.5556L98.0012 85.5556H75.3321L74.1893 91.5556H99.1441ZM71.9271 91.5556L73.3212 84.2366L74.5938 77.5556H64.4444C63.0944 77.5556 62 78.65 62 80V91.5556H71.9271ZM76.856 77.5556L75.7554 83.3334H97.5779L95.9694 74.8889H77.3639L76.8889 77.3827V77.5556H76.856ZM59.7778 93.7778H62H100.889V96.4445H26.2222V93.7778H28H55.5556H57.7778H59.7778ZM59.7778 80V91.5556H57.7778V53.7778V51.5556H55.5556H43.7778V42H60.4444C61.3036 42 62 42.6965 62 43.5556V76.024C60.6666 76.8455 59.7778 78.319 59.7778 80ZM41.5556 51.5556V42H36.8889C36.0298 42 35.3333 42.6965 35.3333 43.5556V51.5556H41.5556ZM55.5556 53.7778H28V60H55.5556V53.7778ZM28 68V62.2222H55.5556V68H28ZM28 70.2222H55.5556V75.5556H28V70.2222ZM55.5556 83.5556V77.7778H28V83.5556H55.5556ZM28 91.5556V85.7778H55.5556V91.5556H28ZM95.7778 60.6667V72.6667H77.5556V60.6667H95.7778ZM95.7778 58.4445H77.5556V57.7778V57.7086L77.547 57.64L77.2587 55.3334H96.0747L95.7864 57.64L95.7778 57.7086V57.7778V58.4445ZM99.5556 49.7778H73.7778V52.4445H99.5556V49.7778ZM64 80.8889H66.6667V83.5556H64V80.8889ZM72 80.8889H69.3333V83.5556H72V80.8889Z" fill="#353B50"/>
</svg>
