<svg width="128" height="128" viewBox="0 0 128 128" fill="none" xmlns="http://www.w3.org/2000/svg">
<rect x="2" y="2" width="124" height="124" stroke="#353B50" stroke-width="4"/>
<path fill-rule="evenodd" clip-rule="evenodd" d="M31.8359 55.1113V44.3838L63.999 32.0134L96.1734 44.4873L96.199 55.1113H31.8359ZM31.8359 57.7779V64.889H96.2225L96.2054 57.7779H31.8359ZM31.8359 92.1668V67.5557H43.5582V92.1668H31.8359ZM46.2248 92.1668V67.5557H81.7812V92.1668H77.3346V67.5559H74.6696V67.5557L74.6694 67.5559H74.668V67.5573L64.003 78.1234L53.3365 67.5558V71.3096L62.1085 80.0003L53.3364 88.6911L53.3364 92.1668H53.3346V67.5559H50.668V92.1668H46.2248ZM53.617 92.1668H74.3889L64.003 81.8772L53.617 92.1668ZM84.4479 92.1668V67.5557H96.229L96.2882 92.1668H84.4479ZM29.3359 92.1668V42.6668L64.0026 29.3335L98.6693 42.7737L98.7883 92.1668L98.7943 94.6668H96.2943H31.8359H29.3359V92.1668ZM57.6137 47.2779V43.3891H70.3915V47.2779H57.6137ZM55.1137 40.8891H57.6137H70.3915H72.8915V43.3891V47.2779V49.7779H70.3915H57.6137H55.1137V47.2779V43.3891V40.8891ZM65.8974 80.0003L74.668 88.6895V71.3111L65.8974 80.0003Z" fill="#353B50"/>
</svg>
