<svg width="128" height="128" viewBox="0 0 128 128" fill="none" xmlns="http://www.w3.org/2000/svg">
<rect x="2" y="2" width="124" height="124" stroke="#353B50" stroke-width="4"/>
<path fill-rule="evenodd" clip-rule="evenodd" d="M26.6664 39.1111L61.3331 37.858V30.2222H26.6664V39.1111ZM28.8887 36.8071L59.1109 35.7147V32.4444H28.8887V36.8071Z" fill="#353B50"/>
<path fill-rule="evenodd" clip-rule="evenodd" d="M98.222 34.301V32.4444H78.6664V35.0079L98.222 34.301ZM100.444 36.4444L76.4442 37.3119V30.2222H100.444V36.4444Z" fill="#353B50"/>
<path fill-rule="evenodd" clip-rule="evenodd" d="M75.5553 30.2222V38.2222L69.3331 41.7777H68.4442L62.222 38.2222V30.2222H75.5553ZM64.4442 32.4444V36.9326L68.8887 39.4722L73.3331 36.9326V32.4444H64.4442Z" fill="#353B50"/>
<path d="M29.3331 30.2222H26.6664V47.1111H34.6664V44.4444H29.3331V30.2222Z" fill="#353B50"/>
<path d="M28.4442 95.1111L34.6664 37.3333H37.3331L31.1109 95.1111H28.4442Z" fill="#353B50"/>
<path d="M28.4442 95.1111L47.9998 37.3333H50.6664L31.1109 95.1111H28.4442Z" fill="#353B50"/>
<path d="M39.9998 38.2222H36.4442L45.3331 46.8944L46.6664 44.4444L39.9998 38.2222Z" fill="#353B50"/>
<path d="M45.7776 46.3454V48.8886L35.5553 50.2221V47.6785L45.7776 46.3454Z" fill="#353B50"/>
<path d="M41.7773 57.9014V60.8887L33.7776 63.4322V60.4445L41.7773 57.9014Z" fill="#353B50"/>
<path d="M37.3331 67.5555V70.5429L32.889 73.3331V70.3454L37.3331 67.5555Z" fill="#353B50"/>
<path d="M35.5553 49.7777L34.6664 52.4444L41.3331 58.6666L42.222 56L35.5553 49.7777Z" fill="#353B50"/>
<path d="M33.778 62.2222L33.7776 65.7777L37.7776 69.7777L38.6664 67.1111L33.778 62.2222Z" fill="#353B50"/>
<path d="M99.5553 95.1111L93.3331 36.4444H90.6664L96.8887 95.1111H99.5553Z" fill="#353B50"/>
<path d="M99.5553 95.1111L79.9998 36.4444H77.3331L96.8887 95.1111H99.5553Z" fill="#353B50"/>
<path d="M88.8887 36.4444H92.4442L82.6664 46.0057L81.3331 43.5557L88.8887 36.4444Z" fill="#353B50"/>
<path d="M82.222 45.4567V47.9999L92.4442 50.2221V47.6785L82.222 45.4567Z" fill="#353B50"/>
<path d="M86.2223 57.9014V60.8887L94.222 63.4322V60.4445L86.2223 57.9014Z" fill="#353B50"/>
<path d="M90.6664 67.5555V70.5429L95.1105 73.3331V70.3454L90.6664 67.5555Z" fill="#353B50"/>
<path d="M92.4442 49.7777L93.3331 52.4444L86.6664 58.6666L85.7776 56L92.4442 49.7777Z" fill="#353B50"/>
<path d="M94.2216 62.2222L94.222 65.7777L90.222 69.7777L89.3331 67.1111L94.2216 62.2222Z" fill="#353B50"/>
<path d="M31.9998 71.1111L31.9994 75.1111L34.6664 78.2221L35.5553 75.5555L31.9998 71.1111Z" fill="#353B50"/>
<path d="M24.8887 93.3333H34.6664V99.5555H24.8887V93.3333Z" fill="#353B50"/>
<path d="M92.4442 93.3333H102.222V99.5555H92.4442V93.3333Z" fill="#353B50"/>
<path d="M65.7776 38.6666H67.9998V51.1111H65.7776V38.6666Z" fill="#353B50"/>
<path d="M69.7776 39.9999H71.9998V51.5555H69.7776V39.9999Z" fill="#353B50"/>
<path fill-rule="evenodd" clip-rule="evenodd" d="M65.9797 49.5555H71.7976L73.9998 53.9599V56.4602L70.6822 59.7777H67.0951L63.7776 56.4602V53.9599L65.9797 49.5555ZM67.3531 51.7777L65.9998 54.4845V55.5397L68.0156 57.5555H69.7618L71.7776 55.5397V54.4845L70.4242 51.7777H67.3531Z" fill="#353B50"/>
<path d="M67.5553 59.5555H70.222V66.6666H67.5553V59.5555Z" fill="#353B50"/>
<path d="M75.1109 72.8888L68.8887 63.9999V61.7777H70.222L77.7776 72.8888H75.1109Z" fill="#353B50"/>
<path d="M62.6664 72.8888L68.8887 63.9999V61.7777H67.5553L59.9998 72.8888H62.6664Z" fill="#353B50"/>
<path fill-rule="evenodd" clip-rule="evenodd" d="M77.7776 75.1111H59.9998V82.2222H77.7776V75.1111ZM57.7776 72.8888V84.4444H79.9998V72.8888H57.7776Z" fill="#353B50"/>
</svg>
