<svg width="128" height="128" viewBox="0 0 128 128" fill="none" xmlns="http://www.w3.org/2000/svg">
<rect x="2" y="2" width="124" height="124" stroke="#353B50" stroke-width="4"/>
<path fill-rule="evenodd" clip-rule="evenodd" d="M60.3049 46.1306H88.2666V53.1957L65.2581 76.5813H55.6388V88.6566H65.9037V93.3411L71.6627 87.6539L73.2242 89.235L65.2488 97.1111H36.5528V89.3105L47.5509 78.2095V76.5813H36.5528V69.5057L60.3049 46.1306ZM47.5509 81.3669L40.3288 88.6566H47.5509V81.3669ZM38.775 90.8788H49.7731V74.3591H38.775V70.4366L61.215 48.3528H86.0443V52.2858L64.3271 74.3591H53.4166V90.8788H63.6815V94.8889H38.775V90.8788Z" fill="#353B50"/>
<path fill-rule="evenodd" clip-rule="evenodd" d="M51.7168 31.1066C52.5615 30.3892 53.6289 30 54.734 30H63.0701C65.6474 30 67.7367 32.0893 67.7367 34.6667V47.2417H65.5145V34.6667C65.5145 33.3166 64.4201 32.2222 63.0701 32.2222H54.734C54.1527 32.2222 53.596 32.4261 53.1553 32.8004L29.6905 52.7294H40.4963C42.5827 52.7294 44.2741 54.4208 44.2741 56.5072V64.4721H42.0519V56.5072C42.0519 55.6481 41.3554 54.9517 40.4963 54.9517H30.3318C29.9451 54.9517 29.2989 55.1016 28.767 55.5612C28.2753 55.986 27.7769 56.7643 27.7769 58.2398V80.3499C27.7769 81.6986 28.8699 82.791 30.2214 82.791H39.6074C40.9574 82.791 42.0519 81.6965 42.0519 80.3465V75.8368H44.2741V80.3465C44.2741 82.9239 42.1847 85.0132 39.6074 85.0132H30.2214C27.6454 85.0132 25.5547 82.9286 25.5547 80.3499V55.307C25.5547 54.5341 25.6497 53.8984 25.9255 53.345C26.2154 52.7631 26.6578 52.3885 26.9953 52.1028C27.0126 52.0882 27.0296 52.0738 27.0463 52.0596L51.7168 31.1066Z" fill="#353B50"/>
<path fill-rule="evenodd" clip-rule="evenodd" d="M63.3149 71.0822H37.6639V68.86H65.5371V75.4702H63.3149V71.0822Z" fill="#353B50"/>
<path fill-rule="evenodd" clip-rule="evenodd" d="M78.0016 65.9272V63.3723H75.7794V68.1494H80.9232V65.9272H78.0016Z" fill="#353B50"/>
<path fill-rule="evenodd" clip-rule="evenodd" d="M38.666 70.1076V74.3521H39.8635V77.5694C39.8635 79.0421 38.6696 80.236 37.1969 80.236H32.9985C31.5257 80.236 30.3318 79.0421 30.3318 77.5694V60.1733C30.3318 58.7005 31.5257 57.5066 32.9985 57.5066H37.1969C38.6696 57.5066 39.8635 58.7005 39.8635 60.1733V68.8889L38.666 70.1076ZM37.6413 67.9798L36.4438 69.1985V76.5743H37.6413V77.5694C37.6413 77.8148 37.4423 78.0138 37.1969 78.0138H32.9985C32.753 78.0138 32.5541 77.8148 32.5541 77.5694V60.1733C32.5541 59.9278 32.753 59.7288 32.9985 59.7288H37.1969C37.4423 59.7288 37.6413 59.9278 37.6413 60.1733V67.9798Z" fill="#353B50"/>
<path fill-rule="evenodd" clip-rule="evenodd" d="M80.19 91.2116C85.0368 91.2116 88.9659 87.2825 88.9659 82.4357C88.9659 77.5889 85.0368 73.6598 80.19 73.6598C75.3432 73.6598 71.4141 77.5889 71.4141 82.4357C71.4141 87.2825 75.3432 91.2116 80.19 91.2116ZM80.19 93.4338C86.2641 93.4338 91.1881 88.5097 91.1881 82.4357C91.1881 76.3616 86.2641 71.4375 80.19 71.4375C74.1159 71.4375 69.1919 76.3616 69.1919 82.4357C69.1919 88.5097 74.1159 93.4338 80.19 93.4338Z" fill="#353B50"/>
<path fill-rule="evenodd" clip-rule="evenodd" d="M103.808 68.0429C104.066 67.7249 104.303 67.3894 104.517 67.0383C105.364 65.6496 105.852 64.018 105.852 62.2724C105.852 57.2107 101.749 53.1073 96.6871 53.1073C93.8995 53.1073 91.4026 54.3519 89.7216 56.3156L72.9846 74.1854L73.9577 75.4702C74.0305 75.4135 74.1039 75.3578 74.1778 75.3029C74.1883 75.2951 74.1988 75.2874 74.2093 75.2797C74.7904 74.8512 75.4035 74.4792 76.0408 74.1731C78.989 72.7573 82.4568 72.7529 85.689 75.1036C88.1136 76.8669 90.2502 81.14 88.9434 85.2452C88.6731 86.0943 88.2554 86.9362 87.6626 87.7473C87.6168 87.8099 87.5699 87.8724 87.522 87.9347L88.9884 89.0345L103.808 68.0429ZM91.5123 81.6063L102.035 66.7005L102.082 66.6427C102.278 66.4015 102.458 66.1471 102.62 65.8811C103.26 64.8311 103.63 63.5983 103.63 62.2724C103.63 58.438 100.522 55.3296 96.6871 55.3296C94.5759 55.3296 92.6866 56.2691 91.4098 57.7607L91.3775 57.7984L78.9698 71.0459C81.583 70.7615 84.3611 71.39 86.9961 73.3064C88.9489 74.7266 90.6006 77.2222 91.2563 80.0362C91.3751 80.546 91.4622 81.071 91.5123 81.6063Z" fill="#353B50"/>
</svg>
