<svg width="128" height="128" viewBox="0 0 128 128" fill="none" xmlns="http://www.w3.org/2000/svg">
<rect x="2" y="2" width="124" height="124" stroke="#353B50" stroke-width="4"/>
<path fill-rule="evenodd" clip-rule="evenodd" d="M77.133 49.3031C77.6588 50.7447 78.1652 53.5155 76.0147 55.3406C75.7325 55.58 75.4046 55.8032 75.0251 56.0049L73.7653 56.6745C74.4301 57.3052 75.1678 57.8597 75.9644 58.3243C76.4852 58.628 77.0311 58.8932 77.5984 59.116C78.2117 59.3569 78.85 59.5483 79.5083 59.6853C79.6718 59.7193 79.8367 59.75 80.0027 59.7772C80.3076 58.1372 82.2131 56.5439 84.7007 56.2213C86.5215 55.9851 88.3564 56.3425 89.3818 57.315C92.0876 55.1376 93.8191 51.7986 93.8191 48.0551C93.8191 41.4944 88.5006 36.1759 81.9399 36.1759C77.0234 36.1759 72.8044 39.1627 70.9986 43.4208C70.6218 44.3093 70.35 45.2532 70.199 46.2368L71.8544 45.7649C72.2076 45.6789 72.5439 45.637 72.8639 45.6345C74.9423 45.6185 76.328 47.2669 77.133 49.3031ZM73.885 43.2247C75.5272 40.4929 78.5213 38.6648 81.9399 38.6648C87.126 38.6648 91.3302 42.869 91.3302 48.0551C91.3302 50.4165 90.4605 52.5735 89.019 54.2253C87.519 53.6492 85.8273 53.5655 84.3807 53.7531M73.885 43.2247C74.9108 43.3913 75.8452 43.8148 76.6559 44.4386C78.0152 45.4845 78.8912 46.9808 79.4476 48.3881L79.4598 48.419L79.4712 48.4503C79.846 49.478 80.269 51.1667 79.9895 52.9904C79.7916 54.2812 79.2453 55.5794 78.2148 56.6783C78.3683 56.7447 78.5239 56.8071 78.6815 56.8654C79.0676 56.3621 79.5208 55.9183 80.0027 55.5425C81.1892 54.6173 82.7084 53.97 84.3807 53.7531" fill="#353B50"/>
<path fill-rule="evenodd" clip-rule="evenodd" d="M83.0711 60.6174L83.18 61.3861C83.8875 61.1351 84.6472 60.9294 85.3944 60.78C86.1685 60.6251 86.925 60.5209 87.6537 60.4829L87.5076 59.7125C87.4573 59.6672 87.3275 59.5784 87.033 59.4825C86.4852 59.304 85.734 59.2468 85.0435 59.332C84.4564 59.4608 83.8201 59.7658 83.4041 60.1299C83.198 60.3102 83.107 60.4516 83.0739 60.5239C83.0652 60.543 83.0614 60.5552 83.0598 60.5612L83.0711 60.6174ZM84.7018 57.3149C86.6135 57.0528 89.0994 57.5492 89.4888 59.1876L89.4892 59.1891L90.171 62.7847C89.5703 62.5845 88.8595 62.4942 88.0388 62.5139C87.3651 62.53 86.6172 62.6203 85.7953 62.7847C84.9848 62.9468 84.1743 63.181 83.4738 63.4592C82.5986 63.8068 81.8952 64.2232 81.5782 64.6538L81.0549 60.9615C80.6905 59.1384 82.878 57.6796 84.7018 57.3149ZM87.5352 59.7439C87.5345 59.7441 87.5303 59.7396 87.5246 59.7293C87.533 59.7384 87.5358 59.7436 87.5352 59.7439Z" fill="#353B50"/>
<path fill-rule="evenodd" clip-rule="evenodd" d="M84.7085 100.729C84.7075 100.73 84.7066 100.731 84.7058 100.732C84.7033 100.734 84.7014 100.736 84.7001 100.737C84.0723 100.634 83.6763 100.469 83.6419 100.235L79.871 75.1828C79.9099 74.6705 79.9597 74.1137 80.0172 73.5348C80.0304 73.4021 80.044 73.2683 80.058 73.1336C80.0959 72.7675 80.1344 72.3868 80.1735 72C80.334 70.4121 80.5048 68.7227 80.6905 67.5252C81.0275 65.3517 84.2128 64.0258 85.3673 63.7762C88.4877 63.1016 91.3734 63.8079 91.9943 64.9726L95.5665 72.2656L101.84 96.3321C101.896 96.5482 101.877 96.9204 101.286 97.4099C101.283 97.4117 101.281 97.4136 101.279 97.4155C100.398 98.1411 98.2602 99.1231 93.2586 100.235C90.7211 100.798 86.6233 101.054 84.7001 100.737M98.8967 94.9086L93.2212 73.1357L93.2116 73.116C88.5217 72.5509 84.6759 73.8007 82.3801 75.025C82.3782 75.0481 82.3764 75.071 82.3745 75.0939L85.7464 97.4945C85.9055 97.4361 86.0677 97.3783 86.2324 97.3214C88.0917 96.6783 90.4666 96.0618 92.5337 95.6484C94.4301 95.2691 96.7297 95.0233 98.5681 94.9249C98.679 94.9189 98.7886 94.9135 98.8967 94.9086ZM82.6613 72.1378C85.036 71.1285 88.227 70.3326 91.936 70.5117L89.9048 66.3647C89.7567 66.2928 89.5023 66.1997 89.1299 66.1252C88.298 65.9588 87.1424 65.9388 85.8932 66.2088C85.6092 66.2702 84.8033 66.5483 84.0721 67.0203C83.7207 67.2471 83.4663 67.4684 83.3077 67.6574C83.1763 67.8139 83.1524 67.8971 83.1498 67.9078C82.9781 69.0153 82.8189 70.5798 82.6613 72.1378ZM83.1496 67.909C83.1495 67.909 83.1496 67.9085 83.1498 67.9078L83.1496 67.909ZM90.0234 66.4326C90.0231 66.4327 90.0186 66.4297 90.0106 66.4232C90.0197 66.4292 90.0237 66.4325 90.0234 66.4326Z" fill="#353B50"/>
<path fill-rule="evenodd" clip-rule="evenodd" d="M71.9671 53.6433C72.0068 54.4477 71.9026 55.2105 71.6801 56.0375L74.67 54.6314C76.5183 53.8801 76.8012 51.9931 76.08 49.8842C75.3589 47.7753 73.5584 46.4814 72.0585 46.9943L72.057 46.9948L68.9024 48.0997C69.5541 48.4502 70.1392 49.0043 70.6148 49.6662C71.0855 50.3214 71.4489 51.0822 71.6634 51.8558C71.841 52.4962 71.9393 53.08 71.9671 53.6433ZM72.7215 48.9283C72.7236 48.9277 72.7269 48.927 72.7331 48.9267C72.742 48.9262 72.7629 48.9263 72.7979 48.9337C72.8706 48.9489 72.9999 48.9953 73.1682 49.1163C73.5129 49.364 73.9063 49.8461 74.1456 50.5457C74.4325 51.3847 74.436 51.9543 74.3576 52.2614C74.3229 52.3974 74.2752 52.4744 74.2307 52.5255C74.1888 52.5735 74.1058 52.6489 73.9315 52.7243C73.868 52.2691 73.7696 51.8001 73.6335 51.3095C73.4147 50.5203 73.068 49.7154 72.6056 48.9689L72.7215 48.9283Z" fill="#353B50"/>
<path fill-rule="evenodd" clip-rule="evenodd" d="M60.7813 65.2822C60.6339 65.388 60.4781 65.4714 60.3148 65.5306L35.1991 75.9222C32.5552 77.0161 27.5435 73.3697 25.7184 67.9001C23.8933 62.4304 24.9083 56.7726 26.6144 56.249L54.4473 47.5359C54.6512 47.462 54.8649 47.4271 55.0864 47.4288L64.2445 47.2213C65.7383 47.1119 68.3543 47.9717 69.8555 52.0669C70.4469 53.679 70.9345 57.3256 68.8538 58.8983C67.5645 60.0215 65.7665 61.5105 64.0898 62.8283C63.8211 63.0394 63.5556 63.2462 63.2958 63.4463C62.3364 64.1853 61.4548 64.8343 60.7813 65.2822ZM61.0724 62.0113C61.1099 61.7899 61.1407 61.552 61.1631 61.2972C61.307 59.6616 61.073 57.6039 60.3081 55.4924C59.5435 53.3819 58.5273 51.6106 57.4991 50.3899C57.3388 50.1996 57.183 50.0282 57.0325 49.8742L55.1743 49.9163L32.1559 57.1222C33.8405 58.5907 35.4876 60.7993 36.7151 63.7797C37.0634 64.6252 37.8175 67.3251 38.0726 69.9977C38.1354 70.6558 38.1706 71.3364 38.1574 72.0047L59.385 63.2217L59.4031 63.2097C59.8532 62.9104 60.4255 62.498 61.0724 62.0113ZM35.5809 73.0707L34.2567 73.6187C34.2476 73.6201 34.0583 73.6674 33.6052 73.525C33.0985 73.3658 32.4379 73.0179 31.7126 72.4339C30.2602 71.2645 28.836 69.3801 28.0793 67.1123C27.2842 64.7293 27.1154 62.3101 27.3161 60.4929C27.4172 59.5773 27.6007 58.9181 27.7722 58.5323C27.7791 58.5168 27.7858 58.5021 27.7923 58.4883L29.2104 58.0443C29.5014 58.2148 29.8071 58.4219 30.1223 58.6689C31.5992 59.8263 33.209 61.8025 34.4138 64.7276C34.6556 65.3147 35.3597 67.7701 35.5949 70.2342C35.6955 71.2882 35.7023 72.2702 35.5809 73.0707ZM27.8836 58.3153C27.9024 58.2941 27.9108 58.2807 27.9104 58.2794C27.9099 58.278 27.9006 58.2886 27.8836 58.3153ZM55.1388 49.7449L55.1146 48.6744L55.1388 49.7449ZM63.6869 59.9682C64.9754 58.9309 66.2494 57.8662 67.2189 57.0217L67.284 56.9649L67.353 56.9128C67.5394 56.7719 67.8223 56.3634 67.8708 55.3754C67.9172 54.431 67.7114 53.4488 67.5189 52.9241C66.3517 49.74 64.6773 49.6852 64.4262 49.7035L64.3636 49.7081L60.1823 49.8029C61.1268 51.1491 61.9821 52.8061 62.6481 54.6446C63.3128 56.4792 63.6424 58.3102 63.6869 59.9682Z" fill="#353B50"/>
<path fill-rule="evenodd" clip-rule="evenodd" d="M71.6641 39.8224L69.4754 39.0926C69.4159 39.0727 69.3563 39.0542 69.2968 39.0371C67.1696 38.4235 65.0803 39.5074 64.3708 41.2796C64.1057 41.9417 63.9311 42.6036 63.8875 43.2507C63.8349 44.0304 63.9726 44.7887 64.3713 45.5001C64.4441 45.422 64.5475 45.3679 64.6696 45.333C65.1479 45.1961 65.9125 45.3527 66.2467 45.5002L68.7416 46.3649C68.7922 45.786 68.9038 45.0007 69.1316 44.1481C69.3478 43.3388 69.6688 42.4688 70.1417 41.6573C70.5351 40.9824 71.0335 40.3479 71.6641 39.8224ZM67.0273 43.4182C67.235 42.6747 67.5224 41.8775 67.9203 41.0924C67.1966 41.1523 66.6352 41.6027 66.4338 42.1055C66.2717 42.5106 66.175 42.8587 66.13 43.1608C66.4476 43.2226 66.7572 43.3102 67.0273 43.4182Z" fill="#353B50"/>
<path fill-rule="evenodd" clip-rule="evenodd" d="M60.3644 32.1646L42.1321 26.6955C39.5794 26.33 35.7561 29.4962 34.8373 33.6236C33.7799 38.3638 34.8369 42.0103 37.7547 42.7397L50.155 47.1152L54.8953 45.292L62.9168 45.6566C62.6085 45.1941 62.2688 44.5378 62.3295 43.4054C62.3644 42.7522 62.5326 41.9405 62.9168 40.9162C63.2655 39.9867 63.8462 39.152 64.5637 38.557C65.2536 37.9849 66.0699 37.6344 66.9278 37.6344L60.3644 32.1646ZM62.8378 37.1186C61.924 37.9769 61.2392 39.0612 60.8362 40.1358C60.3913 41.3217 60.1574 42.3664 60.1094 43.3045L55.8893 43.1126C55.9338 38.7705 57.7969 35.8521 59.4244 34.274L62.8378 37.1186ZM57.1017 33.5059L41.7112 28.8893C41.3151 28.8939 40.4333 29.1507 39.3658 30.12C38.2732 31.1119 37.3543 32.5436 37.0064 34.1065L37.0062 34.1075C36.5294 36.245 36.5834 37.9215 36.927 39.025C37.2501 40.0626 37.7558 40.4493 38.2936 40.5838L38.3953 40.6092L50.1219 44.747L53.6661 43.3838C53.636 38.8933 55.3005 35.6019 57.1017 33.5059Z" fill="#353B50"/>
</svg>
