<svg width="160" height="160" viewBox="0 0 160 160" fill="none" xmlns="http://www.w3.org/2000/svg">
<rect x="2" y="2" width="156" height="156" stroke="#FBFBFB" stroke-width="4"/>
<path d="M108.941 65.9258L80.987 94.3376H68.1559V112.21H80.987V120H47.0762V112.21H60.8238V94.3376H47.0762V87.4638L75.9462 59.052H108.941V65.9258Z" stroke="#FBFBFB" stroke-width="2.5"/>
<path d="M34.7048 66.1331L33.8957 65.1804H33.8957L34.7048 66.1331ZM33.6477 67.3007L32.529 66.7432L33.6477 67.3007ZM65.6735 39.831L64.8643 38.8782L65.6735 39.831ZM84.5299 59.0521V42.8889H82.0299V59.0521H84.5299ZM79.2799 37.6389H68.2521V40.1389H79.2799V37.6389ZM37.3301 106.128H49.9515V103.628H37.3301V106.128ZM52.7015 70.3007V80.5901H55.2015V70.3007H52.7015ZM64.8643 38.8782C60.6193 42.4836 45.0821 55.6796 33.8957 65.1804L35.514 67.0859C46.7005 57.585 62.2376 44.3891 66.4827 40.7837L64.8643 38.8782ZM33.8957 65.1804C33.4634 65.5475 32.8952 66.0082 32.529 66.7432L34.7665 67.8582C34.8665 67.6577 35.0125 67.5118 35.514 67.0859L33.8957 65.1804ZM32.529 66.7432C32.1979 67.4076 32.0801 68.1777 32.0801 69.1337H34.5801C34.5801 68.3593 34.6808 68.0302 34.7665 67.8582L32.529 66.7432ZM55.2015 100.878V94.796H52.7015V100.878H55.2015ZM50.9515 66.0507H37.9126V68.5507H50.9515V66.0507ZM37.9126 66.0507H33.6477V68.5507H37.9126V66.0507ZM32.0801 69.1337C32.0801 69.7264 32.0801 70.3291 32.0801 70.9408C32.0801 71.5526 32.0801 72.1726 32.0801 72.7998H34.5801C34.5801 72.1726 34.5801 71.5526 34.5801 70.9408C34.5801 70.3291 34.5801 69.7264 34.5801 69.1337H32.0801ZM32.0801 72.7998C32.0801 82.9164 32.0801 94.8245 32.0801 100.885H34.5801C34.5801 94.8245 34.5801 82.9164 34.5801 72.7998H32.0801ZM37.9126 66.0507C36.8966 66.0507 35.4468 66.4045 34.2313 67.4547C32.9706 68.544 32.0801 70.2804 32.0801 72.7998H34.5801C34.5801 70.9199 35.2171 69.9068 35.8658 69.3464C36.5596 68.7469 37.4011 68.5507 37.9126 68.5507V66.0507ZM55.2015 70.3007C55.2015 67.9535 53.2988 66.0507 50.9515 66.0507V68.5507C51.918 68.5507 52.7015 69.3342 52.7015 70.3007H55.2015ZM49.9515 106.128C52.851 106.128 55.2015 103.777 55.2015 100.878H52.7015C52.7015 102.396 51.4703 103.628 49.9515 103.628V106.128ZM37.3301 103.628C35.8084 103.628 34.5801 102.401 34.5801 100.885H32.0801C32.0801 103.787 34.4335 106.128 37.3301 106.128V103.628ZM68.2521 37.6389C67.0117 37.6389 65.8168 38.0692 64.8643 38.8782L66.4827 40.7837C66.9762 40.3646 67.5952 40.1389 68.2521 40.1389V37.6389ZM84.5299 42.8889C84.5299 39.9894 82.1794 37.6389 79.2799 37.6389V40.1389C80.7986 40.1389 82.0299 41.3701 82.0299 42.8889H84.5299Z" fill="#FBFBFB"/>
<path d="M47.0762 112.21L60.8238 98.4622" stroke="#FBFBFB" stroke-width="2.5"/>
<path d="M47.0762 87.4639H80.5288V94.3377" stroke="#FBFBFB" stroke-width="2.5"/>
<path d="M81.4473 120L90.3167 110.835M96.1114 79.2153V83.7979H101.152" stroke="#FBFBFB" stroke-width="2.5"/>
<path d="M45.8292 94.3378V95.5878H47.0792H48.5787V97.2951C48.5787 98.2616 47.7952 99.0451 46.8287 99.0451H40.9141C39.9476 99.0451 39.1641 98.2616 39.1641 97.2951V74.8833C39.1641 73.9168 39.9476 73.1333 40.9141 73.1333H46.8287C47.7952 73.1333 48.5787 73.9168 48.5787 74.8833V84.1967L46.1953 86.5801L45.8292 86.9462V87.464V94.3378Z" stroke="#FBFBFB" stroke-width="2.5"/>
<circle cx="100.236" cy="103.045" r="12.4976" stroke="#FBFBFB" stroke-width="2.5"/>
<path d="M128.787 84.2661L128.761 84.2986L128.737 84.3327L111.879 108.211C113.066 105.583 113.152 102.844 112.58 100.392C111.836 97.1988 109.962 94.4087 107.844 92.8687C103.002 89.3472 97.7531 89.6807 93.5245 92.109L113.062 71.2491L113.081 71.2287L113.099 71.2074C114.973 69.0184 117.753 67.6343 120.857 67.6343C126.493 67.6343 131.063 72.2038 131.063 77.8406C131.063 79.7865 130.52 81.6017 129.577 83.147C129.339 83.538 129.074 83.9118 128.787 84.2661Z" stroke="#FBFBFB" stroke-width="2.5"/>
</svg>
