<svg width="64" height="64" viewBox="0 0 64 64" fill="none" xmlns="http://www.w3.org/2000/svg">
<path d="M2.5957 51.5H61.4065V53.6216H2.5957V51.5Z" fill="#353B50"/>
<path d="M55.3507 53.6218H44.9723C44.7429 53.6218 44.5229 53.5307 44.3607 53.3685C44.1985 53.2063 44.1074 52.9863 44.1074 52.7569V49.2975C44.1074 49.0681 44.1985 48.8481 44.3607 48.6859C44.5229 48.5237 44.7429 48.4326 44.9723 48.4326H55.3507C55.58 48.4326 55.8 48.5237 55.9622 48.6859C56.1244 48.8481 56.2155 49.0681 56.2155 49.2975V52.7569C56.2155 52.9863 56.1244 53.2063 55.9622 53.3685C55.8 53.5307 55.58 53.6218 55.3507 53.6218ZM45.8372 51.8921H54.4858V50.1623H45.8372V51.8921Z" fill="#353B50"/>
<path d="M52.7572 50.1625H47.568C47.3386 50.1625 47.1186 50.0713 46.9564 49.9091C46.7942 49.7469 46.7031 49.527 46.7031 49.2976V40.6489H48.4329V48.4327H51.8923V40.6489H53.622V49.2976C53.622 49.527 53.5309 49.7469 53.3687 49.9091C53.2065 50.0713 52.9866 50.1625 52.7572 50.1625Z" fill="#353B50"/>
<path d="M53.622 37.1892H51.8923V12.1081H48.4329V37.1892H46.7031V11.2433C46.7031 11.0139 46.7942 10.7939 46.9564 10.6317C47.1186 10.4695 47.3386 10.3784 47.568 10.3784H52.7572C52.9866 10.3784 53.2065 10.4695 53.3687 10.6317C53.5309 10.7939 53.622 11.0139 53.622 11.2433V37.1892Z" fill="#353B50"/>
<path d="M19.0284 53.6218H8.65002C8.42064 53.6218 8.20066 53.5307 8.03847 53.3685C7.87628 53.2063 7.78516 52.9863 7.78516 52.7569V49.2975C7.78516 49.0681 7.87628 48.8481 8.03847 48.6859C8.20066 48.5237 8.42064 48.4326 8.65002 48.4326H19.0284C19.2578 48.4326 19.4778 48.5237 19.64 48.6859C19.8021 48.8481 19.8933 49.0681 19.8933 49.2975V52.7569C19.8933 52.9863 19.8021 53.2063 19.64 53.3685C19.4778 53.5307 19.2578 53.6218 19.0284 53.6218ZM9.51489 51.8921H18.1635V50.1623H9.51489V51.8921Z" fill="#353B50"/>
<path d="M17.2978 37.1892H15.5681V12.1081H12.1086V37.1892H10.3789V11.2433C10.3789 11.0139 10.47 10.7939 10.6322 10.6317C10.7944 10.4695 11.0144 10.3784 11.2438 10.3784H16.433C16.6623 10.3784 16.8823 10.4695 17.0445 10.6317C17.2067 10.7939 17.2978 11.0139 17.2978 11.2433V37.1892Z" fill="#353B50"/>
<path d="M16.433 50.1625H11.2438C11.0144 50.1625 10.7944 50.0713 10.6322 49.9091C10.47 49.7469 10.3789 49.527 10.3789 49.2976V40.6489H12.1086V48.4327H15.5681V40.6489H17.2978V49.2976C17.2978 49.527 17.2067 49.7469 17.0445 49.9091C16.8823 50.0713 16.6623 50.1625 16.433 50.1625Z" fill="#353B50"/>
<path d="M31.9988 31.1351C17.5383 31.1351 15.588 11.52 15.5664 11.3211L17.2961 11.1646C17.3091 11.347 19.1175 29.4054 31.9988 29.4054C44.8801 29.4054 46.6886 11.347 46.7015 11.1646L48.4313 11.3211C48.4096 11.52 46.4594 31.1351 31.9988 31.1351Z" fill="#353B50"/>
<path d="M60.9369 29.0266C53.1324 23.9905 51.9423 11.8366 51.8965 11.3211L53.6219 11.1646C53.6323 11.2822 54.786 22.9976 61.877 27.5728L60.9369 29.0266Z" fill="#353B50"/>
<path d="M3.06447 29.0267L2.12695 27.5729C9.23009 22.9891 10.3717 11.2823 10.3821 11.1655L12.1092 11.3212C12.0582 11.8367 10.869 23.9906 3.06447 29.0267Z" fill="#353B50"/>
<path d="M61.4061 41.6936H2.59533C2.36596 41.6936 2.14598 41.6025 1.98378 41.4403C1.82159 41.2781 1.73047 41.0581 1.73047 40.8287V37.1891C1.73047 36.9597 1.82159 36.7397 1.98378 36.5775C2.14598 36.4153 2.36596 36.3242 2.59533 36.3242H61.4061C61.6355 36.3242 61.8555 36.4153 62.0177 36.5775C62.1799 36.7397 62.271 36.9597 62.271 37.1891V40.8287C62.271 41.0581 62.1799 41.2781 62.0177 41.4403C61.8555 41.6025 61.6355 41.6936 61.4061 41.6936ZM3.4602 39.7837H60.5413V38.2453H3.4602V39.7837Z" fill="#353B50"/>
<path d="M41.5137 25.0898H43.2434V37.1893H41.5137V25.0898Z" fill="#353B50"/>
<path d="M36.3242 29.2324H38.054V37.1892H36.3242V29.2324Z" fill="#353B50"/>
<path d="M31.1348 30.2705H32.8645V37.1894H31.1348V30.2705Z" fill="#353B50"/>
<path d="M25.9453 29.2324H27.675V37.1892H25.9453V29.2324Z" fill="#353B50"/>
<path d="M20.7559 25.0898H22.4856V37.1893H20.7559V25.0898Z" fill="#353B50"/>
</svg>
