<svg width="64" height="64" viewBox="0 0 64 64" fill="none" xmlns="http://www.w3.org/2000/svg">
<path d="M39.75 28.4815H34.25V33.9815H39.75V28.4815ZM38.25 32.4815H35.75V29.9815H38.25V32.4815Z" fill="#353B50"/>
<path d="M39.75 36.4815H34.25V41.9815H39.75V36.4815ZM38.25 40.4815H35.75V37.9815H38.25V40.4815Z" fill="#353B50"/>
<path d="M39.75 49.9815V44.4815H34.25V49.9815H39.75ZM35.75 45.9815H38.25V48.4815H35.75V45.9815Z" fill="#353B50"/>
<path d="M59.75 60V2.01807L38.25 12.7681V24.4816H31.75V9.98157H34V4H4.25V9.98157H6.25V60H0V61.9816H64V60H59.75ZM58 16.4816H47.75V13.9816H58V16.4816ZM47.75 17.9816H58V20.4816H47.75V17.9816ZM47.75 21.9816H58V24.4816H47.75V21.9816ZM47.75 25.9816H58V28.4816H47.75V25.9816ZM47.75 29.9816H58V32.4816H47.75V29.9816ZM47.75 33.9816H58V36.4816H47.75V33.9816ZM47.75 37.9816H58V40.4816H47.75V37.9816ZM47.75 41.9816H58V44.4816H47.75V41.9816ZM47.75 45.9816H58V48.4816H47.75V45.9816ZM40 26.5V13.9816L58 5V12.157H45.7717V50.2887H58V60H50.75V52.4816H39.25V60H31.75V26.5H40ZM45.75 53.9816H49.25V60H45.75V53.9816ZM44.25 60H40.75V53.9816H44.25V60ZM8.5 17.9816L16 18V24.5L8.5 24.4816V17.9816ZM8.5 25.9816L16 26V32.5L8.5 32.4816V25.9816ZM8.5 33.9816L16 34V40.5L8.5 40.4816V33.9816ZM8.5 41.9816L16 42V48.5L8.5 48.4816V41.9816ZM17.75 9.98157H20.25V48.4816H17.75V9.98157ZM29.6694 40.4816L22 40.5V34L29.6694 33.9816V40.4816ZM29.6694 32.4816L22 32.5V26L29.6694 25.9816V32.4816ZM22 24.5V18L29.6694 17.9816V24.4816L22 24.5ZM22 42L29.6694 41.9816V48.4816L22 48.5V42ZM29.6694 16.4816L22 16.5V10L29.6694 9.98157V16.4816ZM6.5 5.98157H31.9194V8H6.5V5.98157ZM16 10V16.5L8.5 16.4816V9.98157L16 10ZM8.5 49.9816H29.6694V60H24.75V53.9816H27V52.4816H11V53.9816H13.25V60H8.5V49.9816ZM18.25 53.9816V60H14.75V53.9816H18.25ZM19.75 53.9816H23.25V60H19.75V53.9816Z" fill="#353B50"/>
</svg>
