<svg width="64" height="64" viewBox="0 0 64 64" fill="none" xmlns="http://www.w3.org/2000/svg">
<path fill-rule="evenodd" clip-rule="evenodd" d="M62.4916 51V27.9388V26H56.0882H54.4874H44.6387H43.0252H32.584H30.9832H20.9748H19.3613H10.2185H8.60504H3.21429H1.61345V27.9388V47.6686V49.271V50.3267V51L3 52H61L62.4916 51ZM56.0882 33.2676H60.6255V27.9388H56.0882V33.2676ZM19.7773 46.4127V50.3267H43.7899V46.4127H19.7773ZM17.7347 50.3267V46.0745V44.4721H24.5798H45.7549V46.0745V50.3267H54.4874V42H9.61765V50.3267H17.7347ZM8.01681 35H3.569V40.1989H8.01681V35ZM12.2857 35H9.61765V40.1989H12.2857V35ZM32.584 33.2676H50.2185V27.9388H32.584V33.2676ZM54.4874 27.9388H51.8193V33.2676H54.4874V27.9388ZM32.584 35V40.1989H50.2185V35H32.584ZM13.8866 35V40.1989H30.9832V35H13.8866ZM13.8866 33.2676H30.9832V27.9388H13.8866V33.2676ZM9.61765 33.2676H12.2857V27.9388H9.61765V33.2676ZM51.8193 35V40.1989H54.4874V35H51.8193ZM60.6255 35H56.0882V40.1989H60.6255V35ZM8.01681 33.2676V27.9388H3.569V33.2676H8.01681ZM8.01681 42H3.569V50.3267H8.01681V42ZM56.0882 42V50.3267H60.6255V42H56.0882Z" fill="#353B50"/>
<path d="M1.61345 27.9388V26V21.2136C1.61345 18.5218 6.58772 13.6766 12.3697 13.6766V15.2917H13.8866H16.1345H20.9748H22.5882H30.9832H32.584H42.1071H43.563H48.4034H50.2185H51.6303V13.6766C56.0882 13.6766 62.4916 17.788 62.4916 21.2136V26V27.9388H64V21.2136C64 17.7143 58.6219 12.0616 50.2185 12.0616V13.6766H32.584H30.9832H13.8866V12.0616C5.37815 12.0616 0 18.2526 0 21.2136V27.9388H1.61345Z" fill="#353B50"/>
<path d="M13.8866 15.2917C11.8319 16.3684 8.60504 19.5985 8.60504 21.2136V26H10.2185V21.2136C10.2185 20.1369 12.6924 16.7991 16.1345 15.2917H13.8866Z" fill="#353B50"/>
<path d="M20.9748 15.2917C20.437 16.3684 19.3613 19.0602 19.3613 21.2136V26H20.9748V21.2136C21.0644 20.1369 21.5126 17.4451 22.5882 15.2917H20.9748Z" fill="#353B50"/>
<path d="M30.9832 15.2917V26H32.584V15.2917H30.9832Z" fill="#353B50"/>
<path d="M43.0252 21.2136V26H44.6387V21.2136C44.6387 19.6995 43.9216 16.6348 43.563 15.2917H42.1071C42.6634 17.2298 42.951 20.0471 43.0252 21.2136Z" fill="#353B50"/>
<path d="M56.0882 21.2136C56.0882 18.8448 52.1751 16.2787 50.2185 15.2917H48.4034C53.4403 18.7372 54.5581 20.6752 54.4874 21.2136V26H56.0882V21.2136Z" fill="#353B50"/>
<path d="M30.9832 5.06299V13.6766H32.584V8.56228L36.0336 6.67805L32.584 5.06299H30.9832Z" fill="#353B50"/>
<path d="M1.61345 51L0 52V55.5H64V52L62.4916 51L61 52L62.2336 52.7819V54H1.61345V52.7633L3 52L1.61345 51Z" fill="#353B50"/>
</svg>
