<svg width="64" height="64" viewBox="0 0 64 64" fill="none" xmlns="http://www.w3.org/2000/svg">
<path d="M22.2127 24.9423V27.6804H23.8954V24.9423H22.2127Z" fill="#353B50"/>
<path d="M43.8075 27.6804V24.9423H42.1248V27.6804H43.8075Z" fill="#353B50"/>
<path d="M48.2947 27.6804V24.9423H46.612V27.6804H48.2947Z" fill="#353B50"/>
<path d="M26.6999 27.6804H28.3826V24.9423H26.6999V27.6804Z" fill="#353B50"/>
<path d="M54.6444 23.2784H64L0 9.57471V22.0882H1.66957V11.8106L54.6444 23.2784Z" fill="#353B50"/>
<path d="M6.67826 23.2784H1.66957V24.9423H6.67826V23.2784Z" fill="#353B50"/>
<path d="M8.34783 19.6363V17.6799H16.8841V19.6363H8.34783Z" fill="#353B50"/>
<path d="M5.666 19.6363V17.6799H3.14194V19.6363H5.666Z" fill="#353B50"/>
<path fill-rule="evenodd" clip-rule="evenodd" d="M43.8075 24.9423H42.1248V27.6804H43.8075V24.9423ZM46.612 27.6804H48.2947V24.9423H46.612V27.6804ZM23.8954 24.9423H22.2127V27.6804H23.8954V24.9423ZM28.3826 27.6804H26.6999V24.9423H28.3826V27.6804Z" fill="#353B50"/>
<path d="M22.2127 35.9166V38.6547H23.8954V35.9166H22.2127Z" fill="#353B50"/>
<path d="M43.8075 38.6547V35.9166H42.1248V38.6547H43.8075Z" fill="#353B50"/>
<path d="M48.2947 38.6547V35.9166H46.612V38.6547H48.2947Z" fill="#353B50"/>
<path d="M26.6999 38.6547H28.3826V35.9166H26.6999V38.6547Z" fill="#353B50"/>
<path fill-rule="evenodd" clip-rule="evenodd" d="M43.8075 35.9166H42.1248V38.6547H43.8075V35.9166ZM46.612 38.6547H48.2947V35.9166H46.612V38.6547ZM23.8954 35.9166H22.2127V38.6547H23.8954V35.9166ZM28.3826 38.6547H26.6999V35.9166H28.3826V38.6547Z" fill="#353B50"/>
<path d="M19.4783 38.6547V40.3185H34.5043V38.6547H28.3826H26.6999H23.8954H22.2127H19.4783Z" fill="#353B50"/>
<path d="M36.1739 38.6547V40.3185H51.2V38.6547H48.2947H46.612H43.8075H42.1248H36.1739Z" fill="#353B50"/>
<path d="M62.3304 40.3185V38.6547H57.3217V40.3185H62.3304Z" fill="#353B50"/>
<path d="M52.8696 38.6547V40.3185H55.6522V38.6547H52.8696Z" fill="#353B50"/>
<path d="M62.3304 35.9166V34.2527H57.3217V34.8323L62.3304 35.9166Z" fill="#353B50"/>
<path d="M57.3217 35.9166H62.3304L57.3217 34.8323V35.9166Z" fill="#353B50"/>
<path d="M52.8696 34.2527V35.9166H55.6522V34.4709L54.6444 34.2527H52.8696Z" fill="#353B50"/>
<path d="M36.1739 34.2527V35.9166H42.1248H43.8075H46.612H48.2947H51.2V34.2527H36.1739Z" fill="#353B50"/>
<path d="M19.4783 34.2527V35.9166H22.2127H23.8954H26.6999H28.3826H34.5043V34.2527H19.4783Z" fill="#353B50"/>
<path d="M17.8087 35.9166V34.2527H15.0261V35.9166H17.8087Z" fill="#353B50"/>
<path d="M15.0261 40.3185H17.8087V38.6547H15.0261V40.3185Z" fill="#353B50"/>
<path d="M13.3565 40.3185V38.6547H8.34783V40.3185H13.3565Z" fill="#353B50"/>
<path d="M13.3565 35.9166V34.2527H8.34783V35.9166H13.3565Z" fill="#353B50"/>
<path fill-rule="evenodd" clip-rule="evenodd" d="M0 22.0882V58.8085V60.4723H64V34.2527H62.3304V35.9166V38.6547V40.3185V45.4978H57.3217V40.3185V38.6547V35.9166V34.8323L55.6522 34.4709V35.9166V38.6547V40.3185V45.4978H52.8696V40.3185V38.6547V35.9166V34.2527H51.2V35.9166V38.6547V40.3185V45.4978H36.1739V40.3185V38.6547V35.9166V34.2527H34.5043V35.9166V38.6547V40.3185V45.4978H19.4783V40.3185V38.6547V35.9166V34.2527H17.8087V35.9166V38.6547V40.3185V45.4978H15.0261V40.3185V38.6547V35.9166V34.2527H13.3565V35.9166V38.6547V40.3185V45.4978H8.34783V40.3185V38.6547V35.9166V34.2527V29.3442H13.3565V34.2527H15.0261V29.3442H17.8087V34.2527H19.4783V29.3442H34.5043V34.2527H36.1739V29.3442H51.2V34.2527H52.8696V29.3442H55.6522V34.2527H57.3217V29.3442H62.3304V34.2527H64V23.2784H54.6444L62.3304 24.9423V27.6804H57.3217V24.9423H62.3304L54.6444 23.2784H8.34783H6.67826V24.9423V54.3716H1.66957V24.9423V23.2784V22.7238V22.0882H0ZM27.8261 58.8085V51.5986H22.8174V58.8085H27.8261ZM34.5043 51.5986H29.4957V58.8085H34.5043V51.5986ZM41.1826 51.5986H36.1739V58.8085H41.1826V51.5986ZM47.8609 51.5986H42.8522V58.8085H47.8609V51.5986ZM50.9217 51.5986H49.5304V58.8085H55.6522V47.1617H15.0261V58.8085H21.1478V51.5986H19.7565V49.9347H50.9217V51.5986ZM36.1739 27.6804V24.9423H42.1248H43.8075H46.612H48.2947H51.2V27.6804H48.2947H46.612H43.8075H42.1248H36.1739ZM55.6522 24.9423H52.8696V27.6804H55.6522V24.9423ZM19.4783 27.6804V24.9423H22.2127H23.8954H26.6999H28.3826H34.5043V27.6804H28.3826H26.6999H23.8954H22.2127H19.4783ZM15.0261 27.6804H17.8087V24.9423H15.0261V27.6804ZM13.3565 27.6804V24.9423H8.34783V27.6804H13.3565ZM6.67826 56.0355H1.66957V58.8085H6.67826V56.0355ZM13.3565 47.1617H8.34783V58.8085H13.3565V47.1617ZM57.3217 47.1617V58.8085H62.3304V47.1617H57.3217Z" fill="#353B50"/>
<path fill-rule="evenodd" clip-rule="evenodd" d="M8.34783 40.3185V38.6547H13.3565V40.3185H8.34783ZM13.3565 35.9166H8.34783V34.2527H13.3565V35.9166ZM15.0261 35.9166V34.2527H17.8087V35.9166H15.0261ZM15.0261 38.6547H17.8087V40.3185H15.0261V38.6547ZM43.8075 24.9423H42.1248V27.6804H43.8075V24.9423ZM48.2947 24.9423H46.612V27.6804H48.2947V24.9423ZM51.2 34.2527V35.9166H48.2947V38.6547H51.2V40.3185H36.1739V38.6547H42.1248V35.9166H36.1739V34.2527H51.2ZM19.4783 35.9166V34.2527H34.5043V35.9166H28.3826V38.6547H34.5043V40.3185H19.4783V38.6547H22.2127V35.9166H19.4783ZM23.8954 24.9423H22.2127V27.6804H23.8954V24.9423ZM28.3826 27.6804H26.6999V24.9423H28.3826V27.6804ZM55.6522 34.2527V34.4709V35.9166H52.8696V34.2527H54.6444H55.6522ZM52.8696 38.6547V40.3185H55.6522V38.6547H52.8696ZM57.3217 34.8323V34.2527H62.3304V35.9166H57.3217V34.8323ZM57.3217 38.6547H62.3304V40.3185H57.3217V38.6547ZM23.8954 38.6547H26.6999V35.9166H23.8954V38.6547ZM46.612 38.6547V35.9166H43.8075V38.6547H46.612Z" fill="#353B50"/>
</svg>
