<svg width="64" height="64" viewBox="0 0 64 64" fill="none" xmlns="http://www.w3.org/2000/svg">
<path d="M10.6682 25.2188H5.85742V43.5921H10.6681V25.2188H10.6682ZM8.76367 41.6875H7.76186V27.1232H8.76367V41.6875Z" fill="#353B50"/>
<path d="M17.4535 25.2188H12.6426V43.5921H17.4535V25.2188ZM15.5491 41.6875H14.5471V27.1232H15.5491V41.6875Z" fill="#353B50"/>
<path d="M24.2346 25.2188H24.2345H19.4238V43.5921H24.2348V25.2188H24.2346ZM22.3302 41.6875H22.3301H21.3283V27.1232H22.3302V41.6875Z" fill="#353B50"/>
<path d="M31.0119 25.2188H26.2012V43.5921H31.0119V25.2188ZM29.1074 41.6875H28.1056V27.1232H29.1074V41.6875Z" fill="#353B50"/>
<path d="M37.797 25.2188H32.9863V43.5921H37.797V25.2188ZM35.8926 41.6875H34.8908V27.1232H35.8926V41.6875Z" fill="#353B50"/>
<path d="M44.5785 25.2188H39.7676V43.5921H44.5785V25.2188ZM42.6741 41.6875H41.6721V27.1232H42.6741V41.6875Z" fill="#353B50"/>
<path d="M51.3559 25.2188H46.5449V43.5921H51.3559V25.2188ZM49.4513 41.6875H48.4494V27.1232H49.4513V41.6875Z" fill="#353B50"/>
<path d="M58.1408 25.2188H53.3301V43.5921H58.1408V25.2188ZM56.2362 41.6875H55.2344V27.1232H56.2362V41.6875Z" fill="#353B50"/>
<path d="M13.5938 51.375H11.6562V53.2794H13.5938V51.375Z" fill="#353B50"/>
<path d="M25.2188 51.375H23.2812V53.2794H25.2188V51.375Z" fill="#353B50"/>
<path d="M22.3125 51.375H14.5625V53.2794H22.3125V51.375Z" fill="#353B50"/>
<path d="M40.7188 51.375H38.7812V53.2794H40.7188V51.375Z" fill="#353B50"/>
<path d="M52.3438 51.375H50.4062V53.2794H52.3438V51.375Z" fill="#353B50"/>
<path d="M49.4375 51.375H41.6875V53.2794H49.4375V51.375Z" fill="#353B50"/>
<path d="M1.01367 62.9669H62.9807V21.3438H1.01367V62.9669ZM58.17 61.0624H5.82448V58.1231H58.17V61.0624ZM9.69948 51.375V51.3749V50.3732H27.17V51.375H26.1847V53.2794H27.1699V56.2188H9.69948V53.2794H10.6847V51.375H9.69948ZM9.69948 48.4688V47.4669H27.17V48.4688H9.69948ZM36.8245 51.375V51.3749V50.3732H54.295V51.375H53.3098V53.2794H54.295V56.2188H36.8245V53.2794H37.8097V51.375H36.8245ZM36.8245 48.4688V47.4669H54.295V48.4688H36.8245ZM2.91823 23.2482H61.0764V61.0624H60.0746V56.2186H56.1995V45.5624H34.9199V56.2186H29.0744V45.5624H7.79492V56.2186H3.91992V61.0624H2.91811V23.2482H2.91823Z" fill="#353B50"/>
<path d="M60.0259 18.4375L59.0571 1H50.4743L49.5056 18.4375H46.4491L45.4804 4.875H36.9259L35.9571 18.4375H1V20.3419H63V18.4375H60.0259ZM38.6991 6.77944H43.7071L43.8479 8.75H38.5584L38.6991 6.77944ZM38.4224 10.6544H43.9839L44.1248 12.625H38.2816L38.4224 10.6544ZM37.8664 18.4375L38.1455 14.5294H44.2607L44.5399 18.4375H37.8664ZM52.2758 2.90444H57.2554L57.3649 4.875H52.1663L52.2758 2.90444ZM52.0606 6.77944H57.4707L57.5802 8.75H51.9512L52.0606 6.77944ZM51.413 18.4375L51.8453 10.6544H57.686L58.1185 18.4375H51.413Z" fill="#353B50"/>
</svg>
