<svg width="64" height="64" viewBox="0 0 64 64" fill="none" xmlns="http://www.w3.org/2000/svg">
<path d="M56.5 42.9999V40.4999H58.5V35.6842H55.5V22.4999H58.5V17.5H40V13.6118H0V18.6966H3V32.666H0V37.4999H3V40.4999H6V48.9999H3V56.4999H64V42.9999H56.5ZM55 54.9999H53.5V42.9999H34V54.9999H32.5V40.4999H55V54.9999ZM52 45.9999H35.5V44.4999H52V45.9999ZM35.5 47.4999H52V48.9999H35.5V47.4999ZM35.5 50.4999H52V51.9999H35.5V50.4999ZM35.5 53.4999H52V54.9999H35.5V53.4999ZM22 40.4999V48.9999H15.5V40.4999H22ZM24 40.4999H30.5V54.9999H24V40.4999ZM40 35.6842V32.4999H53.75V35.6842H40ZM40 22.4999H53.75V25.9999H40V22.4999ZM40 27.4999H53.75V30.9999H40V27.4999ZM56.75 19.4999V20.9999H54.5H40V19.4999H56.75ZM4.5 18.6966H10.5V32.666H4.5V18.6966ZM35 28.9999H28.5V26.4999H35V28.9999ZM35 30.4999V32.666H28.5V30.4999H35ZM35 24.9999H28.5V22.4999H35V24.9999ZM35 20.9999H28.5V18.6966H35V20.9999ZM27 20.9999H24.75V22.4999H27V24.9999H24.75V26.4999H27V28.9999H24.75V30.4999H27V32.666H20.5V18.6966H27V20.9999ZM18.5 32.6661L12.5 32.666V18.6966L18.5 18.6967V32.6661ZM1.5 35.6842V34.4999H36.5V16.9999H1.5V15.4999H38V17.9999V35.6842H1.5ZM4.5 37.4999H57V38.7677H4.5V37.4999ZM7.5 40.4999H14V48.9999H7.5V40.4999ZM4.5 50.4999H22V54.9999H4.5V50.4999ZM56.5 54.9999V44.4999H62V45.9999H58V50.4999H62V54.9999H56.5ZM62 47.4999V48.9999H59.5V47.4999H62Z" fill="#353B50"/>
</svg>
