<svg width="64" height="64" viewBox="0 0 64 64" fill="none" xmlns="http://www.w3.org/2000/svg">
<path d="M14 30.9998V29.9268L15.7135 26.4998H20V14.9998H15.0606L18 12.0604V6.99976H15V3.74976H13.5V6.99976H7V3.74976H5.5V6.99976H2.5V12.0604L5.43937 14.9998H0.5V26.4998H4.7865L6.5 29.9268V58.9998H0V60.4998H64V30.9998H14ZM62 39L58 38.9998V33L62 33.0002V39ZM31.5 52.4998V58.9998H27V52.4998H31.5ZM33 52.4998H37.5V58.9998H33V52.4998ZM39 52.4998H43.5V58.9998H39V52.4998ZM45 52.4998H49.5V58.9998H45V52.4998ZM51 52.4998H52.25V50.5H24.25V52.4998H25.5V58.9998H20V48.9998H56.5V58.9998H51V52.4998ZM14 40.9998H18.5V46.9998H14V40.9998ZM20 40.9998H22.5V46.9998H20V40.9998ZM52.5 38.9998H39V33H52.5V38.9998ZM54 33H56.5V38.9998H54V33ZM39 46.9998V40.9998H52.5V46.9998H39ZM24 46.9998V40.9998H37.5V46.9998H24ZM37.5 38.9998H24V33H37.5V38.9998ZM22.5 38.9998H20V33H22.5V38.9998ZM54 46.9998V40.9998H56.5V46.9998H54ZM58 40.9998L62 41V47L58 46.9998V40.9998ZM18.5 33V38.9998H14V33H18.5ZM12.2695 54.9998H8.21897V30.4998H12.2695V54.9998ZM12.7865 28.9998H11V26.4998H14.0365L12.7865 28.9998ZM12.5 16.7573V18.9998H8V16.7573H12.5ZM12.5 21L12.4635 24.5H7.9635L8 21H12.5ZM13.9635 24.5L14 21H18.5L18.4635 24.5H13.9635ZM18.5 18.9998H14V16.7573H18.5V18.9998ZM16.5 10.9998H11V8.49976H16.5V10.9998ZM9.5 8.49976V10.9998H4V8.49976H9.5ZM5.06063 12.4998H15.4392L12.9392 14.9998H7.5605L5.06063 12.4998ZM6.5 16.7573V18.9998H2V16.7573H6.5ZM1.9635 24.5L2 21H6.5L6.4635 24.5H1.9635ZM9.5 26.4998V28.9998H7.7135L6.4635 26.4998H9.5ZM8.21897 56.4998H12.2695V58.9998H8.21897V56.4998ZM14 48.9998H18.5V58.9998H14V48.9998ZM58 58.9998V48.9998L62 49V59L58 58.9998Z" fill="#353B50"/>
<path d="M36.2175 14.6336C35.9813 14.8698 35.6675 14.9998 35.3335 14.9998H31.9904C31.2559 14.9998 30.5654 15.2859 30.0459 15.8053L29.1014 16.7498L32.3033 19.9516C33.2004 20.8488 34.3933 21.3429 35.662 21.3429C36.9308 21.3429 38.1235 20.8488 39.0206 19.9516L41.412 17.5604V26.5604L45.5206 22.4516C46.4179 21.5545 46.912 20.3616 46.912 19.0928V12.0603L52.4851 6.48701C52.9875 5.98476 53.1364 5.23614 52.8645 4.57989C52.5928 3.92364 51.9581 3.49951 51.2478 3.49951H49.3188C48.0501 3.49951 46.8573 3.99364 45.96 4.89076L42.826 8.02476H35.8188C34.5501 8.02476 33.3573 8.51889 32.46 9.41601L28.3513 13.5248H37.326L36.2175 14.6336ZM47.0206 5.95176C47.6346 5.33789 48.4508 4.99976 49.3189 4.99976H51.2479C51.3931 4.99976 51.4549 5.09639 51.4789 5.15401C51.5026 5.21164 51.5275 5.32364 51.4246 5.42651L45.4121 11.4391V19.0929C45.4121 19.961 45.0741 20.7773 44.4601 21.391L42.9121 22.9391V13.9391L37.9601 18.891C37.3464 19.5049 36.5303 19.8429 35.6621 19.8429C34.794 19.8429 33.9778 19.5049 33.364 18.891L31.2303 16.7573C31.4474 16.5901 31.712 16.4998 31.9905 16.4998H35.3336C36.0683 16.4998 36.7588 16.2136 37.2783 15.6943L47.0206 5.95176ZM31.9726 12.025L33.5206 10.477C34.1346 9.86314 34.9508 9.52501 35.8189 9.52501H41.3261L38.8261 12.025H31.9726Z" fill="#353B50"/>
</svg>
