<svg width="64" height="64" viewBox="0 0 64 64" fill="none" xmlns="http://www.w3.org/2000/svg">
<g clip-path="url(#clip0)">
<path d="M51.6703 10.7948C47.5286 8.81615 43.0943 7.51979 38.5385 6.95469C34.1984 6.39271 29.8036 6.39271 25.4635 6.95469C20.9073 7.51927 16.4724 8.81615 12.3297 10.7948C4.49375 14.6458 0 20.4802 0 26.7948V56.6615C0 57.2505 0.477604 57.7281 1.06667 57.7281H62.9333C63.5224 57.7281 64 57.2505 64 56.6615V26.7948C64 20.4802 59.5063 14.6458 51.6703 10.7948ZM26.6667 8.95365C30.2115 8.56458 33.7885 8.56458 37.3333 8.95365V25.7281H26.6667V8.95365ZM30.9333 27.8615V29.9948H19.2V27.8615H30.9333ZM11.7333 13.5141V25.7281H2.18438C2.63698 21.0656 6.04063 16.7161 11.7333 13.5141ZM17.0667 55.5948H2.13333V53.4615H17.0667V55.5948ZM17.0667 51.3281H2.13333V49.1948H17.0667V51.3281ZM17.0667 47.0615H2.13333V44.9281H17.0667V47.0615ZM17.0667 42.7948H2.13333V40.6615H17.0667V42.7948ZM17.0667 38.5281H2.13333V36.3948H17.0667V38.5281ZM17.0667 34.2615H2.13333V32.1281H17.0667V34.2615ZM17.0667 29.9948H2.13333V27.8615H17.0667V29.9948ZM13.8667 25.7281V12.4182C17.2583 10.8708 20.8479 9.80104 24.5333 9.23958V25.7281H13.8667ZM44.8 55.5948H19.2V32.1281H44.8V55.5948ZM44.8 29.9948H33.0667V27.8615H44.8V29.9948ZM39.4667 25.7281V9.23958C43.1521 9.80104 46.7417 10.8708 50.1333 12.4182V25.7281H39.4667ZM61.8667 55.5948H46.9333V53.4615H61.8667V55.5948ZM61.8667 51.3281H46.9333V49.1948H61.8667V51.3281ZM61.8667 47.0615H46.9333V44.9281H61.8667V47.0615ZM61.8667 42.7948H46.9333V40.6615H61.8667V42.7948ZM61.8667 38.5281H46.9333V36.3948H61.8667V38.5281ZM61.8667 34.2615H46.9333V32.1281H61.8667V34.2615ZM61.8667 29.9948H46.9333V27.8615H61.8667V29.9948ZM52.2667 25.7281V13.5141C57.9594 16.7141 61.363 21.0656 61.8156 25.7281H52.2667Z" fill="#353B50"/>
<path d="M34.1339 11.8616C34.1339 11.2725 33.6563 10.7949 33.0672 10.7949H30.9339C30.3448 10.7949 29.8672 11.2725 29.8672 11.8616C29.8672 12.4507 30.3448 12.9283 30.9339 12.9283H33.0672C33.6563 12.9283 34.1339 12.4507 34.1339 11.8616Z" fill="#353B50"/>
<path d="M45.866 15.0615H43.7327C43.1436 15.0615 42.666 15.5391 42.666 16.1282C42.666 16.7173 43.1436 17.1949 43.7327 17.1949H45.866C46.4551 17.1949 46.9327 16.7173 46.9327 16.1282C46.9327 15.5391 46.4551 15.0615 45.866 15.0615Z" fill="#353B50"/>
<path d="M55.4671 21.4614C54.878 21.4614 54.4004 21.939 54.4004 22.5281C54.4004 23.1172 54.878 23.5948 55.4671 23.5948H57.6004C58.1895 23.5948 58.6671 23.1172 58.6671 22.5281C58.6671 21.939 58.1895 21.4614 57.6004 21.4614H55.4671Z" fill="#353B50"/>
<path d="M20.2664 15.0615H18.1331C17.544 15.0615 17.0664 15.5391 17.0664 16.1282C17.0664 16.7173 17.544 17.1949 18.1331 17.1949H20.2664C20.8555 17.1949 21.3331 16.7173 21.3331 16.1282C21.3331 15.5391 20.8555 15.0615 20.2664 15.0615Z" fill="#353B50"/>
<path d="M8.53398 21.4614H6.40065C5.81159 21.4614 5.33398 21.939 5.33398 22.5281C5.33398 23.1172 5.81159 23.5948 6.40065 23.5948H8.53398C9.12305 23.5948 9.60065 23.1172 9.60065 22.5281C9.60065 21.939 9.12305 21.4614 8.53398 21.4614Z" fill="#353B50"/>
</g>
<defs>
<clipPath id="clip0">
<rect width="64" height="64" fill="white"/>
</clipPath>
</defs>
</svg>
