<svg width="64" height="64" viewBox="0 0 64 64" fill="none" xmlns="http://www.w3.org/2000/svg">
<path d="M58.9979 16.0098H5.00391V21.9746H58.9978V16.0098H58.9979ZM18.0118 20.0123H6.96641V17.9723H18.0118V20.0123ZM44.0275 20.0123H19.9743V17.9723H44.0275V20.0123ZM57.0354 20.0123H45.99V17.9723H57.0354V20.0123Z" fill="#353B50"/>
<path d="M58.9979 23.0142H5.00391V28.979H58.9978V23.0142H58.9979ZM18.0118 27.0167H6.96641V24.9767H18.0118V27.0167ZM44.0275 27.0167H19.9743V24.9767H44.0275V27.0167ZM57.0354 27.0167H45.99V24.9767H57.0354V27.0167Z" fill="#353B50"/>
<path d="M58.9979 30.0186H5.00391V35.9837H58.9978V30.0186H58.9979ZM18.0118 34.021H6.96641V31.9809H18.0118V34.021ZM44.0275 34.021H19.9743V31.9809H44.0275V34.021ZM57.0354 34.021H45.99V31.9809H57.0354V34.021Z" fill="#353B50"/>
<path d="M58.9979 37.0225H5.00391V42.9875H58.9978V37.0225H58.9979ZM18.0118 41.0248H6.96641V38.9848H18.0118V41.0248ZM44.0275 41.0248H19.9743V38.9848H44.0275V41.0248ZM57.0354 41.0248H45.99V38.9848H57.0354V41.0248Z" fill="#353B50"/>
<path d="M58.0154 12.0083H5.98438V13.9708H58.0154V12.0083Z" fill="#353B50"/>
<path d="M0 8.00488V55.9954H64V8.00488H0ZM15.009 54.0329H6.9655V48.9911H15.009V54.0329ZM29.0176 54.0329H20.9741V48.9911H29.0176V54.0329ZM43.026 54.0329H34.9825V48.9911H43.026V54.0329ZM57.0345 54.0329H48.991V48.9911H57.0345V54.0329ZM62.0375 12.0074H60.0169V13.9699H62.0375V54.0329H58.997V47.0286H47.0285V54.0329H44.9885V47.0286H33.02V54.0329H30.98V47.0286H19.0115V54.0329H16.9715V47.0286H5.003V54.0329H1.9625V13.9699H3.98312V12.0074H1.9625V9.96738H62.0375V12.0074Z" fill="#353B50"/>
</svg>
