<svg width="64" height="64" viewBox="0 0 64 64" fill="none" xmlns="http://www.w3.org/2000/svg">
<path d="M60.1926 54.8753H60V4.98176C59.9926 4.78181 59.9066 4.59285 59.7608 4.4559C59.6149 4.31895 59.4209 4.24505 59.2209 4.25026H44.8328C44.7375 4.24911 44.6429 4.26742 44.555 4.30408C44.467 4.34075 44.3875 4.39498 44.3212 4.46347C44.255 4.53195 44.2034 4.61325 44.1696 4.70237C44.1359 4.79149 44.1207 4.88656 44.125 4.98176V7.25826L39.5476 10.7969C39.4562 10.8666 39.3819 10.9563 39.3303 11.059C39.2788 11.1618 39.2513 11.2749 39.25 11.3899V16.7503H31.3416C31.332 16.2503 31.375 15.7099 31.375 15.1916V13.3753H31.9329C32.5775 13.3753 33.125 12.9118 33.125 12.2673V8.41651C33.1194 8.10446 32.9912 7.80715 32.7681 7.5889C32.545 7.37064 32.245 7.24899 31.9329 7.25026H13.0548C12.744 7.24955 12.4455 7.37177 12.2245 7.59025C12.0035 7.80873 11.8779 8.10575 11.875 8.41651V12.2673C11.875 12.9118 12.4101 13.3753 13.0548 13.3753H13.625V15.1916C13.6443 26.2681 11.3901 37.2307 7.00175 47.4009L3.798 54.8603C2.95524 54.8616 2.14753 55.1977 1.55249 55.7945C0.957463 56.3913 0.623842 57.2 0.625003 58.0428V59.0188C0.625363 59.1163 0.645145 59.2128 0.683194 59.3026C0.721243 59.3924 0.776798 59.4737 0.846616 59.5418C0.916434 59.6099 0.999116 59.6634 1.08984 59.6992C1.18056 59.735 1.2775 59.7523 1.375 59.7503H62.625C62.7225 59.7523 62.8195 59.735 62.9102 59.6992C63.0009 59.6634 63.0836 59.6099 63.1534 59.5418C63.2232 59.4737 63.2788 59.3924 63.3168 59.3026C63.3549 59.2128 63.3746 59.1163 63.375 59.0188V58.0428C63.3742 57.6258 63.2913 57.213 63.1309 56.8281C62.9706 56.4431 62.7359 56.0936 62.4403 55.7994C62.1448 55.5052 61.7941 55.2722 61.4085 55.1136C61.0228 54.9551 60.6096 54.8741 60.1926 54.8753ZM55.125 5.75026H58.5V54.8753H55.125V5.75026ZM50.375 49.5003V5.75026H53.625V54.8753H52.7054L50.3696 49.5003H50.375ZM48.7431 49.5214L51.0721 54.8753H41.1804L37.9679 47.4243C34.5173 39.4274 32.376 30.9275 31.6261 22.2503H43.25V23.489C43.25 32.4601 45.0644 40.9804 48.7431 49.5214ZM45.1468 22.2503C45.44 22.2434 45.7191 22.1227 45.925 21.9137C46.1309 21.7047 46.2475 21.4239 46.25 21.1305V17.832C46.2477 17.6058 46.1749 17.386 46.0418 17.2031C45.9087 17.0202 45.7219 16.8834 45.5074 16.8116L45.625 5.75026H48.875V45.8426C46.1145 38.5204 44.75 31.1726 44.75 23.489V22.2503H45.1468ZM40.75 11.7578L44 9.19601V16.7503H40.75V11.7578ZM44.75 18.2503V20.7503H31.5118C31.4565 19.8753 31.4126 19.1253 31.3821 18.2503H44.75ZM13.375 11.8753V8.75026H31.625V11.8753H13.375ZM31.1723 30.1253H13.8154C14.7027 25.1972 15.1411 20.1989 15.125 15.1916V13.3753H29.875V15.1916C29.8548 20.1985 30.289 25.1969 31.1723 30.1253ZM13.5265 31.6253H31.4611C31.6769 32.7503 31.9134 33.7503 32.1716 34.7503H12.8161C13.0743 33.7503 13.3109 32.7503 13.5265 31.6253ZM8.398 47.9713C10.0367 44.1714 11.3861 40.2533 12.4349 36.2503H32.5528C33.6016 40.2533 34.951 44.1714 36.5896 47.9713L39.5471 54.8753H5.4405L8.398 47.9713ZM61.875 58.2503H2.125V58.0428C2.12554 57.8227 2.16953 57.6049 2.25445 57.4018C2.33938 57.1988 2.46356 57.0145 2.61987 56.8596C2.77618 56.7047 2.96154 56.5821 3.16533 56.499C3.36911 56.4159 3.5873 56.3738 3.80738 56.3753H60.1926C60.4127 56.3738 60.6309 56.4159 60.8347 56.499C61.0385 56.5821 61.2238 56.7047 61.3801 56.8596C61.5365 57.0145 61.6606 57.1988 61.7456 57.4018C61.8305 57.6049 61.8745 57.8227 61.875 58.0428V58.2503Z" fill="#353B50"/>
<path d="M17.3254 17.1859C17.1266 17.1796 16.9333 17.2523 16.7881 17.3882C16.6428 17.5242 16.5573 17.7121 16.5504 17.9109C16.4419 21.1406 16.1418 24.3609 15.6518 27.555C15.6368 27.6524 15.6412 27.7517 15.6646 27.8474C15.688 27.9431 15.7301 28.0332 15.7883 28.1126C15.8466 28.192 15.9199 28.2592 16.0041 28.3103C16.0883 28.3613 16.1818 28.3953 16.2791 28.4103C16.3172 28.4161 16.3556 28.419 16.394 28.419C16.5731 28.4188 16.7461 28.3546 16.8819 28.2379C17.0177 28.1212 17.1072 27.9598 17.1344 27.7828C17.6334 24.5298 17.939 21.2501 18.0497 17.9609C18.053 17.8625 18.0369 17.7643 18.0023 17.6721C17.9677 17.5799 17.9153 17.4954 17.848 17.4234C17.7808 17.3514 17.7 17.2934 17.6103 17.2527C17.5207 17.2119 17.4238 17.1893 17.3254 17.1859Z" fill="#353B50"/>
<path d="M17.3463 14.5H17.3453C17.1438 14.5061 16.9527 14.5906 16.8126 14.7355C16.6725 14.8804 16.5945 15.0742 16.5953 15.2758C16.5953 15.4469 16.5941 15.6581 16.5929 15.8294C16.5895 16.0327 16.6653 16.2293 16.8042 16.3778C16.9431 16.5262 17.1343 16.6149 17.3374 16.625H17.343C17.5437 16.619 17.7341 16.5351 17.8741 16.3912C18.014 16.2473 18.0925 16.0546 18.093 15.8539C18.0942 15.6798 18.0951 15.4654 18.0954 15.2914C18.0972 15.0882 18.0202 14.8921 17.8805 14.7445C17.7408 14.5969 17.5493 14.5093 17.3463 14.5Z" fill="#353B50"/>
</svg>
