<svg width="64" height="64" viewBox="0 0 64 64" fill="none" xmlns="http://www.w3.org/2000/svg">
<path d="M22.2127 24.9418V27.6799H23.8954V24.9418H22.2127Z" fill="#353B50"/>
<path d="M43.8075 27.6799V24.9418H42.1248V27.6799H43.8075Z" fill="#353B50"/>
<path d="M48.2947 27.6799V24.9418H46.612V27.6799H48.2947Z" fill="#353B50"/>
<path d="M26.6999 27.6799H28.3826V24.9418H26.6999V27.6799Z" fill="#353B50"/>
<path d="M6.67826 23.2779H1.66957V24.9418H6.67826V23.2779Z" fill="#353B50"/>
<path d="M8.34783 19.6358V17.6794H16.8841V19.6358H8.34783Z" fill="#353B50"/>
<path d="M5.666 19.6358V17.6794H3.14194V19.6358H5.666Z" fill="#353B50"/>
<path fill-rule="evenodd" clip-rule="evenodd" d="M43.8075 24.9418H42.1248V27.6799H43.8075V24.9418ZM46.612 27.6799H48.2947V24.9418H46.612V27.6799ZM23.8954 24.9418H22.2127V27.6799H23.8954V24.9418ZM28.3826 27.6799H26.6999V24.9418H28.3826V27.6799Z" fill="#353B50"/>
<path d="M22.2127 35.9161V38.6542H23.8954V35.9161H22.2127Z" fill="#353B50"/>
<path d="M43.8075 38.6542V35.9161H42.1248V38.6542H43.8075Z" fill="#353B50"/>
<path d="M48.2947 38.6542V35.9161H46.612V38.6542H48.2947Z" fill="#353B50"/>
<path d="M26.6999 38.6542H28.3826V35.9161H26.6999V38.6542Z" fill="#353B50"/>
<path fill-rule="evenodd" clip-rule="evenodd" d="M43.8075 35.9161H42.1248V38.6542H43.8075V35.9161ZM46.612 38.6542H48.2947V35.9161H46.612V38.6542ZM23.8954 35.9161H22.2127V38.6542H23.8954V35.9161ZM28.3826 38.6542H26.6999V35.9161H28.3826V38.6542Z" fill="#353B50"/>
<path d="M19.4783 38.6542V40.318H34.5043V38.6542H28.3826H26.6999H23.8954H22.2127H19.4783Z" fill="#353B50"/>
<path d="M36.1739 38.6542V40.318H51.2V38.6542H48.2947H46.612H43.8075H42.1248H36.1739Z" fill="#353B50"/>
<path d="M62.3304 40.318V38.6542H57.3217V40.318H62.3304Z" fill="#353B50"/>
<path d="M52.8696 38.6542V40.318H55.6522V38.6542H52.8696Z" fill="#353B50"/>
<path d="M62.3304 35.9161V34.2523H57.3217V34.8318L62.3304 35.9161Z" fill="#353B50"/>
<path d="M57.3217 35.9161H62.3304L57.3217 34.8318V35.9161Z" fill="#353B50"/>
<path d="M52.8696 34.2523V35.9161H55.6522V34.4704L54.6444 34.2523H52.8696Z" fill="#353B50"/>
<path d="M36.1739 34.2523V35.9161H42.1248H43.8075H46.612H48.2947H51.2V34.2523H36.1739Z" fill="#353B50"/>
<path d="M19.4783 34.2523V35.9161H22.2127H23.8954H26.6999H28.3826H34.5043V34.2523H19.4783Z" fill="#353B50"/>
<path d="M17.8087 35.9161V34.2523H15.0261V35.9161H17.8087Z" fill="#353B50"/>
<path d="M15.0261 40.318H17.8087V38.6542H15.0261V40.318Z" fill="#353B50"/>
<path d="M13.3565 40.318V38.6542H8.34783V40.318H13.3565Z" fill="#353B50"/>
<path d="M13.3565 35.9161V34.2523H8.34783V35.9161H13.3565Z" fill="#353B50"/>
<path fill-rule="evenodd" clip-rule="evenodd" d="M8.34783 40.318V38.6542H13.3565V40.318H8.34783ZM13.3565 35.9161H8.34783V34.2523H13.3565V35.9161ZM15.0261 35.9161V34.2523H17.8087V35.9161H15.0261ZM15.0261 38.6542H17.8087V40.318H15.0261V38.6542ZM43.8075 24.9418H42.1248V27.6799H43.8075V24.9418ZM48.2947 24.9418H46.612V27.6799H48.2947V24.9418ZM51.2 34.2523V35.9161H48.2947V38.6542H51.2V40.318H36.1739V38.6542H42.1248V35.9161H36.1739V34.2523H51.2ZM19.4783 35.9161V34.2523H34.5043V35.9161H28.3826V38.6542H34.5043V40.318H19.4783V38.6542H22.2127V35.9161H19.4783ZM23.8954 24.9418H22.2127V27.6799H23.8954V24.9418ZM28.3826 27.6799H26.6999V24.9418H28.3826V27.6799ZM55.6522 34.2523V34.4704V35.9161H52.8696V34.2523H54.6444H55.6522ZM52.8696 38.6542V40.318H55.6522V38.6542H52.8696ZM57.3217 34.8318V34.2523H62.3304V35.9161H57.3217V34.8318ZM57.3217 38.6542H62.3304V40.318H57.3217V38.6542ZM23.8954 38.6542H26.6999V35.9161H23.8954V38.6542ZM46.612 38.6542V35.9161H43.8075V38.6542H46.612Z" fill="#353B50"/>
<path d="M0 9.57422V22.0877H1.66957V11.8101H62.3304V23.2779H64V9.57422H0Z" fill="#353B50"/>
<path d="M36.1739 47.1612H34.5043V58.808H36.1739V47.1612Z" fill="#353B50"/>
<path fill-rule="evenodd" clip-rule="evenodd" d="M0 22.0877V58.808V60.4719H64V34.2523V23.2779H62.3304H54.6444H8.34783H6.67826V24.9418V54.3711H1.66957V24.9418V23.2779V22.7233V22.0877H0ZM13.3565 34.2523V35.9161V38.6542V40.318V45.4973H8.34783V40.318V38.6542V35.9161V34.2523V29.3437H13.3565V34.2523ZM62.3304 24.9418V27.6799H57.3217V24.9418H62.3304ZM36.1739 27.6799V24.9418H42.1248H43.8075H46.612H48.2947H51.2V27.6799H48.2947H46.612H43.8075H42.1248H36.1739ZM55.6522 24.9418H52.8696V27.6799H55.6522V24.9418ZM19.4783 27.6799V24.9418H22.2127H23.8954H26.6999H28.3826H34.5043V27.6799H28.3826H26.6999H23.8954H22.2127H19.4783ZM15.0261 27.6799H17.8087V24.9418H15.0261V27.6799ZM13.3565 27.6799V24.9418H8.34783V27.6799H13.3565ZM6.67826 56.035H1.66957V58.808H6.67826V56.035ZM13.3565 47.1612H8.34783V58.808H13.3565V47.1612ZM57.3217 47.1612V58.808H62.3304V47.1612H57.3217ZM27.8261 58.808H22.8174H21.1478H19.4783H17.8087H15.0261V47.1612V45.4973V44V42.159V40.318H17.8087H19.4783H34.5043V42.159V44V45.4973V47.1612H36.1739V45.4973V44V42.159V40.318H51.2V38.6542H52.8696V40.318H55.6522V42.159V44V45.4973V47.1612V58.808H52.8696H51.2H49.5304H47.8609H42.8522H41.1826H36.1739H34.5043H29.4957H27.8261ZM52.8696 38.6542V35.9161H55.6522V38.6542H52.8696ZM51.2 38.6542H48.2947V35.9161H51.2V38.6542ZM15.0261 38.6542H17.8087V35.9161H15.0261V38.6542ZM15.0261 29.3437H17.8087V34.2523H15.0261V29.3437ZM34.5043 29.3437H19.4783V34.2523H34.5043V29.3437ZM19.4783 38.6542V35.9161H22.2127V38.6542H19.4783ZM23.8954 38.6542H26.6999V35.9161H23.8954V38.6542ZM34.5043 35.9161V38.6542H28.3826V35.9161H34.5043ZM36.1739 38.6542V35.9161H42.1248V38.6542H36.1739ZM46.612 38.6542V35.9161H43.8075V38.6542H46.612ZM51.2 29.3437H36.1739V34.2523H51.2V29.3437ZM52.8696 29.3437H55.6522V34.2523H54.6444H52.8696V29.3437ZM62.3304 45.4973H57.3217V40.318H62.3304V45.4973ZM57.3217 38.6542H62.3304V35.9161H57.3217V38.6542ZM57.3217 29.3437H62.3304V34.2523H57.3217V29.3437Z" fill="#353B50"/>
<path d="M51.2 38.6542V40.318H52.8696V38.6542H51.2Z" fill="#353B50"/>
<path d="M15.0261 42.159V44H17.8087H19.4783H34.5043V42.159H15.0261Z" fill="#353B50"/>
<path d="M36.1739 42.159V44H51.2H52.8696H55.6522V42.159H36.1739Z" fill="#353B50"/>
<path d="M17.8087 44V58.808H19.4783V44H17.8087Z" fill="#353B50"/>
<path d="M51.2 44V58.808H52.8696V44H51.2Z" fill="#353B50"/>
</svg>
