<svg width="64" height="60" viewBox="0 0 64 60" fill="none" xmlns="http://www.w3.org/2000/svg">
<path d="M39.75 26.7021H34.25V31.8583H39.75V26.7021ZM38.25 30.4521H35.75V28.1083H38.25V30.4521Z" fill="#353B50"/>
<path d="M39.75 34.2021H34.25V39.3583H39.75V34.2021ZM38.25 37.9521H35.75V35.6083H38.25V37.9521Z" fill="#353B50"/>
<path d="M39.75 46.8583V41.7021H34.25V46.8583H39.75ZM35.75 43.1083H38.25V45.4521H35.75V43.1083Z" fill="#353B50"/>
<path d="M59.75 56.7021V1.89258L38.25 11.9707V22.9521H31.75V9.35836H34.75V4.20211H4.25V9.35836H6.25V56.7021H0V58.1084H64V56.7021H59.75ZM58.25 15.4521H47.75V13.1084H58.25V15.4521ZM47.75 16.8584H58.25V19.2021H47.75V16.8584ZM47.75 20.6084H58.25V22.9521H47.75V20.6084ZM47.75 24.3584H58.25V26.7021H47.75V24.3584ZM47.75 28.1084H58.25V30.4521H47.75V28.1084ZM47.75 31.8584H58.25V34.2021H47.75V31.8584ZM47.75 35.6084H58.25V37.9521H47.75V35.6084ZM47.75 39.3584H58.25V41.7021H47.75V39.3584ZM47.75 43.1084H58.25V45.4521H47.75V43.1084ZM39.75 24.3584V12.8398L58.25 4.16789V11.7021H46.25V46.8584H58.25V56.7021H50.75V49.2021H39.25V56.7021H31.75V24.3584H39.75ZM45.75 50.6084H49.25V56.7021H45.75V50.6084ZM44.25 56.7021H40.75V50.6084H44.25V56.7021ZM7.75 16.8584H16.25V22.9521H7.75V16.8584ZM7.75 24.3584H16.25V30.4521H7.75V24.3584ZM7.75 31.8584H16.25V37.9521H7.75V31.8584ZM7.75 39.3584H16.25V45.4521H7.75V39.3584ZM17.75 9.35836H20.25V45.4521H17.75V9.35836ZM30.25 37.9521H21.75V31.8584H30.25V37.9521ZM30.25 30.4521H21.75V24.3584H30.25V30.4521ZM21.75 22.9521V16.8584H30.25V22.9521H21.75ZM21.75 39.3584H30.25V45.4521H21.75V39.3584ZM30.25 15.4521H21.75V9.35836H30.25V15.4521ZM5.75 5.60836H33.25V7.95211H5.75V5.60836ZM16.25 9.35836V15.4521H7.75V9.35836H16.25ZM7.75 46.8584H30.25V56.7021H24.75V50.6084H27V49.2021H11V50.6084H13.25V56.7021H7.75V46.8584ZM18.25 50.6084V56.7021H14.75V50.6084H18.25ZM19.75 50.6084H23.25V56.7021H19.75V50.6084Z" fill="#353B50"/>
</svg>
