<svg width="64" height="64" viewBox="0 0 64 64" fill="none" xmlns="http://www.w3.org/2000/svg">
<path d="M49.5485 49.5488H45.4194V51.6133H49.5485V49.5488Z" fill="#353B50"/>
<path d="M59.8707 49.5488H55.7417V51.6133H59.8707V49.5488Z" fill="#353B50"/>
<path d="M56.7742 20.6452H47.4839V18.5806H49.5484V16.5161H47.4839V14.4516H49.5484V12.3871H47.4839C47.4769 8.22929 44.3828 4.72361 40.2581 4.20026V3.09677C40.2581 1.38645 38.8716 0 37.1613 0H22.7097C20.9994 0 19.6129 1.38645 19.6129 3.09677V4.20026C17.9756 4.40723 16.4385 5.10168 15.201 6.19355H9.29032C7.58 6.19355 6.19355 7.58 6.19355 9.29032V21.6774C6.19355 23.3877 7.58 24.7742 9.29032 24.7742H12.3871V28.9032H10.3226V30.9677H12.3871V33.0323H10.3226V35.0968H12.3871V37.2139C5.404 37.7572 0.0112258 43.5764 0 50.5806V62.9677C0 63.5378 0.462194 64 1.03226 64H62.9677C63.5378 64 64 63.5378 64 62.9677V27.871C63.9955 23.8822 60.763 20.6497 56.7742 20.6452ZM47.4839 35.0968H49.5484V33.0323H47.4839V30.9677H49.5484V28.9032H47.4839V26.8387H56.7742C57.3443 26.8387 57.8064 27.3009 57.8064 27.871V45.4194H55.7419V40.2581C55.7419 38.5477 54.3555 37.1613 52.6452 37.1613H47.4839V35.0968ZM47.4839 39.2258H52.6452C53.2152 39.2258 53.6774 39.688 53.6774 40.2581V45.4194H47.4839V39.2258ZM45.4194 12.3871H33.0323C33.0323 8.96645 35.8052 6.19355 39.2258 6.19355C42.6465 6.19355 45.4194 8.96645 45.4194 12.3871ZM33.0323 33.0323V30.9677H45.4194V33.0323H33.0323ZM45.4194 35.0968V45.4194H42.3226H33.0323V35.0968H45.4194ZM33.0323 28.9032V18.5806H45.4194V28.9032H33.0323ZM33.0323 16.5161V14.4516H45.4194V16.5161H33.0323ZM21.6774 3.09677C21.6774 2.52671 22.1396 2.06452 22.7097 2.06452H37.1613C37.7314 2.06452 38.1935 2.52671 38.1935 3.09677V4.20026C34.0688 4.72361 30.9747 8.22929 30.9677 12.3871H28.9032C28.8963 8.22929 25.8022 4.72361 21.6774 4.20026V3.09677ZM28.9032 33.0323V30.9677H30.9677V33.0323H28.9032ZM30.9677 35.0968V45.4194H28.9032V35.0968H30.9677ZM28.9032 28.9032V18.5806H30.9677V28.9032H28.9032ZM28.9032 16.5161V14.4516H30.9677V16.5161H28.9032ZM20.6452 6.19355C24.0644 6.1969 26.8354 8.96787 26.8387 12.3871H14.4516C14.455 8.96787 17.2259 6.1969 20.6452 6.19355ZM14.4516 14.4516H26.8387V16.5161H14.4516V14.4516ZM14.4516 18.5806H26.8387V28.9032H14.4516V18.5806ZM14.4516 30.9677H26.8387V33.0323H14.4516V30.9677ZM14.4516 35.0968H26.8387V45.4194H14.4516V35.0968ZM9.29032 22.7097C8.72026 22.7097 8.25806 22.2475 8.25806 21.6774V9.29032C8.25806 8.72026 8.72026 8.25806 9.29032 8.25806H13.504C12.7728 9.51123 12.3874 10.9361 12.3871 12.3871H10.3226V14.4516H12.3871V16.5161H10.3226V18.5806H12.3871V22.7097H9.29032ZM41.2903 47.4839V49.5484H12.3871V47.4839H41.2903ZM41.2903 51.6129V57.8064H33.0323V51.6129H41.2903ZM30.9677 51.6129V57.8064H28.9032V51.6129H30.9677ZM26.8387 51.6129V57.8064H14.4516V51.6129H26.8387ZM2.06452 50.5806C2.07226 44.7135 6.54477 39.8166 12.3871 39.2785V45.4194H11.3548C10.7848 45.4194 10.3226 45.8815 10.3226 46.4516V50.5806C10.3226 51.1507 10.7848 51.6129 11.3548 51.6129H12.3871V57.8064H2.06452V50.5806ZM61.9355 61.9355H2.06452V59.871H61.9355V61.9355ZM61.9355 57.8064H43.3548V47.4839H61.9355V57.8064ZM61.9355 45.4194H59.871V27.871C59.871 26.1606 58.4845 24.7742 56.7742 24.7742H47.4839V22.7097H56.7742C59.6232 22.713 61.9321 25.0219 61.9355 27.871V45.4194Z" fill="#353B50"/>
</svg>
