<svg width="64" height="64" viewBox="0 0 64 64" fill="none" xmlns="http://www.w3.org/2000/svg">
<path d="M34.9691 19.7933V9.8964H38.9278V2.63867H17.1546V9.8964H21.1134V27.051H3.95876V40.2469H0V61.3603H64V19.7933H34.9691ZM19.134 7.91702V4.61805H36.9485V7.91702H32.9897V14.515H23.0928V9.8964H31.3402V7.91702H19.134ZM5.93814 29.0304H21.1134V40.2469H5.93814V29.0304ZM23.0928 59.3809H6.59794V56.7418H23.0928V59.3809ZM23.0928 54.7624H6.59794V51.4634H23.0928V54.7624ZM23.0928 49.484H6.59794V46.8449H23.0928V49.484ZM27.7113 59.3809H25.0722V44.8655H4.61856V59.3809H1.97938V42.2263H27.7113V59.3809ZM27.7113 40.2469H23.0928V16.4943H32.9897V19.7933H27.7113V40.2469ZM56.7423 54.1026H52.4536V56.082H56.7423V58.7211H48.8247V50.1438H56.7423V54.1026ZM62.0206 59.3809H58.7217V48.1644H46.8454V59.3809H29.6907V21.7727H62.0206V59.3809Z" fill="#353B50"/>
<path d="M18.1443 31.6699H8.90723V33.6493H18.1443V31.6699Z" fill="#353B50"/>
<path d="M18.1443 35.6289H8.90723V37.6083H18.1443V35.6289Z" fill="#353B50"/>
<path d="M59.3816 24.4121H32.3301V31.6698H59.3816V24.4121ZM57.4022 29.6905H34.3095V26.3915H57.4022V29.6905Z" fill="#353B50"/>
<path d="M59.3816 34.3086H32.3301V41.5663H59.3816V34.3086ZM57.4022 39.5869H34.3095V36.288H57.4022V39.5869Z" fill="#353B50"/>
<path d="M45.1958 44.2051H32.6597V46.1845H45.1958V44.2051Z" fill="#353B50"/>
<path d="M43.2164 48.8242H32.6597V50.8036H43.2164V48.8242Z" fill="#353B50"/>
<path d="M36.6184 53.4434H32.6597V55.4227H36.6184V53.4434Z" fill="#353B50"/>
</svg>
