<svg width="48" height="48" viewBox="0 0 48 48" fill="none" xmlns="http://www.w3.org/2000/svg">
<g clip-path="url(#clip0)">
<path d="M35.0018 41.5004C35.4047 41.8781 37.4384 40.6349 38.5018 39.5004C40.2015 37.6872 40.5523 36.5476 40.1494 36.1699M35.0018 41.5004C34.5989 41.1227 35.8662 39.2771 36.6842 38.4044C37.7834 37.2317 39.7464 35.7922 40.1494 36.1699M35.0018 41.5004L20.0018 37.5005M40.1494 36.1699L34.5008 21.5005L33.0001 19.0004M33.0001 19.0004L20.0018 7.00043M33.0001 19.0004C29.4991 20.0004 23.5243 26.3652 20.0018 31.288M17.5008 36.5005L5.50078 27.0005M17.5008 36.5005C17.1662 35.8313 18.2308 33.763 20.0018 31.288M17.5008 36.5005L20.0018 37.5005M20.0018 31.288L14.0008 27.0005M20.0018 37.5005C21.0015 35.429 24.3008 30.0005 29.5008 26.0005" stroke="#EE1D2D" stroke-width="1.3"/>
</g>
<defs>
<clipPath id="clip0">
<rect width="48" height="48" fill="white"/>
</clipPath>
</defs>
</svg>
