<svg width="48" height="48" viewBox="0 0 48 48" fill="none" xmlns="http://www.w3.org/2000/svg">
<g clip-path="url(#clip0)">
<rect x="0.65" y="0.65" width="46.7" height="46.7" stroke="#272324" stroke-width="1.3"/>
<path d="M22.5003 0.5C22.0003 0.5 20.8003 1.2 20.0003 4C19.0003 7.5 19.5003 9 22.5003 9C25.5003 9 30 7 32.5 5C34.5 3.4 33 1.33333 32 0.5M17 0.5C17.5 1.16667 18.4 3.5 18 5.5C17.5 8 15.5 10.5 14 10C12.5 9.5 9.5 8 9.5 6C9.5 4 9.5 1 11 0.5M0.5 20.5C1.16667 19.5 3.1 17.6 5.5 18C8.5 18.5 14 20.5 14 24.5C14 28.5 11.5 28.5 10 28.5C8.5 28.5 0.5 27.5 0.5 26M47.5 23C46.6667 21.8333 44.3 19.6 41.5 20C38 20.5 34 21.5 34 23.5C34 25.5 35 27.5 37 28.5C39 29.5 46.5 29 47.5 28M0.5 41C1 40.8333 2.6 40 5 38C7.4 36 7 32.8333 6.5 31.5C5.83333 30.1667 3.7 28 0.5 30M0.5 44.5C1.33333 43.3333 4 41 8 41C13 41 16 41.5 17 43C17.8 44.2 15.3333 46.3504 14 47.2756M22 47.2756C21.3333 47.1837 20.3 46.6 21.5 45C23 43 23.5 42 27.5 41.5C31.5 41 32 42 32.5 43.5C32.9 44.7 32.6667 46.3644 32.5 47.0466M36 47.2756C36 46.1837 36.7 43.7 39.5 42.5C42.3 41.3 45.6667 43 47 44M5.5 0.5C7 1.5 7.3 3.3 6.5 4.5C5.5 6 1 7 0.5 5M1.5 14.5C1.5 13.6667 1.8 11.6 3 10C4.5 8 7 7.5 8.5 9C9.77475 10.2748 10.5 11 10 13C9.5 15 9.34164 15.8292 8 16.5C7 17 1.5 17.5 1.5 14.5ZM13.5 18.5C12.5 17 12.3 15.2 13.5 14C15 12.5 16.5 10 20.5 12C24.5 14 23.1204 16.5697 22.5003 17.5C21.5003 19 19.5 22 16.5 21.5C15.4472 21.3333 14.5 20 13.5 18.5ZM33 18.5C30.6667 18.6667 25.8 18.5 27 14.5C28.5 9.5 31.5 8 34.5 8C37.5 8 40 8.5 42 11.5C43.3333 13.5 42 17 39 17.5C36.9881 17.8353 34.6667 18.3333 33 18.5ZM21.5 26.5C20.1667 26 19.7 25 20.5 23C21.5 20.5 24.5 20.5 27 20.5C29.5 20.5 32 21 32 25.5C32 30 27.56 29.5 21.5 26.5ZM28 34C28.3333 35 29.9 37.5 33.5 39.5C38 42 40 39 41.5 37C43 35 43 30 36.5 30C30 30 27.5 32 28 34ZM11 31C10 31.8333 8.4 34.2 10 37C12 40.5 25 40.5 26 37.5C27 34.5 23.5 29.5 16 29.5C15 29.5 12.6 29.8 11 31ZM47 6.5C46.3333 7.66667 44.3 9.6 41.5 8C38 6 37 5 38 3.5C39 2 41.5 1.5 43.5 2.5C45.5 3.5 47.5 4.5 47 6.5Z" stroke="#272324" stroke-width="1.3" stroke-linecap="round"/>
</g>
<defs>
<clipPath id="clip0">
<rect width="48" height="48" fill="white"/>
</clipPath>
</defs>
</svg>
