<svg width="48" height="48" viewBox="0 0 48 48" fill="none" xmlns="http://www.w3.org/2000/svg">
<g clip-path="url(#clip0)">
<path d="M28 13.5H29L30 14.5M28 13.5V6H21V13.5M28 13.5H21M21 13.5H20L19 14.5M35.5 21V20L34.5 19M35.5 21H42.5M35.5 21V27.5M42.5 21V27.5M42.5 21L44 19.5M42.5 27.5H35.5M42.5 27.5L44 29M35.5 27.5V28L34.5 29M34.5 29L29 34.5H28M34.5 29L39 34M39 34L34.5 38.5M39 34H41.9091M34.5 38.5L30 34M34.5 38.5V41.087M28 34.5V41.5M28 34.5H21M28 41.5H21M28 41.5L29 43M21 41.5V34.5M21 41.5L20 43M21 34.5H20L19 33.5M19 33.5L14 38.5M19 33.5L14.5 29M14 38.5L9.5 34M14 38.5V40.6087M9.5 34L14.5 29M9.5 34H7.09091M14.5 29L13.5 28V27M13.5 27H6.5M13.5 27V21M6.5 27V21M6.5 27L5 28.5M6.5 21H13.5M6.5 21L5 19M13.5 21V20L15 18.5M15 18.5L10 14M15 18.5L19 14.5M10 14L14.5 9.5M10 14H7.5M14.5 9.5L19 14.5M14.5 9.5V7M14.5 7L16.5 5H32.5L35 7.5M14.5 7L7.5 14M7.5 14L5 16.5V19M5 19V28.5M5 28.5V32L7.09091 34M7.09091 34L14 40.6087M14 40.6087L16.5 43H20M20 43H29M29 43H32.5L34.5 41.087M34.5 41.087L41.9091 34M41.9091 34L44 32V29M44 29V19.5M44 19.5V16.5L41.9091 14.4091M30 14.5L35 9.5M30 14.5L34.5 19M35 9.5L39.5 14.5M35 9.5V7.5M39.5 14.5L34.5 19M39.5 14.5L41.9091 14.4091M41.9091 14.4091L35 7.5M30 24C30 27.0376 27.5376 29.5 24.5 29.5C21.4624 29.5 19 27.0376 19 24C19 20.9624 21.4624 18.5 24.5 18.5C27.5376 18.5 30 20.9624 30 24Z" stroke="#EE1D2D" stroke-width="1.3"/>
</g>
<defs>
<clipPath id="clip0">
<rect width="48" height="48" fill="white"/>
</clipPath>
</defs>
</svg>
