<svg width="48" height="48" viewBox="0 0 48 48" fill="none" xmlns="http://www.w3.org/2000/svg">
<g clip-path="url(#clip0)">
<rect x="0.65" y="0.65" width="46.7" height="46.7" stroke="#272324" stroke-width="1.3"/>
<path d="M25 1L1 28.5" stroke="#272324" stroke-linecap="round"/>
<path d="M43 1L22 24.5" stroke="#272324" stroke-linecap="round"/>
<path d="M9.5 4L0 15.5" stroke="#272324" stroke-linecap="round"/>
<path d="M48 13L22 42" stroke="#272324" stroke-linecap="round"/>
<path d="M47 31L32.5 47" stroke="#272324" stroke-linecap="round"/>
<path d="M19.5 4.5H31" stroke="#272324" stroke-linecap="round"/>
<path d="M18 13H26.5" stroke="#272324" stroke-linecap="round"/>
<path d="M11 15H19.5" stroke="#272324" stroke-linecap="round"/>
<path d="M6 19H14.5" stroke="#272324" stroke-linecap="round"/>
<path d="M32 12H36" stroke="#272324" stroke-linecap="round"/>
<path d="M3 42H12.5" stroke="#272324" stroke-linecap="round"/>
<path d="M1 28H10.5" stroke="#272324" stroke-linecap="round"/>
<path d="M9 35H18.5" stroke="#272324" stroke-linecap="round"/>
<path d="M15 28H24.5" stroke="#272324" stroke-linecap="round"/>
<path d="M6 31H26" stroke="#272324" stroke-linecap="round"/>
<path d="M30 16H42" stroke="#272324" stroke-linecap="round"/>
<path d="M31 33H43" stroke="#272324" stroke-linecap="round"/>
<path d="M28 18H40" stroke="#272324" stroke-linecap="round"/>
<path d="M29 35H41" stroke="#272324" stroke-linecap="round"/>
<path d="M26.5 20H33" stroke="#272324" stroke-linecap="round"/>
<path d="M27 37H34" stroke="#272324" stroke-linecap="round"/>
<path d="M24.5 22H35.5" stroke="#272324" stroke-linecap="round"/>
<path d="M25 39H36.5" stroke="#272324" stroke-linecap="round"/>
<path d="M22.5 24H33.5" stroke="#272324" stroke-linecap="round"/>
<path d="M23 41H28.5" stroke="#272324" stroke-linecap="round"/>
</g>
<defs>
<clipPath id="clip0">
<rect width="48" height="48" fill="white"/>
</clipPath>
</defs>
</svg>
