<svg width="48" height="48" viewBox="0 0 48 48" fill="none" xmlns="http://www.w3.org/2000/svg">
<path d="M38.4122 31.5154C40.3895 26.6555 38.6265 21.3463 34.4742 19.6568C30.3219 17.9673 25.3529 20.5374 23.3755 25.3972C21.3982 30.2571 23.1612 35.5663 27.3135 37.2558C28.1854 37.6106 29.0933 37.7775 30.002 37.7749M38.4122 31.5154C39.4411 27.8437 40.0939 19.9003 34.4742 17.5003C34.1469 17.3605 33.8227 17.2438 33.502 17.1485M38.4122 31.5154C37.4764 33.8151 35.8708 35.602 33.9988 36.6676M38.4122 31.5154C39.608 27.3437 39.6239 19.4753 32.9997 15.5004C32.6781 15.3074 32.3442 15.1351 32.0001 14.9831M33.9989 21.5003C35.4641 22.5003 38.2155 25.5003 37.4988 29.5003C37.0368 32.0792 36.1369 34.0346 34.7482 35.5004M31.9988 37.4998C31.3422 37.6788 30.6719 37.7729 30.002 37.7749M31.9988 37.4998C32.6859 37.3125 33.358 37.0323 33.9988 36.6676M31.9988 37.4998C33.0693 36.9671 33.983 36.3081 34.7482 35.5004M30.002 37.7749C29.002 37.8455 22.4989 38.0003 21.0017 32.0003C19.804 27.2003 21.5008 23.3337 22.4989 22.0003C24.053 19.6459 28.3167 15.6064 33.502 17.1485M33.502 17.1485C27.3124 14.5004 22.0017 18.0004 20.002 21.0004C19.0021 22.5004 17.6615 25.3973 18.4993 30.0003C19.5002 35.5001 26.996 40.3348 33.9988 36.6676M20.002 35.5004C15.0015 32.0004 15.0026 24.167 17.0017 21.0004C18.4993 18.0004 24.5017 12.5004 32.0001 14.9831M20.002 35.5004C29.0229 41.8145 33.4975 35.8524 34.7482 35.5004M20.002 35.5004L8.50194 27.5004M20.002 35.5004C18.0045 34.5667 16.169 33.0239 15.501 32.3693M32.0001 14.9831L27.3664 12.5004M17.0018 16.0004C15.5025 17.604 13.001 20.9147 13.001 25.3972C13.001 28.8602 14.3277 30.9122 15.501 32.3693M15.501 32.3693C13.3553 31.3693 9.00175 27.6004 11.0017 20.0004M15.001 15.5004C18.601 11.5004 23.5004 11.167 25.5001 11.5004L27.3664 12.5004M27.3664 12.5004C26.5779 12.167 24.201 11.9004 21.001 13.5004" stroke="#EE1D2D" stroke-width="1.3" stroke-linecap="round"/>
</svg>
