<svg width="48" height="48" viewBox="0 0 48 48" fill="none" xmlns="http://www.w3.org/2000/svg">
<g clip-path="url(#clip0)">
<rect x="0.65" y="0.65" width="46.7" height="46.7" stroke="#272324" stroke-width="1.3"/>
<path d="M6.00016 3.50016C6.80016 3.10016 7.5 3.33333 8 3.5C8.58518 3.69506 9 4.5 9 5C9 6 7.50016 7 6.50016 6.5C5.50016 6 5.00016 4.00016 6.00016 3.50016Z" fill="#272324"/>
<path d="M6.00016 43.2209C6.80016 42.8209 7.5 43.054 8 43.2207C8.58518 43.4158 9 44.2207 9 44.7207C9 45.7207 7.50016 46.7207 6.50016 46.2207C5.50016 45.7207 5.00016 43.7209 6.00016 43.2209Z" fill="#272324"/>
<path d="M5.7639 34.3303C5.56908 34.0039 5.64581 33.6999 5.70066 33.4827C5.76485 33.2285 6.09293 33.0273 6.30485 33.0115C6.72871 32.9799 7.19995 33.584 7.01961 34.0237C6.83927 34.4633 6.00741 34.7384 5.7639 34.3303Z" fill="#272324"/>
<path d="M34.1887 36.3714C33.9939 36.0449 34.0706 35.7409 34.1255 35.5237C34.1897 35.2695 34.5177 35.0683 34.7297 35.0525C35.1535 35.0209 35.6248 35.625 35.4444 36.0647C35.2641 36.5043 34.4322 36.7794 34.1887 36.3714Z" fill="#272324"/>
<path d="M10.1887 44.3714C9.99389 44.0449 10.0706 43.7409 10.1255 43.5237C10.1897 43.2695 10.5177 43.0683 10.7297 43.0525C11.1535 43.0209 11.6248 43.625 11.4444 44.0647C11.2641 44.5043 10.4322 44.7794 10.1887 44.3714Z" fill="#272324"/>
<path d="M20.1887 24.3714C19.9939 24.0449 20.0706 23.7409 20.1255 23.5237C20.1897 23.2695 20.5177 23.0683 20.7297 23.0525C21.1535 23.0209 21.6248 23.625 21.4444 24.0647C21.2641 24.5043 20.4322 24.7794 20.1887 24.3714Z" fill="#272324"/>
<path d="M1.1887 24.3714C0.993886 24.0449 1.07061 23.7409 1.12546 23.5237C1.18965 23.2695 1.51773 23.0683 1.72966 23.0525C2.15352 23.0209 2.62475 23.625 2.44441 24.0647C2.26407 24.5043 1.43222 24.7794 1.1887 24.3714Z" fill="#272324"/>
<path d="M30.5451 21.2209C31.3451 20.8209 32.0449 21.054 32.5449 21.2207C33.1301 21.4158 33.5449 22.2207 33.5449 22.7207C33.5449 23.7207 32.0451 24.7207 31.0451 24.2207C30.0451 23.7207 29.5451 21.7209 30.5451 21.2209Z" fill="#272324"/>
<path d="M30.5851 43.5952C31.0334 44.168 30.9609 44.7635 30.909 45.189C30.8482 45.687 30.2739 46.1479 29.8754 46.2289C29.0784 46.3908 28.0386 45.3573 28.2752 44.4794C28.5118 43.6014 30.0247 42.8791 30.5851 43.5952Z" fill="#272324"/>
<path d="M42.5588 40.1755C43.0842 39.9829 43.503 40.1769 43.8022 40.3155C44.1524 40.4778 44.3539 41.0074 44.3189 41.3183C44.2488 41.94 43.2462 42.4567 42.6595 42.0757C42.0727 41.6948 41.902 40.4163 42.5588 40.1755Z" fill="#272324"/>
<path d="M33.5588 4.17552C34.0842 3.98287 34.503 4.17689 34.8022 4.31555C35.1524 4.47783 35.3539 5.00737 35.3189 5.31825C35.2488 5.94001 34.2462 6.45667 33.6595 6.07572C33.0727 5.69478 32.902 4.41632 33.5588 4.17552Z" fill="#272324"/>
<path d="M42.5588 4.17552C43.0842 3.98287 43.503 4.17689 43.8022 4.31555C44.1524 4.47783 44.3539 5.00737 44.3189 5.31825C44.2488 5.94001 43.2462 6.45667 42.6595 6.07572C42.0727 5.69478 41.902 4.41632 42.5588 4.17552Z" fill="#272324"/>
<path d="M43.1447 44.2015C43.3042 44.4841 43.2325 44.7419 43.1812 44.9261C43.1212 45.1416 42.8371 45.3066 42.656 45.3157C42.2937 45.3339 41.904 44.8087 42.067 44.4373C42.2299 44.0659 42.9454 43.8483 43.1447 44.2015Z" fill="#272324"/>
<path d="M16.9971 6.16737C17.1929 6.33142 17.2031 6.54063 17.2103 6.69011C17.2188 6.86506 17.0406 7.0642 16.9025 7.12055C16.6262 7.23324 16.19 6.95387 16.2215 6.63612C16.2531 6.31838 16.7523 5.96232 16.9971 6.16737Z" fill="#272324"/>
<path d="M16.9971 15.1674C17.1929 15.3314 17.2031 15.5406 17.2103 15.6901C17.2188 15.8651 17.0406 16.0642 16.9025 16.1205C16.6262 16.2332 16.19 15.9539 16.2215 15.6361C16.2531 15.3184 16.7523 14.9623 16.9971 15.1674Z" fill="#272324"/>
<path d="M33.9238 7.16737C34.1197 7.33142 34.1298 7.54063 34.1371 7.69011C34.1456 7.86506 33.9674 8.0642 33.8292 8.12055C33.5529 8.23324 33.1167 7.95387 33.1483 7.63612C33.1798 7.31838 33.6791 6.96232 33.9238 7.16737Z" fill="#272324"/>
<path d="M9.92384 23.1674C10.1197 23.3314 10.1298 23.5406 10.1371 23.6901C10.1456 23.8651 9.9674 24.0642 9.82925 24.1205C9.55294 24.2332 9.11674 23.9539 9.14828 23.6361C9.17982 23.3184 9.67908 22.9623 9.92384 23.1674Z" fill="#272324"/>
<path d="M9.92384 36.1674C10.1197 36.3314 10.1298 36.5406 10.1371 36.6901C10.1456 36.8651 9.9674 37.0642 9.82925 37.1205C9.55294 37.2332 9.11674 36.9539 9.14828 36.6361C9.17982 36.3184 9.67908 35.9623 9.92384 36.1674Z" fill="#272324"/>
<path d="M25.9238 41.1674C26.1197 41.3314 26.1298 41.5406 26.1371 41.6901C26.1456 41.8651 25.9674 42.0642 25.8292 42.1205C25.5529 42.2332 25.1167 41.9539 25.1483 41.6361C25.1798 41.3184 25.6791 40.9623 25.9238 41.1674Z" fill="#272324"/>
<path d="M30.9238 43.1674C31.1197 43.3314 31.1298 43.5406 31.1371 43.6901C31.1456 43.8651 30.9674 44.0642 30.8292 44.1205C30.5529 44.2332 30.1167 43.9539 30.1483 43.6361C30.1798 43.3184 30.6791 42.9623 30.9238 43.1674Z" fill="#272324"/>
<path d="M27.1847 45.8981C27.0405 46.109 26.8332 46.1394 26.6852 46.1612C26.5119 46.1866 26.2963 46.0286 26.2268 45.8966C26.0878 45.6325 26.3235 45.1713 26.6428 45.1718C26.9621 45.1723 27.365 45.6346 27.1847 45.8981Z" fill="#272324"/>
<path d="M19.9153 14.7981C19.6357 14.5639 19.6212 14.2652 19.6108 14.0518C19.5987 13.802 19.8531 13.5176 20.0504 13.4372C20.4449 13.2763 21.0677 13.6752 21.0227 14.1288C20.9776 14.5825 20.2648 15.0909 19.9153 14.7981Z" fill="#272324"/>
<path d="M25.5442 14.7981C25.2646 14.5639 25.2501 14.2652 25.2397 14.0518C25.2276 13.802 25.482 13.5176 25.6793 13.4372C26.0738 13.2763 26.6966 13.6752 26.6516 14.1288C26.6065 14.5825 25.8937 15.0909 25.5442 14.7981Z" fill="#272324"/>
<path d="M15 0L3 15" stroke="#272324" stroke-linecap="round"/>
<path d="M12 7.5L3.5 18" stroke="#272324" stroke-linecap="round"/>
<path d="M24 1L18 8" stroke="#272324" stroke-linecap="round"/>
<path d="M23 5L13 17" stroke="#272324" stroke-linecap="round"/>
<path d="M6.5 29.5L1 36" stroke="#272324" stroke-linecap="round"/>
<path d="M32 0.5L21 13" stroke="#272324" stroke-linecap="round"/>
<path d="M24 16L10 32" stroke="#272324" stroke-linecap="round"/>
<path d="M37 16L23 32" stroke="#272324" stroke-linecap="round"/>
<path d="M33 26L15 47" stroke="#272324" stroke-linecap="round"/>
<path d="M43 18L28.5 34.5" stroke="#272324" stroke-linecap="round"/>
<path d="M46 9L37 19" stroke="#272324" stroke-linecap="round"/>
<path d="M42 2L35 10" stroke="#272324" stroke-linecap="round"/>
<path d="M46 2L17 35" stroke="#272324" stroke-linecap="round"/>
<path d="M46 18.5L27.5 39.5" stroke="#272324" stroke-linecap="round"/>
<path d="M47 21.5L36.5 33.5" stroke="#272324" stroke-linecap="round"/>
<path d="M37.5 38.5L30.5 47" stroke="#272324" stroke-linecap="round"/>
<path d="M44.5 33.5L38 41.5" stroke="#272324" stroke-linecap="round"/>
<path d="M45 36L38 44.5" stroke="#272324" stroke-linecap="round"/>
<path d="M5.5 36.5L0.5 42.5" stroke="#272324" stroke-linecap="round"/>
<path d="M18.5 26L0 47" stroke="#272324" stroke-linecap="round"/>
<path d="M31 14.5L20 27" stroke="#272324" stroke-linecap="round"/>
<path d="M30 6.5L19 19" stroke="#272324" stroke-linecap="round"/>
<path d="M15 12L9 19" stroke="#272324" stroke-linecap="round"/>
</g>
<defs>
<clipPath id="clip0">
<rect width="48" height="48" fill="white"/>
</clipPath>
</defs>
</svg>
