<svg width="48" height="48" viewBox="0 0 48 48" fill="none" xmlns="http://www.w3.org/2000/svg">
<path fill-rule="evenodd" clip-rule="evenodd" d="M12.2131 11.0051L24.0363 6.00294C24.705 5.73736 26.489 5.36169 28.0977 6.00517C28.5927 6.20314 29.3944 6.67788 30.3619 7.3558C31.3165 8.02472 32.3939 8.86408 33.4306 9.76065C34.4683 10.6582 35.4551 11.6043 36.2335 12.486C37.0055 13.3605 37.5191 14.113 37.7158 14.66C37.7776 15.0647 37.8109 15.6925 37.7178 16.2894C37.6211 16.9096 37.4122 17.3521 37.1167 17.5731L18.5194 25.8826L18.4715 25.904L18.4276 25.9328C17.8386 26.3198 17.0493 27.1616 16.6237 28.4017C14.4174 23.1401 11.294 19.0292 8.65879 16.3589C8.27922 15.807 7.88481 14.9682 7.83865 14.1899C7.81566 13.8022 7.8803 13.4576 8.04703 13.167C8.21079 12.8815 8.50329 12.5951 9.03102 12.3689L8.65185 11.1332C7.93082 11.2723 6.8777 11.6714 5.99143 12.4339C5.08804 13.2112 4.34961 14.3778 4.34961 15.9997C4.34961 17.4763 4.7256 19.583 5.18771 21.8662C5.32473 22.5432 5.46992 23.2383 5.61716 23.9431L5.61718 23.9432C5.97318 25.6476 6.34113 27.4091 6.63442 29.1102L6.63589 29.1187L6.63759 29.1272C6.80797 29.9791 7.36068 32.0501 8.23414 33.3603C8.63643 33.9637 10.4123 36.5917 12.1665 39.1316C13.0435 40.4014 13.9172 41.6523 14.612 42.6183C14.9591 43.1008 15.2643 43.5162 15.5044 43.8287C15.6242 43.9846 15.7312 44.1194 15.8211 44.226C15.8795 44.2953 15.9504 44.3767 16.0231 44.4456C16.852 45.4704 19.0654 46.1001 22.3441 44.0509C22.6485 43.8606 22.7411 43.4596 22.5508 43.1552C22.3605 42.8508 21.9595 42.7583 21.6551 42.9485C20.682 43.5567 19.8802 43.873 19.2324 44.0127C19.2764 43.9008 19.3141 43.7827 19.3457 43.6591C19.4967 43.0686 19.5294 42.2882 19.4315 41.2822L19.4289 41.2558L19.4242 41.2296C19.1027 39.45 18.9151 38.0705 18.7458 36.8262C18.71 36.563 18.6751 36.3059 18.6398 36.0523C18.4378 34.5986 18.2276 33.2681 17.8044 31.6282C17.1468 29.0799 18.4323 27.5136 19.1016 27.0463L37.7039 18.7346L37.7538 18.7123L37.7993 18.682C38.4351 18.2582 38.7566 17.5698 38.9176 16.915C39.5676 18.2706 40.2252 19.9481 40.4351 21.418C40.7879 23.887 40.5824 28.7036 40.4302 30.8343L40.4286 30.8574V30.8806C40.4286 31.6126 39.9608 33.5745 37.9882 34.8896C36.9387 35.5893 34.7798 36.7082 32.4672 37.8379C30.1693 38.9604 27.7642 40.0722 26.2525 40.7524C25.9251 40.8997 25.7792 41.2845 25.9265 41.6119C26.0738 41.9393 26.4586 42.0852 26.786 41.9379C28.3074 41.2533 30.7252 40.1356 33.0377 39.006C35.3356 37.8835 37.5749 36.7275 38.7093 35.9713C41.0866 34.3864 41.7192 32.0045 41.7285 30.9052C41.8796 28.7775 42.096 23.8519 41.7221 21.2341C41.3449 18.5939 39.727 15.4969 38.939 14.2198C38.652 13.4234 37.9952 12.5173 37.208 11.6256C36.3797 10.6874 35.3475 9.69982 34.281 8.77739C33.2134 7.85403 32.1012 6.9872 31.1079 6.29117C30.1275 5.60413 29.2231 5.05516 28.5805 4.79815C26.5539 3.9875 24.4003 4.4572 23.5479 4.79815L23.5479 4.79803L23.5361 4.80303L11.7066 9.80782C11.376 9.9477 11.2213 10.3291 11.3612 10.6597C11.5011 10.9903 11.8825 11.145 12.2131 11.0051ZM7.69551 17.2336C10.7317 20.2993 14.4678 25.3793 16.55 31.9697C16.9521 33.5312 17.1535 34.8013 17.3522 36.2312C17.3868 36.4801 17.4213 36.734 17.4568 36.9951L17.4569 36.9954C17.6254 38.235 17.8161 39.6371 18.1401 41.4342C18.2275 42.3517 18.1838 42.9557 18.0863 43.3369C17.989 43.717 17.8589 43.8068 17.8207 43.8273C17.7757 43.8515 17.6783 43.8753 17.4885 43.8169C17.3014 43.7593 17.0928 43.6403 16.9076 43.4937C16.909 43.4948 16.9097 43.4953 16.9098 43.4952C16.9099 43.4951 16.9081 43.4932 16.9042 43.489C16.893 43.4771 16.8645 43.4468 16.8148 43.3879C16.743 43.3028 16.6495 43.1854 16.5353 43.0367C16.3076 42.7403 16.0115 42.3377 15.6674 41.8592C14.9799 40.9034 14.1117 39.6605 13.2362 38.3928C11.4853 35.8577 9.7135 33.2357 9.3158 32.6392C8.59171 31.553 8.07877 29.6996 7.91401 28.8805C7.61687 27.1584 7.2419 25.3632 6.88463 23.6527L6.88463 23.6527C6.73858 22.9535 6.59548 22.2684 6.46187 21.6083C5.99463 19.2998 5.64961 17.3231 5.64961 15.9997C5.64961 14.997 6.02629 14.2493 6.55132 13.6937C6.532 13.8865 6.52977 14.0786 6.54093 14.2668C6.60779 15.3942 7.15887 16.4883 7.62618 17.1509L7.6574 17.1951L7.69551 17.2336ZM16.9076 43.4937C16.9064 43.4928 16.9052 43.4918 16.904 43.4908L16.9053 43.4918C16.9062 43.4926 16.907 43.4932 16.9076 43.4937ZM24.9306 30.3035L33.3613 26.4194C34.8063 25.7536 36.4662 26.7608 36.543 28.35C36.5872 29.2645 36.0716 30.1142 35.2401 30.4973L26.8094 34.3815C25.3643 35.0473 23.7044 34.0401 23.6276 32.4509C23.5835 31.5364 24.099 30.6867 24.9306 30.3035ZM22.3292 32.5136C22.2594 31.0696 23.0735 29.7278 24.3866 29.1228L32.8173 25.2387C35.0991 24.1874 37.7202 25.7778 37.8415 28.2872C37.9113 29.7313 37.0971 31.0731 35.784 31.678L27.3534 35.5622C25.0715 36.6135 22.4504 35.0231 22.3292 32.5136Z" fill="#EE1D2D"/>
</svg>
