<svg width="48" height="48" viewBox="0 0 48 48" fill="none" xmlns="http://www.w3.org/2000/svg">
<g clip-path="url(#clip0)">
<rect x="0.65" y="0.65" width="46.7" height="46.7" stroke="#272324" stroke-width="1.3"/>
<path d="M25 1L1 28.5" stroke="#272324" stroke-linecap="round"/>
<path d="M32 1L16 19" stroke="#272324" stroke-linecap="round"/>
<path d="M8.5 8L0.5 17" stroke="#272324" stroke-linecap="round"/>
<path d="M7 25L-1 34" stroke="#272324" stroke-linecap="round"/>
<path d="M17 25L9 34" stroke="#272324" stroke-linecap="round"/>
<path d="M14 39L6 48" stroke="#272324" stroke-linecap="round"/>
<path d="M47 6L22 34" stroke="#272324" stroke-linecap="round"/>
<path d="M48 13L22 42" stroke="#272324" stroke-linecap="round"/>
<path d="M42 29L26 47" stroke="#272324" stroke-linecap="round"/>
<path d="M40 3L1 47" stroke="#272324" stroke-linecap="round"/>
<path d="M19.5 4.5H31" stroke="#272324" stroke-linecap="round"/>
<path d="M15 6H26.5" stroke="#272324" stroke-linecap="round"/>
<path d="M0 6H11.5" stroke="#272324" stroke-linecap="round"/>
<path d="M0 4H6.5" stroke="#272324" stroke-linecap="round"/>
<path d="M21 8H29.5" stroke="#272324" stroke-linecap="round"/>
<path d="M18 13H26.5" stroke="#272324" stroke-linecap="round"/>
<path d="M11 15H19.5" stroke="#272324" stroke-linecap="round"/>
<path d="M10 17H18.5" stroke="#272324" stroke-linecap="round"/>
<path d="M6 19H14.5" stroke="#272324" stroke-linecap="round"/>
<path d="M23.5 44H38.5" stroke="#272324" stroke-linecap="round"/>
<path d="M24 19H33.5" stroke="#272324" stroke-linecap="round"/>
<path d="M43.5 14H47.5" stroke="#272324" stroke-linecap="round"/>
<path d="M40.5 8H45" stroke="#272324" stroke-linecap="round"/>
<path d="M35 14H39.5" stroke="#272324" stroke-linecap="round"/>
<path d="M29.5 12H36" stroke="#272324" stroke-linecap="round"/>
<path d="M3 42H12.5" stroke="#272324" stroke-linecap="round"/>
<path d="M35 26H44.5" stroke="#272324" stroke-linecap="round"/>
<path d="M30 28H39.5" stroke="#272324" stroke-linecap="round"/>
<path d="M28 35H37.5" stroke="#272324" stroke-linecap="round"/>
<path d="M24 38H33.5" stroke="#272324" stroke-linecap="round"/>
<path d="M17 42H36.5" stroke="#272324" stroke-linecap="round"/>
<path d="M1 28H10.5" stroke="#272324" stroke-linecap="round"/>
<path d="M9 35H18.5" stroke="#272324" stroke-linecap="round"/>
<path d="M15 28H24.5" stroke="#272324" stroke-linecap="round"/>
<path d="M18.5 25H24.5" stroke="#272324" stroke-linecap="round"/>
<path d="M23 22H29" stroke="#272324" stroke-linecap="round"/>
<path d="M19 10H25" stroke="#272324" stroke-linecap="round"/>
<path d="M26.5 24H46.5" stroke="#272324" stroke-linecap="round"/>
<path d="M6 31H26" stroke="#272324" stroke-linecap="round"/>
<path d="M11 33H23" stroke="#272324" stroke-linecap="round"/>
<path d="M37 32H46.5" stroke="#272324" stroke-linecap="round"/>
</g>
<defs>
<clipPath id="clip0">
<rect width="48" height="48" fill="white"/>
</clipPath>
</defs>
</svg>
