<svg width="48" height="48" viewBox="0 0 48 48" fill="none" xmlns="http://www.w3.org/2000/svg">
<g clip-path="url(#clip0)">
<rect x="0.65" y="0.65" width="46.7" height="46.7" stroke="#272324" stroke-width="1.3"/>
<path d="M6.00016 3.50098C6.80016 3.10098 7.5 3.33415 8 3.50082C8.58518 3.69588 9 4.50082 9 5.00082C9 6.00082 7.50016 7.00082 6.50016 6.50082C5.50016 6.00082 5.00016 4.00098 6.00016 3.50098Z" fill="#272324"/>
<path d="M12.1538 7.06668C12.3794 6.9474 12.5769 7.01693 12.7179 7.06663C12.883 7.12479 13 7.36481 13 7.5139C13 7.81207 12.5769 8.11025 12.2948 7.96116C12.0127 7.81207 11.8717 7.21576 12.1538 7.06668Z" fill="#272324"/>
<path d="M21.1538 9.06668C21.3794 8.9474 21.5769 9.01693 21.7179 9.06663C21.883 9.12479 22 9.36481 22 9.5139C22 9.81207 21.5769 10.1103 21.2948 9.96116C21.0127 9.81207 20.8717 9.21576 21.1538 9.06668Z" fill="#272324"/>
<path d="M32.1538 9.06668C32.3794 8.9474 32.5769 9.01693 32.7179 9.06663C32.883 9.12479 33 9.36481 33 9.5139C33 9.81207 32.5769 10.1103 32.2948 9.96116C32.0127 9.81207 31.8717 9.21576 32.1538 9.06668Z" fill="#272324"/>
<path d="M23.1538 19.0667C23.3794 18.9474 23.5769 19.0169 23.7179 19.0666C23.883 19.1248 24 19.3648 24 19.5139C24 19.8121 23.5769 20.1103 23.2948 19.9612C23.0127 19.8121 22.8717 19.2158 23.1538 19.0667Z" fill="#272324"/>
<path d="M23.1538 5.06668C23.3794 4.9474 23.5769 5.01693 23.7179 5.06663C23.883 5.12479 24 5.36481 24 5.5139C24 5.81207 23.5769 6.11025 23.2948 5.96116C23.0127 5.81207 22.8717 5.21576 23.1538 5.06668Z" fill="#272324"/>
<path d="M21.3075 6.13253C21.7589 5.89399 22.1537 6.03304 22.4358 6.13244C22.766 6.24876 23 6.72879 23 7.02697C23 7.62333 22.1538 8.21969 21.5896 7.92151C21.0254 7.62333 20.7433 6.43071 21.3075 6.13253Z" fill="#272324"/>
<path d="M21.0871 3.68818C20.8734 3.20617 21.0448 2.80926 21.1673 2.52568C21.3106 2.1938 21.8219 1.98682 22.1291 2.00804C22.7435 2.05047 23.2978 2.96476 22.9504 3.52484C22.603 4.08491 21.3542 4.2907 21.0871 3.68818Z" fill="#272324"/>
<path d="M14.0763 2.78363C13.9729 2.55031 14.0558 2.35819 14.1151 2.22092C14.1845 2.06028 14.4319 1.96009 14.5807 1.97036C14.8781 1.9909 15.1463 2.43346 14.9782 2.70456C14.8101 2.97566 14.2056 3.07527 14.0763 2.78363Z" fill="#272324"/>
<path d="M17.1538 6.06668C17.3794 5.9474 17.5769 6.01693 17.7179 6.06663C17.883 6.12479 18 6.36481 18 6.5139C18 6.81207 17.5769 7.11025 17.2948 6.96116C17.0127 6.81207 16.8717 6.21576 17.1538 6.06668Z" fill="#272324"/>
<path d="M17.3075 9.13253C17.7589 8.89399 18.1537 9.03304 18.4358 9.13244C18.766 9.24876 19 9.72879 19 10.027C19 10.6233 18.1538 11.2197 17.5896 10.9215C17.0254 10.6233 16.7433 9.43071 17.3075 9.13253Z" fill="#272324"/>
<path d="M13.3075 4.13253C13.7589 3.89399 14.1537 4.03304 14.4358 4.13244C14.766 4.24876 15 4.72879 15 5.02697C15 5.62333 14.1538 6.21969 13.5896 5.92151C13.0254 5.62333 12.7433 4.43071 13.3075 4.13253Z" fill="#272324"/>
<path d="M13.3075 8.13253C13.7589 7.89399 14.1537 8.03304 14.4358 8.13244C14.766 8.24876 15 8.72879 15 9.02697C15 9.62333 14.1538 10.2197 13.5896 9.92151C13.0254 9.62333 12.7433 8.43071 13.3075 8.13253Z" fill="#272324"/>
<path d="M15.1538 11.0667C15.3794 10.9474 15.5769 11.0169 15.7179 11.0666C15.883 11.1248 16 11.3648 16 11.5139C16 11.8121 15.5769 12.1103 15.2948 11.9612C15.0127 11.8121 14.8717 11.2158 15.1538 11.0667Z" fill="#272324"/>
<path d="M19.1538 13.0667C19.3794 12.9474 19.5769 13.0169 19.7179 13.0666C19.883 13.1248 20 13.3648 20 13.5139C20 13.8121 19.5769 14.1103 19.2948 13.9612C19.0127 13.8121 18.8717 13.2158 19.1538 13.0667Z" fill="#272324"/>
<path d="M13.1538 13.0667C13.3794 12.9474 13.5769 13.0169 13.7179 13.0666C13.883 13.1248 14 13.3648 14 13.5139C14 13.8121 13.5769 14.1103 13.2948 13.9612C13.0127 13.8121 12.8717 13.2158 13.1538 13.0667Z" fill="#272324"/>
<path d="M4.15377 13.0667C4.37944 12.9474 4.57686 13.0169 4.71791 13.0666C4.88298 13.1248 5 13.3648 5 13.5139C5 13.8121 4.57691 14.1103 4.29481 13.9612C4.01272 13.8121 3.87167 13.2158 4.15377 13.0667Z" fill="#272324"/>
<path d="M4.30753 8.13253C4.75888 7.89399 5.15372 8.03304 5.43581 8.13244C5.76596 8.24876 6 8.72879 6 9.02697C6 9.62333 5.15381 10.2197 4.58962 9.92151C4.02544 9.62333 3.74334 8.43071 4.30753 8.13253Z" fill="#272324"/>
<path d="M8.15377 8.06668C8.37944 7.9474 8.57686 8.01693 8.71791 8.06663C8.88298 8.12479 9 8.36481 9 8.5139C9 8.81207 8.57691 9.11025 8.29481 8.96116C8.01272 8.81207 7.87167 8.21576 8.15377 8.06668Z" fill="#272324"/>
<path d="M7.4613 10.1984C8.13832 9.84057 8.73058 10.0492 9.15372 10.1982C9.64894 10.3727 10 11.0928 10 11.54C10 12.4346 8.73072 13.3291 7.88444 12.8819C7.03815 12.4346 6.61501 10.6457 7.4613 10.1984Z" fill="#272324"/>
<path d="M7.30753 15.1325C7.75888 14.894 8.15372 15.033 8.43581 15.1324C8.76596 15.2488 9 15.7288 9 16.027C9 16.6233 8.15381 17.2197 7.58962 16.9215C7.02544 16.6233 6.74334 15.4307 7.30753 15.1325Z" fill="#272324"/>
<path d="M11.1538 15.0667C11.3794 14.9474 11.5769 15.0169 11.7179 15.0666C11.883 15.1248 12 15.3648 12 15.5139C12 15.8121 11.5769 16.1103 11.2948 15.9612C11.0127 15.8121 10.8717 15.2158 11.1538 15.0667Z" fill="#272324"/>
<path d="M10.3075 12.1325C10.7589 11.894 11.1537 12.033 11.4358 12.1324C11.766 12.2488 12 12.7288 12 13.027C12 13.6233 11.1538 14.2197 10.5896 13.9215C10.0254 13.6233 9.74334 12.4307 10.3075 12.1325Z" fill="#272324"/>
<path d="M16.3075 17.1325C16.7589 16.894 17.1537 17.033 17.4358 17.1324C17.766 17.2488 18 17.7288 18 18.027C18 18.6233 17.1538 19.2197 16.5896 18.9215C16.0254 18.6233 15.7433 17.4307 16.3075 17.1325Z" fill="#272324"/>
<path d="M16.3075 23.1325C16.7589 22.894 17.1537 23.033 17.4358 23.1324C17.766 23.2488 18 23.7288 18 24.027C18 24.6233 17.1538 25.2197 16.5896 24.9215C16.0254 24.6233 15.7433 23.4307 16.3075 23.1325Z" fill="#272324"/>
<path d="M11.3075 26.1325C11.7589 25.894 12.1537 26.033 12.4358 26.1324C12.766 26.2488 13 26.7288 13 27.027C13 27.6233 12.1538 28.2197 11.5896 27.9215C11.0254 27.6233 10.7433 26.4307 11.3075 26.1325Z" fill="#272324"/>
<path d="M15.3075 29.1325C15.7589 28.894 16.1537 29.033 16.4358 29.1324C16.766 29.2488 17 29.7288 17 30.027C17 30.6233 16.1538 31.2197 15.5896 30.9215C15.0254 30.6233 14.7433 29.4307 15.3075 29.1325Z" fill="#272324"/>
<path d="M20.3075 26.1325C20.7589 25.894 21.1537 26.033 21.4358 26.1324C21.766 26.2488 22 26.7288 22 27.027C22 27.6233 21.1538 28.2197 20.5896 27.9215C20.0254 27.6233 19.7433 26.4307 20.3075 26.1325Z" fill="#272324"/>
<path d="M36.3075 19.1325C36.7589 18.894 37.1537 19.033 37.4358 19.1324C37.766 19.2488 38 19.7288 38 20.027C38 20.6233 37.1538 21.2197 36.5896 20.9215C36.0254 20.6233 35.7433 19.4307 36.3075 19.1325Z" fill="#272324"/>
<path d="M26.3075 26.1325C26.7589 25.894 27.1537 26.033 27.4358 26.1324C27.766 26.2488 28 26.7288 28 27.027C28 27.6233 27.1538 28.2197 26.5896 27.9215C26.0254 27.6233 25.7433 26.4307 26.3075 26.1325Z" fill="#272324"/>
<path d="M26.3075 33.1325C26.7589 32.894 27.1537 33.033 27.4358 33.1324C27.766 33.2488 28 33.7288 28 34.027C28 34.6233 27.1538 35.2197 26.5896 34.9215C26.0254 34.6233 25.7433 33.4307 26.3075 33.1325Z" fill="#272324"/>
<path d="M11.3075 33.1325C11.7589 32.894 12.1537 33.033 12.4358 33.1324C12.766 33.2488 13 33.7288 13 34.027C13 34.6233 12.1538 35.2197 11.5896 34.9215C11.0254 34.6233 10.7433 33.4307 11.3075 33.1325Z" fill="#272324"/>
<path d="M26.3075 39.1325C26.7589 38.894 27.1537 39.033 27.4358 39.1324C27.766 39.2488 28 39.7288 28 40.027C28 40.6233 27.1538 41.2197 26.5896 40.9215C26.0254 40.6233 25.7433 39.4307 26.3075 39.1325Z" fill="#272324"/>
<path d="M38.3075 39.1325C38.7589 38.894 39.1537 39.033 39.4358 39.1324C39.766 39.2488 40 39.7288 40 40.027C40 40.6233 39.1538 41.2197 38.5896 40.9215C38.0254 40.6233 37.7433 39.4307 38.3075 39.1325Z" fill="#272324"/>
<path d="M38.3075 32.1325C38.7589 31.894 39.1537 32.033 39.4358 32.1324C39.766 32.2488 40 32.7288 40 33.027C40 33.6233 39.1538 34.2197 38.5896 33.9215C38.0254 33.6233 37.7433 32.4307 38.3075 32.1325Z" fill="#272324"/>
<path d="M35.1538 32.0667C35.3794 31.9474 35.5769 32.0169 35.7179 32.0666C35.883 32.1248 36 32.3648 36 32.5139C36 32.8121 35.5769 33.1103 35.2948 32.9612C35.0127 32.8121 34.8717 32.2158 35.1538 32.0667Z" fill="#272324"/>
<path d="M35.1538 35.0667C35.3794 34.9474 35.5769 35.0169 35.7179 35.0666C35.883 35.1248 36 35.3648 36 35.5139C36 35.8121 35.5769 36.1103 35.2948 35.9612C35.0127 35.8121 34.8717 35.2158 35.1538 35.0667Z" fill="#272324"/>
<path d="M23.1538 35.0667C23.3794 34.9474 23.5769 35.0169 23.7179 35.0666C23.883 35.1248 24 35.3648 24 35.5139C24 35.8121 23.5769 36.1103 23.2948 35.9612C23.0127 35.8121 22.8717 35.2158 23.1538 35.0667Z" fill="#272324"/>
<path d="M28.1538 35.0667C28.3794 34.9474 28.5769 35.0169 28.7179 35.0666C28.883 35.1248 29 35.3648 29 35.5139C29 35.8121 28.5769 36.1103 28.2948 35.9612C28.0127 35.8121 27.8717 35.2158 28.1538 35.0667Z" fill="#272324"/>
<path d="M38.3075 26.1325C38.7589 25.894 39.1537 26.033 39.4358 26.1324C39.766 26.2488 40 26.7288 40 27.027C40 27.6233 39.1538 28.2197 38.5896 27.9215C38.0254 27.6233 37.7433 26.4307 38.3075 26.1325Z" fill="#272324"/>
<path d="M26.3075 13.1325C26.7589 12.894 27.1537 13.033 27.4358 13.1324C27.766 13.2488 28 13.7288 28 14.027C28 14.6233 27.1538 15.2197 26.5896 14.9215C26.0254 14.6233 25.7433 13.4307 26.3075 13.1325Z" fill="#272324"/>
<path d="M43.3075 13.1325C43.7589 12.894 44.1537 13.033 44.4358 13.1324C44.766 13.2488 45 13.7288 45 14.027C45 14.6233 44.1538 15.2197 43.5896 14.9215C43.0254 14.6233 42.7433 13.4307 43.3075 13.1325Z" fill="#272324"/>
<path d="M43.1538 5.06668C43.3794 4.9474 43.5769 5.01693 43.7179 5.06663C43.883 5.12479 44 5.36481 44 5.5139C44 5.81207 43.5769 6.11025 43.2948 5.96116C43.0127 5.81207 42.8717 5.21576 43.1538 5.06668Z" fill="#272324"/>
<path d="M42.1538 15.0667C42.3794 14.9474 42.5769 15.0169 42.7179 15.0666C42.883 15.1248 43 15.3648 43 15.5139C43 15.8121 42.5769 16.1103 42.2948 15.9612C42.0127 15.8121 41.8717 15.2158 42.1538 15.0667Z" fill="#272324"/>
<path d="M36.1538 12.0667C36.3794 11.9474 36.5769 12.0169 36.7179 12.0666C36.883 12.1248 37 12.3648 37 12.5139C37 12.8121 36.5769 13.1103 36.2948 12.9612C36.0127 12.8121 35.8717 12.2158 36.1538 12.0667Z" fill="#272324"/>
<path d="M43.3075 38.1325C43.7589 37.894 44.1537 38.033 44.4358 38.1324C44.766 38.2488 45 38.7288 45 39.027C45 39.6233 44.1538 40.2197 43.5896 39.9215C43.0254 39.6233 42.7433 38.4307 43.3075 38.1325Z" fill="#272324"/>
<path d="M21.3075 13.1325C21.7589 12.894 22.1537 13.033 22.4358 13.1324C22.766 13.2488 23 13.7288 23 14.027C23 14.6233 22.1538 15.2197 21.5896 14.9215C21.0254 14.6233 20.7433 13.4307 21.3075 13.1325Z" fill="#272324"/>
<path d="M16.4613 13.1984C17.1383 12.8406 17.7306 13.0492 18.1537 13.1982C18.6489 13.3727 19 14.0928 19 14.54C19 15.4346 17.7307 16.3291 16.8844 15.8819C16.0382 15.4346 15.615 13.6457 16.4613 13.1984Z" fill="#272324"/>
<path d="M33.4613 10.1984C34.1383 9.84057 34.7306 10.0492 35.1537 10.1982C35.6489 10.3727 36 11.0928 36 11.54C36 12.4346 34.7307 13.3291 33.8844 12.8819C33.0382 12.4346 32.615 10.6457 33.4613 10.1984Z" fill="#272324"/>
<path d="M36.1032 3.047C36.1712 3.80974 35.7497 4.27516 35.4485 4.60765C35.096 4.99679 34.2962 5.04189 33.8837 4.86883C33.0589 4.5227 32.7251 3.00616 33.465 2.39886C34.2049 1.79156 36.0182 2.09358 36.1032 3.047Z" fill="#272324"/>
<path d="M27.5661 10.5099C27.6341 11.2726 27.2126 11.7381 26.9114 12.0705C26.5588 12.4597 25.759 12.5048 25.3466 12.3317C24.5218 11.9856 24.188 10.469 24.9279 9.86175C25.6678 9.25445 27.4811 9.55647 27.5661 10.5099Z" fill="#272324"/>
<path d="M26.7491 6.43201C26.0185 6.66138 25.4737 6.34905 25.0846 6.12584C24.6291 5.8646 24.4142 5.09291 24.4951 4.65303C24.657 3.77326 26.0672 3.12323 26.8186 3.71628C27.57 4.30933 27.6623 6.1453 26.7491 6.43201Z" fill="#272324"/>
<path d="M26.9694 10.3636C26.6241 10.4721 26.3666 10.3244 26.1826 10.2189C25.9673 10.0954 25.8657 9.73063 25.904 9.52269C25.9805 9.10682 26.6471 8.79953 27.0023 9.07988C27.3575 9.36022 27.4011 10.2281 26.9694 10.3636Z" fill="#272324"/>
<path d="M29.4624 10.3691C29.1777 10.1455 29.1539 9.84967 29.1369 9.63827C29.1171 9.39086 29.3605 9.1008 29.5536 9.0148C29.9399 8.84278 30.5703 9.21889 30.5399 9.67035C30.5095 10.1218 29.8183 10.6485 29.4624 10.3691Z" fill="#272324"/>
<path d="M29.4624 22.6367C29.1777 22.4131 29.1539 22.1172 29.1369 21.9058C29.1171 21.6584 29.3605 21.3684 29.5536 21.2824C29.9399 21.1104 30.5703 21.4865 30.5399 21.9379C30.5095 22.3894 29.8183 22.9161 29.4624 22.6367Z" fill="#272324"/>
<path d="M30.3675 17.5086C30.0632 17.7047 29.7758 17.6306 29.5704 17.5776C29.3301 17.5156 29.1354 17.1908 29.1172 16.9802C29.0808 16.5589 29.6421 16.0859 30.0589 16.262C30.4757 16.4382 30.7478 17.2635 30.3675 17.5086Z" fill="#272324"/>
<path d="M32.3099 13.3387C32.0056 13.5348 31.7182 13.4607 31.5128 13.4077C31.2725 13.3457 31.0778 13.0209 31.0596 12.8102C31.0231 12.389 31.5845 11.916 32.0013 12.0921C32.418 12.2683 32.6902 13.0936 32.3099 13.3387Z" fill="#272324"/>
<path d="M31.8928 16.4077C31.6953 16.535 31.5088 16.4869 31.3755 16.4525C31.2195 16.4123 31.0931 16.2014 31.0813 16.0647C31.0576 15.7912 31.422 15.4842 31.6925 15.5986C31.963 15.7129 32.1397 16.2486 31.8928 16.4077Z" fill="#272324"/>
<path d="M36.8499 16.4077C36.6524 16.535 36.4658 16.4869 36.3325 16.4525C36.1765 16.4123 36.0501 16.2014 36.0383 16.0647C36.0147 15.7912 36.379 15.4842 36.6495 15.5986C36.9201 15.7129 37.0967 16.2486 36.8499 16.4077Z" fill="#272324"/>
<path d="M36.8499 22.8706C36.6524 22.9979 36.4658 22.9498 36.3325 22.9154C36.1765 22.8751 36.0501 22.6643 36.0383 22.5276C36.0147 22.2541 36.379 21.9471 36.6495 22.0615C36.9201 22.1758 37.0967 22.7115 36.8499 22.8706Z" fill="#272324"/>
<path d="M43.4613 10.1984C44.1383 9.84057 44.7306 10.0492 45.1537 10.1982C45.6489 10.3727 46 11.0928 46 11.54C46 12.4346 44.7307 13.3291 43.8844 12.8819C43.0382 12.4346 42.615 10.6457 43.4613 10.1984Z" fill="#272324"/>
<path d="M33.4613 17.1984C34.1383 16.8406 34.7306 17.0492 35.1537 17.1982C35.6489 17.3727 36 18.0928 36 18.54C36 19.4346 34.7307 20.3291 33.8844 19.8819C33.0382 19.4346 32.615 17.6457 33.4613 17.1984Z" fill="#272324"/>
<path d="M44.4613 17.1984C45.1383 16.8406 45.7306 17.0492 46.1537 17.1982C46.6489 17.3727 47 18.0928 47 18.54C47 19.4346 45.7307 20.3291 44.8844 19.8819C44.0382 19.4346 43.615 17.6457 44.4613 17.1984Z" fill="#272324"/>
<path d="M3.4613 17.1984C4.13832 16.8406 4.73058 17.0492 5.15372 17.1982C5.64894 17.3727 6 18.0928 6 18.54C6 19.4346 4.73072 20.3291 3.88444 19.8819C3.03815 19.4346 2.61501 17.6457 3.4613 17.1984Z" fill="#272324"/>
<path d="M32.9262 22.2842C32.8898 21.775 33.1762 21.4697 33.3809 21.2516C33.6205 20.9964 34.1541 20.9757 34.427 21.0959C34.9727 21.3363 35.1774 22.3511 34.677 22.7472C34.1767 23.1433 32.9716 22.9207 32.9262 22.2842Z" fill="#272324"/>
<path d="M24.2445 22.2842C24.2082 21.775 24.4946 21.4697 24.6993 21.2516C24.9388 20.9964 25.4725 20.9757 25.7453 21.0959C26.2911 21.3363 26.4957 22.3511 25.9954 22.7472C25.4951 23.1433 24.2899 22.9207 24.2445 22.2842Z" fill="#272324"/>
<path d="M24.2445 39.6026C24.2082 39.0933 24.4946 38.7881 24.6993 38.57C24.9388 38.3147 25.4725 38.2941 25.7453 38.4143C26.2911 38.6547 26.4957 39.6695 25.9954 40.0656C25.4951 40.4617 24.2899 40.2391 24.2445 39.6026Z" fill="#272324"/>
<path d="M31.2445 39.6026C31.2082 39.0933 31.4946 38.7881 31.6993 38.57C31.9388 38.3147 32.4725 38.2941 32.7453 38.4143C33.2911 38.6547 33.4957 39.6695 32.9954 40.0656C32.4951 40.4617 31.2899 40.2391 31.2445 39.6026Z" fill="#272324"/>
<path d="M32.0484 43.8056C31.6907 43.6722 31.572 43.3825 31.4872 43.1755C31.388 42.9333 31.5397 42.5638 31.7063 42.4155C32.0394 42.119 32.7932 42.295 32.9073 42.7584C33.0213 43.2218 32.4955 43.9724 32.0484 43.8056Z" fill="#272324"/>
<path d="M33.3075 6.13253C33.7589 5.89399 34.1537 6.03304 34.4358 6.13244C34.766 6.24876 35 6.72879 35 7.02697C35 7.62333 34.1538 8.21969 33.5896 7.92151C33.0254 7.62333 32.7433 6.43071 33.3075 6.13253Z" fill="#272324"/>
<path d="M37.3075 9.13253C37.7589 8.89399 38.1537 9.03304 38.4358 9.13244C38.766 9.24876 39 9.72879 39 10.027C39 10.6233 38.1538 11.2197 37.5896 10.9215C37.0254 10.6233 36.7433 9.43071 37.3075 9.13253Z" fill="#272324"/>
<path d="M37.1538 7.06668C37.3794 6.9474 37.5769 7.01693 37.7179 7.06663C37.883 7.12479 38 7.36481 38 7.5139C38 7.81207 37.5769 8.11025 37.2948 7.96116C37.0127 7.81207 36.8717 7.21576 37.1538 7.06668Z" fill="#272324"/>
<path d="M16.1538 20.0667C16.3794 19.9474 16.5769 20.0169 16.7179 20.0666C16.883 20.1248 17 20.3648 17 20.5139C17 20.8121 16.5769 21.1103 16.2948 20.9612C16.0127 20.8121 15.8717 20.2158 16.1538 20.0667Z" fill="#272324"/>
<path d="M19.1538 17.0667C19.3794 16.9474 19.5769 17.0169 19.7179 17.0666C19.883 17.1248 20 17.3648 20 17.5139C20 17.8121 19.5769 18.1103 19.2948 17.9612C19.0127 17.8121 18.8717 17.2158 19.1538 17.0667Z" fill="#272324"/>
<path d="M19.4613 21.1984C20.1383 20.8406 20.7306 21.0492 21.1537 21.1982C21.6489 21.3727 22 22.0928 22 22.54C22 23.4346 20.7307 24.3291 19.8844 23.8819C19.0382 23.4346 18.615 21.6457 19.4613 21.1984Z" fill="#272324"/>
<path d="M19.4613 36.1984C20.1383 35.8406 20.7306 36.0492 21.1537 36.1982C21.6489 36.3727 22 37.0928 22 37.5401C22 38.4346 20.7307 39.3291 19.8844 38.8819C19.0382 38.4346 18.615 36.6457 19.4613 36.1984Z" fill="#272324"/>
<path d="M23.4613 43.1984C24.1383 42.8406 24.7306 43.0492 25.1537 43.1982C25.6489 43.3727 26 44.0928 26 44.5401C26 45.4346 24.7307 46.3291 23.8844 45.8819C23.0382 45.4346 22.615 43.6457 23.4613 43.1984Z" fill="#272324"/>
<path d="M4.4613 43.1984C5.13832 42.8406 5.73058 43.0492 6.15372 43.1982C6.64894 43.3727 7 44.0928 7 44.5401C7 45.4346 5.73072 46.3291 4.88444 45.8819C4.03815 45.4346 3.61501 43.6457 4.4613 43.1984Z" fill="#272324"/>
<path d="M4.30753 22.1325C4.75888 21.894 5.15372 22.033 5.43581 22.1324C5.76596 22.2488 6 22.7288 6 23.027C6 23.6233 5.15381 24.2197 4.58962 23.9215C4.02544 23.6233 3.74334 22.4307 4.30753 22.1325Z" fill="#272324"/>
<path d="M3.75062 28.8871C3.81081 27.6122 4.61204 26.939 5.18458 26.458C5.85465 25.8952 7.18553 26.0015 7.82743 26.3806C9.11123 27.1386 9.31943 29.7182 7.96039 30.5538C6.60135 31.3893 3.67537 30.4806 3.75062 28.8871Z" fill="#272324"/>
<path d="M19.0408 30.0302C19.0784 29.235 19.5781 28.8151 19.9353 28.5151C20.3532 28.164 21.1834 28.2303 21.5838 28.4667C22.3845 28.9396 22.5144 30.5486 21.6667 31.0698C20.819 31.591 18.9939 31.0242 19.0408 30.0302Z" fill="#272324"/>
<path d="M22.0879 33.253C21.6595 33.0867 21.5213 32.7362 21.4225 32.4857C21.307 32.1926 21.4955 31.7503 21.6983 31.5745C22.1039 31.2228 23.0085 31.4467 23.1384 32.0063C23.2682 32.5658 22.6234 33.4609 22.0879 33.253Z" fill="#272324"/>
<path d="M4.15015 31.22C4.59263 30.9439 5.00514 31.0567 5.29986 31.1374C5.64479 31.2318 5.91837 31.7038 5.94017 32.0077C5.98378 32.6153 5.16512 33.2849 4.56841 33.0223C3.9717 32.7597 3.59705 31.5651 4.15015 31.22Z" fill="#272324"/>
<path d="M4.15015 41.259C4.59263 40.983 5.00514 41.0958 5.29986 41.1764C5.64479 41.2708 5.91837 41.7429 5.94017 42.0467C5.98378 42.6544 5.16512 43.324 4.56841 43.0614C3.9717 42.7988 3.59705 41.6041 4.15015 41.259Z" fill="#272324"/>
<path d="M17.0542 41.491C17.2437 41.9768 17.0566 42.3614 16.9229 42.6362C16.7664 42.9577 16.252 43.1394 15.9493 43.1047C15.344 43.0352 14.8373 42.107 15.2056 41.569C15.5739 41.0311 16.8172 40.8836 17.0542 41.491Z" fill="#272324"/>
<path d="M15.5645 38.9489C15.9039 39.819 15.5689 40.5076 15.3294 40.9996C15.0492 41.5755 14.1279 41.9008 13.5859 41.8386C12.502 41.7143 11.5944 40.052 12.254 39.0887C12.9136 38.1254 15.1401 37.8612 15.5645 38.9489Z" fill="#272324"/>
<path d="M34.4613 36.1984C35.1383 35.8406 35.7306 36.0492 36.1537 36.1982C36.6489 36.3727 37 37.0928 37 37.5401C37 38.4346 35.7307 39.3291 34.8844 38.8819C34.0382 38.4346 33.615 36.6457 34.4613 36.1984Z" fill="#272324"/>
<path d="M40.4613 21.1984C41.1383 20.8406 41.7306 21.0492 42.1537 21.1982C42.6489 21.3727 43 22.0928 43 22.54C43 23.4346 41.7307 24.3291 40.8844 23.8819C40.0382 23.4346 39.615 21.6457 40.4613 21.1984Z" fill="#272324"/>
<path d="M31.4613 21.1984C32.1383 20.8406 32.7306 21.0492 33.1537 21.1982C33.6489 21.3727 34 22.0928 34 22.54C34 23.4346 32.7307 24.3291 31.8844 23.8819C31.0382 23.4346 30.615 21.6457 31.4613 21.1984Z" fill="#272324"/>
<path d="M31.4613 28.1984C32.1383 27.8406 32.7306 28.0492 33.1537 28.1982C33.6489 28.3727 34 29.0928 34 29.54C34 30.4346 32.7307 31.3291 31.8844 30.8819C31.0382 30.4346 30.615 28.6457 31.4613 28.1984Z" fill="#272324"/>
<path d="M32.92 29.2598C32.8954 28.7499 33.1887 28.4513 33.3983 28.2379C33.6437 27.9882 34.1777 27.9798 34.4477 28.1063C34.9878 28.3591 35.1691 29.3783 34.6598 29.7629C34.1506 30.1474 32.9508 29.8972 32.92 29.2598Z" fill="#272324"/>
<path d="M43.0773 30.3676C42.8075 29.6509 43.0888 29.0896 43.2899 28.6885C43.5253 28.2192 44.2838 27.9614 44.7275 28.0176C45.6149 28.1301 46.3428 29.5018 45.7927 30.2851C45.2426 31.0684 43.4147 31.2634 43.0773 30.3676Z" fill="#272324"/>
<path d="M21.3075 19.1325C21.7589 18.894 22.1537 19.033 22.4358 19.1324C22.766 19.2488 23 19.7288 23 20.027C23 20.6233 22.1538 21.2197 21.5896 20.9215C21.0254 20.6233 20.7433 19.4307 21.3075 19.1325Z" fill="#272324"/>
<path d="M23.1538 16.0667C23.3794 15.9474 23.5769 16.0169 23.7179 16.0666C23.883 16.1248 24 16.3648 24 16.5139C24 16.8121 23.5769 17.1103 23.2948 16.9612C23.0127 16.8121 22.8717 16.2158 23.1538 16.0667Z" fill="#272324"/>
<path d="M21.8462 16.0667C21.6206 15.9474 21.4231 16.0169 21.2821 16.0666C21.117 16.1248 21 16.3648 21 16.5139C21 16.8121 21.4231 17.1103 21.7052 16.9612C21.9873 16.8121 22.1283 16.2158 21.8462 16.0667Z" fill="#272324"/>
<path d="M20.8462 20.0667C20.6206 19.9474 20.4231 20.0169 20.2821 20.0666C20.117 20.1248 20 20.3648 20 20.5139C20 20.8121 20.4231 21.1103 20.7052 20.9612C20.9873 20.8121 21.1283 20.2158 20.8462 20.0667Z" fill="#272324"/>
<path d="M20.8462 34.0667C20.6206 33.9474 20.4231 34.0169 20.2821 34.0666C20.117 34.1248 20 34.3648 20 34.5139C20 34.8121 20.4231 35.1103 20.7052 34.9612C20.9873 34.8121 21.1283 34.2158 20.8462 34.0667Z" fill="#272324"/>
<path d="M7.84623 34.0667C7.62056 33.9474 7.42314 34.0169 7.28209 34.0666C7.11702 34.1248 7 34.3648 7 34.5139C7 34.8121 7.42309 35.1103 7.70519 34.9612C7.98728 34.8121 8.12833 34.2158 7.84623 34.0667Z" fill="#272324"/>
<path d="M7.84623 40.0667C7.62056 39.9474 7.42314 40.0169 7.28209 40.0666C7.11702 40.1248 7 40.3648 7 40.5139C7 40.8121 7.42309 41.1103 7.70519 40.9612C7.98728 40.8121 8.12833 40.2158 7.84623 40.0667Z" fill="#272324"/>
<path d="M26.1538 16.0667C26.3794 15.9474 26.5769 16.0169 26.7179 16.0666C26.883 16.1248 27 16.3648 27 16.5139C27 16.8121 26.5769 17.1103 26.2948 16.9612C26.0127 16.8121 25.8717 16.2158 26.1538 16.0667Z" fill="#272324"/>
<path d="M26.1538 22.0667C26.3794 21.9474 26.5769 22.0169 26.7179 22.0666C26.883 22.1248 27 22.3648 27 22.5139C27 22.8121 26.5769 23.1103 26.2948 22.9612C26.0127 22.8121 25.8717 22.2158 26.1538 22.0667Z" fill="#272324"/>
<path d="M38.1538 22.0667C38.3794 21.9474 38.5769 22.0169 38.7179 22.0666C38.883 22.1248 39 22.3648 39 22.5139C39 22.8121 38.5769 23.1103 38.2948 22.9612C38.0127 22.8121 37.8717 22.2158 38.1538 22.0667Z" fill="#272324"/>
<path d="M23.1538 22.0667C23.3794 21.9474 23.5769 22.0169 23.7179 22.0666C23.883 22.1248 24 22.3648 24 22.5139C24 22.8121 23.5769 23.1103 23.2948 22.9612C23.0127 22.8121 22.8717 22.2158 23.1538 22.0667Z" fill="#272324"/>
<path d="M23.1538 37.0667C23.3794 36.9474 23.5769 37.0169 23.7179 37.0666C23.883 37.1248 24 37.3648 24 37.5139C24 37.8121 23.5769 38.1103 23.2948 37.9612C23.0127 37.8121 22.8717 37.2158 23.1538 37.0667Z" fill="#272324"/>
<path d="M43.1538 22.0667C43.3794 21.9474 43.5769 22.0169 43.7179 22.0666C43.883 22.1248 44 22.3648 44 22.5139C44 22.8121 43.5769 23.1103 43.2948 22.9612C43.0127 22.8121 42.8717 22.2158 43.1538 22.0667Z" fill="#272324"/>
<path d="M23.1538 26.0667C23.3794 25.9474 23.5769 26.0169 23.7179 26.0666C23.883 26.1248 24 26.3648 24 26.5139C24 26.8121 23.5769 27.1103 23.2948 26.9612C23.0127 26.8121 22.8717 26.2158 23.1538 26.0667Z" fill="#272324"/>
<path d="M23.1538 42.0667C23.3794 41.9474 23.5769 42.0169 23.7179 42.0666C23.883 42.1248 24 42.3648 24 42.5139C24 42.8121 23.5769 43.1103 23.2948 42.9612C23.0127 42.8121 22.8717 42.2158 23.1538 42.0667Z" fill="#272324"/>
<path d="M41.1538 42.0667C41.3794 41.9474 41.5769 42.0169 41.7179 42.0666C41.883 42.1248 42 42.3648 42 42.5139C42 42.8121 41.5769 43.1103 41.2948 42.9612C41.0127 42.8121 40.8717 42.2158 41.1538 42.0667Z" fill="#272324"/>
<path d="M29.1538 26.0667C29.3794 25.9474 29.5769 26.0169 29.7179 26.0666C29.883 26.1248 30 26.3648 30 26.5139C30 26.8121 29.5769 27.1103 29.2948 26.9612C29.0127 26.8121 28.8717 26.2158 29.1538 26.0667Z" fill="#272324"/>
<path d="M29.1538 39.0667C29.3794 38.9474 29.5769 39.0169 29.7179 39.0666C29.883 39.1248 30 39.3648 30 39.5139C30 39.8121 29.5769 40.1103 29.2948 39.9612C29.0127 39.8121 28.8717 39.2158 29.1538 39.0667Z" fill="#272324"/>
<path d="M29.1538 29.0667C29.3794 28.9474 29.5769 29.0169 29.7179 29.0666C29.883 29.1248 30 29.3648 30 29.5139C30 29.8121 29.5769 30.1103 29.2948 29.9612C29.0127 29.8121 28.8717 29.2158 29.1538 29.0667Z" fill="#272324"/>
<path d="M42.1538 39.0667C42.3794 38.9474 42.5769 39.0169 42.7179 39.0666C42.883 39.1248 43 39.3648 43 39.5139C43 39.8121 42.5769 40.1103 42.2948 39.9612C42.0127 39.8121 41.8717 39.2158 42.1538 39.0667Z" fill="#272324"/>
<path d="M36.1538 39.0667C36.3794 38.9474 36.5769 39.0169 36.7179 39.0666C36.883 39.1248 37 39.3648 37 39.5139C37 39.8121 36.5769 40.1103 36.2948 39.9612C36.0127 39.8121 35.8717 39.2158 36.1538 39.0667Z" fill="#272324"/>
<path d="M42.1538 25.0667C42.3794 24.9474 42.5769 25.0169 42.7179 25.0666C42.883 25.1248 43 25.3648 43 25.5139C43 25.8121 42.5769 26.1103 42.2948 25.9612C42.0127 25.8121 41.8717 25.2158 42.1538 25.0667Z" fill="#272324"/>
<path d="M37.1538 26.0667C37.3794 25.9474 37.5769 26.0169 37.7179 26.0666C37.883 26.1248 38 26.3648 38 26.5139C38 26.8121 37.5769 27.1103 37.2948 26.9612C37.0127 26.8121 36.8717 26.2158 37.1538 26.0667Z" fill="#272324"/>
<path d="M39.1538 19.0667C39.3794 18.9474 39.5769 19.0169 39.7179 19.0666C39.883 19.1248 40 19.3648 40 19.5139C40 19.8121 39.5769 20.1103 39.2948 19.9612C39.0127 19.8121 38.8717 19.2158 39.1538 19.0667Z" fill="#272324"/>
<path d="M14.1538 26.0667C14.3794 25.9474 14.5769 26.0169 14.7179 26.0666C14.883 26.1248 15 26.3648 15 26.5139C15 26.8121 14.5769 27.1103 14.2948 26.9612C14.0127 26.8121 13.8717 26.2158 14.1538 26.0667Z" fill="#272324"/>
<path d="M14.1538 35.0667C14.3794 34.9474 14.5769 35.0169 14.7179 35.0666C14.883 35.1248 15 35.3648 15 35.5139C15 35.8121 14.5769 36.1103 14.2948 35.9612C14.0127 35.8121 13.8717 35.2158 14.1538 35.0667Z" fill="#272324"/>
<path d="M14.1538 43.0667C14.3794 42.9474 14.5769 43.0169 14.7179 43.0666C14.883 43.1248 15 43.3648 15 43.5139C15 43.8121 14.5769 44.1103 14.2948 43.9612C14.0127 43.8121 13.8717 43.2158 14.1538 43.0667Z" fill="#272324"/>
<path d="M8.15377 43.0667C8.37944 42.9474 8.57686 43.0169 8.71791 43.0666C8.88298 43.1248 9 43.3648 9 43.5139C9 43.8121 8.57691 44.1103 8.29481 43.9612C8.01272 43.8121 7.87167 43.2158 8.15377 43.0667Z" fill="#272324"/>
<path d="M8.15377 30.0667C8.37944 29.9474 8.57686 30.0169 8.71791 30.0666C8.88298 30.1248 9 30.3648 9 30.5139C9 30.8121 8.57691 31.1103 8.29481 30.9612C8.01272 30.8121 7.87167 30.2158 8.15377 30.0667Z" fill="#272324"/>
<path d="M8.15377 23.0667C8.37944 22.9474 8.57686 23.0169 8.71791 23.0666C8.88298 23.1248 9 23.3648 9 23.5139C9 23.8121 8.57691 24.1103 8.29481 23.9612C8.01272 23.8121 7.87167 23.2158 8.15377 23.0667Z" fill="#272324"/>
<path d="M10.1538 35.0667C10.3794 34.9474 10.5769 35.0169 10.7179 35.0666C10.883 35.1248 11 35.3648 11 35.5139C11 35.8121 10.5769 36.1103 10.2948 35.9612C10.0127 35.8121 9.87167 35.2158 10.1538 35.0667Z" fill="#272324"/>
<path d="M14.1538 18.0667C14.3794 17.9474 14.5769 18.0169 14.7179 18.0666C14.883 18.1248 15 18.3648 15 18.5139C15 18.8121 14.5769 19.1103 14.2948 18.9612C14.0127 18.8121 13.8717 18.2158 14.1538 18.0667Z" fill="#272324"/>
<path d="M10.1538 18.0667C10.3794 17.9474 10.5769 18.0169 10.7179 18.0666C10.883 18.1248 11 18.3648 11 18.5139C11 18.8121 10.5769 19.1103 10.2948 18.9612C10.0127 18.8121 9.87167 18.2158 10.1538 18.0667Z" fill="#272324"/>
<path d="M10.1538 22.0667C10.3794 21.9474 10.5769 22.0169 10.7179 22.0666C10.883 22.1248 11 22.3648 11 22.5139C11 22.8121 10.5769 23.1103 10.2948 22.9612C10.0127 22.8121 9.87167 22.2158 10.1538 22.0667Z" fill="#272324"/>
<path d="M36.6744 2.81089C36.7346 1.53604 37.5359 0.862812 38.1084 0.381877C38.7785 -0.180987 40.1094 -0.0746378 40.7513 0.304379C42.0351 1.06241 42.2433 3.64207 40.8842 4.4776C39.5252 5.31313 36.5992 4.40446 36.6744 2.81089Z" fill="#272324"/>
<path d="M17.3762 3.06105C16.5374 3.01996 16.0954 2.49198 15.7796 2.1147C15.41 1.67316 15.4816 0.797589 15.7317 0.37567C16.232 -0.46817 17.9296 -0.602173 18.4778 0.293023C19.0259 1.18822 18.4247 3.1124 17.3762 3.06105Z" fill="#272324"/>
<path d="M36.6074 45.86C36.6616 44.7119 37.3833 44.1055 37.8989 43.6724C38.5024 43.1654 39.7011 43.2612 40.2792 43.6026C41.4354 44.2853 41.623 46.6086 40.3989 47.3611C39.1749 48.1137 36.5397 47.2953 36.6074 45.86Z" fill="#272324"/>
</g>
<defs>
<clipPath id="clip0">
<rect width="48" height="48" fill="white"/>
</clipPath>
</defs>
</svg>
