<svg width="48" height="48" viewBox="0 0 48 48" fill="none" xmlns="http://www.w3.org/2000/svg">
<g clip-path="url(#clip0)">
<rect x="0.65" y="0.65" width="46.7" height="46.7" stroke="#272324" stroke-width="1.3"/>
<path d="M10.5 30.0006C11.1419 30.3216 12.0414 30.797 13 31.3444C15.0281 32.5023 17.321 33.9819 18 35.0005M10.5 30.0006C12 29.1809 15 25 16 23.5C16.8 22.3 18.3333 20.4917 19 19.7376M10.5 30.0006C8.83333 30.1671 5.1 30.9 3.5 32.5C1.9 34.1 0.833333 35.8333 0.5 36.5M18 35.0005C19 36.5005 22 38.0005 21.5 42.0005C21.1 45.2005 18.3333 47.0005 17 47.5005M18 35.0005C18.6667 35.3339 20.4 35.8006 22 35.0005C24 34.0003 26 33 27 32.5C27.5275 32.2362 28.1942 32.2508 29 31.9564M16.5 16.7529C15.4642 16.2045 14.2321 15.8525 13 15.5005C9.66667 15.1579 2.5 13.7783 0.5 11M16.5 16.7529C17.6667 16.1687 20.1 14.3005 20.5 11.5005C20.6842 10.211 20.8006 9.26083 20.799 8.5M16.5 16.7529C17.6954 17.3857 18.6293 18.28 19 19.7376M13 0.732422C16 0.964368 18 4.00048 19.5 5.50048C20.4474 6.44783 20.7964 7.19575 20.799 8.5M19 19.7376C19.8333 19.4921 22.3 19.3009 25.5 20.5005C28.7 21.7001 30.8333 22.667 31.5 23.0005C31.8247 23.2438 32.3785 23.5108 33 23.536M20.799 8.5C23 8 25.5 8.5 27 8.5C30.353 8.5 33 7.52715 33 7.52715M33 7.52715C33.8196 8.03896 34.5146 8.69093 35 9.5C35.4484 10.2473 35.8074 10.9052 36.0637 11.5005M33 7.52715C32.6667 6.85143 32.3 5.2 33.5 4C35 2.5 37.5 0.732422 38 0.732422M36.0637 11.5005C36.6649 12.8967 36.7011 13.9484 36 15C35.1542 16.2687 36.0969 19.3264 35.5 21.449M36.0637 11.5005C36.2091 11.8337 37 12.5 39 12.5C41.5 12.5 47.5 13.5 47.5 11M35.5 21.449C35.3912 21.8359 35.2313 22.1917 35 22.5C34.3844 23.3206 33.6547 23.5625 33 23.536M35.5 21.449C36 21.966 37.4 23.1 39 23.5C41 24 42 26 43.5 26.5C44.7 26.9 46.6667 27 47.5 27C46.1667 27.6667 43 29.3 41 30.5C39 31.7 37.7455 34.6671 37.3683 36.0006M33 23.536C33.1667 24.8577 33.1 28.0011 31.5 30.0006C30.5551 31.1815 29.7217 31.6928 29 31.9564M29 31.9564C30.1667 31.6376 33 31.6 35 34C35.7256 34.8707 36.5353 35.4887 37.3683 36.0006M44 47.5005C44.3333 46.0003 44.6 42.4 43 40C41.5804 37.8707 39.4052 37.2527 37.3683 36.0006" stroke="#272324" stroke-width="1.3" stroke-linecap="round"/>
</g>
<defs>
<clipPath id="clip0">
<rect width="48" height="48" fill="white"/>
</clipPath>
</defs>
</svg>
